<svg width="45" height="40" viewBox="0 0 45 40" fill="none" xmlns="http://www.w3.org/2000/svg">
<ellipse cx="24.7432" cy="19.7279" rx="20.1299" ry="19.7279" fill="#8BBD3F"/>
<g clip-path="url(#clip0_803_6017)">
<path d="M13.501 30.4902C13.501 30.6938 13.4371 30.8928 13.3173 31.0621C13.1975 31.2313 13.0272 31.3632 12.8279 31.4411C12.6287 31.5191 12.4095 31.5394 12.198 31.4997C11.9864 31.46 11.7922 31.362 11.6397 31.218C11.4872 31.0741 11.3833 30.8907 11.3413 30.691C11.2992 30.4914 11.3208 30.2844 11.4033 30.0963C11.4858 29.9083 11.6256 29.7475 11.8049 29.6344C11.9842 29.5213 12.195 29.4609 12.4107 29.4609C12.6999 29.4609 12.9772 29.5694 13.1817 29.7624C13.3862 29.9554 13.501 30.2172 13.501 30.4902Z" stroke="white" stroke-width="3" stroke-linecap="round" stroke-linejoin="round"/>
<path d="M25.4971 30.4902C25.4971 30.6938 25.4332 30.8928 25.3134 31.0621C25.1936 31.2313 25.0233 31.3632 24.824 31.4411C24.6248 31.5191 24.4056 31.5394 24.1941 31.4997C23.9825 31.46 23.7883 31.362 23.6358 31.218C23.4833 31.0741 23.3794 30.8907 23.3374 30.691C23.2953 30.4914 23.3169 30.2844 23.3994 30.0963C23.4819 29.9083 23.6217 29.7475 23.801 29.6344C23.9803 29.5213 24.1911 29.4609 24.4068 29.4609C24.696 29.4609 24.9733 29.5694 25.1778 29.7624C25.3823 29.9554 25.4971 30.2172 25.4971 30.4902Z" stroke="white" stroke-width="3" stroke-linecap="round" stroke-linejoin="round"/>
<path d="M3.6875 9.90625H8.04897L10.9712 23.6883C11.0709 24.1622 11.344 24.5879 11.7426 24.8908C12.1413 25.1938 12.6402 25.3547 13.1519 25.3455H23.7503C24.262 25.3547 24.7608 25.1938 25.1595 24.8908C25.5582 24.5879 25.8313 24.1622 25.931 23.6883L27.6756 15.0527H9.13934" stroke="white" stroke-width="3" stroke-linecap="round" stroke-linejoin="round"/>
</g>
<defs>
<clipPath id="clip0_803_6017">
<rect width="29.1883" height="26.6327" fill="white" transform="translate(0.585938 7.89062)"/>
</clipPath>
</defs>
</svg>
