<svg width="221" height="62" viewBox="0 0 221 62" fill="none" xmlns="http://www.w3.org/2000/svg">
<path d="M131.36 13.368V19.828H122.962V33.1967C122.962 36.6062 124.642 37.952 128.09 37.952C129.15 37.952 130.565 37.6828 131.626 37.0548V43.5148C130.388 44.5018 127.913 45.0401 125.703 45.0401C118.631 45.0401 115.006 41.182 115.006 34.9014V19.9178H110.852V18.213L120.576 6.72852H122.962V13.5474H131.36V13.368Z" fill="white"/>
<path d="M106.877 21.7125C104.578 20.0078 101.661 19.3797 99.4512 19.3797C96.2688 19.3797 94.766 20.3667 94.766 22.0714C94.766 23.3275 95.2964 23.9556 97.6832 24.8528L102.545 26.9164C107.054 28.7109 109.44 30.9539 109.44 35.5298C109.44 41.8104 104.578 45.5787 97.1528 45.5787C93.7052 45.5787 89.6388 44.6815 87.6056 42.7973V35.6195C91.0532 38.1318 94.4124 38.8495 97.1528 38.8495C100.158 38.8495 101.661 37.8626 101.661 36.0681C101.661 34.7223 100.866 34.184 98.5672 33.2867L93.5284 31.3128C89.462 29.6978 86.8984 27.365 86.8984 22.6097C86.8984 16.7778 91.7604 12.7402 99.9816 12.7402C103.164 12.7402 106.523 13.5477 108.468 15.073L106.877 21.7125Z" fill="white"/>
<path d="M167.163 29.0702C167.163 38.4911 161.064 45.7586 150.632 45.7586C140.201 45.7586 134.102 38.4911 134.102 29.0702C134.102 19.7391 140.201 12.4715 150.632 12.4715C161.064 12.3818 167.163 19.7391 167.163 29.0702ZM142.058 29.0702C142.058 34.2741 144.975 38.7603 150.632 38.7603C156.29 38.7603 159.207 34.1844 159.207 29.0702C159.207 23.956 156.29 19.3802 150.632 19.3802C144.975 19.3802 142.058 23.8663 142.058 29.0702Z" fill="white"/>
<path d="M185.373 21.3539C181.66 21.3539 179.097 23.3278 179.097 29.1597V44.6817H171.141V13.3685H178.655L178.743 20.1875C180.069 16.0602 182.633 12.9199 187.053 12.9199C188.467 12.9199 189.881 13.4583 190.765 14.3555L189.263 22.3408C188.113 21.7127 186.699 21.3539 185.373 21.3539Z" fill="white"/>
<path d="M209.773 45.4888C197.662 45.4888 191.562 38.4904 191.562 28.8901C191.562 20.0973 197.22 12.5605 207.209 12.5605C215.872 12.5605 221 19.7384 221 28.1723C221 29.3387 220.911 30.864 220.734 31.8509H199.784C200.756 36.2473 204.292 38.6698 210.657 38.6698C214.104 38.6698 217.552 37.5932 219.585 36.1576V43.156C217.375 44.6813 213.132 45.4888 209.773 45.4888ZM206.856 19.2897C202.878 19.2897 200.314 21.9814 199.607 26.2881H213.22C212.778 22.0711 210.48 19.2897 206.856 19.2897Z" fill="white"/>
<path d="M25.5476 44.6816H18.122L18.0336 39.4777C16.6192 43.0666 13.9672 45.22 9.9008 45.22C3.8012 45.22 0 40.9133 0 35.8888C0 27.2754 7.514 26.1988 13.702 25.6604L17.7684 25.3015V24.5837C17.7684 21.4435 14.7628 19.7387 10.4312 19.7387C7.1604 19.7387 4.0664 20.6359 1.0608 22.251L2.9172 14.8937C5.9228 13.3684 9.1936 12.8301 12.1992 12.8301C19.3596 12.8301 25.5476 16.2395 25.5476 24.3146V44.6816ZM12.4644 38.8497C15.2932 38.8497 17.7684 36.5169 17.7684 32.6588V30.5054L13.4368 30.9541C9.724 31.3129 7.956 32.3896 7.956 34.9916C7.956 37.1449 9.282 38.8497 12.4644 38.8497Z" fill="white"/>
<path d="M48.0893 12.7402C56.7525 12.7402 62.2333 19.8283 62.2333 29.0698C62.2333 38.3112 56.7525 45.3993 48.0009 45.3993C43.4041 45.3993 39.7797 43.1562 37.7465 39.657V54.9996H29.8789V13.3683H37.5697L37.6581 18.7517C39.6029 15.1627 43.2273 12.7402 48.0893 12.7402ZM54.1889 29.0698C54.1889 23.8658 51.2717 19.6489 45.8793 19.6489C40.4869 19.6489 37.6581 23.9556 37.6581 29.0698C37.6581 34.2737 40.4869 38.4906 45.8793 38.4906C51.3601 38.4906 54.1889 34.2737 54.1889 29.0698Z" fill="white"/>
<path d="M75.9379 33.1972V25.9297H68.0703V34.9917C68.0703 41.2723 71.6063 45.1303 78.7667 45.1303C80.8883 45.1303 83.4519 44.592 84.6895 43.6051V37.145C83.6287 37.6834 82.2143 38.0422 81.1535 38.0422C77.6175 38.0422 75.9379 36.6067 75.9379 33.1972Z" fill="white"/>
<path d="M81.8592 6.37031H76.0248V0H68.0688V6.37031H62.2344V13.3687H68.0688V19.9184H76.0248V13.3687H81.8592V6.37031Z" fill="white"/>
<path d="M88.1406 56.2871H89.2656C89.207 56.8262 89.0527 57.3086 88.8027 57.7344C88.5527 58.1602 88.1992 58.498 87.7422 58.748C87.2852 58.9941 86.7148 59.1172 86.0312 59.1172C85.5312 59.1172 85.0762 59.0234 84.666 58.8359C84.2598 58.6484 83.9102 58.3828 83.6172 58.0391C83.3242 57.6914 83.0977 57.2754 82.9375 56.791C82.7812 56.3027 82.7031 55.7598 82.7031 55.1621V54.3125C82.7031 53.7148 82.7812 53.1738 82.9375 52.6895C83.0977 52.2012 83.3262 51.7832 83.623 51.4355C83.9238 51.0879 84.2852 50.8203 84.707 50.6328C85.1289 50.4453 85.6035 50.3516 86.1309 50.3516C86.7754 50.3516 87.3203 50.4727 87.7656 50.7148C88.2109 50.957 88.5566 51.293 88.8027 51.7227C89.0527 52.1484 89.207 52.6426 89.2656 53.2051H88.1406C88.0859 52.8066 87.9844 52.4648 87.8359 52.1797C87.6875 51.8906 87.4766 51.668 87.2031 51.5117C86.9297 51.3555 86.5723 51.2773 86.1309 51.2773C85.752 51.2773 85.418 51.3496 85.1289 51.4941C84.8438 51.6387 84.6035 51.8438 84.4082 52.1094C84.2168 52.375 84.0723 52.6934 83.9746 53.0645C83.877 53.4355 83.8281 53.8477 83.8281 54.3008V55.1621C83.8281 55.5801 83.8711 55.9727 83.957 56.3398C84.0469 56.707 84.1816 57.0293 84.3613 57.3066C84.541 57.584 84.7695 57.8027 85.0469 57.9629C85.3242 58.1191 85.6523 58.1973 86.0312 58.1973C86.5117 58.1973 86.8945 58.1211 87.1797 57.9688C87.4648 57.8164 87.6797 57.5977 87.8242 57.3125C87.9727 57.0273 88.0781 56.6855 88.1406 56.2871ZM93.2734 59.1172C92.832 59.1172 92.4316 59.043 92.0723 58.8945C91.7168 58.7422 91.4102 58.5293 91.1523 58.2559C90.8984 57.9824 90.7031 57.6582 90.5664 57.2832C90.4297 56.9082 90.3613 56.498 90.3613 56.0527V55.8066C90.3613 55.291 90.4375 54.832 90.5898 54.4297C90.7422 54.0234 90.9492 53.6797 91.2109 53.3984C91.4727 53.1172 91.7695 52.9043 92.1016 52.7598C92.4336 52.6152 92.7773 52.543 93.1328 52.543C93.5859 52.543 93.9766 52.6211 94.3047 52.7773C94.6367 52.9336 94.9082 53.1523 95.1191 53.4336C95.3301 53.7109 95.4863 54.0391 95.5879 54.418C95.6895 54.793 95.7402 55.2031 95.7402 55.6484V56.1348H91.0059V55.25H94.6562V55.168C94.6406 54.8867 94.582 54.6133 94.4805 54.3477C94.3828 54.082 94.2266 53.8633 94.0117 53.6914C93.7969 53.5195 93.5039 53.4336 93.1328 53.4336C92.8867 53.4336 92.6602 53.4863 92.4531 53.5918C92.2461 53.6934 92.0684 53.8457 91.9199 54.0488C91.7715 54.252 91.6562 54.5 91.5742 54.793C91.4922 55.0859 91.4512 55.4238 91.4512 55.8066V56.0527C91.4512 56.3535 91.4922 56.6367 91.5742 56.9023C91.6602 57.1641 91.7832 57.3945 91.9434 57.5938C92.1074 57.793 92.3047 57.9492 92.5352 58.0625C92.7695 58.1758 93.0352 58.2324 93.332 58.2324C93.7148 58.2324 94.0391 58.1543 94.3047 57.998C94.5703 57.8418 94.8027 57.6328 95.002 57.3711L95.6582 57.8926C95.5215 58.0996 95.3477 58.2969 95.1367 58.4844C94.9258 58.6719 94.666 58.8242 94.3574 58.9414C94.0527 59.0586 93.6914 59.1172 93.2734 59.1172ZM98.0898 53.8789V61.4375H97V52.6602H97.9961L98.0898 53.8789ZM102.361 55.7773V55.9004C102.361 56.3613 102.307 56.7891 102.197 57.1836C102.088 57.5742 101.928 57.9141 101.717 58.2031C101.51 58.4922 101.254 58.7168 100.949 58.877C100.645 59.0371 100.295 59.1172 99.9004 59.1172C99.498 59.1172 99.1426 59.0508 98.834 58.918C98.5254 58.7852 98.2637 58.5918 98.0488 58.3379C97.834 58.084 97.6621 57.7793 97.5332 57.4238C97.4082 57.0684 97.3223 56.668 97.2754 56.2227V55.5664C97.3223 55.0977 97.4102 54.6777 97.5391 54.3066C97.668 53.9355 97.8379 53.6191 98.0488 53.3574C98.2637 53.0918 98.5234 52.8906 98.8281 52.7539C99.1328 52.6133 99.4844 52.543 99.8828 52.543C100.281 52.543 100.635 52.6211 100.943 52.7773C101.252 52.9297 101.512 53.1484 101.723 53.4336C101.934 53.7188 102.092 54.0605 102.197 54.459C102.307 54.8535 102.361 55.293 102.361 55.7773ZM101.271 55.9004V55.7773C101.271 55.4609 101.238 55.1641 101.172 54.8867C101.105 54.6055 101.002 54.3594 100.861 54.1484C100.725 53.9336 100.549 53.7656 100.334 53.6445C100.119 53.5195 99.8633 53.457 99.5664 53.457C99.293 53.457 99.0547 53.5039 98.8516 53.5977C98.6523 53.6914 98.4824 53.8184 98.3418 53.9785C98.2012 54.1348 98.0859 54.3145 97.9961 54.5176C97.9102 54.7168 97.8457 54.9238 97.8027 55.1387V56.6562C97.8809 56.9297 97.9902 57.1875 98.1309 57.4297C98.2715 57.668 98.459 57.8613 98.6934 58.0098C98.9277 58.1543 99.2227 58.2266 99.5781 58.2266C99.8711 58.2266 100.123 58.166 100.334 58.0449C100.549 57.9199 100.725 57.75 100.861 57.5352C101.002 57.3203 101.105 57.0742 101.172 56.7969C101.238 56.5156 101.271 56.2168 101.271 55.9004ZM106.721 56.2109H104.641L104.629 55.3438H106.328C106.664 55.3438 106.943 55.3105 107.166 55.2441C107.393 55.1777 107.562 55.0781 107.676 54.9453C107.789 54.8125 107.846 54.6484 107.846 54.4531C107.846 54.3008 107.812 54.168 107.746 54.0547C107.684 53.9375 107.588 53.8418 107.459 53.7676C107.33 53.6895 107.17 53.6328 106.979 53.5977C106.791 53.5586 106.57 53.5391 106.316 53.5391H104.928V59H103.844V52.6602H106.316C106.719 52.6602 107.08 52.6953 107.4 52.7656C107.725 52.8359 108 52.9434 108.227 53.0879C108.457 53.2285 108.633 53.4082 108.754 53.627C108.875 53.8457 108.936 54.1035 108.936 54.4004C108.936 54.5918 108.896 54.7734 108.818 54.9453C108.74 55.1172 108.625 55.2695 108.473 55.4023C108.32 55.5352 108.133 55.6445 107.91 55.7305C107.688 55.8125 107.432 55.8652 107.143 55.8887L106.721 56.2109ZM106.721 59H104.248L104.787 58.1211H106.721C107.021 58.1211 107.271 58.084 107.471 58.0098C107.67 57.9316 107.818 57.8223 107.916 57.6816C108.018 57.5371 108.068 57.3652 108.068 57.166C108.068 56.9668 108.018 56.7969 107.916 56.6562C107.818 56.5117 107.67 56.4023 107.471 56.3281C107.271 56.25 107.021 56.2109 106.721 56.2109H105.074L105.086 55.3438H107.143L107.535 55.6719C107.883 55.6992 108.178 55.7852 108.42 55.9297C108.662 56.0742 108.846 56.2578 108.971 56.4805C109.096 56.6992 109.158 56.9375 109.158 57.1953C109.158 57.4922 109.102 57.7539 108.988 57.9805C108.879 58.207 108.719 58.3965 108.508 58.5488C108.297 58.6973 108.041 58.8105 107.74 58.8887C107.439 58.9629 107.1 59 106.721 59ZM111.783 57.2832L114.707 52.6602H115.797V59H114.707V54.377L111.783 59H110.705V52.6602H111.783V57.2832ZM120.074 58.2266C120.332 58.2266 120.57 58.1738 120.789 58.0684C121.008 57.9629 121.188 57.8184 121.328 57.6348C121.469 57.4473 121.549 57.2344 121.568 56.9961H122.6C122.58 57.3711 122.453 57.7207 122.219 58.0449C121.988 58.3652 121.686 58.625 121.311 58.8242C120.936 59.0195 120.523 59.1172 120.074 59.1172C119.598 59.1172 119.182 59.0332 118.826 58.8652C118.475 58.6973 118.182 58.4668 117.947 58.1738C117.717 57.8809 117.543 57.5449 117.426 57.166C117.312 56.7832 117.256 56.3789 117.256 55.9531V55.707C117.256 55.2812 117.312 54.8789 117.426 54.5C117.543 54.1172 117.717 53.7793 117.947 53.4863C118.182 53.1934 118.475 52.9629 118.826 52.7949C119.182 52.627 119.598 52.543 120.074 52.543C120.57 52.543 121.004 52.6445 121.375 52.8477C121.746 53.0469 122.037 53.3203 122.248 53.668C122.463 54.0117 122.58 54.4023 122.6 54.8398H121.568C121.549 54.5781 121.475 54.3418 121.346 54.1309C121.221 53.9199 121.049 53.752 120.83 53.627C120.615 53.498 120.363 53.4336 120.074 53.4336C119.742 53.4336 119.463 53.5 119.236 53.6328C119.014 53.7617 118.836 53.9375 118.703 54.1602C118.574 54.3789 118.48 54.623 118.422 54.8926C118.367 55.1582 118.34 55.4297 118.34 55.707V55.9531C118.34 56.2305 118.367 56.5039 118.422 56.7734C118.477 57.043 118.568 57.2871 118.697 57.5059C118.83 57.7246 119.008 57.9004 119.23 58.0332C119.457 58.1621 119.738 58.2266 120.074 58.2266ZM131.02 52.6602V53.5566H127.814V52.6602H131.02ZM127.973 52.6602V59H126.889V52.6602H127.973ZM131.98 52.6602V59H130.891V52.6602H131.98ZM133.434 55.9004V55.7656C133.434 55.3086 133.5 54.8848 133.633 54.4941C133.766 54.0996 133.957 53.7578 134.207 53.4688C134.457 53.1758 134.76 52.9492 135.115 52.7891C135.471 52.625 135.869 52.543 136.311 52.543C136.756 52.543 137.156 52.625 137.512 52.7891C137.871 52.9492 138.176 53.1758 138.426 53.4688C138.68 53.7578 138.873 54.0996 139.006 54.4941C139.139 54.8848 139.205 55.3086 139.205 55.7656V55.9004C139.205 56.3574 139.139 56.7812 139.006 57.1719C138.873 57.5625 138.68 57.9043 138.426 58.1973C138.176 58.4863 137.873 58.7129 137.518 58.877C137.166 59.0371 136.768 59.1172 136.322 59.1172C135.877 59.1172 135.477 59.0371 135.121 58.877C134.766 58.7129 134.461 58.4863 134.207 58.1973C133.957 57.9043 133.766 57.5625 133.633 57.1719C133.5 56.7812 133.434 56.3574 133.434 55.9004ZM134.518 55.7656V55.9004C134.518 56.2168 134.555 56.5156 134.629 56.7969C134.703 57.0742 134.814 57.3203 134.963 57.5352C135.115 57.75 135.305 57.9199 135.531 58.0449C135.758 58.166 136.021 58.2266 136.322 58.2266C136.619 58.2266 136.879 58.166 137.102 58.0449C137.328 57.9199 137.516 57.75 137.664 57.5352C137.812 57.3203 137.924 57.0742 137.998 56.7969C138.076 56.5156 138.115 56.2168 138.115 55.9004V55.7656C138.115 55.4531 138.076 55.1582 137.998 54.8809C137.924 54.5996 137.811 54.3516 137.658 54.1367C137.51 53.918 137.322 53.7461 137.096 53.6211C136.873 53.4961 136.611 53.4336 136.311 53.4336C136.014 53.4336 135.752 53.4961 135.525 53.6211C135.303 53.7461 135.115 53.918 134.963 54.1367C134.814 54.3516 134.703 54.5996 134.629 54.8809C134.555 55.1582 134.518 55.4531 134.518 55.7656ZM141.736 57.2832L144.66 52.6602H145.75V59H144.66V54.377L141.736 59H140.658V52.6602H141.736V57.2832ZM150.027 58.2266C150.285 58.2266 150.523 58.1738 150.742 58.0684C150.961 57.9629 151.141 57.8184 151.281 57.6348C151.422 57.4473 151.502 57.2344 151.521 56.9961H152.553C152.533 57.3711 152.406 57.7207 152.172 58.0449C151.941 58.3652 151.639 58.625 151.264 58.8242C150.889 59.0195 150.477 59.1172 150.027 59.1172C149.551 59.1172 149.135 59.0332 148.779 58.8652C148.428 58.6973 148.135 58.4668 147.9 58.1738C147.67 57.8809 147.496 57.5449 147.379 57.166C147.266 56.7832 147.209 56.3789 147.209 55.9531V55.707C147.209 55.2812 147.266 54.8789 147.379 54.5C147.496 54.1172 147.67 53.7793 147.9 53.4863C148.135 53.1934 148.428 52.9629 148.779 52.7949C149.135 52.627 149.551 52.543 150.027 52.543C150.523 52.543 150.957 52.6445 151.328 52.8477C151.699 53.0469 151.99 53.3203 152.201 53.668C152.416 54.0117 152.533 54.4023 152.553 54.8398H151.521C151.502 54.5781 151.428 54.3418 151.299 54.1309C151.174 53.9199 151.002 53.752 150.783 53.627C150.568 53.498 150.316 53.4336 150.027 53.4336C149.695 53.4336 149.416 53.5 149.189 53.6328C148.967 53.7617 148.789 53.9375 148.656 54.1602C148.527 54.3789 148.434 54.623 148.375 54.8926C148.32 55.1582 148.293 55.4297 148.293 55.707V55.9531C148.293 56.2305 148.32 56.5039 148.375 56.7734C148.43 57.043 148.521 57.2871 148.65 57.5059C148.783 57.7246 148.961 57.9004 149.184 58.0332C149.41 58.1621 149.691 58.2266 150.027 58.2266ZM154.949 52.6602V59H153.865V52.6602H154.949ZM159.109 52.6602L156.104 56.293H154.586L154.422 55.3438H155.664L157.791 52.6602H159.109ZM157.943 59L155.611 56.1289L156.309 55.3438L159.32 59H157.943ZM164.002 57.916V54.6523C164.002 54.4023 163.951 54.1855 163.85 54.002C163.752 53.8145 163.604 53.6699 163.404 53.5684C163.205 53.4668 162.959 53.416 162.666 53.416C162.393 53.416 162.152 53.4629 161.945 53.5566C161.742 53.6504 161.582 53.7734 161.465 53.9258C161.352 54.0781 161.295 54.2422 161.295 54.418H160.211C160.211 54.1914 160.27 53.9668 160.387 53.7441C160.504 53.5215 160.672 53.3203 160.891 53.1406C161.113 52.957 161.379 52.8125 161.688 52.707C162 52.5977 162.348 52.543 162.73 52.543C163.191 52.543 163.598 52.6211 163.949 52.7773C164.305 52.9336 164.582 53.1699 164.781 53.4863C164.984 53.7988 165.086 54.1914 165.086 54.6641V57.6172C165.086 57.8281 165.104 58.0527 165.139 58.291C165.178 58.5293 165.234 58.7344 165.309 58.9062V59H164.178C164.123 58.875 164.08 58.709 164.049 58.502C164.018 58.291 164.002 58.0957 164.002 57.916ZM164.189 55.1562L164.201 55.918H163.105C162.797 55.918 162.521 55.9434 162.279 55.9941C162.037 56.041 161.834 56.1133 161.67 56.2109C161.506 56.3086 161.381 56.4316 161.295 56.5801C161.209 56.7246 161.166 56.8945 161.166 57.0898C161.166 57.2891 161.211 57.4707 161.301 57.6348C161.391 57.7988 161.525 57.9297 161.705 58.0273C161.889 58.1211 162.113 58.168 162.379 58.168C162.711 58.168 163.004 58.0977 163.258 57.957C163.512 57.8164 163.713 57.6445 163.861 57.4414C164.014 57.2383 164.096 57.041 164.107 56.8496L164.57 57.3711C164.543 57.5352 164.469 57.7168 164.348 57.916C164.227 58.1152 164.064 58.3066 163.861 58.4902C163.662 58.6699 163.424 58.8203 163.146 58.9414C162.873 59.0586 162.564 59.1172 162.221 59.1172C161.791 59.1172 161.414 59.0332 161.09 58.8652C160.77 58.6973 160.52 58.4727 160.34 58.1914C160.164 57.9062 160.076 57.5879 160.076 57.2363C160.076 56.8965 160.143 56.5977 160.275 56.3398C160.408 56.0781 160.6 55.8613 160.85 55.6895C161.1 55.5137 161.4 55.3809 161.752 55.291C162.104 55.2012 162.496 55.1562 162.93 55.1562H164.189ZM174.004 52.6602V53.5566H170.939V52.6602H174.004ZM174.959 52.6602V59H173.875V52.6602H174.959ZM170.676 52.6602H171.766L171.602 55.7188C171.574 56.1914 171.529 56.6094 171.467 56.9727C171.408 57.332 171.326 57.6406 171.221 57.8984C171.119 58.1562 170.99 58.3672 170.834 58.5312C170.682 58.6914 170.498 58.8105 170.283 58.8887C170.068 58.9629 169.82 59 169.539 59H169.199V58.0449L169.434 58.0273C169.602 58.0156 169.744 57.9766 169.861 57.9102C169.982 57.8438 170.084 57.7461 170.166 57.6172C170.248 57.4844 170.314 57.3145 170.365 57.1074C170.42 56.9004 170.461 56.6543 170.488 56.3691C170.52 56.084 170.543 55.752 170.559 55.373L170.676 52.6602ZM179.336 59.1172C178.895 59.1172 178.494 59.043 178.135 58.8945C177.779 58.7422 177.473 58.5293 177.215 58.2559C176.961 57.9824 176.766 57.6582 176.629 57.2832C176.492 56.9082 176.424 56.498 176.424 56.0527V55.8066C176.424 55.291 176.5 54.832 176.652 54.4297C176.805 54.0234 177.012 53.6797 177.273 53.3984C177.535 53.1172 177.832 52.9043 178.164 52.7598C178.496 52.6152 178.84 52.543 179.195 52.543C179.648 52.543 180.039 52.6211 180.367 52.7773C180.699 52.9336 180.971 53.1523 181.182 53.4336C181.393 53.7109 181.549 54.0391 181.65 54.418C181.752 54.793 181.803 55.2031 181.803 55.6484V56.1348H177.068V55.25H180.719V55.168C180.703 54.8867 180.645 54.6133 180.543 54.3477C180.445 54.082 180.289 53.8633 180.074 53.6914C179.859 53.5195 179.566 53.4336 179.195 53.4336C178.949 53.4336 178.723 53.4863 178.516 53.5918C178.309 53.6934 178.131 53.8457 177.982 54.0488C177.834 54.252 177.719 54.5 177.637 54.793C177.555 55.0859 177.514 55.4238 177.514 55.8066V56.0527C177.514 56.3535 177.555 56.6367 177.637 56.9023C177.723 57.1641 177.846 57.3945 178.006 57.5938C178.17 57.793 178.367 57.9492 178.598 58.0625C178.832 58.1758 179.098 58.2324 179.395 58.2324C179.777 58.2324 180.102 58.1543 180.367 57.998C180.633 57.8418 180.865 57.6328 181.064 57.3711L181.721 57.8926C181.584 58.0996 181.41 58.2969 181.199 58.4844C180.988 58.6719 180.729 58.8242 180.42 58.9414C180.115 59.0586 179.754 59.1172 179.336 59.1172ZM184.246 52.6602V59H183.162V52.6602H184.246ZM188.406 52.6602L185.4 56.293H183.883L183.719 55.3438H184.961L187.088 52.6602H188.406ZM187.24 59L184.908 56.1289L185.605 55.3438L188.617 59H187.24ZM193.299 57.916V54.6523C193.299 54.4023 193.248 54.1855 193.146 54.002C193.049 53.8145 192.9 53.6699 192.701 53.5684C192.502 53.4668 192.256 53.416 191.963 53.416C191.689 53.416 191.449 53.4629 191.242 53.5566C191.039 53.6504 190.879 53.7734 190.762 53.9258C190.648 54.0781 190.592 54.2422 190.592 54.418H189.508C189.508 54.1914 189.566 53.9668 189.684 53.7441C189.801 53.5215 189.969 53.3203 190.188 53.1406C190.41 52.957 190.676 52.8125 190.984 52.707C191.297 52.5977 191.645 52.543 192.027 52.543C192.488 52.543 192.895 52.6211 193.246 52.7773C193.602 52.9336 193.879 53.1699 194.078 53.4863C194.281 53.7988 194.383 54.1914 194.383 54.6641V57.6172C194.383 57.8281 194.4 58.0527 194.436 58.291C194.475 58.5293 194.531 58.7344 194.605 58.9062V59H193.475C193.42 58.875 193.377 58.709 193.346 58.502C193.314 58.291 193.299 58.0957 193.299 57.916ZM193.486 55.1562L193.498 55.918H192.402C192.094 55.918 191.818 55.9434 191.576 55.9941C191.334 56.041 191.131 56.1133 190.967 56.2109C190.803 56.3086 190.678 56.4316 190.592 56.5801C190.506 56.7246 190.463 56.8945 190.463 57.0898C190.463 57.2891 190.508 57.4707 190.598 57.6348C190.688 57.7988 190.822 57.9297 191.002 58.0273C191.186 58.1211 191.41 58.168 191.676 58.168C192.008 58.168 192.301 58.0977 192.555 57.957C192.809 57.8164 193.01 57.6445 193.158 57.4414C193.311 57.2383 193.393 57.041 193.404 56.8496L193.867 57.3711C193.84 57.5352 193.766 57.7168 193.645 57.916C193.523 58.1152 193.361 58.3066 193.158 58.4902C192.959 58.6699 192.721 58.8203 192.443 58.9414C192.17 59.0586 191.861 59.1172 191.518 59.1172C191.088 59.1172 190.711 59.0332 190.387 58.8652C190.066 58.6973 189.816 58.4727 189.637 58.1914C189.461 57.9062 189.373 57.5879 189.373 57.2363C189.373 56.8965 189.439 56.5977 189.572 56.3398C189.705 56.0781 189.896 55.8613 190.146 55.6895C190.396 55.5137 190.697 55.3809 191.049 55.291C191.4 55.2012 191.793 55.1562 192.227 55.1562H193.486ZM197.172 53.8789V61.4375H196.082V52.6602H197.078L197.172 53.8789ZM201.443 55.7773V55.9004C201.443 56.3613 201.389 56.7891 201.279 57.1836C201.17 57.5742 201.01 57.9141 200.799 58.2031C200.592 58.4922 200.336 58.7168 200.031 58.877C199.727 59.0371 199.377 59.1172 198.982 59.1172C198.58 59.1172 198.225 59.0508 197.916 58.918C197.607 58.7852 197.346 58.5918 197.131 58.3379C196.916 58.084 196.744 57.7793 196.615 57.4238C196.49 57.0684 196.404 56.668 196.357 56.2227V55.5664C196.404 55.0977 196.492 54.6777 196.621 54.3066C196.75 53.9355 196.92 53.6191 197.131 53.3574C197.346 53.0918 197.605 52.8906 197.91 52.7539C198.215 52.6133 198.566 52.543 198.965 52.543C199.363 52.543 199.717 52.6211 200.025 52.7773C200.334 52.9297 200.594 53.1484 200.805 53.4336C201.016 53.7188 201.174 54.0605 201.279 54.459C201.389 54.8535 201.443 55.293 201.443 55.7773ZM200.354 55.9004V55.7773C200.354 55.4609 200.32 55.1641 200.254 54.8867C200.188 54.6055 200.084 54.3594 199.943 54.1484C199.807 53.9336 199.631 53.7656 199.416 53.6445C199.201 53.5195 198.945 53.457 198.648 53.457C198.375 53.457 198.137 53.5039 197.934 53.5977C197.734 53.6914 197.564 53.8184 197.424 53.9785C197.283 54.1348 197.168 54.3145 197.078 54.5176C196.992 54.7168 196.928 54.9238 196.885 55.1387V56.6562C196.963 56.9297 197.072 57.1875 197.213 57.4297C197.354 57.668 197.541 57.8613 197.775 58.0098C198.01 58.1543 198.305 58.2266 198.66 58.2266C198.953 58.2266 199.205 58.166 199.416 58.0449C199.631 57.9199 199.807 57.75 199.943 57.5352C200.084 57.3203 200.188 57.0742 200.254 56.7969C200.32 56.5156 200.354 56.2168 200.354 55.9004ZM205.363 58.2266C205.621 58.2266 205.859 58.1738 206.078 58.0684C206.297 57.9629 206.477 57.8184 206.617 57.6348C206.758 57.4473 206.838 57.2344 206.857 56.9961H207.889C207.869 57.3711 207.742 57.7207 207.508 58.0449C207.277 58.3652 206.975 58.625 206.6 58.8242C206.225 59.0195 205.812 59.1172 205.363 59.1172C204.887 59.1172 204.471 59.0332 204.115 58.8652C203.764 58.6973 203.471 58.4668 203.236 58.1738C203.006 57.8809 202.832 57.5449 202.715 57.166C202.602 56.7832 202.545 56.3789 202.545 55.9531V55.707C202.545 55.2812 202.602 54.8789 202.715 54.5C202.832 54.1172 203.006 53.7793 203.236 53.4863C203.471 53.1934 203.764 52.9629 204.115 52.7949C204.471 52.627 204.887 52.543 205.363 52.543C205.859 52.543 206.293 52.6445 206.664 52.8477C207.035 53.0469 207.326 53.3203 207.537 53.668C207.752 54.0117 207.869 54.4023 207.889 54.8398H206.857C206.838 54.5781 206.764 54.3418 206.635 54.1309C206.51 53.9199 206.338 53.752 206.119 53.627C205.904 53.498 205.652 53.4336 205.363 53.4336C205.031 53.4336 204.752 53.5 204.525 53.6328C204.303 53.7617 204.125 53.9375 203.992 54.1602C203.863 54.3789 203.77 54.623 203.711 54.8926C203.656 55.1582 203.629 55.4297 203.629 55.707V55.9531C203.629 56.2305 203.656 56.5039 203.711 56.7734C203.766 57.043 203.857 57.2871 203.986 57.5059C204.119 57.7246 204.297 57.9004 204.52 58.0332C204.746 58.1621 205.027 58.2266 205.363 58.2266ZM211.691 52.6602V59H210.602V52.6602H211.691ZM213.818 52.6602V53.5391H208.516V52.6602H213.818ZM217.861 56.2109H215.781L215.77 55.3438H217.469C217.805 55.3438 218.084 55.3105 218.307 55.2441C218.533 55.1777 218.703 55.0781 218.816 54.9453C218.93 54.8125 218.986 54.6484 218.986 54.4531C218.986 54.3008 218.953 54.168 218.887 54.0547C218.824 53.9375 218.729 53.8418 218.6 53.7676C218.471 53.6895 218.311 53.6328 218.119 53.5977C217.932 53.5586 217.711 53.5391 217.457 53.5391H216.068V59H214.984V52.6602H217.457C217.859 52.6602 218.221 52.6953 218.541 52.7656C218.865 52.8359 219.141 52.9434 219.367 53.0879C219.598 53.2285 219.773 53.4082 219.895 53.627C220.016 53.8457 220.076 54.1035 220.076 54.4004C220.076 54.5918 220.037 54.7734 219.959 54.9453C219.881 55.1172 219.766 55.2695 219.613 55.4023C219.461 55.5352 219.273 55.6445 219.051 55.7305C218.828 55.8125 218.572 55.8652 218.283 55.8887L217.861 56.2109ZM217.861 59H215.389L215.928 58.1211H217.861C218.162 58.1211 218.412 58.084 218.611 58.0098C218.811 57.9316 218.959 57.8223 219.057 57.6816C219.158 57.5371 219.209 57.3652 219.209 57.166C219.209 56.9668 219.158 56.7969 219.057 56.6562C218.959 56.5117 218.811 56.4023 218.611 56.3281C218.412 56.25 218.162 56.2109 217.861 56.2109H216.215L216.227 55.3438H218.283L218.676 55.6719C219.023 55.6992 219.318 55.7852 219.561 55.9297C219.803 56.0742 219.986 56.2578 220.111 56.4805C220.236 56.6992 220.299 56.9375 220.299 57.1953C220.299 57.4922 220.242 57.7539 220.129 57.9805C220.02 58.207 219.859 58.3965 219.648 58.5488C219.438 58.6973 219.182 58.8105 218.881 58.8887C218.58 58.9629 218.24 59 217.861 59Z" fill="white"/>
</svg>
