<svg width="20" height="20" viewBox="0 0 20 20" fill="none" xmlns="http://www.w3.org/2000/svg">
<path d="M18.3346 9.9974C18.3346 5.3949 14.6038 1.66406 10.0013 1.66406C5.39881 1.66406 1.66798 5.3949 1.66798 9.9974C1.66615 11.3474 1.99367 12.6776 2.62214 13.8724L1.69214 17.4466C1.66121 17.566 1.66199 17.6914 1.69441 17.8104C1.72683 17.9294 1.78976 18.0379 1.87697 18.1251C1.96419 18.2123 2.07266 18.2752 2.19167 18.3076C2.31067 18.34 2.43608 18.3408 2.55548 18.3099L6.13048 17.3791C7.32428 18.006 8.65288 18.3327 10.0013 18.3307C14.6038 18.3307 18.3346 14.5999 18.3346 9.9974ZM10.0013 5.41573C10.1671 5.41573 10.326 5.48158 10.4433 5.59879C10.5605 5.716 10.6263 5.87497 10.6263 6.04073V11.2491C10.6263 11.4148 10.5605 11.5738 10.4433 11.691C10.326 11.8082 10.1671 11.8741 10.0013 11.8741C9.83555 11.8741 9.67658 11.8082 9.55937 11.691C9.44216 11.5738 9.37631 11.4148 9.37631 11.2491V6.04073C9.37631 5.87497 9.44216 5.716 9.55937 5.59879C9.67658 5.48158 9.83555 5.41573 10.0013 5.41573ZM10.8346 13.7466C10.8346 13.9676 10.7468 14.1795 10.5906 14.3358C10.4343 14.4921 10.2223 14.5799 10.0013 14.5799C9.7803 14.5799 9.56833 14.4921 9.41205 14.3358C9.25577 14.1795 9.16798 13.9676 9.16798 13.7466C9.16798 13.5255 9.25577 13.3136 9.41205 13.1573C9.56833 13.001 9.7803 12.9132 10.0013 12.9132C10.2223 12.9132 10.4343 13.001 10.5906 13.1573C10.7468 13.3136 10.8346 13.5255 10.8346 13.7466Z" fill="#EE715F"/>
</svg>
