<svg width="112" height="128" viewBox="0 0 112 128" fill="none" xmlns="http://www.w3.org/2000/svg">
<g clip-path="url(#clip0_210_3466)">
<path d="M18.3086 47.2467C18.8541 47.4799 19.4246 47.6631 20.0507 47.8935C20.0507 49.8034 20.0368 51.6966 20.0563 53.5898C20.0702 55.0722 20.8077 55.9744 21.9793 56.0049C23.1954 56.0355 23.9802 55.0944 23.9941 53.5399C24.0108 51.6466 23.9969 49.7562 23.9969 48.3016C26.2315 46.8886 28.1962 45.6478 30.1999 44.3847C34.3436 49.0234 41.1088 49.5508 46.1041 44.1127C48.1801 46.5694 50.8127 47.999 54.0604 47.9935C57.2996 47.9907 59.91 46.5222 62.0361 44.0211C64.1984 46.5944 66.8394 48.0018 70.087 47.9935C73.3263 47.9851 75.9338 46.5056 77.7706 44.3542C79.8883 45.6783 81.853 46.9053 84.0404 48.2711C84.0487 49.5369 84.0543 50.8055 84.0571 52.0741C84.0627 55.0056 84.5385 55.9772 85.994 56.0049C87.494 56.0355 88.0032 55.0195 88.006 52.0047C88.006 50.6667 88.006 49.3259 88.006 47.8658C92.8343 46.4528 95.6339 43.3743 96.0012 38.4219C96.2016 35.707 96.0597 32.9671 96.0318 30.2384C96.0263 29.7442 95.8788 29.2362 95.7202 28.7588C93.9864 23.5399 92.2165 18.3295 90.5106 13.1023C90.2156 12.1973 90.0431 11.2146 90.0264 10.2653C89.9234 4.28026 85.7129 0.0219252 79.7297 0.0135973C62.5732 -0.00583451 45.4167 -0.00583451 28.2602 0.0135973C22.3689 0.0219252 18.15 4.29137 18.0304 10.1848C18.0109 11.1813 17.8328 12.2112 17.5239 13.1578C15.8347 18.3433 14.0759 23.5066 12.3561 28.6838C12.1835 29.2029 12.0277 29.7581 12.0221 30.2994C11.9915 32.981 11.8802 35.6737 12.0444 38.3442C12.3032 42.5304 14.3848 45.5673 18.3086 47.244V47.2467ZM43.6385 39.821C43.1125 42.5553 40.3491 44.1793 37.5217 43.9572C34.7638 43.7407 32.3817 41.6393 32.1312 38.8605C31.9309 36.6314 32.0895 34.369 32.0895 32.0483H44.1171C43.9808 34.6549 44.1199 37.2977 43.6357 39.8238L43.6385 39.821ZM44.2451 27.9399H32.5431C33.3362 24.3616 34.1099 20.85 34.8891 17.3384C35.3863 15.1028 36.7703 13.9851 39.0411 13.9851C41.2118 13.9851 43.3824 13.9851 45.7757 13.9851C45.2498 18.7875 44.7516 23.3262 44.2451 27.9399ZM59.7347 39.6434C59.2783 42.3388 56.5177 44.1043 53.7209 43.9711C50.9268 43.8378 48.464 41.828 48.1746 39.0604C47.938 36.7897 48.1273 34.4717 48.1273 32.0761H60.1326C60.0213 34.6272 60.1521 37.1838 59.7347 39.6461V39.6434ZM48.272 27.951C48.528 25.6192 48.7673 23.3484 49.0261 21.0777C49.2877 18.7875 49.5688 16.5001 49.8526 14.1044H58.2041C58.7301 18.6681 59.2588 23.2624 59.7987 27.9537H48.272V27.951ZM62.2782 13.9989C65.5871 13.9989 68.7262 13.9823 71.8653 14.0295C72.1074 14.0322 72.4942 14.432 72.5554 14.704C73.5545 19.0706 74.5146 23.4456 75.5081 27.9343H63.8005C63.2912 23.2651 62.7958 18.7236 62.2782 14.0017V13.9989ZM75.8559 39.0826C75.4552 42.2278 72.6083 44.2209 69.4636 43.9489C66.4414 43.6879 64.1288 41.2201 64.0565 38.1082C64.012 36.129 64.0481 34.1497 64.0481 32.0316H75.9144C75.9144 34.4245 76.1481 36.7869 75.8559 39.0826ZM84.0376 48.1628C84.0181 48.0629 84.0321 48.1017 84.0376 48.1628V48.1628ZM91.7323 39.635C91.3399 42.3277 88.5515 44.0905 85.738 43.9683C82.9523 43.8489 80.6314 41.8253 80.1416 39.0715C80.0609 38.619 80.0247 38.1554 80.0219 37.6946C80.008 35.8569 80.0163 34.0165 80.0163 32.0316H91.8102C91.8102 34.6105 92.0941 37.1672 91.7351 39.6322L91.7323 39.635ZM86.776 14.6513C88.2592 18.9735 89.6674 23.3234 91.0894 27.6678C91.1145 27.7428 91.0616 27.8427 91.0366 27.9787H79.6406C78.6249 23.4095 77.6064 18.8375 76.5266 13.9878C77.7984 13.9878 78.9255 13.9878 80.0525 13.9878C81.9059 13.9878 83.7593 13.9517 85.6099 14.0184C86.019 14.0322 86.6674 14.3348 86.776 14.6485V14.6513ZM27.8178 4.00822C28.9727 3.9416 30.1359 3.98601 31.2936 3.98601C47.3341 3.98601 63.3775 3.98046 79.418 3.98879C83.2723 3.98879 85.8187 6.29562 85.9661 9.92381H22.0822C22.2269 6.58709 24.559 4.19143 27.8178 4.00544V4.00822ZM21.2557 14.6735C21.3559 14.3792 21.829 14.0239 22.1323 14.0184C25.1824 13.9712 28.2324 13.9878 31.5134 13.9878C30.4671 18.7181 29.4569 23.2901 28.4328 27.9343H16.8421C18.3365 23.4178 19.7724 19.0373 21.2557 14.6707V14.6735ZM16.1742 32.0483H27.8233C27.8233 34.5994 28.0849 37.1089 27.7538 39.5379C27.392 42.1889 24.7093 44.0072 21.9737 43.9766C19.1602 43.9461 16.5554 42.0251 16.2326 39.3047C15.9543 36.9534 16.1742 34.5411 16.1742 32.0511V32.0483Z" fill="#8BBD3F"/>
<path d="M111.992 101.545C111.961 100.898 111.872 100.257 111.788 99.6129C110.878 92.5065 109.955 85.4 109.061 78.2907C108.85 76.6001 108.418 75.0345 107.166 73.7853C105.803 72.4279 104.113 71.9393 102.032 71.9115C102.149 68.9523 101.798 66.2486 99.9696 63.9223C98.1162 61.5599 95.6812 60.2802 92.7285 60.0165C90.3297 59.8027 88.1312 60.4995 86.186 61.8958C82.7714 64.347 81.7723 67.8753 82.045 71.8255C77.0163 72.5 75.5442 74.024 74.9347 78.9514C74.6175 81.5247 74.278 84.0925 73.9468 86.6658C73.5878 83.876 73.2316 81.0833 72.881 78.2935C72.6695 76.6029 72.2381 75.0373 70.9858 73.7881C69.6222 72.4306 67.933 71.9421 65.8514 71.9143C65.9683 68.9551 65.6177 66.2513 63.7893 63.9251C61.9359 61.5627 59.5009 60.283 56.5482 60.0193C54.1494 59.8055 51.9509 60.5023 50.0057 61.8986C46.5911 64.3498 45.592 67.878 45.8647 71.8283C40.8361 72.5028 39.3639 74.0268 38.7545 78.9542C38.4817 81.1638 38.1923 83.3735 37.9057 85.5832C37.594 83.1542 37.2823 80.7252 36.9762 78.2935C36.7647 76.6029 36.3333 75.0373 35.0811 73.7881C33.7174 72.4306 32.0282 71.9421 29.9466 71.9143C30.0635 68.9551 29.7129 66.2513 27.8845 63.9251C26.0311 61.5627 23.5961 60.283 20.6434 60.0193C18.2446 59.8055 16.0461 60.5023 14.1009 61.8986C10.6863 64.3498 9.68723 67.878 9.95995 71.8283C4.93127 72.5028 3.45913 74.0268 2.84968 78.9542C2.51573 81.6607 2.15674 84.3645 1.80888 87.0711C1.21334 91.7014 0.564927 96.3262 0.038962 100.965C-0.400734 104.837 2.07603 107.924 5.81067 107.958C15.2224 108.044 24.6341 108.035 34.0458 107.963C35.5458 107.952 36.8649 107.416 37.8695 106.536C38.863 107.419 40.1821 107.946 41.7099 107.96C51.1216 108.046 60.5333 108.038 69.945 107.966C71.5174 107.955 72.8893 107.366 73.9106 106.411C74.9181 107.369 76.2872 107.946 77.8902 107.96C87.3019 108.046 96.7136 108.038 106.125 107.966C109.637 107.938 112.153 105.051 111.983 101.553L111.992 101.545ZM92.1163 64.0083C96.0235 64.0639 98.3806 67.2146 97.9019 71.8616H86.1025C85.7602 67.0619 88.1813 63.9528 92.1135 64.0083H92.1163ZM55.9388 64.0083C59.8459 64.0639 62.203 67.2146 61.7244 71.8616H49.925C49.5827 67.0619 52.0038 63.9528 55.936 64.0083H55.9388ZM20.0396 64.0083C23.9467 64.0639 26.3038 67.2146 25.8252 71.8616H14.0285C13.6862 67.0619 16.1073 63.9528 20.0396 64.0083ZM33.2666 103.993C25.7556 104.007 18.2418 104.002 10.7308 104.002C9.24753 104.002 7.76147 104.038 6.28097 103.988C4.5695 103.93 3.79307 102.936 4.01292 101.242C5.00919 93.6335 5.9999 86.0218 6.98504 78.4129C7.23272 76.4974 7.9674 75.9062 9.89594 76.1643C10.1659 77.6411 9.42842 79.7814 11.9942 79.9369C13.3412 80.0201 13.753 79.1874 14.0564 76.0894H25.8725C26.0534 77.68 25.4829 79.7398 27.9624 79.9369C29.326 80.0451 29.7546 79.204 30.044 76.2337C31.6971 75.8395 32.6599 76.4253 32.877 78.0659C33.8928 85.8136 34.8918 93.5613 35.877 101.315C35.8909 101.415 35.8992 101.512 35.9048 101.603C35.8992 101.767 35.8992 101.931 35.9048 102.092C35.8185 103.377 34.9642 103.991 33.2666 103.993ZM69.1658 103.993C61.6548 104.007 54.141 104.002 46.63 104.002C45.1467 104.002 43.6607 104.038 42.1802 103.988C40.8472 103.941 40.0819 103.324 39.9149 102.253C39.9288 102.02 39.9288 101.787 39.9177 101.548C39.9149 101.478 39.9094 101.412 39.9038 101.342C39.9066 101.309 39.9094 101.276 39.9121 101.242C40.9084 93.6335 41.8991 86.0218 42.8843 78.4129C43.1319 76.4974 43.8666 75.9062 45.7952 76.1643C46.0651 77.6411 45.3276 79.7814 47.8935 79.9369C49.2404 80.0201 49.6522 79.1874 49.9556 76.0894H61.7717C61.9526 77.68 61.3821 79.7398 63.8616 79.9369C65.2253 80.0451 65.6538 79.204 65.9433 76.2337C67.5963 75.8395 68.5592 76.4253 68.7762 78.0659C69.792 85.8136 70.791 93.5613 71.7762 101.315C72.0072 103.136 71.1751 103.991 69.1658 103.996V103.993ZM105.343 103.993C97.8323 104.007 90.3185 104.002 82.8075 104.002C81.3242 104.002 79.8382 104.038 78.3577 103.988C76.6462 103.93 75.8698 102.936 76.0897 101.242C77.0859 93.6335 78.0766 86.0218 79.0618 78.4129C79.3094 76.4974 80.0441 75.9062 81.9727 76.1643C82.2426 77.6411 81.5051 79.7814 84.071 79.9369C85.4179 80.0201 85.8298 79.1874 86.1331 76.0894H97.9492C98.1301 77.68 97.5596 79.7398 100.039 79.9369C101.403 80.0451 101.831 79.204 102.121 76.2337C103.774 75.8395 104.737 76.4253 104.954 78.0659C105.969 85.8136 106.969 93.5613 107.954 101.315C108.185 103.136 107.353 103.991 105.343 103.996V103.993Z" fill="#EE715F"/>
<path d="M86.0663 111.98C84.9281 111.958 84.1711 112.779 84.0515 114.17C83.5339 120.208 79.4736 123.975 73.4264 124C69.3467 124.017 65.2642 124 61.1845 124C52.2821 124 43.3768 124.019 34.4744 123.994C28.9531 123.978 24.8373 120.438 24.0775 115.125C24.0135 114.67 24.0441 114.198 23.9662 113.743C23.777 112.638 23.0979 111.969 21.9764 111.999C20.8577 112.03 20.1704 112.713 20.0841 113.837C20.0312 114.523 20.0841 115.228 20.1954 115.908C21.3419 123.092 26.9773 127.931 34.2796 127.97C40.8639 128.003 47.4482 127.978 54.0325 127.978V127.972C60.756 127.972 67.4794 128.039 74.2029 127.956C81.7667 127.861 87.9753 121.679 87.9893 114.381C87.992 112.924 87.2546 112.002 86.0635 111.98H86.0663Z" fill="#8BBD3F"/>
</g>
<defs>
<clipPath id="clip0_210_3466">
<rect width="112" height="128" fill="white"/>
</clipPath>
</defs>
</svg>
