<svg width="128" height="128" viewBox="0 0 128 128" fill="none" xmlns="http://www.w3.org/2000/svg">
<g clip-path="url(#clip0_210_2072)">
<path d="M124.027 97.4654C124.027 99.087 124.736 99.9561 125.985 99.9588C127.24 99.9588 127.992 99.0675 127.992 97.4904C127.997 85.5037 128.019 73.5197 127.972 61.533C127.958 58.1566 127.174 54.9107 125.537 51.937C121.205 44.0541 114.474 40.078 105.49 40.0169C103.926 40.0058 102.852 39.581 101.753 38.4703C93.4805 30.1043 85.133 21.8133 76.844 13.4612C76.3848 13.0002 76.0259 12.2283 75.9981 11.5869C75.7198 5.09795 70.4359 -0.0193812 63.9471 5.5183e-05C57.5335 0.0194916 52.269 5.14516 51.9991 11.5536C51.9713 12.2006 51.6346 12.9808 51.1783 13.4417C42.8253 21.8605 34.4166 30.2209 26.0691 38.6452C25.1175 39.6059 24.1826 40.0169 22.8192 40.0113C9.58567 39.9669 0.00278249 49.5463 0 62.7492C0 76.9072 0 91.0681 0 105.229C0 118.448 9.55785 127.992 22.8081 127.997C36.5341 128.003 50.2629 127.997 63.9889 127.997C77.7149 127.997 91.4437 128.006 105.17 127.986C106.555 127.986 107.952 127.897 109.324 127.711C119.666 126.317 127.978 116.849 127.986 106.495C127.986 105.001 127.31 104.11 126.122 104.035C124.853 103.954 124.099 104.793 124.007 106.381C123.409 116.755 115.79 124.004 105.392 124.013C77.7538 124.032 50.1126 124.035 22.4742 124.013C11.8812 124.004 4.00122 116.136 3.98174 105.568C3.95391 91.1764 3.95391 76.7823 3.98174 62.391C3.99843 51.9037 11.8701 44.0097 22.374 43.9986C50.107 43.9708 77.8373 43.9875 105.57 44.0041C106.817 44.0041 108.083 44.0847 109.304 44.3151C117.939 45.9367 123.985 53.3308 124.013 62.341C124.049 74.0501 124.018 85.7564 124.027 97.4654ZM63.9889 3.98175C68.3184 3.97619 71.9746 7.58582 72.0191 11.9118C72.0636 16.3044 68.4214 19.9752 64.0083 19.9835C59.6064 19.9918 55.9391 16.3155 55.9781 11.9312C56.0143 7.60803 59.6649 3.9873 63.9889 3.98175ZM34.4138 40.003C33.2201 39.8975 32.0125 39.9808 30.6463 39.9808C38.2676 32.4145 45.7552 24.9814 53.2568 17.5345C53.8829 18.3952 54.6091 19.3921 55.391 20.4694C55.1823 20.7221 54.9764 21.0164 54.726 21.2663C48.8772 27.1222 43.0117 32.9615 37.1879 38.8396C36.3838 39.6532 35.5936 40.1085 34.411 40.003H34.4138ZM42.0378 39.903C41.9571 39.8142 41.8764 39.7281 41.7957 39.6393C42.5609 38.9396 43.3512 38.2621 44.0857 37.5318C48.6796 32.9642 53.2707 28.3939 57.8312 23.793C58.4851 23.1322 58.9999 22.8878 59.9682 23.2571C62.7089 24.3039 65.4914 24.1762 68.2739 23.246C68.7135 23.0989 69.4898 23.2072 69.7987 23.5126C75.1411 28.7715 80.4334 34.0804 85.734 39.381C85.8509 39.5004 85.9455 39.6393 86.1597 39.9058H42.0378V39.903ZM92.4788 39.9558C92.156 39.9475 91.772 39.7309 91.5355 39.4921C85.2526 33.2197 78.9837 26.9306 72.7147 20.6443C72.6869 20.6166 72.6841 20.561 72.6368 20.4222C73.3909 19.3865 74.1143 18.3869 74.7487 17.5151C82.242 24.9759 89.7213 32.4228 97.3092 39.978C95.6703 39.978 94.0731 40.003 92.476 39.9558H92.4788Z" fill="#8BBD3F"/>
<path d="M22.9388 116.027C50.3463 116.033 77.7511 116.03 105.159 116.027C111.786 116.027 116.013 111.796 116.019 105.171C116.024 91.1014 116.024 77.035 116.019 62.9658C116.016 56.1408 111.845 51.9731 105.019 51.9703C91.3852 51.9648 77.7511 51.9703 64.1169 51.9703C59.0611 51.9703 54.0081 51.9703 48.9523 51.9703C40.0483 51.9703 31.1444 51.9454 22.2404 51.9814C16.962 52.0037 12.9469 55.4828 12.0871 60.6501C12.0426 60.9222 12.0092 61.1999 11.9953 61.4775C11.9313 62.9103 12.6436 63.8654 13.8317 63.9626C15.0421 64.0626 15.8268 63.2796 16.0049 61.7968C16.4389 58.1928 18.6566 56.0381 22.0957 56.0381C50.0124 56.0242 77.9291 56.0242 105.846 56.0381C109.432 56.0381 111.956 58.4621 111.967 62.0329C112.009 76.6546 112.009 91.2791 111.973 105.901C111.965 109.544 109.444 111.962 105.773 111.965C77.9041 111.979 50.0319 111.976 22.1625 111.965C19.38 111.965 17.1652 110.477 16.3833 108.019C16.0828 107.073 16.016 106.02 16.0132 105.015C15.9882 93.7698 15.9965 82.5244 15.9965 71.279C15.9965 70.7709 16.0188 70.2545 15.9464 69.7547C15.7934 68.6968 15.1312 68.0831 14.0738 68.0443C12.9413 68.0026 12.2596 68.6551 12.0203 69.7325C11.9313 70.1323 11.9758 70.5627 11.9758 70.9764C11.9758 82.3606 11.9703 93.7448 11.9758 105.129C11.9786 111.832 16.1885 116.024 22.9333 116.024L22.9388 116.027Z" fill="#8BBD3F"/>
<path d="M37.1545 82.0776C36.4923 82.7857 35.6659 83.4909 34.6726 84.1906C34.1161 84.5655 33.1867 85.3485 31.8901 86.5397C30.5934 87.7309 29.1382 89.1608 27.5271 90.8296C27.1404 91.2405 26.7814 91.807 26.4531 92.5261C26.1248 93.2452 25.9634 93.8228 25.9634 94.2587C25.9634 94.9362 26.2166 95.5249 26.7258 96.0274C27.235 96.53 27.9445 96.7799 28.8516 96.7799H42.2326C43.0339 96.7799 43.6294 96.5744 44.0245 96.1635C44.4196 95.7525 44.6144 95.25 44.6144 94.6586C44.6144 93.9922 44.3668 93.4674 43.8687 93.0786C43.3706 92.6927 42.65 92.4983 41.7039 92.4983H32.2128C32.5161 92.0374 32.8139 91.6459 33.1032 91.3183C33.7822 90.4964 35.0343 89.3413 36.8568 87.853C38.6793 86.3647 39.9816 85.2735 40.7579 84.5794C41.5342 83.8852 42.2938 82.9217 43.0395 81.6945C43.7852 80.4672 44.1581 79.1039 44.1581 77.6045C44.1581 76.6493 43.98 75.7275 43.621 74.8389C43.2621 73.9504 42.764 73.1674 42.1213 72.4899C41.4785 71.8124 40.7328 71.2793 39.8842 70.8934C38.5736 70.313 36.9932 70.0215 35.14 70.0215C33.6013 70.0215 32.2574 70.2492 31.1138 70.7018C29.9674 71.1544 29.0241 71.7513 28.2784 72.4899C27.5327 73.2285 26.9734 74.0504 26.5978 74.9583C26.2221 75.8663 26.0329 76.7354 26.0329 77.5711C26.0329 78.2598 26.2333 78.804 26.634 79.2038C27.0346 79.6036 27.5383 79.8036 28.1421 79.8036C28.8321 79.8036 29.358 79.5842 29.7142 79.1511C30.0703 78.7151 30.3931 78.0932 30.6769 77.2824C30.9607 76.4716 31.1638 75.9774 31.2863 75.7941C32.1962 74.403 33.4427 73.7089 35.0315 73.7089C35.7828 73.7089 36.4756 73.8782 37.1128 74.217C37.75 74.5557 38.2508 75.0305 38.6209 75.6414C38.991 76.2523 39.1746 76.9436 39.1746 77.7183C39.1746 78.4319 39.0021 79.1594 38.6571 79.9035C38.3121 80.6477 37.8084 81.3724 37.149 82.0804L37.1545 82.0776Z" fill="#EE715F"/>
<path d="M60.8558 69.8379C60.2854 69.8379 59.7984 70.0295 59.3922 70.4099C58.986 70.7903 58.4684 71.4039 57.8368 72.2508L48.201 85.1149C47.9339 85.4648 47.7113 85.7619 47.5277 86.0034C47.3468 86.245 47.1687 86.4977 46.999 86.7559C46.8293 87.0169 46.7013 87.264 46.6178 87.5001C46.5315 87.7361 46.4898 87.9693 46.4898 88.1998C46.4898 89.0938 46.7764 89.8019 47.3524 90.3211C47.9284 90.8403 48.7909 91.1013 49.9429 91.1013H59.0694V94.475C59.0694 95.3829 59.2781 96.0687 59.6955 96.5352C60.1129 97.0017 60.661 97.2349 61.3399 97.2349C62.0189 97.2349 62.5809 97.0072 62.9955 96.5546C63.4073 96.1021 63.6132 95.4079 63.6132 94.4777V91.1041H64.7234C65.6445 91.1041 66.3345 90.9431 66.7964 90.6238C67.2555 90.3045 67.4865 89.7935 67.4865 89.0911C67.4865 88.2331 67.2054 87.675 66.6406 87.4223C66.0757 87.1696 65.3272 87.0419 64.3951 87.0419H63.6132V73.0005C63.6132 70.8958 62.6922 69.8434 60.8502 69.8434L60.8558 69.8379ZM59.075 87.0364H51.2562L59.075 76.4963V87.0364Z" fill="#EE715F"/>
<path d="M71.6435 96.8988C71.905 96.6739 72.097 96.363 72.225 95.9631C72.353 95.5633 72.5005 95.0191 72.6702 94.3305L77.7622 73.4113C78.0182 72.4201 78.1434 71.737 78.1434 71.3622C78.1434 70.854 77.982 70.4542 77.662 70.1654C77.3392 69.8739 76.8773 69.7295 76.2708 69.7295C75.5668 69.7295 75.0938 69.935 74.8517 70.3459C74.6096 70.7568 74.3536 71.5204 74.0893 72.6311L69.0168 93.5502C68.7747 94.6637 68.6523 95.3578 68.6523 95.6355C68.6523 96.6989 69.27 97.232 70.5055 97.232C71.0035 97.232 71.3819 97.121 71.6407 96.8961L71.6435 96.8988Z" fill="#EE715F"/>
<path d="M87.4174 86.2506C86.6773 88.1081 86.1458 89.7019 85.8175 91.0319C85.4892 92.3619 85.3278 93.4143 85.3278 94.189C85.3278 95.1941 85.5532 95.9521 86.0011 96.4658C86.4491 96.9795 87.0446 97.2377 87.7819 97.2377C88.5582 97.2377 89.1787 96.9989 89.6462 96.5213C90.1137 96.0438 90.4726 95.1886 90.7286 93.953C90.8371 93.4198 90.9651 92.6535 91.1098 91.6484C91.2545 90.6432 91.388 89.8269 91.5105 89.1994C91.6329 88.5718 91.8388 87.7777 92.1282 86.8226C92.8182 84.6568 93.5806 82.8242 94.4098 81.3248C95.239 79.8255 96.0459 78.5704 96.8278 77.5597C97.6097 76.549 98.3053 75.6272 98.9174 74.7942C99.5296 73.9612 99.8357 73.2893 99.8357 72.7811C99.8357 71.9454 99.5741 71.3484 99.0538 70.9846C98.5335 70.6209 97.6904 70.4404 96.5273 70.4404H84.4179C83.4607 70.4404 82.715 70.5626 82.1808 70.8042C81.6465 71.0457 81.3794 71.5844 81.3794 72.4202C81.3794 73.206 81.6298 73.7835 82.1335 74.1528C82.6371 74.5221 83.3967 74.7053 84.4151 74.7053H94.1427C92.6151 76.6406 91.2962 78.5843 90.1888 80.539C89.0786 82.4938 88.1548 84.3986 87.4174 86.2534V86.2506Z" fill="#EE715F"/>
</g>
<defs>
<clipPath id="clip0_210_2072">
<rect width="128" height="128" fill="white"/>
</clipPath>
</defs>
</svg>
