<svg width="128" height="128" viewBox="0 0 128 128" fill="none" xmlns="http://www.w3.org/2000/svg">
<g clip-path="url(#clip0_210_3477)">
<path d="M126.782 41.7953C123.985 38.8933 121.149 36.0246 118.26 33.2171C116.555 31.5632 114.384 31.616 112.66 33.27C110.755 35.099 108.892 36.9725 107.06 38.8738C105.675 40.311 105.494 42.1289 106.453 43.8606C106.604 44.1303 106.737 44.4082 106.809 44.5444C105.372 45.9565 104.026 47.2797 102.616 48.6668C96.6325 44.0941 89.7868 41.2144 82.1013 40.0441C82.0735 39.5382 82.0902 39.1685 82.0263 38.8099C81.6704 36.7779 82.4517 35.7272 84.3981 34.7654C93.6907 30.1734 97.083 18.8572 92.1586 9.56738C87.4789 0.741808 75.9396 -2.68557 67.1892 2.304C60.7189 5.99268 57.3933 11.7133 57.6992 19.1713C58.0078 26.7488 61.9229 32.1108 68.738 35.3798C69.1467 35.5771 69.8586 35.7773 69.8864 36.033C70.0171 37.2644 70.081 38.5347 69.878 39.7411C69.828 40.0385 68.7019 40.2248 68.0484 40.3443C37.251 45.9899 21.9135 80.6918 38.4606 107.307C51.1872 127.774 78.4866 134.165 98.9459 121.456C103.842 118.415 108.011 114.574 111.408 109.912C112.393 108.561 112.351 107.341 111.328 106.61C110.316 105.884 109.173 106.215 108.141 107.535C108.055 107.644 107.972 107.755 107.885 107.863C97.2998 121.031 83.6612 126.337 67.1114 122.871C45.0727 118.257 31.384 95.6549 37.0313 73.862C42.3061 53.509 62.0647 40.6445 82.5907 44.197C105.433 48.1525 120.187 70.4486 114.826 93.0087C114.25 95.427 113.274 97.7508 112.437 100.1C111.928 101.534 112.259 102.657 113.435 103.127C114.52 103.558 115.543 103.01 116.166 101.667C116.263 101.456 116.352 101.242 116.438 101.028C122.186 86.4208 120.918 72.4805 112.468 59.2213C112.078 58.6098 111.664 58.0121 111.397 57.6119C112.879 56.0886 114.228 54.7015 115.579 53.3144C117.679 54.6292 119.522 54.6765 121.021 53.2422C123.031 51.3242 125 49.3533 126.882 47.313C128.423 45.6424 128.373 43.4381 126.79 41.7953H126.782ZM70.0282 31.3825C64.1223 29.106 60.5576 21.9232 61.9256 15.5048C63.4494 8.36099 69.6778 3.60491 76.9962 3.99963C83.9643 4.37767 89.5949 9.91207 90.3651 17.1449C90.988 22.9989 86.9339 29.9871 82.1125 31.263C82.1125 29.6424 82.1152 28.0413 82.118 26.4513C85.4575 25.1893 85.9997 24.3971 86.0025 20.8113C86.0025 18.682 86.0247 16.55 86.0025 14.4208C85.9774 11.8968 84.3758 10.1956 81.8594 10.1567C77.9694 10.0955 74.0767 10.09 70.1839 10.1456C67.6925 10.1817 66.0492 11.9079 66.0158 14.4096C65.9825 16.9114 65.988 19.4103 66.0075 21.9121C66.0242 24.0747 67.1003 25.4618 69.1384 26.1539C69.486 26.2706 69.9726 26.6598 69.9893 26.9461C70.0754 28.361 70.0254 29.787 70.0254 31.3798L70.0282 31.3825ZM77.8749 39.541C76.6292 39.541 75.4391 39.541 74.1378 39.5382C74.1434 35.1907 74.1462 30.8238 74.1517 26.3457C75.3529 26.3457 76.568 26.3457 77.8888 26.3485C77.8832 30.746 77.8805 35.1101 77.8749 39.541ZM70.1283 22.0705C70.1283 19.4743 70.1338 16.9503 70.1366 14.2484C74.1184 14.2512 77.9806 14.2568 81.9484 14.2595C81.9484 16.8697 81.9428 19.427 81.9401 22.0816C78 22.0788 74.1045 22.0733 70.1283 22.0705ZM108.611 54.0594C107.819 53.2283 106.951 52.3193 106.014 51.3381C107.282 50.1567 108.583 48.9419 109.974 47.6494C110.735 48.4666 111.603 49.3978 112.471 50.329C111.242 51.516 109.962 52.7557 108.611 54.0622V54.0594ZM118.285 49.9426C115.615 47.2852 112.838 44.5222 110.06 41.7592C111.895 40.0107 113.752 38.2401 115.574 36.5028C118.146 39.0768 120.904 41.8398 123.696 44.6334C121.894 46.4041 120.056 48.2053 118.285 49.9426Z" fill="#8BBD3F"/>
<path d="M48.162 72.5091C48.5013 71.3082 47.9924 70.2019 46.9497 69.91C45.8013 69.5904 44.9533 70.0268 44.4694 71.1192C44.2248 71.6696 43.9995 72.2283 43.8021 72.7954C36.4948 94.0184 51.6433 116.595 74.0684 117.907C93.638 119.052 110.152 103.461 110.146 81.5292C109.543 69.607 103.245 58.7968 90.1845 52.8176C77.5247 47.0219 65.4042 48.8982 54.4572 57.4736C52.2995 59.1637 50.5561 61.4069 48.7237 63.4833C47.8728 64.4507 48.0675 65.6182 48.9295 66.327C49.8248 67.0608 50.9954 66.8968 51.8768 65.9045C52.0604 65.6988 52.2189 65.4653 52.3885 65.2457C60.1518 55.1498 74.0879 51.0525 85.9692 55.3722C98.5401 59.942 106.712 71.8642 106.153 84.8287C105.4 102.33 90.6183 115.314 73.1675 113.804C55.486 112.273 42.7177 94.8301 46.6661 77.5598C47.0581 75.8503 47.681 74.1963 48.162 72.5063V72.5091Z" fill="#8BBD3F"/>
<path d="M21.6939 96.2698C19.1469 96.2392 16.5971 96.2587 14.0502 96.2559C11.5032 96.2559 8.9534 96.2336 6.40641 96.2531C2.68325 96.2781 0.0584071 98.7048 0.002796 102.143C-0.0528151 105.649 2.55256 108.261 6.29241 108.303C11.4337 108.362 16.5777 108.367 21.7217 108.317C25.3531 108.284 28.0141 105.665 28.0141 102.274C28.0141 98.8855 25.3281 96.3143 21.6967 96.2698H21.6939ZM21.3964 104.281C18.9411 104.289 16.4887 104.281 14.0335 104.275C11.5338 104.273 9.03125 104.281 6.53154 104.264C4.92994 104.253 4.02348 103.539 3.99011 102.321C3.95674 101.07 4.9216 100.259 6.56212 100.253C11.5171 100.239 16.472 100.245 21.427 100.267C23.0897 100.275 23.9879 101.062 23.9406 102.368C23.8961 103.611 23.0313 104.273 21.3964 104.281Z" fill="#8BBD3F"/>
<path d="M22.1082 78.1959C18.6853 78.1125 15.2569 78.0958 11.834 78.1959C8.45567 78.2932 6.01156 80.9228 6.02268 84.2306C6.0338 87.5413 8.5085 90.0625 11.9119 90.1709C13.5774 90.2237 15.243 90.182 16.9113 90.1848C18.6242 90.1848 20.337 90.2293 22.0498 90.1848C25.4309 90.093 27.9724 87.5719 28.0308 84.3057C28.0892 81.0256 25.5005 78.2821 22.111 78.2014L22.1082 78.1959ZM21.8329 86.2042C20.1701 86.2459 18.5046 86.2098 16.839 86.2098C15.3125 86.2098 13.786 86.2348 12.2622 86.2014C10.9053 86.1709 10.0684 85.3953 10.0406 84.2334C10.0128 83.0576 10.8247 82.2042 12.1816 82.1876C15.4182 82.1459 18.6547 82.1486 21.8913 82.1959C23.1759 82.2154 23.9433 83.027 23.9628 84.1611C23.9851 85.3425 23.1676 86.1709 21.8329 86.2042Z" fill="#8BBD3F"/>
<path d="M21.0293 72.1196C25.8592 72.4865 28.1976 68.6144 27.9084 65.6178C27.661 63.0633 25.9593 60.8534 23.3455 60.3142C19.7058 59.5636 16.8752 60.1696 15.154 62.802C14.6897 63.5136 14.3783 64.3864 14.2114 65.2259C13.5969 68.3308 15.9938 72.4921 21.0293 72.1196ZM19.9282 64.1446C20.6123 64.0779 21.313 64.0834 21.9998 64.1335C23.2593 64.2252 24.0073 65.023 23.9767 66.1654C23.9489 67.2857 23.1537 68.0473 21.908 68.1307C21.5882 68.1529 21.2629 68.1307 20.9404 68.1307V68.1251C20.6178 68.1251 20.2925 68.1557 19.9727 68.1196C18.8049 67.9806 18.0986 67.3329 18.0792 66.1376C18.0597 64.9368 18.7465 64.253 19.9255 64.139L19.9282 64.1446Z" fill="#8BBD3F"/>
<path d="M76.1511 68.0968C75.075 68.0968 74.2047 68.9669 74.2047 70.0426V83.1156C73.9961 83.8244 74.2019 84.6194 74.7941 85.1337C75.1723 85.4617 75.6394 85.6146 76.101 85.609C76.1177 85.609 76.1344 85.609 76.1511 85.609C76.9101 85.609 77.5664 85.1726 77.8861 84.5388L93.7575 66.2622C94.461 65.4506 94.3748 64.2219 93.5629 63.5187C92.751 62.8154 91.522 62.9016 90.8185 63.7132L78.0974 78.3623V70.0426C78.0974 68.9669 77.2271 68.0968 76.1511 68.0968Z" fill="#EE715F"/>
</g>
<defs>
<clipPath id="clip0_210_3477">
<rect width="128" height="128" fill="white"/>
</clipPath>
</defs>
</svg>
