<svg width="128" height="128" viewBox="0 0 128 128" fill="none" xmlns="http://www.w3.org/2000/svg">
<g clip-path="url(#clip0_210_3452)">
<path d="M83.9954 63.6831C83.8313 58.0171 80.1844 51.7486 72.0283 50.1246C72.0283 46.2992 72.0589 42.557 72.0088 38.8148C71.9949 37.7155 71.9003 36.5801 71.6082 35.5279C69.8307 29.1596 62.8818 26.2725 56.9122 29.4289C47.9048 34.1926 38.9392 39.0314 29.918 43.7674C28.5299 44.4975 28.0041 45.3969 28.0152 46.9321C28.0653 55.6768 28.0403 64.4187 28.0403 73.1634C28.0403 73.5326 28.0236 73.9074 28.082 74.2711C28.2461 75.3288 28.9054 75.9534 29.9513 75.9895C31.0084 76.0283 31.6899 75.3982 31.9431 74.3932C32.0543 73.9546 32.0098 73.4743 32.0098 73.0135C32.0126 64.824 32.0265 56.6373 31.9931 48.4479C31.9904 47.5512 32.2296 47.0626 33.0641 46.624C41.632 42.1156 50.1664 37.5489 58.7175 33.0128C63.2602 30.6032 67.953 33.3404 67.9641 38.4678C67.9947 55.4908 67.9919 72.5166 67.9641 89.5424C67.9558 94.6864 63.3102 97.4126 58.7342 94.9946C49.7686 90.253 40.8252 85.4671 31.8402 80.7588C30.9444 80.2896 29.8345 80.0259 28.8192 80.0148C22.7021 79.9454 16.5822 79.9898 10.4623 79.9759C6.50386 79.9676 4.01419 77.5163 4.00028 73.5798C3.97802 67.1948 3.97802 60.8126 4.00028 54.4276C4.01419 50.4939 6.51221 48.0453 10.4679 48.0342C14.2233 48.0259 17.9786 48.0481 21.734 48.0231C23.0915 48.0148 23.9372 47.2236 23.9705 46.0632C24.0039 44.8778 23.2 44.0283 21.8369 44.02C17.6643 43.995 13.4861 43.8784 9.32457 44.0866C4.08095 44.3393 0.0891202 48.6283 0.0418302 53.8724C-0.0193685 60.6266 -0.00824149 67.3808 0.0418302 74.135C0.0724296 78.363 2.7457 82.1108 6.757 83.41C7.92813 83.7903 8.07556 84.3538 8.06999 85.381C8.03661 92.8764 8.03105 100.369 8.06165 107.865C8.07834 111.634 10.8629 114.18 14.6294 113.975C22.2347 113.558 27.9234 107.59 28.0264 99.8305C28.0903 95.0668 28.0375 90.3002 28.043 85.5365C28.043 85.0506 28.0876 84.5676 28.1265 83.757C29.1697 84.1095 30.0264 84.2761 30.7636 84.6675C39.5234 89.3036 48.3026 93.9064 56.9984 98.659C63.7497 102.348 70.974 97.5875 71.8669 91.1803C72.0644 89.77 72.0116 88.3209 72.0199 86.8884C72.0394 83.8902 72.0255 80.8921 72.0255 77.9355C79.9563 75.5925 84.1901 70.5456 83.9926 63.6803L83.9954 63.6831ZM23.926 100.686C23.787 105.677 19.5169 109.769 14.5849 109.949C12.8546 110.013 12.009 109.303 12.0034 107.645C11.9839 99.9777 11.9978 92.3129 12.0034 84.6453C12.0034 84.5121 12.0451 84.3788 12.098 84.0707H23.7925C23.8565 84.2261 23.9511 84.3511 23.9511 84.476C23.9594 89.8783 24.0735 95.2861 23.9233 100.683L23.926 100.686ZM72.0811 73.6714V54.4692C75.6362 54.3748 79.5112 58.6056 79.9424 63.0112C80.4347 68.061 76.9408 72.883 72.0811 73.6714Z" fill="#8BBD3F"/>
<path d="M111.168 87.425C110.308 86.5866 109.067 86.1452 108.038 85.4651C107.468 85.0875 106.811 84.6933 106.469 84.1353C104.199 80.4348 100.956 78.2667 96.6106 78.0529C88.2431 77.642 82.24 85.3179 84.5183 93.4019C84.6963 94.0293 84.9272 94.554 84.2373 95.112C82.5683 96.4584 81.9841 98.2961 82.0119 100.409C82.0564 103.784 82.0231 107.16 82.0231 110.536C82.0231 113.912 82.0119 117.473 82.0258 120.941C82.0425 125.221 84.7881 127.975 89.0637 127.989C93.6063 128.003 98.1461 127.973 102.689 128C105.457 128.017 107.61 126.968 109.142 124.627C109.359 124.297 109.927 124.006 110.325 124.017C112.497 124.078 114.322 123.35 115.841 121.832C119.246 118.428 122.676 115.047 126.031 111.596C128.701 108.848 128.626 104.845 125.919 102.13C121.021 97.2079 116.13 92.2776 111.165 87.425H111.168ZM92.7746 82.6973C96.2768 81.0955 100.719 82.403 102.728 86.023C96.7441 85.4179 92.3851 88.2356 88.4406 92.0638C87.1554 88.4521 89.1666 84.3463 92.7746 82.6973ZM102.658 124.014C98.2185 124.028 93.7788 124.028 89.3363 124.014C86.7604 124.006 85.7367 122.756 86.1095 120.044H105.86C106.263 122.726 105.22 124.008 102.655 124.014H102.658ZM105.999 115.916H86.0705C86.0399 115.569 85.9843 115.216 85.9843 114.864C85.9787 110.103 85.9509 105.339 86.0093 100.578C86.0204 99.7342 86.4016 98.893 86.6992 97.7048C88.8439 99.7897 90.7578 101.175 93.1585 101.602C93.8483 101.725 94.7969 101.583 95.331 101.175C96.6357 100.178 96.0098 98.4377 94.2962 97.7742C92.922 97.2412 91.609 96.5444 89.9205 95.7588C91.7648 94.4096 93.1334 93.3186 94.5966 92.3692C95.6175 91.7057 96.7608 91.8473 97.7344 92.5607C100.16 94.3374 102.591 96.1169 104.931 98.0047C105.473 98.4405 105.946 99.3177 105.957 100.001C106.041 105.267 106.005 110.536 106.005 115.913L105.999 115.916ZM107.209 94.64C105.254 93.1798 103.304 91.7085 100.978 89.9623C102.984 89.6903 104.578 89.3877 106.185 89.3016C106.803 89.2683 107.607 89.5709 108.052 90.0012C111.835 93.6656 115.554 97.3939 119.276 101.089C116.105 104.143 113.031 107.102 110.033 109.989C110.038 110.036 109.969 109.711 109.966 109.389C109.958 106.341 109.932 103.293 109.966 100.245C109.994 97.8936 109.087 96.042 107.209 94.64ZM122.628 109.37C119.66 112.351 116.695 115.336 113.721 118.312C113.329 118.703 112.962 119.192 112.481 119.4C111.835 119.68 111.067 119.88 110.397 119.789C110.18 119.758 110.066 118.714 109.966 118.123C109.763 116.935 110.247 116.069 111.115 115.219C114.814 111.605 118.445 107.921 122.153 104.206C124.439 106.003 124.531 107.463 122.631 109.37H122.628Z" fill="#8BBD3F"/>
<path d="M86.0371 48.0234C87.2806 48.0484 88.5268 48.0262 89.9733 48.0262C89.9733 50.5691 89.9844 52.9232 89.9677 55.2774C89.9594 56.3545 90.1319 57.315 91.2474 57.8203C92.424 58.3533 93.1751 57.6482 93.9151 56.9097C96.5689 54.2585 99.2421 51.6296 101.857 48.9396C102.53 48.2483 103.214 47.9957 104.169 48.0068C108.711 48.0512 113.254 48.0595 117.796 48.0179C123.583 47.9679 127.942 43.6594 127.969 37.9101C128.011 28.6574 128.008 19.4075 127.969 10.1548C127.944 4.36386 123.624 0.0414878 117.841 0.0220551C107.273 -0.011258 96.7024 -0.011258 86.1345 0.0220551C80.3762 0.0414878 76.0061 4.39995 75.9838 10.152C75.9477 19.4047 75.9421 28.6547 75.9866 37.9074C76.0144 43.5706 80.3762 47.9096 86.0343 48.0207L86.0371 48.0234ZM80.0174 10.1576C80.0341 6.52088 82.5237 4.02518 86.1539 4.0113C96.7219 3.97243 107.29 3.96966 117.858 4.0113C121.446 4.02518 123.978 6.58196 123.994 10.1853C124.033 19.3908 124.033 28.5964 123.994 37.7991C123.98 41.4885 121.457 43.962 117.752 43.9898C112.839 44.0259 107.927 44.0286 103.014 43.9815C101.71 43.9676 100.725 44.3368 99.8319 45.3084C98.0599 47.235 96.1878 49.07 94.3574 50.9439C94.2461 50.8911 94.1348 50.8384 94.0236 50.7857C94.0236 49.3754 94.0375 47.9651 94.0208 46.5549C94.0013 44.7393 93.3114 44.0342 91.4949 44.0064C89.7341 43.9815 87.9732 44.0231 86.2124 43.9926C82.5349 43.9315 80.0396 41.5496 80.0202 37.9157C79.9757 28.6658 79.9784 19.4131 80.0202 10.1631L80.0174 10.1576Z" fill="#EE715F"/>
<path d="M88.78 34.4676C88.3099 34.9729 88.054 36 88.2125 36.6663C88.3544 37.2687 89.1973 37.7045 89.851 38.3264C90.6494 37.7934 91.3253 37.4797 91.8205 36.9883C99.5566 29.2847 107.27 21.5616 114.984 13.8357C115.276 13.5442 115.71 13.2028 115.724 12.8696C115.755 12.1478 115.791 11.204 115.379 10.7542C114.965 10.3017 114.005 10.1768 113.301 10.2185C112.848 10.2462 112.389 10.7959 112.002 11.1818C106.528 16.634 101.067 22.0973 95.6037 27.5579C93.3143 29.8482 90.9804 32.0968 88.7772 34.4676H88.78Z" fill="#EE715F"/>
<path d="M91.9568 21.9787C95.3116 21.9954 97.9626 19.3525 97.9598 16.0018C97.957 12.6649 95.2754 9.99434 91.9484 10.0138C88.7244 10.036 86.0177 12.726 85.9871 15.9435C85.9537 19.2582 88.627 21.9621 91.9568 21.976V21.9787ZM92.0987 14.0252C93.1502 14.0863 94.0209 15.0163 93.9986 16.0462C93.9736 17.1261 92.9582 18.0728 91.89 18.0145C90.8496 17.9562 89.9873 17.0262 90.0068 15.9768C90.0262 14.8581 90.9887 13.9586 92.1014 14.0225L92.0987 14.0252Z" fill="#EE715F"/>
<path d="M106.01 32.1081C106.055 35.3533 108.747 38.0239 111.977 38.0267C115.265 38.0267 117.977 35.295 117.963 31.9887C117.952 28.6491 115.282 26.0201 111.921 26.0451C108.578 26.0701 105.963 28.749 106.01 32.1081ZM113.991 32.0109C113.997 33.0575 113.123 33.9403 112.049 33.9708C110.967 34.0014 110.058 33.1963 109.985 32.1414C109.91 31.0698 110.831 30.0566 111.919 30.0149C112.992 29.9733 113.985 30.931 113.991 32.0137V32.0109Z" fill="#EE715F"/>
</g>
<defs>
<clipPath id="clip0_210_3452">
<rect width="128" height="128" fill="white"/>
</clipPath>
</defs>
</svg>
