<svg width="104" height="128" viewBox="0 0 104 128" fill="none" xmlns="http://www.w3.org/2000/svg">
<g clip-path="url(#clip0_210_2067)">
<path d="M103.489 14.8128C103.486 5.9613 97.5725 0.00290577 88.7888 0.000129259C68.2246 -0.00264725 47.6604 -0.00264725 27.0962 0.000129259C18.3263 0.000129259 12.3851 5.96685 12.3768 14.7934C12.3658 26.2687 12.3685 37.744 12.3768 49.2194C12.3823 57.9682 18.307 63.9627 26.9778 63.9932C32.762 64.0126 38.5462 63.9987 44.3276 63.9987C44.8564 63.9987 45.388 63.9987 45.9664 63.9987V68.5578C41.3226 67.4611 39.524 68.1857 36.9679 72.059C36.7145 72.4449 36.4721 72.8364 36.2187 73.2223C33.8692 76.8123 31.528 80.4107 29.1592 83.9896C27.8261 86.0026 24.3528 86.8772 22.9013 85.5334C21.7059 84.4283 20.3535 83.9841 18.7614 83.9952C14.4922 84.0229 10.2229 83.9952 5.95358 84.0091C2.48031 84.023 0.505421 86.0304 0.502667 89.5399C0.497158 100.504 0.497158 111.472 0.502667 122.436C0.502667 125.979 2.52714 127.986 6.08579 127.992C10.2174 127.997 14.3489 127.995 18.4805 127.992C22.3642 127.992 24.2344 126.12 24.2371 122.228C24.2399 112.049 24.2371 101.868 24.2371 91.6889V89.8842C29.0876 90.5283 31.6685 87.7768 33.8499 84.134C36.0066 80.5329 38.4277 77.0928 40.7166 73.5749C41.4052 72.5171 42.3059 71.8757 43.5922 72.1173C44.9253 72.3671 45.5781 73.3778 45.9031 74.5995C46.0436 75.1242 46.0326 75.699 46.0326 76.2515C46.0436 79.861 46.0326 83.4704 46.0381 87.0799C46.0381 89.3761 46.6247 89.9702 48.8696 89.973C54.4692 89.9758 60.0689 89.9508 65.6685 89.9841C69.1776 90.0063 71.7392 92.594 71.8053 96.1258C71.8383 97.8833 71.8714 99.6464 71.786 101.398C71.7447 102.251 71.5656 103.15 71.2296 103.931C69.128 108.809 66.8915 113.629 64.8532 118.532C63.8286 121.001 62.2586 122.042 59.5786 122.014C49.9851 121.914 40.3916 121.97 30.7981 121.978C29.173 121.978 28.3329 122.655 28.2861 123.916C28.2393 125.185 29.1207 126.015 30.6383 126.018C40.7359 126.029 50.8362 126.073 60.9337 125.987C64.1288 125.959 66.5361 124.313 67.8858 121.353C69.6293 117.53 71.0864 113.559 73.031 109.847C75.2785 105.558 75.9616 101.121 75.7716 96.3423C75.5292 90.234 71.5546 86.0609 65.4977 86.0331C60.8621 86.0137 56.2265 86.0276 51.5881 86.0276C51.1034 86.0276 50.6158 86.0276 50.0429 86.0276C50.0429 85.2724 50.0429 84.7226 50.0429 84.1729C50.0429 77.0484 50.0457 69.921 50.0429 62.7965C50.0429 60.653 49.3736 59.9867 47.2417 59.9839C40.4935 59.9811 33.7453 59.9839 26.9998 59.9839C20.4829 59.9784 16.3982 55.8913 16.3927 49.3471C16.3817 37.7801 16.3817 26.2104 16.3927 14.6435C16.3982 8.15752 20.5463 3.9872 27.0053 3.9872C47.6604 3.97887 68.3182 3.97887 88.9733 4.00108C90.02 4.00108 91.0969 4.09271 92.1078 4.34815C96.6525 5.50873 99.4978 9.45693 99.5061 14.6101C99.5253 26.1327 99.5143 37.6524 99.5116 49.1749C99.5116 55.8747 95.4241 59.9867 88.7778 59.9867C78.2671 59.9867 67.7536 59.9867 57.2429 59.9867C54.9925 59.9867 53.9541 60.6392 53.9707 62.0302C53.9872 63.4157 54.9678 64.0015 57.3007 64.0043C60.0881 64.0043 62.8756 64.0043 65.831 64.0043C65.831 64.6512 65.831 65.1454 65.831 65.6397C65.831 70.2681 65.8228 74.8938 65.8365 79.5222C65.842 81.0882 66.605 81.9711 67.8555 81.96C69.1005 81.9489 69.8111 81.066 69.8442 79.4861C69.8497 79.2085 69.8442 78.9308 69.8442 78.6532C69.8442 74.3024 69.8442 69.9544 69.8442 65.6036C69.8442 65.1121 69.8442 64.6207 69.8442 64.0043C70.5796 64.0043 71.1222 64.0043 71.6648 64.0043C77.3113 64.0043 82.9577 64.0237 88.6015 63.9932C89.8823 63.9849 91.1851 63.9377 92.4356 63.685C98.9387 62.3662 103.464 56.6327 103.483 49.6581C103.514 38.0439 103.497 26.4298 103.492 14.8156L103.489 14.8128ZM20.3094 106.071C20.3094 111.435 20.3122 116.8 20.3094 122.164C20.3094 123.805 20.1111 124.01 18.4943 124.013C14.4123 124.021 10.3275 123.985 6.24555 124.035C4.93446 124.052 4.46622 123.558 4.46897 122.242C4.49927 111.419 4.49927 100.599 4.46897 89.7759C4.46622 88.4681 4.91243 87.9712 6.24004 87.9906C10.3689 88.0517 14.4977 88.0434 18.6265 87.9934C19.877 87.9795 20.337 88.4376 20.3259 89.6981C20.2846 95.154 20.3094 100.613 20.3094 106.068V106.071Z" fill="#8BBD3F"/>
<path d="M56.7967 47.6562C57.2953 47.3647 57.6947 46.9926 57.9949 46.54C58.2951 46.0875 58.5595 45.5599 58.7882 44.963C59.0168 44.3633 59.2426 43.733 59.4712 43.0666L69.1667 22.0762C69.2741 21.7624 69.3815 21.457 69.4917 21.1599C69.6019 20.8629 69.69 20.5602 69.7616 20.252C69.8332 19.9438 69.869 19.6578 69.869 19.3913C69.869 19.0054 69.7589 18.6194 69.5357 18.2391C69.3126 17.8587 69.0069 17.5533 68.6185 17.3228C68.2274 17.0924 67.806 16.9785 67.3488 16.9785C66.7235 16.9785 66.2332 17.1257 65.8724 17.4228C65.5116 17.7198 65.2554 18.053 65.0984 18.4195C64.9414 18.7888 64.7073 19.4441 64.3961 20.3881L55.0973 41.9588C55.0973 41.9588 49.2415 29.7088 48.2361 28.0957C47.8781 27.5209 47.2143 27.2516 46.3026 27.2516C45.5589 27.2516 44.9419 27.5071 44.4489 28.0152C43.9558 28.5233 43.7107 29.0841 43.7107 29.7033C43.7107 29.9448 43.7493 30.2419 43.8264 30.5918C43.9035 30.9416 43.9999 31.2692 44.1156 31.5719C44.2285 31.8745 44.3414 32.1827 44.4489 32.4964C44.4489 32.4964 50.9106 44.3605 51.1393 44.9547C51.3679 45.546 51.635 46.0764 51.9408 46.5428C52.2465 47.0093 52.6487 47.3841 53.1472 47.6673C53.6457 47.9505 54.2545 48.0949 54.9733 48.0949C55.6922 48.0949 56.301 47.9505 56.7995 47.659L56.7967 47.6562Z" fill="#EE715F"/>
</g>
<defs>
<clipPath id="clip0_210_2067">
<rect width="103" height="128" fill="white" transform="translate(0.5)"/>
</clipPath>
</defs>
</svg>
