<svg width="122" height="124" viewBox="0 0 122 124" fill="none" xmlns="http://www.w3.org/2000/svg">
<g clip-path="url(#clip0_210_3472)">
<path d="M102 60.8438C95.8829 65.8862 85.178 63.6451 84.6682 62.5246C84.3284 61.0306 83.5467 57.8183 83.1389 56.9219C82.6292 55.8014 83.6487 54.6808 84.1584 53C90.6834 57.034 97.0723 54.6808 99.4512 53C99.6211 53.9338 100.369 56.8098 102 60.8438Z" fill="#EE715F"/>
<path d="M120.15 66.1412C116.39 62.4689 111.915 59.9547 107.007 58.1366C106.54 57.964 106.109 57.6967 105.404 57.3432C107.833 56.8559 109.906 56.5274 111.932 56.0179C118.446 54.3752 122.02 48.1107 120.178 41.6959C119.834 40.4959 119.375 39.2876 119.286 38.0598C118.998 34.0867 118.824 30.1025 118.662 26.1183C118.354 18.5787 115.844 11.9801 109.864 7.13842C101.042 -0.000277708 91.0634 -0.827186 80.7354 3.05121C73.4126 5.802 68.4319 11.1143 66.2941 18.7875C65.2476 22.549 65.5274 26.4162 65.2839 30.2473C64.9538 35.437 64.2654 40.6017 63.7282 45.8026C60.6894 45.9112 58.0283 46.2787 55.815 48.1024C55.6722 48.2221 55.3784 48.2332 55.1742 48.197C54.1836 48.0133 53.2015 47.7989 52.1717 47.5845C52.1717 47.5149 52.141 47.3701 52.1773 47.2449C52.8825 44.6082 53.5792 41.966 54.3263 39.3405C54.4466 38.9229 54.802 38.5693 55.0594 38.1934C57.505 34.6185 58.6103 30.8125 57.1721 26.5276C57.0294 26.1044 57.0853 25.5253 57.256 25.0993C60.306 17.5068 57.7289 9.06508 50.921 4.46837C47.1658 1.93196 42.893 0.790436 38.4831 0.186264C36.0823 -0.142272 33.5807 -0.158977 31.3982 1.14681C30.0886 1.92917 28.905 2.59738 27.31 2.02384C26.84 1.854 26.1684 1.99878 25.6675 2.19924C20.8099 4.14818 16.3468 6.72079 14.0579 11.6655C12.0852 15.9254 11.7858 20.3188 14.4609 24.548C14.6567 24.8571 14.528 25.4613 14.3825 25.8677C14.0887 26.6863 13.406 27.4464 13.3612 28.2566C13.1457 32.0013 13.7557 35.5568 16.3161 38.547C16.6239 38.9062 16.8029 39.4268 16.8925 39.9029C17.7039 44.2685 19.1338 48.4448 21.1233 52.3873C22.6903 55.4889 22.1894 56.8086 18.7756 57.5074C12.6673 58.752 6.99537 60.9793 2.09019 64.9273C0.265786 66.3946 -0.344214 68.2739 0.176245 70.4846C0.635144 72.4419 2.28047 73.9064 4.26996 74.2572C7.88519 74.8948 11.5004 75.705 15.1492 75.9722C22.8162 76.5347 30.5056 76.8075 38.1893 77.15C39.0903 77.1889 39.5044 77.3838 39.6444 78.35C40.0025 80.8112 40.6937 83.161 42.5908 84.968C42.7755 85.1434 42.8762 85.4497 42.9238 85.7114C43.8276 90.5949 45.3806 95.2501 47.759 99.6296C48.7664 101.487 47.8654 103.411 45.7947 103.878C44.8014 104.104 43.8052 104.318 42.8147 104.56C37.3611 105.897 32.3104 108.085 27.9312 111.649C26.1376 113.108 25.4157 114.996 26.0229 117.229C26.6301 119.467 28.2642 120.706 30.5028 121.124C33.1302 121.614 35.7661 122.042 38.4076 122.413C39.4961 122.566 40.5118 121.825 40.6853 120.745C40.8644 119.637 40.0977 118.596 38.9784 118.44C36.7231 118.128 34.4706 117.766 32.2208 117.351C31.899 117.293 31.5353 117.298 31.2723 117.137C30.791 116.847 30.0942 116.513 30.0075 116.09C29.9179 115.658 30.3181 114.881 30.7322 114.628C33.3513 113.044 35.9452 111.373 38.721 110.109C40.8588 109.138 43.212 108.503 45.5373 108.11C48.6405 107.584 51.0581 106.431 51.9703 103.09C53.7975 104.023 55.384 104.886 57.0182 105.657C58.4368 106.326 59.9115 106.66 61.4784 106.042C61.8394 105.9 62.3543 105.861 62.6956 106.008C64.3466 106.727 65.7932 106.147 67.2287 105.418C68.7145 104.661 70.1863 103.878 71.647 103.115C71.7617 103.182 71.8904 103.213 71.91 103.277C72.8838 106.287 75.0439 107.551 78.1191 108.035C83.3741 108.862 88.3044 110.686 92.5744 113.968C93.2768 114.508 94.5136 114.998 93.9931 116.045C93.6797 116.677 92.566 117.123 91.7406 117.27C83.7518 118.718 75.7015 119.634 67.5784 119.885C61.9205 120.06 53.4841 119.698 47.8682 119.333C46.8217 119.267 45.8899 119.993 45.7248 121.026C45.5345 122.201 46.4047 123.284 47.5967 123.362C49.8017 123.507 54.8076 123.886 57.021 123.936C65.4239 124.131 73.8099 123.877 82.1485 122.791C86.1638 122.268 90.1988 121.725 94.1442 120.837C98.3666 119.885 99.5727 115.037 96.5143 112.003C95.9239 111.415 95.2523 110.903 94.5779 110.41C89.656 106.813 84.0261 104.972 78.0967 103.867C75.9953 103.475 75.0635 101.459 76.0877 99.56C78.4241 95.2334 79.8988 90.6171 80.8781 85.8255C80.9481 85.4775 81.06 85.071 81.295 84.8316C83.0831 83.0135 83.8666 80.7444 84.1296 78.311C84.2779 76.9384 84.7788 76.5876 86.1527 76.6377C96.4667 77.0107 106.753 76.7184 116.986 75.2205C119.806 74.8084 121.384 73.5166 121.888 71.0219C122.285 69.0619 121.519 67.4832 120.142 66.1384L120.15 66.1412ZM67.6596 45.062C67.7267 44.2797 67.6904 43.4611 67.9198 42.7289C69.0587 39.0955 69.2881 35.3619 69.3721 31.5948C69.4476 28.2594 69.3413 24.8794 69.8561 21.6051C70.8859 15.04 74.7921 10.4628 80.6822 7.45582C89.4181 2.99831 100.888 4.38206 108.001 10.8776C112.525 15.0094 114.4 20.3216 114.635 26.3132C114.789 30.2055 114.895 34.1006 115.186 37.9818C115.298 39.4853 115.799 40.9693 116.219 42.4365C117.573 47.1752 115.284 51.1511 110.444 52.2397C108.538 52.6685 106.593 52.9302 104.651 53.1669C104.355 53.203 103.683 52.6462 103.714 52.4457C103.879 51.385 103.974 50.1933 104.534 49.333C106.742 45.9474 108.544 42.431 109.151 38.3911C109.218 37.9428 109.344 37.4751 109.568 37.0853C111.434 33.8027 111.507 30.3921 110.413 26.8645C110.259 26.3661 110.264 25.7898 110.326 25.2636C110.435 24.3476 110.732 23.4483 110.793 22.5295C110.905 20.9091 109.842 19.904 108.264 20.2631C106.923 20.5694 106.204 19.9736 105.664 18.9657C105.273 18.2335 104.97 17.4483 104.693 16.666C103.963 14.6056 102.491 14.1741 100.865 15.6553C98.2491 18.0414 95.3139 19.8901 91.9393 20.987C86.7822 22.6631 81.656 22.4849 76.5997 20.5416C75.6483 20.1768 74.7333 19.8873 73.8519 20.6529C72.9789 21.413 73.0572 22.3652 73.3399 23.3453C73.8183 25.0046 73.8687 26.5582 73.3203 28.3151C72.4025 31.2468 72.9117 34.1842 74.4395 36.9043C74.683 37.3387 74.8677 37.8342 74.9432 38.3243C75.5644 42.353 77.1649 45.9697 79.5798 49.2328C80.2933 50.1961 80.5339 51.1706 80.2485 52.5432C79.146 51.6801 78.2646 50.9228 77.316 50.2657C74.8313 48.5423 72.0331 47.5205 69.0978 46.8773C68.0429 46.6462 67.5644 46.1089 67.654 45.0648L67.6596 45.062ZM16.8337 18.3894C16.5959 16.201 17.0772 14.3746 18.1041 12.6762C19.9956 9.54954 22.9645 7.75094 26.2048 6.331C26.4734 6.21406 27.1813 6.51197 27.3296 6.80153C27.7913 7.69804 28.3202 8.37182 29.4283 8.33562C30.5391 8.29665 31.0512 7.56997 31.401 6.64561C31.8906 5.35653 32.9036 4.68832 34.1907 4.34865C40.8644 2.59181 51.0637 7.61451 53.5317 13.9736C54.0969 15.4298 54.248 17.0418 54.6397 18.8126C49.0098 17.8576 44.0067 19.3277 38.9308 19.8177C35.9088 20.11 32.8868 20.4191 29.9207 19.4696C28.53 19.027 27.2289 18.5787 27.1478 16.6771C27.1002 15.5328 25.813 14.8423 24.4084 15.2766C22.2034 15.956 20.0824 16.9082 17.9334 17.7601C17.606 17.891 17.3178 18.111 16.8365 18.3894H16.8337ZM38.8217 73.1045C35.7913 73.1184 32.7441 73.2521 29.7305 73.0182C22.9981 72.4976 16.2797 71.7987 9.55849 71.1277C8.26574 70.9997 6.97299 70.7491 5.72221 70.4038C5.1262 70.2424 4.26716 69.7997 4.18322 69.3598C4.09088 68.8753 4.62533 68.0957 5.10381 67.7115C7.77886 65.5621 10.8093 64.0225 14.0691 62.97C16.0586 62.3269 18.0817 61.6754 20.1384 61.3719C22.8218 60.9793 24.6014 59.6819 25.5864 57.2123C25.6675 57.009 25.8186 56.8309 25.9529 56.6109C27.3464 57.3682 28.6616 58.1589 30.0411 58.8104C31.664 59.5761 33.3149 59.8963 35.1869 59.487C36.3873 59.2225 37.7388 59.6318 39.04 59.7431C38.9308 61.3468 38.7406 62.9004 38.7434 64.4512C38.7489 66.6507 39.0791 68.7751 40.5034 70.6182C41.2505 71.5871 40.218 73.0989 38.8189 73.1045H38.8217ZM38.942 55.2661C38.4887 55.539 37.7864 55.436 37.1988 55.4443C36.3677 55.4527 35.4779 55.2077 34.714 55.4193C33.3205 55.8091 32.0949 55.5306 30.984 54.804C28.9638 53.4842 26.9995 52.0782 25.0603 50.6444C24.6434 50.3353 24.3524 49.7868 24.1369 49.2912C22.5084 45.5381 21.1569 41.7071 20.6532 37.6115C20.5805 37.0157 20.0264 36.4032 19.5535 35.941C17.5249 33.9642 17.3178 31.4473 17.4073 28.8691C17.4241 28.4125 17.939 27.9002 18.3447 27.5466C19.4752 26.5582 19.6627 25.4 18.9184 24.1861C18.216 23.039 18.6441 22.2594 19.5228 21.5717C20.0684 21.1457 20.6924 20.8172 21.2912 20.4636C22.528 19.7314 23.4346 19.4752 24.6602 20.9146C26.6217 23.22 29.5738 23.9884 32.5062 23.9745C36.1718 23.955 39.8402 23.5736 43.5002 23.2645C45.8619 23.0641 48.2067 22.6603 50.5712 22.4571C51.489 22.3791 52.432 22.5991 53.3638 22.6826C51.2931 25.1049 51.2819 25.6506 53.1931 27.967C53.4253 28.2482 53.7555 28.5935 53.7471 28.9053C53.6939 31.4139 53.5289 33.8835 51.6541 35.8909C51.0693 36.5173 50.5068 37.3888 50.4061 38.2073C49.9052 42.2221 48.3858 45.9029 46.8832 49.5947C46.7153 50.0068 46.4383 50.4606 46.0801 50.6973C43.7269 52.2592 41.3596 53.8044 38.942 55.2634V55.2661ZM80.2793 77.0414C79.9267 79.1796 79.5826 81.24 77.6434 82.6515C77.2713 82.9216 77.1006 83.6093 77.0334 84.1327C76.485 88.3146 75.0579 92.2236 73.3622 96.0491C73.0936 96.6561 72.6095 97.2435 72.0779 97.6473C70.7096 98.6858 69.2853 99.6547 67.8359 100.576C66.1766 101.634 64.3577 101.815 62.3822 102.077C57.312 102.748 54.4075 99.482 51.0105 96.954C50.7643 96.7702 50.5824 96.4556 50.4593 96.1661C48.8335 92.3155 47.3365 88.4343 46.7741 84.2497C46.6817 83.5536 46.2228 82.7768 45.694 82.298C44.3229 81.0506 42.8846 76.7323 43.475 74.9783C43.6289 74.5217 43.9815 74.0762 44.3537 73.7532C45.5289 72.7398 45.7416 71.5481 44.9693 70.2786C44.2669 69.1259 44.6531 68.2851 45.5961 67.6725C46.6761 66.9709 47.857 66.4085 49.0294 65.8656C49.2756 65.7514 49.8325 65.86 49.992 66.0633C52.6838 69.5296 56.5621 70.2424 60.5187 70.1366C64.646 70.0252 68.7593 69.3236 72.881 68.9171C74.6858 68.7389 76.499 68.6164 78.3122 68.5468C78.8578 68.5273 79.4147 68.7751 79.9687 68.8976C80.0387 69.0619 80.1114 69.2289 80.1814 69.3932C79.896 69.538 79.5686 69.6354 79.3363 69.8386C78.0296 70.9885 77.9037 72.2637 79.1656 73.4163C80.3073 74.4604 80.5144 75.588 80.2737 77.0414H80.2793ZM63.7925 66.0521C60.9972 66.3055 58.1962 66.3389 55.51 65.2948C54.3963 64.8605 53.4589 64.4011 53.4281 62.8837C53.4029 61.6614 52.3312 61.2522 51.1924 61.3051C48.7552 61.4164 46.567 62.299 44.4964 63.5213C44.0263 63.7997 43.5646 64.0893 42.9518 64.4651C42.2103 59.2893 46.4327 54.2583 53.1091 51.9669C53.1819 52.0198 53.2854 52.0615 53.3218 52.1367C53.7947 53.0945 54.1808 54.1274 55.5295 54.1497C56.8783 54.1719 57.2896 53.1975 57.7821 52.2119C58.5767 50.6193 60.1045 49.9483 61.7163 49.9762C68.2136 50.0875 74.2269 51.5464 78.5109 56.9394C80.2961 59.1835 81.0096 61.8313 81.0012 64.8104C75.0635 63.9528 69.47 65.5398 63.7897 66.0549L63.7925 66.0521ZM78.8802 37.1326C78.8075 36.5563 78.6396 35.9354 78.329 35.451C76.6529 32.8422 76.4234 30.2278 78.0016 27.4742C78.315 26.9257 78.2842 26.1796 78.4465 25.3415C86.8382 27.1011 94.5919 25.6172 101.607 20.3244C101.918 20.7504 102.105 21.1207 102.393 21.388C103.328 22.265 104.22 23.22 105.281 23.916C105.966 24.3671 106.269 24.6121 106.056 25.5058C105.891 26.1935 106.039 27.0733 106.339 27.7359C107.455 30.2 107.312 32.5638 106.162 34.9637C105.715 35.8992 105.354 36.9015 105.127 37.9122C103.966 43.0825 101.962 47.746 97.1494 50.5859C92.9074 53.0917 88.1925 52.4875 84.7172 49.024C81.4266 45.7414 79.4734 41.7572 78.883 37.1298L78.8802 37.1326ZM101.895 60.6731C101.464 60.9765 100.723 61.6754 99.8469 62.0846C95.2355 64.2396 90.515 64.3287 85.7413 62.622C85.4867 62.5301 85.1005 62.3965 85.0474 62.2071C84.6053 60.6174 84.054 59.0276 83.8889 57.4016C83.7882 56.4104 84.3087 55.358 84.6081 54.0912C89.6028 56.7919 94.4604 56.7167 99.1837 54.1163C100.057 56.2239 100.899 58.2619 101.898 60.6703L101.895 60.6731ZM117.817 70.3677C117.705 70.7547 116.924 71.15 116.409 71.1918C109.397 71.7598 102.388 72.3667 95.3642 72.7481C91.9281 72.9347 88.4667 72.6758 85.0138 72.6089C84.5661 72.6006 84.1212 72.531 83.5336 72.4753C84.1156 70.518 84.65 68.725 85.1229 67.1296C88.1477 67.3384 90.9739 67.7561 93.7861 67.6725C98.2995 67.5389 102.382 66.1217 105.58 62.7167C105.829 62.4522 106.526 62.3491 106.89 62.4911C110.698 63.9779 114.204 65.9797 117.123 68.8781C117.506 69.2595 117.937 69.9667 117.819 70.3704L117.817 70.3677Z" fill="#8BBD3F"/>
</g>
<defs>
<clipPath id="clip0_210_3472">
<rect width="122" height="124" fill="white"/>
</clipPath>
</defs>
</svg>
