<svg width="120" height="128" viewBox="0 0 120 128" fill="none" xmlns="http://www.w3.org/2000/svg">
<g clip-path="url(#clip0_210_2081)">
<path d="M119.98 30.344C119.955 18.7755 111.974 9.71675 100.51 8.17595C99.0589 7.98162 97.5744 8.01493 96.1289 7.94275C94.8056 2.50137 92.2064 -0.0166493 87.9587 0.00278415C86.1379 0.0111128 84.5005 0.59967 83.0633 1.7046C81.0284 3.27038 80.15 5.44416 79.9415 7.93164H68.1297C67.179 2.94557 64.5464 0.241538 60.4794 0.013889C58.6058 -0.091607 56.9017 0.424768 55.3727 1.49083C53.1349 3.05384 52.1897 5.34977 51.884 8.02326H40.0861C39.3827 2.97888 36.3276 0.00556036 32.0355 7.94019e-06C27.7377 -0.00554448 24.7327 2.90115 23.9459 8.03159C23.0647 8.03159 22.2419 8.01215 21.419 8.03436C18.3222 8.11765 15.3366 8.72842 12.5761 10.1526C4.36988 14.3863 0.0832712 21.1686 0.0499124 30.3579C-0.0390444 55.341 0.0165536 80.3241 0.0193335 105.307C0.0193335 118.408 9.62945 127.994 22.7589 127.997C47.5473 128 72.3329 128.003 97.1213 127.997C110.44 127.997 119.992 118.447 119.989 105.155C119.989 97.1979 119.989 89.2385 119.989 81.2819C119.989 64.3026 120.017 47.3233 119.98 30.344ZM115.922 106.06C115.908 116.146 107.924 123.991 97.6912 124.008C76.1414 124.038 54.5916 124.019 33.0418 124.019C29.4724 124.019 25.9058 124.038 22.3364 124.013C11.9673 123.938 4.09467 116.123 4.08355 105.801C4.05575 80.5351 4.05297 55.266 4.08355 29.9997C4.09745 19.4363 12.9292 11.2881 23.4928 11.9849C23.6235 11.9932 23.7486 12.0543 24.0738 12.1487C24.0738 13.5785 24.0154 15.0471 24.0849 16.5101C24.249 19.9915 26.7648 22.9426 30.1729 23.7422C33.595 24.5445 37.1727 23.0259 38.8907 20.0331C39.0964 19.6722 39.2827 19.2947 39.4244 18.906C39.8553 17.715 39.4689 16.6434 38.4765 16.1992C37.459 15.7467 36.4221 16.1603 35.8161 17.2653C34.618 19.4474 33.0418 20.3385 31.1626 19.8916C29.1193 19.4057 28.0268 17.8011 28.0241 15.2719C28.0213 12.9594 28.0102 10.644 28.0268 8.33142C28.0491 5.76897 29.7615 3.95333 32.0827 3.9922C34.3205 4.03107 35.9968 5.85781 36.0441 8.31476C36.0496 8.63958 36.0441 8.96162 36.0441 9.28643C36.058 11.3908 36.639 11.9655 38.799 11.9683C42.6463 11.9738 46.4909 11.9683 50.3383 11.9683C50.8359 11.9683 51.3335 11.9683 51.984 11.9683C51.984 13.4979 51.934 14.8777 51.9951 16.2492C52.1564 19.9193 54.789 23.037 58.2944 23.7727C61.9694 24.5445 65.5527 22.7871 67.1956 19.4029C67.8851 17.9843 67.6571 16.835 66.5785 16.2603C65.4332 15.6495 64.3768 16.1381 63.6124 17.6289C62.7033 19.4057 60.9131 20.3108 59.1478 19.8888C57.2881 19.4446 56.0705 17.9593 56.0427 15.966C56.0038 13.3286 56.001 10.6912 56.0427 8.0538C56.076 5.73288 57.7356 4.03384 59.9234 3.98387C62.1418 3.9339 63.8764 5.67736 63.9682 8.04547C64.1211 11.9544 64.1294 11.9655 68.0241 11.9683C71.9548 11.9683 75.8856 11.9683 80.0221 11.9683C80.0221 13.6034 79.9665 15.0332 80.0332 16.4602C80.1972 20.0331 82.8521 23.0759 86.3603 23.7921C89.9019 24.514 93.4963 22.7871 95.1031 19.589C95.8953 18.0148 95.673 16.7878 94.4971 16.2214C93.349 15.6717 92.3538 16.1687 91.5531 17.6956C90.6469 19.4168 88.9261 20.2913 87.1915 19.9082C85.3734 19.5057 84.0252 17.9704 83.9807 16.041C83.9195 13.3591 83.9167 10.6718 83.9779 7.98994C84.0307 5.73288 85.8182 4.00053 87.9643 3.98665C90.166 3.97277 91.9062 5.75509 91.9785 8.10099C92.098 11.9322 92.1369 12.0432 96.0705 11.9488C100.604 11.8405 104.838 12.6956 108.524 15.458C113.359 19.0809 115.913 23.9254 115.919 29.9831C115.944 55.3438 115.952 80.7017 115.919 106.062L115.922 106.06Z" fill="#8BBD3F"/>
<path d="M96.7571 28.2706C95.2087 28.0402 93.6186 28.0346 92.048 28.0319C70.0367 28.018 48.0283 28.0013 26.017 28.0319C16.3235 28.0457 8.30347 35.7747 8.03104 45.2444C7.98378 46.8851 8.68153 47.9068 9.91303 47.9984C11.1417 48.09 11.9396 47.1572 12.0619 45.4887C12.6596 37.421 18.5085 31.9769 26.6425 31.9713C48.8372 31.9602 71.0347 31.9602 93.2294 31.9713C101.972 31.9769 107.957 37.9818 107.966 46.7435C107.98 61.7351 107.974 76.7266 107.96 91.7181C107.96 92.7315 107.835 93.7476 107.752 94.7581C107.677 95.6909 107.243 96.0712 106.22 96.049C102.931 95.9769 99.6371 96.1184 96.3513 96.0018C90.9416 95.8103 85.1455 100.108 86.0017 108.123C86.1212 109.236 86.794 109.916 87.9254 109.936C89.1208 109.958 89.8296 109.261 89.9742 108.098C90.0631 107.368 89.9936 106.618 90.0159 105.88C90.1104 102.815 92.2648 100.255 95.2949 100.055C98.325 99.858 101.38 100.011 104.822 100.011C99.5176 104.808 94.5471 109.383 89.4794 113.847C87.6891 115.424 85.429 116.021 83.03 116.021C64.1239 116.018 45.2178 116.057 26.3117 115.963C24.2907 115.952 22.114 115.491 20.2821 114.647C14.675 112.071 12.0369 107.468 12.0369 101.332C12.0369 85.9714 12.0369 70.6106 12.0369 55.2471C12.0369 54.739 12.0647 54.2226 11.9868 53.7229C11.8228 52.6763 11.1612 52.0378 10.1132 51.9989C8.9901 51.9572 8.31459 52.6291 8.06161 53.7007C7.98934 54.0089 8.01714 54.3448 8.01714 54.6696C8.01714 70.4468 7.98378 86.2268 8.02826 102.004C8.05605 111.973 16.0094 119.93 25.9753 119.952C45.0204 119.991 64.0655 119.958 83.1106 119.966C86.9024 119.966 90.1855 118.7 92.9793 116.163C97.7134 111.871 102.439 107.57 107.165 103.27C110.195 100.513 111.927 97.0596 111.949 92.9924C112.027 77.168 112.049 61.3436 111.949 45.5192C111.896 36.8852 105.322 29.5393 96.7544 28.2567L96.7571 28.2706Z" fill="#8BBD3F"/>
<path d="M50.961 69.0358C50.2994 69.7437 49.4738 70.4488 48.4814 71.1485C47.9254 71.5232 46.9969 72.3061 45.7015 73.4971C44.406 74.6881 42.9521 76.1179 41.3426 77.7864C40.9562 78.1973 40.5976 78.7636 40.2695 79.4826C39.9415 80.2017 39.7803 80.7791 39.7803 81.215C39.7803 81.8924 40.0332 82.4809 40.542 82.9834C41.0507 83.4859 41.7596 83.7358 42.6658 83.7358H56.0344C56.835 83.7358 57.4299 83.5304 57.8246 83.1195C58.2194 82.7086 58.414 82.2061 58.414 81.6148C58.414 80.9485 58.1665 80.4238 57.6689 80.0351C57.1713 79.6492 56.4513 79.4549 55.5062 79.4549H46.0239C46.3269 78.994 46.6244 78.6026 46.9135 78.275C47.5918 77.4532 48.8427 76.2983 50.6636 74.8103C52.4844 73.3222 53.7854 72.2312 54.561 71.5371C55.3366 70.8431 56.0955 69.8797 56.8405 68.6526C57.5855 67.4256 57.958 66.0624 57.958 64.5633C57.958 63.6083 57.7801 62.6866 57.4215 61.7982C57.0629 60.9098 56.5653 60.1269 55.9232 59.4495C55.281 58.7721 54.536 58.2391 53.6881 57.8532C52.3788 57.2729 50.7998 56.9814 48.9484 56.9814C47.4111 56.9814 46.0684 57.2091 44.9259 57.6616C43.7806 58.1141 42.8382 58.711 42.0931 59.4495C41.3481 60.188 40.7894 61.0097 40.4141 61.9175C40.0388 62.8254 39.8498 63.6943 39.8498 64.53C39.8498 65.2185 40.0499 65.7626 40.4502 66.1624C40.8505 66.5622 41.3537 66.762 41.9569 66.762C42.6463 66.762 43.1718 66.5455 43.5276 66.1096C43.8834 65.6738 44.2059 65.0519 44.4894 64.2412C44.773 63.4306 44.9759 62.9364 45.0982 62.7532C46.0072 61.3623 47.2526 60.6683 48.84 60.6683C49.5905 60.6683 50.2827 60.8376 50.9193 61.1763C51.5559 61.515 52.0563 61.9897 52.426 62.6005C52.7958 63.2113 52.9792 63.9025 52.9792 64.6771C52.9792 65.3906 52.8069 66.118 52.4622 66.862C52.1175 67.606 51.6143 68.3306 50.9555 69.0385L50.961 69.0358Z" fill="#EE715F"/>
<path d="M73.3282 80.0025C72.6248 80.4855 71.8076 80.7271 70.8763 80.7271C69.8588 80.7271 68.9387 80.4272 68.1158 79.8303C67.293 79.2307 66.6397 78.395 66.1532 77.3179C65.6556 76.1463 64.8995 75.5577 63.8821 75.5577C63.2899 75.5577 62.7951 75.7687 62.4004 76.1935C62.0056 76.6183 61.811 77.0652 61.811 77.5344C61.811 78.309 62.0918 79.2112 62.6561 80.2468C63.2204 81.2823 64.1767 82.1957 65.525 82.9952C66.876 83.7948 68.6329 84.1918 70.8012 84.1918C72.7388 84.1918 74.4485 83.7698 75.9329 82.923C77.4146 82.0763 78.5516 80.9325 79.3383 79.4944C80.125 78.0563 80.5198 76.46 80.5198 74.7054C80.5198 73.495 80.3029 72.3651 79.8665 71.3129C79.43 70.2607 78.8324 69.3501 78.0679 68.5839C77.3062 67.8149 76.4166 67.2152 75.4075 66.7794C74.3956 66.3435 73.3087 66.127 72.1467 66.127C70.6928 66.127 69.1083 66.5878 67.3875 67.5067L68.4216 61.6295H77.0505C77.9456 61.6295 78.6239 61.4352 79.0853 61.0493C79.5468 60.6634 79.7748 60.1553 79.7748 59.5251C79.7748 58.087 78.8296 57.3652 76.942 57.3652H67.3514C66.3089 57.3652 65.5583 57.6012 65.0997 58.0732C64.6382 58.5451 64.3241 59.3003 64.1545 60.3413L62.6283 69.0309C62.4949 69.7916 62.4282 70.2052 62.4282 70.2635C62.4282 70.8076 62.6589 71.2935 63.1176 71.7238C63.5791 72.1541 64.1045 72.3679 64.6994 72.3679C65.2442 72.3679 65.9364 72.0514 66.7787 71.4156C67.621 70.7799 68.266 70.3357 68.7135 70.0831C69.1611 69.8276 69.9061 69.7027 70.9486 69.7027C71.7964 69.7027 72.5665 69.9054 73.2559 70.3107C73.9453 70.716 74.4957 71.3296 74.9099 72.1513C75.3214 72.9731 75.5271 73.9642 75.5271 75.1247C75.5271 76.2018 75.3353 77.1624 74.9544 78.0091C74.5736 78.8559 74.0315 79.5222 73.3282 80.0052V80.0025Z" fill="#EE715F"/>
</g>
<defs>
<clipPath id="clip0_210_2081">
<rect width="120" height="128" fill="white"/>
</clipPath>
</defs>
</svg>
