<svg width="128" height="130" viewBox="0 0 128 130" fill="none" xmlns="http://www.w3.org/2000/svg">
<g clip-path="url(#clip0_210_2061)">
<path d="M77.2672 75.0861C75.1047 75.1141 72.9395 75.1141 70.7771 75.1197C68.5042 75.1253 67.8994 74.5299 67.8994 72.2351C67.8939 63.802 67.8856 55.369 67.916 46.936C67.916 46.2707 68.0928 45.544 68.391 44.9542C71.1803 39.4673 72.3706 33.684 71.7161 27.5235C70.0536 11.8314 56.4963 -1.10467 39.0009 0.661881C21.3011 2.448 9.25451 19.2414 12.8834 36.8817C17.2027 57.8791 40.6275 67.5336 58.1948 56.174C59.9623 55.0308 60.3876 53.9714 59.653 52.8254C58.9266 51.6933 57.786 51.685 56.0241 52.7974C44.9137 59.8049 31.2764 57.7617 22.6239 47.7941C15.5595 39.6545 14.383 27.1238 19.8098 17.7767C25.5541 7.87622 36.7501 2.79739 47.4987 5.21242C64.4556 9.02504 72.934 27.7499 64.8008 43.333C64.2899 44.3085 64.0109 45.5188 63.9861 46.6257C63.8949 50.9107 63.9474 55.1985 63.9502 59.4835C63.9502 64.0033 63.917 68.5231 63.9612 73.0429C63.9944 76.5452 66.571 79.1112 70.0204 79.1447C72.459 79.1671 74.9031 79.0525 77.3362 79.1839C78.0929 79.223 79.0319 79.6842 79.5041 80.2712C80.1531 81.0734 79.7085 82.0182 79.0761 82.8036C68.3882 96.1002 57.7198 109.416 47.0098 122.696C43.9803 126.456 39.8184 126.417 36.8109 122.646C26.228 109.38 15.6617 96.103 5.13956 82.7868C4.67835 82.2054 4.48227 81.1377 4.63693 80.397C4.84958 79.3739 5.86589 79.1531 6.86011 79.1615C9.2987 79.1783 11.74 79.195 14.1786 79.1531C17.686 79.0916 20.2351 76.4893 20.2848 72.9171C20.3207 70.4014 20.2958 67.8858 20.2931 65.3701C20.2931 62.902 20.3179 60.431 20.2765 57.9629C20.2544 56.6604 19.3513 55.7519 18.2411 55.7715C17.1668 55.7911 16.3963 56.638 16.3107 57.9098C16.2858 58.2816 16.2996 58.6561 16.2996 59.0279C16.2996 63.5001 16.3079 67.9724 16.2941 72.4475C16.2886 74.4796 15.6479 75.1253 13.6429 75.142C11.2485 75.1616 8.85406 75.1057 6.46242 75.1588C3.45216 75.2259 1.23726 77.1518 0.621402 80.1202C0.176766 82.2697 0.952807 84.0279 2.25357 85.6603C12.7122 98.7864 23.168 111.918 33.6128 125.055C38.3132 130.967 45.4964 130.998 50.2217 125.106C52.3096 122.501 54.3974 119.896 56.488 117.293C65.0245 106.666 73.5609 96.0415 82.0974 85.4143C83.7765 83.3235 84.3261 81.0315 83.1054 78.5326C81.9234 76.1064 79.8963 75.0554 77.2616 75.0917L77.2672 75.0861Z" fill="#8BBD3F"/>
<path d="M127.122 31.1461C126.312 29.3572 124.829 28.7423 122.954 28.7786C120.563 28.8233 118.165 28.7674 115.774 28.801C114.432 28.8206 113.611 29.6479 113.645 30.8359C113.675 31.9651 114.465 32.7282 115.754 32.7478C117.917 32.7841 120.082 32.7562 122.244 32.7673C122.57 32.7673 122.896 32.8428 123.299 32.8931C123.148 33.1615 123.098 33.2984 123.009 33.399C116.492 40.9376 109.98 48.4818 103.446 56.0036C102.266 57.3593 100.988 57.2503 99.7117 55.7744C94.0143 49.1806 88.3196 42.584 82.6277 35.9874C81.7882 35.0147 80.9624 34.0336 80.0207 32.9267C80.3687 32.8232 80.4515 32.7757 80.5371 32.7757C82.5615 32.7673 84.5885 32.7645 86.6129 32.7645C89.3194 32.7645 89.7474 32.3341 89.7474 29.6172C89.7474 22.1625 89.7419 14.7049 89.7502 7.25021C89.7502 5.4613 90.3771 4.60877 91.8795 4.59759C98.4164 4.55846 104.953 4.57243 111.49 4.5892C112.584 4.5892 113.324 5.1678 113.562 6.27749C113.647 6.67999 113.617 7.11324 113.617 7.52972C113.62 12.4688 113.609 17.4079 113.625 22.3469C113.631 23.9486 114.556 24.8961 115.865 24.6669C117.141 24.4433 117.552 23.5461 117.55 22.3302C117.539 17.2513 117.558 12.1725 117.541 7.09368C117.53 3.02111 115.103 0.575336 111.084 0.569745C104.871 0.56136 98.6539 0.564155 92.4401 0.569745C88.2092 0.572541 85.7788 3.04347 85.7733 7.34524C85.7678 13.9614 85.7733 20.5804 85.7733 27.1966C85.7733 27.6913 85.7733 28.186 85.7733 28.7898C83.7186 28.7898 81.8379 28.7702 79.9599 28.7954C78.2918 28.8178 77.0518 29.5836 76.32 31.1154C75.5799 32.6639 75.8422 34.1034 76.864 35.4255C77.2617 35.9399 77.6898 36.4262 78.1151 36.9182C84.3317 44.1046 90.5538 51.2854 96.7622 58.4773C99.5874 61.7505 103.755 61.7645 106.58 58.4941C109.762 54.8101 112.949 51.1344 116.133 47.4532C119.469 43.5958 122.791 39.7301 126.138 35.8867C127.365 34.478 127.928 32.9434 127.116 31.1461H127.122Z" fill="#8BBD3F"/>
<path d="M42.2985 8.6421C30.158 8.56104 20.3595 18.3413 20.2987 30.6038C20.2352 42.9137 29.8874 52.831 41.9864 52.8897C54.0247 52.9484 63.8647 43.1429 63.9503 31.0007C64.0359 18.7299 54.3478 8.72316 42.3013 8.6421H42.2985ZM42.0251 48.9233C32.2265 48.901 24.1844 40.6496 24.2203 30.6569C24.2562 20.7731 32.3646 12.6085 42.1217 12.628C51.9617 12.6476 60.0535 20.8822 59.9955 30.819C59.9375 40.8117 51.8623 48.9485 42.0223 48.9233H42.0251Z" fill="#EE715F"/>
<path d="M50.44 21.4244C49.8103 20.8598 49.0647 20.4573 48.1975 20.2141C47.322 19.9626 46.0737 19.834 44.4498 19.834H38.9596C38.0178 19.834 37.3302 20.038 36.8993 20.4461C36.4657 20.8542 36.2503 21.5362 36.2503 22.4894V34.0363H35.6621C34.6734 34.0363 33.8725 34.8469 33.8725 35.8475C33.8725 36.8482 34.6734 37.6588 35.6621 37.6588H36.2503V38.9753C36.2503 39.8306 36.4464 40.4791 36.8413 40.9236C37.2363 41.3652 37.7527 41.586 38.3989 41.586C39.0452 41.586 39.523 41.3624 39.9262 40.9152C40.3294 40.4679 40.531 39.8111 40.531 38.9446V37.656H48.1864C49.1751 37.656 49.976 36.8454 49.976 35.8447C49.976 34.8441 49.1751 34.0335 48.1864 34.0335H40.531V32.8874H44.4526C47.0762 32.8874 49.0509 32.3256 50.3765 31.2019C51.7021 30.0783 52.3649 28.4291 52.3649 26.2489C52.3649 25.2287 52.202 24.3091 51.8761 23.4929C51.5502 22.6767 51.0724 21.9863 50.4428 21.4216L50.44 21.4244ZM47.4933 28.253C47.137 28.7394 46.6206 29.0888 45.9439 29.304C45.2673 29.5193 44.4222 29.6255 43.4142 29.6255H40.531V23.0904H43.4142C45.3253 23.0904 46.5902 23.4062 47.206 24.0379C47.7529 24.6305 48.029 25.3992 48.029 26.3439C48.029 27.1322 47.8523 27.7695 47.496 28.2558L47.4933 28.253Z" fill="#EE715F"/>
</g>
<defs>
<clipPath id="clip0_210_2061">
<rect width="127" height="129" fill="white" transform="translate(0.5 0.5)"/>
</clipPath>
</defs>
</svg>
