<svg width="118" height="174" viewBox="0 0 118 174" fill="none" xmlns="http://www.w3.org/2000/svg">
<path d="M49.0869 2.71289L48.7347 125.022L34.5369 133.278L34.8825 10.9694L49.0869 2.71289Z" fill="#BDBBC3"/>
<path d="M34.8826 10.9695L34.5369 133.278L28.9152 130.037L29.2673 7.72168L34.8826 10.9695Z" fill="#E1E2E3"/>
<path d="M112.504 39.3325L112.159 161.641L48.7347 125.022L49.0869 2.71289L112.504 39.3325Z" fill="#E1E2E3"/>
<path d="M34.5891 132.299L66.3043 150.612V118.982L34.5891 100.669V132.299Z" fill="#8BBD3F"/>
<path d="M66.3174 150.619L98.0326 168.932V137.302L66.3174 118.995V150.619Z" fill="#8BBD3F"/>
<path d="M66.7543 118.167C66.7543 117.959 66.5848 117.789 66.3761 117.789C66.1674 117.789 65.9978 117.959 65.9978 118.167V150.424L66.7478 150.854V118.161L66.7543 118.167Z" fill="#E1E2E3"/>
<path d="M100.935 139.037L34.5891 100.78L48.7869 92.6084L115.133 130.865L100.935 139.037Z" fill="#F0F1F2"/>
<path d="M51.5782 115.964L46.2434 112.898L45.4543 113.355L44.9391 113.133V113.655L53.7695 118.729V116.896L51.5782 115.964Z" fill="#E1E2E3"/>
<path d="M53.7695 116.896V118.728L55.0804 117.978V117.456L53.7695 116.896Z" fill="#BDBBC3"/>
<path d="M55.0804 117.457L46.2434 112.383L44.9391 113.133L53.7695 118.213L55.0804 117.457Z" fill="#F0F1F2"/>
<path d="M82.6021 133.688L77.2674 130.623L76.4782 131.08L75.963 130.858V131.38L84.7934 136.453V134.621L82.6021 133.688Z" fill="#E1E2E3"/>
<path d="M84.7935 134.621V136.454L86.1043 135.697V135.175L84.7935 134.621Z" fill="#BDBBC3"/>
<path d="M86.1043 135.175L77.2674 130.102L75.963 130.858L84.7935 135.932L86.1043 135.175Z" fill="#F0F1F2"/>
<g opacity="0.3">
<path d="M101.189 126.528L34.8369 88.2713L49.0347 80.0996L115.38 118.356L101.189 126.528Z" fill="#8BBD3F"/>
</g>
<path d="M76.165 96.3988L78.4476 95.0684L78.4346 99.6075L76.152 100.931L76.165 96.3988Z" fill="#CFD2D9"/>
<path d="M67.1912 91.2136L69.4738 89.8896L78.4477 95.0679L76.1651 96.3984L67.1912 91.2136Z" fill="#EFF0F1"/>
<path d="M76.1651 96.3987L76.152 100.931L67.1781 95.753L67.1911 91.2139L76.1651 96.3987Z" fill="#E2E2EB"/>
<path d="M67.1781 95.3027V95.7593L76.1455 100.938L76.1585 96.3984L75.3107 95.9093C72.6955 96.9658 69.7803 96.4832 67.1781 95.3027Z" fill="#477108"/>
<path d="M67.1781 94.8461V95.2961C69.7803 96.4766 72.6955 96.9592 75.3107 95.9027L73.0411 94.5918C71.202 95.3353 69.1738 95.5114 67.1781 94.8461Z" fill="#8BBD3F"/>
<path d="M67.1781 94.8465C69.1738 95.5117 71.202 95.3356 73.0411 94.5921L67.1911 91.2139L67.1781 94.8465Z" fill="#E2E2EB"/>
<path d="M53.039 94.4874L53.052 98.2374L49.752 96.32L49.7455 92.583L53.039 94.4874Z" fill="#E2E2EB"/>
<path d="M50.5216 95.3482C50.039 94.52 49.9673 93.633 50.0064 92.7395L49.739 92.583L49.7521 96.32L53.0455 98.2374V97.5265C52.0412 96.9917 51.1021 96.3787 50.5216 95.3547V95.3482Z" fill="#477108"/>
<path d="M50.639 93.0979L50.0129 92.7393C49.9738 93.6327 50.0455 94.5197 50.5281 95.348C51.1151 96.3719 52.0477 96.9849 53.052 97.5197V97.2914C51.4999 96.574 50.6064 94.8001 50.639 93.0979Z" fill="#8BBD3F"/>
<path d="M56.3586 92.583L56.3652 96.32L53.0521 98.2374L53.0391 94.5004L56.3586 92.583Z" fill="#CFD2D9"/>
<path d="M49.7455 92.5827L53.039 94.5001L56.3585 92.5827L53.0585 90.6719L49.7455 92.5827Z" fill="#EFF0F1"/>
<path d="M63.1412 88.6042L65.4239 87.2803L65.3978 98.3803L63.1086 99.7042L63.1412 88.6042Z" fill="#CFD2D9"/>
<path d="M58.4846 85.9173L60.7672 84.5869L65.4238 87.2804L63.1411 88.6043L58.4846 85.9173Z" fill="#EFF0F1"/>
<path d="M63.1412 88.6039L63.1085 99.7039L58.452 97.017L58.4846 85.917L63.1412 88.6039Z" fill="#E2E2EB"/>
<path d="M60.2129 86.9154L59.8085 86.6807C59.5151 90.6263 60.702 94.8981 63.1085 98.1459V95.185C61.2825 92.8176 60.1085 89.9285 60.2064 86.9089L60.2129 86.9154Z" fill="#FFD438"/>
<path d="M59.8086 86.6807L58.4782 85.9111L58.4456 97.0111L63.1021 99.6981V98.1394C60.7021 94.8916 59.5151 90.6133 59.8021 86.6742L59.8086 86.6807Z" fill="#FFA200"/>
<path d="M57.3042 82.6699L55.1585 83.9156L55.152 86.9221L57.2976 85.683L57.3042 82.6699Z" fill="#CFD2D9"/>
<path d="M55.152 86.9217L55.1455 89.3609L57.2912 88.1152L57.2977 85.6826L55.152 86.9217Z" fill="#FFA200"/>
<path d="M55.1586 83.9156L55.1521 86.5699V86.9286H55.1456L54.7412 86.6938L54.4217 86.5112L53.9651 86.2438L53.6456 86.0612L52.9934 85.683V84.9264V84.5612V84.033V83.6677L52.9999 83.2047V82.8395V82.6699L55.1586 83.9156Z" fill="#E2E2EB"/>
<path d="M52.9934 85.6826L52.9803 88.1152L55.1456 89.3609L55.1521 86.9283L52.9934 85.6826Z" fill="#FFD438"/>
<path d="M57.3042 82.6695L55.1586 83.9151L52.9999 82.6695L55.1455 81.4238L57.3042 82.6695Z" fill="#EFF0F1"/>
<path d="M53.9651 86.2432L53.6456 86.0605L52.9934 84.9258V84.5605L53.9651 86.2432Z" fill="#FFD438"/>
<path d="M54.7412 86.6931L54.4217 86.5105L52.9934 84.0322V83.667L54.7412 86.6931Z" fill="#FFD438"/>
<path d="M55.1521 86.5693V86.928H55.1455L52.9999 83.2041V82.8389L55.1521 86.5693Z" fill="#FFD438"/>
<path d="M101.202 110.844L103.485 109.514L103.472 114.053L101.189 115.377L101.202 110.844Z" fill="#CFD2D9"/>
<path d="M92.2281 105.659L94.5173 104.335L103.485 109.513L101.202 110.844L92.2281 105.659Z" fill="#EFF0F1"/>
<path d="M101.202 110.844L101.189 115.377L92.2151 110.198L92.2281 105.659L101.202 110.844Z" fill="#E2E2EB"/>
<path d="M92.2151 109.748V110.205L101.182 115.383L101.196 110.844L100.348 110.355C97.7325 111.411 94.8173 110.928 92.2151 109.748Z" fill="#477108"/>
<path d="M92.2217 109.291V109.741C94.8239 110.922 97.7391 111.405 100.354 110.348L98.0847 109.037C96.2456 109.781 94.2173 109.957 92.2217 109.291Z" fill="#8BBD3F"/>
<path d="M92.2217 109.292C94.2173 109.957 96.2456 109.781 98.0847 109.037L92.2347 105.659L92.2217 109.292Z" fill="#E2E2EB"/>
<path d="M78.076 108.933L78.089 112.683L74.7955 110.765L74.7825 107.028L78.076 108.933Z" fill="#E2E2EB"/>
<path d="M75.5651 109.794C75.0825 108.965 75.0107 108.078 75.0499 107.185L74.7825 107.028L74.7955 110.765L78.089 112.683V111.972C77.0846 111.437 76.1455 110.824 75.5651 109.8V109.794Z" fill="#477108"/>
<path d="M75.676 107.543L75.0499 107.185C75.0108 108.078 75.0825 108.965 75.5651 109.793C76.1521 110.817 77.0847 111.43 78.089 111.965V111.737C76.5368 111.019 75.6434 109.245 75.676 107.543Z" fill="#8BBD3F"/>
<path d="M81.3955 107.028L81.402 110.765L78.089 112.683L78.0759 108.946L81.3955 107.028Z" fill="#CFD2D9"/>
<path d="M74.7825 107.028L78.076 108.945L81.3955 107.028L78.0955 105.117L74.7825 107.028Z" fill="#EFF0F1"/>
<path d="M88.1781 103.049L90.4672 101.726L90.4346 112.826L88.1455 114.149L88.1781 103.049Z" fill="#CFD2D9"/>
<path d="M83.5216 100.363L85.8042 99.0322L90.4673 101.726L88.1781 103.05L83.5216 100.363Z" fill="#EFF0F1"/>
<path d="M88.1781 103.049L88.1455 114.149L83.489 111.462L83.5216 100.362L88.1781 103.049Z" fill="#E2E2EB"/>
<path d="M85.2499 101.361L84.8455 101.126C84.552 105.072 85.739 109.343 88.1455 112.591V109.63C86.3194 107.263 85.1455 104.374 85.2434 101.354L85.2499 101.361Z" fill="#FFD438"/>
<path d="M84.8521 101.126L83.5216 100.356L83.489 111.456L88.1455 114.143V112.585C85.7455 109.337 84.5586 105.059 84.8455 101.119L84.8521 101.126Z" fill="#FFA200"/>
<path d="M82.3411 97.1162L80.1955 98.3619L80.189 101.368L82.3346 100.129L82.3411 97.1162Z" fill="#CFD2D9"/>
<path d="M80.189 101.368L80.1825 103.807L82.3282 102.562L82.3347 100.129L80.189 101.368Z" fill="#FFA200"/>
<path d="M80.1955 98.3619L80.189 101.016V101.375H80.1824L79.7781 101.14L79.4651 100.958L79.002 100.69L78.6824 100.508L78.0303 100.129V99.3727V99.0075V98.4793L78.0368 98.114V97.651V97.2858V97.1162L80.1955 98.3619Z" fill="#E2E2EB"/>
<path d="M78.0303 100.129L78.0238 102.562L80.1825 103.807L80.189 101.375L78.0303 100.129Z" fill="#FFD438"/>
<path d="M82.3412 97.1158L80.1956 98.3614L78.0369 97.1158L80.1825 95.8701L82.3412 97.1158Z" fill="#EFF0F1"/>
<path d="M79.002 100.689L78.6824 100.507L78.0303 99.3721V99.0068L79.002 100.689Z" fill="#FFD438"/>
<path d="M79.7781 101.139L79.4651 100.957L78.0303 98.4785L78.0368 98.1133L79.7781 101.139Z" fill="#FFD438"/>
<path d="M80.1889 101.016V101.374H80.1824L78.0367 97.6504V97.2852L80.1889 101.016Z" fill="#FFD438"/>
<g opacity="0.3">
<path d="M101.32 115.701L34.9674 77.4383L49.1652 69.2666L115.511 107.53L101.32 115.701Z" fill="#8BBD3F"/>
</g>
<path d="M59.8478 76.3353L62.1369 75.0049L62.1043 86.1114L59.8152 87.4353L59.8478 76.3353Z" fill="#CFD2D9"/>
<path d="M55.1913 73.6423L57.4739 72.3184L62.1369 75.0053L59.8478 76.3358L55.1913 73.6423Z" fill="#EFF0F1"/>
<path d="M59.8478 76.3361L59.8152 87.4361L55.1587 84.7491L55.1913 73.6426L59.8478 76.3361Z" fill="#E2E2EB"/>
<path d="M56.926 74.6469L56.5217 74.4121C56.2282 78.3578 57.4152 82.6295 59.8217 85.8773V82.9165C57.9956 80.5491 56.8217 77.6599 56.9195 74.6404L56.926 74.6469Z" fill="#8BBD3F"/>
<path d="M56.5217 74.4121L55.1913 73.6426L55.1587 84.7426L59.8152 87.4295V85.8708C57.4152 82.623 56.2283 78.3447 56.5152 74.4056L56.5217 74.4121Z" fill="#477108"/>
<path d="M53.6847 71.8174L51.539 73.063L51.526 76.0696L53.6717 74.8304L53.6847 71.8174Z" fill="#CFD2D9"/>
<path d="M51.5261 76.0692L51.5195 78.5083L53.6652 77.2627L53.6717 74.8301L51.5261 76.0692Z" fill="#477108"/>
<path d="M51.539 73.063L51.5325 75.7174L51.526 76.0761L51.5195 76.0696L51.1217 75.8413L50.8021 75.6587L50.3456 75.3913L50.026 75.2087L49.3673 74.8304V74.0739L49.3738 73.7087V73.1804V72.8152V72.3522V71.9869V71.8174L51.539 73.063Z" fill="#E2E2EB"/>
<path d="M49.3674 74.8301L49.3608 77.2627L51.5195 78.5083L51.5261 76.0757L49.3674 74.8301Z" fill="#8BBD3F"/>
<path d="M53.6848 71.8169L51.5391 73.0626L49.3739 71.8169L51.5261 70.5713L53.6848 71.8169Z" fill="#EFF0F1"/>
<path d="M50.3456 75.3906L50.026 75.208L49.3673 74.0732L49.3738 73.708L50.3456 75.3906Z" fill="#8BBD3F"/>
<path d="M51.1216 75.8405L50.802 75.6579L49.3738 73.1797V72.8145L51.1216 75.8405Z" fill="#8BBD3F"/>
<path d="M51.5325 75.7168L51.526 76.0755L51.5194 76.0689L49.3738 72.3515V71.9863L51.5325 75.7168Z" fill="#8BBD3F"/>
<path d="M72.3825 84.2152L74.6652 82.8848L74.6521 87.4239L72.3695 88.7543L72.3825 84.2152Z" fill="#CFD2D9"/>
<path d="M63.4087 79.0365L65.6978 77.7061L74.6652 82.8843L72.3826 84.2147L63.4087 79.0365Z" fill="#EFF0F1"/>
<path d="M72.3826 84.2144L72.3695 88.7535L63.3956 83.5687L63.4087 79.0361L72.3826 84.2144Z" fill="#E2E2EB"/>
<path d="M63.4021 83.1191V83.5757L72.3695 88.7539L72.3825 84.2148L71.5347 83.7257C68.9195 84.7822 66.0043 84.2996 63.4021 83.1191Z" fill="#FFA200"/>
<path d="M63.4021 82.6626V83.1125C66.0043 84.293 68.9195 84.7756 71.5347 83.7191L69.2651 82.4082C67.426 83.1517 65.3978 83.3278 63.4021 82.6626Z" fill="#FFD438"/>
<path d="M63.4021 82.6629C65.3978 83.3281 67.426 83.152 69.2651 82.4085L63.4151 79.0303L63.4021 82.6629Z" fill="#E2E2EB"/>
<path d="M50.7174 80.973L50.7239 84.723L47.4304 82.8056L47.4174 79.0752L50.7174 80.973Z" fill="#E2E2EB"/>
<path d="M48.2 81.8404C47.7174 81.0122 47.6456 80.1252 47.6848 79.2317L47.4174 79.0752L47.4304 82.8121L50.7239 84.7295V84.0187C49.7195 83.4839 48.7804 82.8708 48.2 81.8469V81.8404Z" fill="#FFA200"/>
<path d="M48.3109 79.5901L47.6848 79.2314C47.6456 80.1249 47.7174 81.0119 48.2 81.8401C48.787 82.8641 49.7196 83.4771 50.7239 84.0119V83.7836C49.1717 83.0662 48.2783 81.2923 48.3109 79.5901Z" fill="#FFD438"/>
<path d="M54.0304 79.0752L54.0435 82.8056L50.7239 84.723L50.7174 80.9861L54.0304 79.0752Z" fill="#CFD2D9"/>
<path d="M47.4174 79.0746L50.7174 80.9855L54.0304 79.0746L50.7369 77.1572L47.4174 79.0746Z" fill="#EFF0F1"/>
<path d="M85.9413 91.4987L88.2304 90.1748L88.1978 101.275L85.9087 102.599L85.9413 91.4987Z" fill="#CFD2D9"/>
<path d="M81.2848 88.8119L83.5674 87.4814L88.2304 90.1749L85.9413 91.4988L81.2848 88.8119Z" fill="#EFF0F1"/>
<path d="M85.9413 91.4985L85.9087 102.598L81.2522 99.9115L81.2848 88.8115L85.9413 91.4985Z" fill="#E2E2EB"/>
<path d="M83.0131 89.81L82.6087 89.5752C82.3152 93.5208 83.5022 97.7926 85.9087 101.04V98.0795C84.0826 95.7121 82.9087 92.823 83.0065 89.8035L83.0131 89.81Z" fill="#8BBD3F"/>
<path d="M82.6152 89.5752L81.2848 88.8057L81.2522 99.9057L85.9087 102.593V101.034C83.5087 97.7861 82.3218 93.5078 82.6087 89.5687L82.6152 89.5752Z" fill="#477108"/>
<path d="M79.876 85.043L77.7304 86.2886L77.7239 89.2952L79.8695 88.056L79.876 85.043Z" fill="#CFD2D9"/>
<path d="M77.7239 89.2948L77.7174 91.7339L79.8631 90.4883L79.8696 88.0557L77.7239 89.2948Z" fill="#477108"/>
<path d="M77.7304 86.2886L77.7239 88.943V89.3017L77.7174 89.2951L77.313 89.0669L77 88.8777L76.5369 88.6169L76.2239 88.4343L75.5652 88.0495V87.2995V86.9343L75.5717 86.406V86.0408V85.5777V85.2125V85.043L77.7304 86.2886Z" fill="#E2E2EB"/>
<path d="M75.5652 88.0498L75.5587 90.4889L77.7174 91.7346L77.7239 89.302L75.5652 88.0498Z" fill="#8BBD3F"/>
<path d="M79.8761 85.0425L77.7305 86.2882L75.5718 85.0425L77.7174 83.7969L79.8761 85.0425Z" fill="#EFF0F1"/>
<path d="M76.5369 88.6162L76.2239 88.4336L75.5652 87.2988V86.9336L76.5369 88.6162Z" fill="#8BBD3F"/>
<path d="M77.313 89.0661L76.9999 88.877L75.5717 86.4053V86.04L77.313 89.0661Z" fill="#8BBD3F"/>
<path d="M77.7238 88.9424V89.301L77.7173 89.2945L75.5717 85.5771V85.2119L77.7238 88.9424Z" fill="#8BBD3F"/>
<path d="M98.5738 96.945L100.856 95.6211L100.843 100.154L98.5608 101.484L98.5738 96.945Z" fill="#CFD2D9"/>
<path d="M89.6 91.767L91.8891 90.4365L100.856 95.6213L98.5739 96.9452L89.6 91.767Z" fill="#EFF0F1"/>
<path d="M98.5739 96.9449L98.5608 101.484L89.5869 96.3057L89.6 91.7666L98.5739 96.9449Z" fill="#E2E2EB"/>
<path d="M89.5869 95.8496V96.3061L98.5543 101.484L98.5674 96.9453L97.7195 96.4561C95.1043 97.5127 92.1891 97.03 89.5869 95.8496Z" fill="#FFA200"/>
<path d="M89.5935 95.3989V95.8489C92.1957 97.0293 95.1109 97.5119 97.7261 96.4554L95.4565 95.1445C93.6174 95.888 91.5892 96.0641 89.5935 95.3989Z" fill="#FFD438"/>
<path d="M89.5935 95.3992C91.5892 96.0644 93.6174 95.8883 95.4565 95.1449L89.6065 91.7666L89.5935 95.3992Z" fill="#E2E2EB"/>
<path d="M74.9848 93.0645L74.9978 96.8145L71.7043 94.8971L71.6913 91.1602L74.9848 93.0645Z" fill="#E2E2EB"/>
<path d="M72.4739 93.9254C71.9913 93.0971 71.9195 92.2102 71.9587 91.3167L71.6913 91.1602L71.7043 94.8971L74.9978 96.8145V96.0971C73.9935 95.5623 73.0543 94.9493 72.4739 93.9254Z" fill="#FFA200"/>
<path d="M72.5848 91.6751L71.9587 91.3164C71.9196 92.2099 71.9913 93.0968 72.4739 93.9251C73.0609 94.949 73.9935 95.5621 74.9978 96.0968V95.8686C73.4457 95.1512 72.5522 93.3773 72.5848 91.6751Z" fill="#FFD438"/>
<path d="M78.3043 91.1602L78.3173 94.8971L74.9978 96.8145L74.9847 93.0775L78.3043 91.1602Z" fill="#CFD2D9"/>
<path d="M71.6913 91.1599L74.9848 93.0773L78.3043 91.1599L75.0109 89.249L71.6913 91.1599Z" fill="#EFF0F1"/>
<g opacity="0.3">
<path d="M101.32 104.738L34.9674 66.4813L49.1652 58.3096L115.511 96.5661L101.32 104.738Z" fill="#8BBD3F"/>
</g>
<path d="M72.1609 71.9418L74.45 70.6113L74.437 75.1505L72.1478 76.4809L72.1609 71.9418Z" fill="#CFD2D9"/>
<path d="M63.1869 66.763L65.476 65.4326L74.4499 70.6109L72.1608 71.9413L63.1869 66.763Z" fill="#EFF0F1"/>
<path d="M72.1609 71.941L72.1478 76.4801L63.1804 71.2953L63.1869 66.7627L72.1609 71.941Z" fill="#E2E2EB"/>
<path d="M63.1804 70.8457V71.3022L72.1478 76.4805L72.1609 71.9414L71.313 71.4522C68.6978 72.5087 65.7826 72.0261 63.1804 70.8457Z" fill="#477108"/>
<path d="M63.1804 70.3891V70.8391C65.7826 72.0195 68.6978 72.5021 71.313 71.4456L69.0435 70.1348C67.2043 70.8782 65.1761 71.0543 63.1804 70.3891Z" fill="#8BBD3F"/>
<path d="M63.1804 70.3894C65.1761 71.0547 67.2043 70.8786 69.0435 70.1351L63.1935 66.7568L63.1804 70.3894Z" fill="#E2E2EB"/>
<path d="M49.0413 70.0306L49.0479 73.7806L45.7544 71.8632L45.7413 68.1328L49.0413 70.0306Z" fill="#E2E2EB"/>
<path d="M46.5239 70.898C46.0413 70.0698 45.9696 69.1828 46.0087 68.2893L45.7413 68.1328L45.7544 71.8698L49.0479 73.7872V73.0698C48.0435 72.535 47.1044 71.9219 46.5239 70.898Z" fill="#477108"/>
<path d="M46.6348 68.6478L46.0087 68.2891C45.9696 69.1825 46.0414 70.0695 46.524 70.8978C47.1109 71.9217 48.0435 72.5347 49.0479 73.0695V72.8412C47.4957 72.1238 46.6022 70.3499 46.6348 68.6478Z" fill="#8BBD3F"/>
<path d="M52.3544 68.1328L52.3675 71.8632L49.0479 73.7806L49.0414 70.0437L52.3544 68.1328Z" fill="#CFD2D9"/>
<path d="M45.7413 68.1322L49.0348 70.0431L52.3544 68.1322L49.0609 66.2148L45.7413 68.1322Z" fill="#EFF0F1"/>
<path d="M59.137 64.1472L61.4262 62.8232L61.3936 73.9232L59.111 75.2537L59.137 64.1472Z" fill="#CFD2D9"/>
<path d="M54.4805 61.4603L56.7696 60.1299L61.4261 62.8234L59.137 64.1473L54.4805 61.4603Z" fill="#EFF0F1"/>
<path d="M59.137 64.1469L59.1109 75.2534L54.4479 72.56L54.4805 61.46L59.137 64.1469Z" fill="#E2E2EB"/>
<path d="M56.2153 62.4574L55.811 62.2227C55.5175 66.1683 56.7045 70.44 59.111 73.6879V70.727C57.2849 68.3596 56.111 65.4705 56.2088 62.4509L56.2153 62.4574Z" fill="#FFD438"/>
<path d="M55.8109 62.2295L54.4805 61.46L54.4479 72.56L59.1044 75.2469V73.6882C56.7044 70.4404 55.5174 66.1621 55.8044 62.223L55.8109 62.2295Z" fill="#FFA200"/>
<path d="M53.3065 58.2129L51.1609 59.4651L51.1478 62.4651L53.2935 61.2259L53.3065 58.2129Z" fill="#CFD2D9"/>
<path d="M51.1479 62.4647L51.1414 64.9038L53.287 63.6582L53.2935 61.2256L51.1479 62.4647Z" fill="#FFA200"/>
<path d="M51.1609 59.4651L51.1478 62.1129V62.4716H51.1413L50.7435 62.2368L50.4239 62.0542L49.9674 61.7868L49.6478 61.6042L48.9891 61.2259V60.4694L48.9957 60.1042V59.5759V59.2107V58.7477V58.3825V58.2129L51.1609 59.4651Z" fill="#E2E2EB"/>
<path d="M48.9892 61.2256L48.9827 63.6582L51.1414 64.9038L51.1479 62.4712L48.9892 61.2256Z" fill="#FFD438"/>
<path d="M53.3066 58.2125L51.1609 59.4646L48.9957 58.2125L51.1414 56.9668L53.3066 58.2125Z" fill="#EFF0F1"/>
<path d="M49.9674 61.7861L49.6478 61.6035L48.9891 60.4687L48.9957 60.1035L49.9674 61.7861Z" fill="#FFD438"/>
<path d="M50.7434 62.236L50.4239 62.0534L48.9956 59.5752V59.21L50.7434 62.236Z" fill="#FFD438"/>
<path d="M51.1478 62.1123V62.471H51.1413L48.9956 58.7471V58.3818L51.1478 62.1123Z" fill="#FFD438"/>
<path d="M97.1979 86.3871L99.487 85.0566L99.4739 89.5958L97.1848 90.9262L97.1979 86.3871Z" fill="#CFD2D9"/>
<path d="M88.2305 81.2084L90.5131 79.8779L99.487 85.0562L97.1979 86.3866L88.2305 81.2084Z" fill="#EFF0F1"/>
<path d="M97.1978 86.3863L97.1848 90.9254L88.2174 85.7406L88.2305 81.208L97.1978 86.3863Z" fill="#E2E2EB"/>
<path d="M88.2174 85.291V85.7475L97.1848 90.9258L97.1978 86.3867L96.35 85.8975C93.7348 86.9541 90.8196 86.4714 88.2174 85.291Z" fill="#477108"/>
<path d="M88.2174 84.8344V85.2844C90.8196 86.4649 93.7348 86.9475 96.35 85.891L94.0804 84.5801C92.2413 85.3236 90.2131 85.4996 88.2174 84.8344Z" fill="#8BBD3F"/>
<path d="M88.2174 84.8348C90.2131 85.5 92.2413 85.3239 94.0804 84.5804L88.2305 81.2021L88.2174 84.8348Z" fill="#E2E2EB"/>
<path d="M74.0783 84.4759L74.0848 88.226L70.7914 86.3086L70.7783 82.5781L74.0783 84.4759Z" fill="#E2E2EB"/>
<path d="M71.5609 85.3433C71.0783 84.5151 71.0066 83.6281 71.0457 82.7347L70.7783 82.5781L70.7914 86.3151L74.0848 88.2325V87.5151C73.0805 86.9803 72.1414 86.3673 71.5609 85.3433Z" fill="#477108"/>
<path d="M71.6718 83.0931L71.0457 82.7344C71.0066 83.6279 71.0783 84.5148 71.561 85.3431C72.1479 86.367 73.0805 86.98 74.0849 87.5148V87.2866C72.5327 86.5692 71.6392 84.7952 71.6718 83.0931Z" fill="#8BBD3F"/>
<path d="M77.3914 82.5781L77.4044 86.3086L74.0849 88.226L74.0784 84.489L77.3914 82.5781Z" fill="#CFD2D9"/>
<path d="M70.7783 82.5775L74.0783 84.4884L77.3914 82.5775L74.0979 80.6602L70.7783 82.5775Z" fill="#EFF0F1"/>
<path d="M84.1806 78.5925L86.4632 77.2686L86.4306 88.3686L84.1479 89.699L84.1806 78.5925Z" fill="#CFD2D9"/>
<path d="M79.5175 75.9056L81.8066 74.5752L86.4631 77.2687L84.1805 78.5926L79.5175 75.9056Z" fill="#EFF0F1"/>
<path d="M84.1805 78.5922L84.1479 89.6988L79.4913 87.0053L79.5174 75.9053L84.1805 78.5922Z" fill="#E2E2EB"/>
<path d="M81.2522 76.9028L80.8478 76.668C80.5544 80.6136 81.7413 84.8854 84.1478 88.1332V85.1723C82.3218 82.8049 81.1478 79.9158 81.2457 76.8962L81.2522 76.9028Z" fill="#FFD438"/>
<path d="M80.8479 76.6748L79.5175 75.9053L79.4849 87.0053L84.1414 89.6922V88.1335C81.7414 84.8857 80.5544 80.6074 80.8414 76.6683L80.8479 76.6748Z" fill="#FFA200"/>
<path d="M78.3435 72.6592L76.1978 73.9114L76.1913 76.9114L78.3369 75.6722L78.3435 72.6592Z" fill="#CFD2D9"/>
<path d="M76.1913 76.911L76.1782 79.3501L78.3304 78.1045L78.3369 75.6719L76.1913 76.911Z" fill="#FFA200"/>
<path d="M76.1977 73.9114L76.1912 76.5592V76.9179H76.1847L75.7804 76.6831L75.4608 76.5005L75.0043 76.2331L74.6847 76.0505L74.026 75.6722L74.0325 74.9157V74.5505V74.0287V73.657V73.2005L74.039 72.8287V72.6592L76.1977 73.9114Z" fill="#E2E2EB"/>
<path d="M74.0261 75.6719L74.0195 78.1045L76.1782 79.3501L76.1913 76.9175L74.0261 75.6719Z" fill="#FFD438"/>
<path d="M78.3434 72.6587L76.1978 73.9109L74.0391 72.6587L76.1847 71.4131L78.3434 72.6587Z" fill="#EFF0F1"/>
<path d="M75.0043 76.2324L74.6848 76.0498L74.0326 74.915V74.5498L75.0043 76.2324Z" fill="#FFD438"/>
<path d="M75.7804 76.6823L75.4608 76.4997L74.0326 74.028V73.6562L75.7804 76.6823Z" fill="#FFD438"/>
<path d="M76.1913 76.5586V76.9173H76.1848L74.0326 73.1999L74.0391 72.8281L76.1913 76.5586Z" fill="#FFD438"/>
<g opacity="0.3">
<path d="M101.32 93.7824L34.9674 55.5194L49.1652 47.3477L115.511 85.6107L101.32 93.7824Z" fill="#8BBD3F"/>
</g>
<path d="M56.4762 54.9642L58.7588 53.6338L58.7262 64.7403L56.4436 66.0642L56.4762 54.9642Z" fill="#CFD2D9"/>
<path d="M51.8131 52.2777L54.1022 50.9473L58.7588 53.6342L56.4762 54.9647L51.8131 52.2777Z" fill="#EFF0F1"/>
<path d="M56.4762 54.9643L56.4436 66.0643L51.7805 63.3773L51.8131 52.2773L56.4762 54.9643Z" fill="#E2E2EB"/>
<path d="M53.5479 53.2758L53.1435 53.041C52.85 56.9867 54.037 61.2584 56.4435 64.5062V61.5454C54.6174 59.178 53.4435 56.2888 53.5413 53.2693L53.5479 53.2758Z" fill="#8BBD3F"/>
<path d="M53.1436 53.041L51.8131 52.2715L51.7805 63.3715L56.437 66.0584V64.4997C54.037 61.2519 52.8501 56.9737 53.137 53.0345L53.1436 53.041Z" fill="#477108"/>
<path d="M50.4108 48.5088L48.2651 49.7544L48.2521 52.7544L50.4043 51.5153L50.4108 48.5088Z" fill="#CFD2D9"/>
<path d="M48.2521 52.7548L48.2456 55.2004L50.3913 53.9482L50.4043 51.5156L48.2521 52.7548Z" fill="#477108"/>
<path d="M48.2651 49.7544L48.2586 52.4088L48.2521 52.7675V52.761L47.8477 52.5262L47.5282 52.3436L47.0716 52.0827L46.7521 51.9001L46.0934 51.5153L46.0999 50.7653V50.4001V49.8718V49.5066V49.0436V48.6784L46.1064 48.5088L48.2651 49.7544Z" fill="#E2E2EB"/>
<path d="M46.0934 51.5156L46.0869 53.9482L48.2456 55.2004L48.2521 52.7678L46.0934 51.5156Z" fill="#8BBD3F"/>
<path d="M50.4108 48.5083L48.2651 49.754L46.1064 48.5083L48.2521 47.2627L50.4108 48.5083Z" fill="#EFF0F1"/>
<path d="M47.0717 52.082L46.7521 51.8994L46.1 50.7646V50.3994L47.0717 52.082Z" fill="#8BBD3F"/>
<path d="M47.8478 52.5254L47.5282 52.3428L46.1 49.8711V49.5059L47.8478 52.5254Z" fill="#8BBD3F"/>
<path d="M48.2587 52.4082L48.2521 52.7669V52.7603L46.1 49.043V48.6777L48.2587 52.4082Z" fill="#8BBD3F"/>
<path d="M69.1022 60.4098L71.3913 59.0859L71.3782 63.6185L69.0891 64.949L69.1022 60.4098Z" fill="#CFD2D9"/>
<path d="M60.1283 55.2318L62.4174 53.9014L71.3913 59.0861L69.1022 60.4101L60.1283 55.2318Z" fill="#EFF0F1"/>
<path d="M69.1022 60.4097L69.0891 64.9488L60.1152 59.7706L60.1283 55.2314L69.1022 60.4097Z" fill="#E2E2EB"/>
<path d="M60.1217 59.3145V59.771L69.0891 64.9492L69.1021 60.4101L68.2543 59.921C65.6391 60.9775 62.7239 60.4949 60.1217 59.3145Z" fill="#FFA200"/>
<path d="M60.1217 58.8637V59.3137C62.7239 60.4942 65.6391 60.9768 68.2543 59.9202L65.9847 58.6094C64.1456 59.3529 62.1174 59.5289 60.1217 58.8637Z" fill="#FFD438"/>
<path d="M60.1217 58.8641C62.1174 59.5293 64.1456 59.3532 65.9847 58.6097L60.1347 55.2314L60.1217 58.8641Z" fill="#E2E2EB"/>
<path d="M47.1631 57.1963L47.1762 60.9398L43.8761 59.029L43.8696 55.292L47.1631 57.1963Z" fill="#E2E2EB"/>
<path d="M44.6456 58.0572C44.163 57.2289 44.0913 56.342 44.1304 55.4485L43.863 55.292L43.8761 59.029L47.1696 60.9463V60.2289C46.1652 59.6942 45.2261 59.0811 44.6456 58.0572Z" fill="#FFA200"/>
<path d="M44.763 55.8069L44.1369 55.4482C44.0978 56.3417 44.1695 57.2287 44.6521 58.0569C45.2391 59.0809 46.1717 59.6939 47.1761 60.2287V60.0004C45.6239 59.283 44.7304 57.5091 44.763 55.8069Z" fill="#FFD438"/>
<path d="M50.4827 55.292L50.4892 59.029L47.1761 60.9398L47.1631 57.2029L50.4827 55.292Z" fill="#CFD2D9"/>
<path d="M43.8695 55.2914L47.163 57.2088L50.4826 55.2914L47.1825 53.374L43.8695 55.2914Z" fill="#EFF0F1"/>
<path d="M82.6674 68.1908L84.9565 66.8604L84.9239 77.9669L82.6348 79.2908L82.6674 68.1908Z" fill="#CFD2D9"/>
<path d="M78.0109 65.5043L80.2935 64.1738L84.9565 66.8608L82.6674 68.1912L78.0109 65.5043Z" fill="#EFF0F1"/>
<path d="M82.6674 68.1909L82.6348 79.2909L77.9783 76.6039L78.0109 65.5039L82.6674 68.1909Z" fill="#E2E2EB"/>
<path d="M79.7456 66.5024L79.3413 66.2676C79.0478 70.2132 80.2347 74.485 82.6413 77.7328V74.7719C80.8152 72.4045 79.6413 69.5154 79.7391 66.4958L79.7456 66.5024Z" fill="#8BBD3F"/>
<path d="M79.3413 66.2676L78.0109 65.498L77.9783 76.598L82.6348 79.285V77.7263C80.2348 74.4785 79.0478 70.2002 79.3348 66.2611L79.3413 66.2676Z" fill="#477108"/>
<path d="M76.6086 61.7344L74.4565 62.98L74.45 65.98L76.5956 64.7409L76.6086 61.7344Z" fill="#CFD2D9"/>
<path d="M74.45 65.9803L74.4435 68.426L76.5891 67.1738L76.5957 64.7412L74.45 65.9803Z" fill="#477108"/>
<path d="M74.4565 62.98L74.45 65.6279V65.9865H74.4434L74.0456 65.7518L73.726 65.5692L73.263 65.3018L72.95 65.1192L72.2913 64.7409V63.9909V63.6192L72.2978 63.0974V62.7322V62.2692V61.9039V61.7344L74.4565 62.98Z" fill="#E2E2EB"/>
<path d="M72.2913 64.7412L72.2848 67.1738L74.4435 68.426L74.45 65.9869L72.2913 64.7412Z" fill="#8BBD3F"/>
<path d="M76.6087 61.7346L74.4565 62.9803L72.2979 61.7346L74.4435 60.4824L76.6087 61.7346Z" fill="#EFF0F1"/>
<path d="M73.263 65.3017L72.95 65.1191L72.2913 63.9909V63.6191L73.263 65.3017Z" fill="#8BBD3F"/>
<path d="M74.0456 65.752L73.726 65.5694L72.2977 63.0976V62.7324L74.0456 65.752Z" fill="#8BBD3F"/>
<path d="M74.4499 65.6282V65.9869H74.4434L72.2977 62.2695V61.9043L74.4499 65.6282Z" fill="#8BBD3F"/>
<path d="M95.3 73.6371L97.5826 72.3066L97.5696 76.8458L95.287 78.1762L95.3 73.6371Z" fill="#CFD2D9"/>
<path d="M86.3262 68.4584L88.6153 67.1279L97.5827 72.3062L95.3001 73.6366L86.3262 68.4584Z" fill="#EFF0F1"/>
<path d="M95.3001 73.6363L95.287 78.1754L86.3131 72.9971L86.3261 68.458L95.3001 73.6363Z" fill="#E2E2EB"/>
<path d="M86.3131 72.541V72.9975L95.2805 78.1758L95.2935 73.6367L94.4457 73.1475C91.8305 74.2041 88.9153 73.7215 86.3131 72.541Z" fill="#FFA200"/>
<path d="M86.3196 72.0903V72.5403C88.9218 73.7207 91.837 74.2033 94.4522 73.1468L92.1826 71.8359C90.3435 72.5794 88.3152 72.7555 86.3196 72.0903Z" fill="#FFD438"/>
<path d="M86.3196 72.0906C88.3152 72.7558 90.3435 72.5797 92.1826 71.8363L86.3326 68.458L86.3196 72.0906Z" fill="#E2E2EB"/>
<path d="M73.5369 72.8285L73.5435 76.5785L70.25 74.6611L70.2369 70.9307L73.5369 72.8285Z" fill="#E2E2EB"/>
<path d="M71.0195 73.6959C70.5369 72.8676 70.4652 71.9807 70.5043 71.0872L70.2369 70.9307L70.25 74.6676L73.5435 76.585V75.8741C72.5391 75.3394 71.6 74.7263 71.0195 73.7024V73.6959Z" fill="#FFA200"/>
<path d="M71.1304 71.4456L70.5044 71.0869C70.4652 71.9804 70.537 72.8674 71.0196 73.6956C71.6065 74.7195 72.5391 75.3326 73.5435 75.8674V75.6391C71.9913 74.9217 71.0978 73.1478 71.1304 71.4456Z" fill="#FFD438"/>
<path d="M76.85 70.9307L76.8631 74.6611L73.5435 76.5785L73.537 72.8415L76.85 70.9307Z" fill="#CFD2D9"/>
<path d="M70.2369 70.9301L73.5369 72.841L76.85 70.9301L73.5565 69.0127L70.2369 70.9301Z" fill="#EFF0F1"/>
<g opacity="0.3">
<path d="M101.32 82.8189L34.9674 44.5624L49.1652 36.3906L115.511 74.6471L101.32 82.8189Z" fill="#8BBD3F"/>
</g>
<path d="M66.2065 49.8581L68.4957 48.5342L68.4826 53.0733L66.1935 54.3972L66.2065 49.8581Z" fill="#CFD2D9"/>
<path d="M57.2327 44.6794L59.5218 43.3555L68.4957 48.5337L66.2066 49.8576L57.2327 44.6794Z" fill="#EFF0F1"/>
<path d="M66.2066 49.8579L66.1935 54.3971L57.2196 49.2188L57.2327 44.6797L66.2066 49.8579Z" fill="#E2E2EB"/>
<path d="M57.2261 48.7627V49.2192L66.1935 54.3975L66.2065 49.8583L65.3587 49.3692C62.7435 50.4257 59.8282 49.9431 57.2261 48.7627Z" fill="#477108"/>
<path d="M57.2261 48.312V48.762C59.8282 49.9424 62.7435 50.425 65.3587 49.3685L63.0891 48.0576C61.25 48.8011 59.2217 48.9772 57.2261 48.312Z" fill="#8BBD3F"/>
<path d="M57.2261 48.3123C59.2217 48.9775 61.25 48.8014 63.0891 48.0579L57.2391 44.6797L57.2261 48.3123Z" fill="#E2E2EB"/>
<path d="M44.2218 43.917L44.2283 47.667L40.9348 45.7497L40.9218 42.0127L44.2218 43.917Z" fill="#E2E2EB"/>
<path d="M41.7044 44.7779C41.2218 43.9497 41.15 43.0627 41.1891 42.1692L40.9218 42.0127L40.9348 45.7497L44.2283 47.667V46.9562C43.2239 46.4214 42.2848 45.8084 41.7044 44.7844V44.7779Z" fill="#477108"/>
<path d="M41.8153 42.5276L41.1892 42.1689C41.15 43.0624 41.2218 43.9494 41.7044 44.7776C42.2913 45.8016 43.2239 46.4146 44.2283 46.9494V46.7211C42.6761 46.0037 41.7826 44.2298 41.8153 42.5276Z" fill="#8BBD3F"/>
<path d="M47.5348 42.0127L47.5479 45.7497L44.2283 47.667L44.2218 43.9301L47.5348 42.0127Z" fill="#CFD2D9"/>
<path d="M40.9218 42.0124L44.2218 43.9298L47.5348 42.0124L44.2413 40.1016L40.9218 42.0124Z" fill="#EFF0F1"/>
<path d="M53.2935 38.9929L55.5761 37.6689L55.55 48.7689L53.2609 50.0994L53.2935 38.9929Z" fill="#CFD2D9"/>
<path d="M48.637 36.306L50.9196 34.9756L55.5761 37.6691L53.2935 38.993L48.637 36.306Z" fill="#EFF0F1"/>
<path d="M53.2935 38.9926L53.2609 50.0991L48.6044 47.4057L48.637 36.3057L53.2935 38.9926Z" fill="#E2E2EB"/>
<path d="M50.3652 37.3031L49.9609 37.0684C49.6674 41.014 50.8544 45.2858 53.2609 48.5336V45.5727C51.4348 43.2053 50.2609 40.3162 50.3587 37.2966L50.3652 37.3031Z" fill="#FFD438"/>
<path d="M49.9674 37.0752L48.637 36.3057L48.6044 47.4057L53.2609 50.0926V48.5339C50.8609 45.2861 49.6739 41.0078 49.9609 37.0687L49.9674 37.0752Z" fill="#FFA200"/>
<path d="M62.3195 49.0176L60.1738 50.2632L60.1608 53.2698L62.3064 52.0306L62.3195 49.0176Z" fill="#CFD2D9"/>
<path d="M60.1608 53.2694L60.1543 55.7085L62.2999 54.4629L62.3065 52.0303L60.1608 53.2694Z" fill="#FFA200"/>
<path d="M60.1738 50.2632L60.1608 52.9176V53.2763L60.1542 53.2698L59.7564 53.0415L59.4369 52.8589L58.9738 52.5915L58.6608 52.4089L58.0021 52.0306V51.2741L58.0086 50.9089V50.3806V50.0154V49.5524V49.1871V49.0176L60.1738 50.2632Z" fill="#E2E2EB"/>
<path d="M58.0021 52.0303L57.9956 54.4629L60.1543 55.7085L60.1608 53.2759L58.0021 52.0303Z" fill="#FFD438"/>
<path d="M62.3195 49.0171L60.1739 50.2628L58.0087 49.0171L60.1543 47.7715L62.3195 49.0171Z" fill="#EFF0F1"/>
<path d="M58.9738 52.5908L58.6608 52.4082L58.0021 51.2734L58.0086 50.9082L58.9738 52.5908Z" fill="#FFD438"/>
<path d="M59.7564 53.0407L59.4368 52.8581L58.0085 50.3799V50.0146L59.7564 53.0407Z" fill="#FFD438"/>
<path d="M60.1607 52.917V53.2757L60.1542 53.2691L58.0085 49.5517V49.1865L60.1607 52.917Z" fill="#FFD438"/>
<path d="M95.3586 66.3783L97.6412 65.0479L97.6282 69.587L95.3456 70.9174L95.3586 66.3783Z" fill="#CFD2D9"/>
<path d="M86.3848 61.1931L88.6674 59.8691L97.6413 65.0474L95.3587 66.3778L86.3848 61.1931Z" fill="#EFF0F1"/>
<path d="M95.3587 66.3781L95.3456 70.9173L86.3717 65.7325L86.3848 61.1934L95.3587 66.3781Z" fill="#E2E2EB"/>
<path d="M86.3717 65.2822V65.7387L95.3391 70.917L95.3521 66.3779L94.5043 65.8887C91.8891 66.9453 88.9739 66.4627 86.3717 65.2822Z" fill="#477108"/>
<path d="M86.3717 64.8256V65.2756C88.9739 66.4561 91.8891 66.9387 94.5043 65.8822L92.2347 64.5713C90.3956 65.3148 88.3674 65.4909 86.3717 64.8256Z" fill="#8BBD3F"/>
<path d="M86.3717 64.826C88.3674 65.4912 90.3956 65.3151 92.2347 64.5716L86.3848 61.1934L86.3717 64.826Z" fill="#E2E2EB"/>
<path d="M81.963 54.9838L84.2522 53.6533L84.2195 64.7533L81.9304 66.0838L81.963 54.9838Z" fill="#CFD2D9"/>
<path d="M77.3065 52.2907L79.5891 50.9668L84.2522 53.6538L81.963 54.9842L77.3065 52.2907Z" fill="#EFF0F1"/>
<path d="M81.9631 54.9845L81.9305 66.0845L77.2739 63.3975L77.3065 52.291L81.9631 54.9845Z" fill="#E2E2EB"/>
<path d="M79.0348 53.2953L78.6304 53.0605C78.337 57.0062 79.5239 61.2779 81.9304 64.5258V61.5649C80.1043 59.1975 78.9304 56.3084 79.0283 53.2888L79.0348 53.2953Z" fill="#FFD438"/>
<path d="M78.637 53.0606L77.3065 52.291L77.2739 63.391L81.9305 66.078V64.5193C79.5305 61.2715 78.3435 56.9932 78.6305 53.0541L78.637 53.0606Z" fill="#FFA200"/>
<path d="M74.124 49.2646L71.9783 50.5103L71.9718 53.5103L74.1175 52.2712L74.124 49.2646Z" fill="#CFD2D9"/>
<path d="M71.9719 53.5106L71.9653 55.9563L74.111 54.7041L74.1175 52.2715L71.9719 53.5106Z" fill="#FFA200"/>
<path d="M71.9783 50.5103L71.9717 53.1646V53.5233L71.9652 53.5168L71.5609 53.282L71.2413 53.0994L70.7848 52.8386L70.4652 52.6494L69.8065 52.2712L69.813 51.5212V51.1559V50.6277V50.2625V49.7994L69.8196 49.4342V49.2646L71.9783 50.5103Z" fill="#E2E2EB"/>
<path d="M69.8066 52.2715L69.8 54.7041L71.9653 55.9563L71.9718 53.5237L69.8066 52.2715Z" fill="#FFD438"/>
<path d="M74.1239 49.2649L71.9783 50.5105L69.8196 49.2649L71.9652 48.0127L74.1239 49.2649Z" fill="#EFF0F1"/>
<path d="M70.7848 52.8389L70.4653 52.6497L69.8131 51.5215V51.1562L70.7848 52.8389Z" fill="#FFD438"/>
<path d="M71.5609 53.2823L71.2414 53.0996L69.8131 50.6279V50.2627L71.5609 53.2823Z" fill="#FFD438"/>
<path d="M71.9718 53.165V53.5237L71.9653 53.5172L69.8131 49.7998L69.8196 49.4346L71.9718 53.165Z" fill="#FFD438"/>
<path d="M73.0282 58.0245L73.0413 61.7679L69.7478 59.8571L69.7347 56.1201L73.0282 58.0245Z" fill="#E2E2EB"/>
<path d="M70.5174 58.8853C70.0347 58.0571 69.963 57.1701 70.0021 56.2766L69.7347 56.1201L69.7478 59.8571L73.0413 61.7745V61.0571C72.0369 60.5223 71.0978 59.9093 70.5174 58.8853Z" fill="#477108"/>
<path d="M70.6282 56.6351L70.0022 56.2764C69.963 57.1698 70.0348 58.0568 70.5174 58.8851C71.1043 59.909 72.0369 60.522 73.0413 61.0568V60.8285C71.4891 60.1111 70.5956 58.3372 70.6282 56.6351Z" fill="#8BBD3F"/>
<path d="M76.3478 56.1201L76.3608 59.8571L73.0412 61.7679L73.0282 58.0375L76.3478 56.1201Z" fill="#CFD2D9"/>
<path d="M69.7347 56.1195L73.0282 58.0369L76.3478 56.1195L73.0543 54.2021L69.7347 56.1195Z" fill="#EFF0F1"/>
<g opacity="0.3">
<path d="M101.32 71.8628L34.9674 33.6063L49.1652 25.4346L115.511 63.6911L101.32 71.8628Z" fill="#8BBD3F"/>
</g>
<path d="M66.9956 38.7585L69.2847 37.4346L69.2521 48.5346L66.963 49.8585L66.9956 38.7585Z" fill="#CFD2D9"/>
<path d="M62.3391 36.0716L64.6217 34.7412L69.2848 37.4347L66.9956 38.7586L62.3391 36.0716Z" fill="#EFF0F1"/>
<path d="M66.9957 38.7582L66.963 49.8582L62.3065 47.1713L62.3391 36.0713L66.9957 38.7582Z" fill="#E2E2EB"/>
<path d="M64.0674 37.0697L63.663 36.835C63.3696 40.7806 64.5565 45.0523 66.963 48.3002V45.3393C65.1369 42.9719 63.963 40.0828 64.0609 37.0632L64.0674 37.0697Z" fill="#8BBD3F"/>
<path d="M63.6696 36.835L62.3391 36.0654L62.3065 47.1654L66.963 49.8524V48.2937C64.563 45.0459 63.3761 40.7676 63.663 36.8285L63.6696 36.835Z" fill="#477108"/>
<path d="M60.9304 32.3027L58.7847 33.5484L58.7782 36.5549L60.9238 35.3158L60.9304 32.3027Z" fill="#CFD2D9"/>
<path d="M58.7783 36.5546L58.7717 38.9937L60.9174 37.748L60.9239 35.3154L58.7783 36.5546Z" fill="#477108"/>
<path d="M58.7847 33.5484L58.7782 36.2027V36.5614L58.7717 36.5549L58.3673 36.3266L58.0543 36.1375L57.5912 35.8766L57.2717 35.694L56.6195 35.3158V34.5593V34.194L56.626 33.6658V33.3006V32.8375V32.4723V32.3027L58.7847 33.5484Z" fill="#E2E2EB"/>
<path d="M56.6196 35.3154L56.613 37.748L58.7717 38.9937L58.7783 36.5611L56.6196 35.3154Z" fill="#8BBD3F"/>
<path d="M60.9304 32.3023L58.7848 33.5479L56.6261 32.3023L58.7718 31.0566L60.9304 32.3023Z" fill="#EFF0F1"/>
<path d="M57.5912 35.876L57.2717 35.6934L56.6195 34.5586V34.1934L57.5912 35.876Z" fill="#8BBD3F"/>
<path d="M58.3673 36.3259L58.0542 36.1368L56.626 33.665V33.2998L58.3673 36.3259Z" fill="#8BBD3F"/>
<path d="M58.7782 36.2021V36.5608L58.7716 36.5543L56.626 32.8369V32.4717L58.7782 36.2021Z" fill="#8BBD3F"/>
<path d="M78.9239 44.9147L81.213 43.5908L81.2 48.1299L78.9174 49.4539L78.9239 44.9147Z" fill="#CFD2D9"/>
<path d="M69.9565 39.7367L72.2392 38.4062L81.2131 43.591L78.9239 44.9149L69.9565 39.7367Z" fill="#EFF0F1"/>
<path d="M78.9239 44.9146L78.9174 49.4537L69.9435 44.2755L69.9565 39.7363L78.9239 44.9146Z" fill="#E2E2EB"/>
<path d="M69.9435 43.8193V44.2759L78.9109 49.4541L78.9239 44.915L78.0761 44.4259C75.4609 45.4824 72.5457 44.9998 69.9435 43.8193Z" fill="#FFA200"/>
<path d="M69.9435 43.3686V43.8186C72.5457 44.999 75.4609 45.4816 78.0761 44.4251L75.8065 43.1143C73.9674 43.8577 71.9391 44.0338 69.9435 43.3686Z" fill="#FFD438"/>
<path d="M69.9435 43.3689C71.9391 44.0342 73.9674 43.8581 75.8065 43.1146L69.9565 39.7363L69.9435 43.3689Z" fill="#E2E2EB"/>
<path d="M51.6044 37.1866L51.6174 40.9366L48.324 39.0192L48.3109 35.2822L51.6044 37.1866Z" fill="#E2E2EB"/>
<path d="M49.0935 38.0474C48.6109 37.2192 48.5392 36.3322 48.5783 35.4387L48.3109 35.2822L48.324 39.0192L51.6174 40.9366V40.2192C50.6131 39.6844 49.674 39.0714 49.0935 38.0474Z" fill="#FFA200"/>
<path d="M49.2044 35.7972L48.5783 35.4385C48.5392 36.332 48.6109 37.2189 49.0935 38.0472C49.6805 39.0711 50.6131 39.6841 51.6175 40.2189V39.9907C50.0653 39.2733 49.1718 37.4993 49.2044 35.7972Z" fill="#FFD438"/>
<path d="M54.924 35.2822L54.937 39.0192L51.6175 40.9366L51.611 37.1996L54.924 35.2822Z" fill="#CFD2D9"/>
<path d="M48.3109 35.282L51.6044 37.1994L54.924 35.282L51.6305 33.3711L48.3109 35.282Z" fill="#EFF0F1"/>
<path d="M93.1935 51.9838L95.4761 50.6533L95.4435 61.7598L93.1609 63.0838L93.1935 51.9838Z" fill="#CFD2D9"/>
<path d="M88.5369 49.2972L90.8195 47.9668L95.476 50.6538L93.1934 51.9842L88.5369 49.2972Z" fill="#EFF0F1"/>
<path d="M93.1934 51.9838L93.1608 63.0838L88.5043 60.3969L88.5369 49.2969L93.1934 51.9838Z" fill="#E2E2EB"/>
<path d="M90.2651 50.2953L89.8608 50.0605C89.5673 54.0062 90.7543 58.2779 93.1608 61.5258V58.5649C91.3347 56.1975 90.1608 53.3084 90.2586 50.2888L90.2651 50.2953Z" fill="#8BBD3F"/>
<path d="M89.8609 50.0606L88.5304 49.291L88.4978 60.391L93.1543 63.078V61.5193C90.7543 58.2715 89.5674 53.9932 89.8543 50.0541L89.8609 50.0606Z" fill="#477108"/>
<path d="M87.1281 45.5273L84.9825 46.773L84.976 49.773L87.1216 48.5339L87.1281 45.5273Z" fill="#CFD2D9"/>
<path d="M84.976 49.7733L84.9695 52.219L87.1151 50.9668L87.1217 48.5342L84.976 49.7733Z" fill="#477108"/>
<path d="M84.9826 46.773L84.9761 49.4273V49.786L84.9696 49.7795L84.5652 49.5447L84.2456 49.3621L83.7891 49.1013L83.4696 48.9121L82.8174 48.5339V47.7839V47.4187V46.8904V46.5252L82.8239 46.0621V45.6969V45.5273L84.9826 46.773Z" fill="#E2E2EB"/>
<path d="M82.8174 48.5342L82.8043 50.9668L84.9695 52.219L84.9761 49.7864L82.8174 48.5342Z" fill="#8BBD3F"/>
<path d="M87.1282 45.5276L84.9825 46.7732L82.8239 45.5276L84.9695 44.2754L87.1282 45.5276Z" fill="#EFF0F1"/>
<path d="M83.7891 49.1016L83.4696 48.9124L82.8174 47.7842V47.4189L83.7891 49.1016Z" fill="#8BBD3F"/>
<path d="M84.5652 49.545L84.2456 49.3623L82.8174 46.8906V46.5254L84.5652 49.545Z" fill="#8BBD3F"/>
<path d="M84.976 49.4277V49.7864L84.9695 49.7799L82.8239 46.0625V45.6973L84.976 49.4277Z" fill="#8BBD3F"/>
<path d="M105.474 58.7416L107.763 57.4111L107.75 61.9503L105.461 63.2742L105.474 58.7416Z" fill="#CFD2D9"/>
<path d="M96.5066 53.5563L98.7892 52.2324L107.763 57.4107L105.474 58.7411L96.5066 53.5563Z" fill="#EFF0F1"/>
<path d="M105.474 58.7414L105.461 63.274L96.4935 58.0958L96.5066 53.5566L105.474 58.7414Z" fill="#E2E2EB"/>
<path d="M96.4935 57.6455V58.102L105.461 63.2803L105.474 58.7412L104.626 58.252C102.011 59.3086 99.0957 58.8259 96.4935 57.6455Z" fill="#FFA200"/>
<path d="M96.4935 57.1889V57.6389C99.0957 58.8194 102.011 59.302 104.626 58.2454L102.357 56.9346C100.517 57.678 98.4892 57.8541 96.4935 57.1889Z" fill="#FFD438"/>
<path d="M96.4935 57.1892C98.4892 57.8545 100.517 57.6784 102.357 56.9349L96.5066 53.5566L96.4935 57.1892Z" fill="#E2E2EB"/>
<path d="M84.0565 56.6215L84.0696 60.3715L80.7761 58.4606L80.7631 54.7236L84.0565 56.6215Z" fill="#E2E2EB"/>
<path d="M81.5457 57.4889C81.0631 56.6606 80.9913 55.7736 81.0305 54.8802L80.7631 54.7236L80.7761 58.4606L84.0696 60.378V59.6671C83.0652 59.1323 82.1261 58.5193 81.5457 57.4954V57.4889Z" fill="#FFA200"/>
<path d="M81.6566 55.2386L81.0305 54.8799C80.9913 55.7734 81.0631 56.6603 81.5457 57.4886C82.1327 58.5125 83.0653 59.1255 84.0696 59.6603V59.4321C82.5174 58.7147 81.624 56.9407 81.6566 55.2386Z" fill="#FFD438"/>
<path d="M87.3761 54.7236L87.3826 58.4606L84.0696 60.3715L84.0565 56.6345L87.3761 54.7236Z" fill="#CFD2D9"/>
<path d="M80.7631 54.7231L84.0565 56.6339L87.3761 54.7231L84.0761 52.8057L80.7631 54.7231Z" fill="#EFF0F1"/>
<g opacity="0.3">
<path d="M101.32 60.8999L34.9674 22.6434L49.1652 14.4717L115.511 52.7282L101.32 60.8999Z" fill="#8BBD3F"/>
</g>
<path d="M72.6305 28.5072L74.9196 27.1768L74.9066 31.7159L72.6174 33.0463L72.6305 28.5072Z" fill="#CFD2D9"/>
<path d="M63.6565 23.3285L65.9456 21.998L74.9195 27.1763L72.6304 28.5067L63.6565 23.3285Z" fill="#EFF0F1"/>
<path d="M72.6305 28.5064L72.6174 33.0455L63.65 27.8673L63.6565 23.3281L72.6305 28.5064Z" fill="#E2E2EB"/>
<path d="M63.65 27.4111V27.8677L72.6174 33.0459L72.6305 28.5068L71.7826 28.0177C69.1674 29.0742 66.2522 28.5916 63.65 27.4111Z" fill="#477108"/>
<path d="M63.65 26.9604V27.4104C66.2522 28.5908 69.1674 29.0734 71.7826 28.0169L69.5131 26.7061C67.6739 27.4495 65.6457 27.6256 63.65 26.9604Z" fill="#8BBD3F"/>
<path d="M63.65 26.9607C65.6457 27.626 67.6739 27.4499 69.5131 26.7064L63.6631 23.3281L63.65 26.9607Z" fill="#E2E2EB"/>
<path d="M50.4696 26.2627L50.4827 30.0127L47.1827 28.0954L47.1761 24.3584L50.4696 26.2627Z" fill="#E2E2EB"/>
<path d="M47.9588 27.1236C47.4761 26.2954 47.4044 25.4084 47.4435 24.5149L47.1761 24.3584L47.1892 28.0954L50.4827 30.0127V29.3019C49.4783 28.7671 48.5392 28.1541 47.9588 27.1301V27.1236Z" fill="#477108"/>
<path d="M48.0697 24.8733L47.4436 24.5146C47.4044 25.4081 47.4762 26.2951 47.9588 27.1233C48.5457 28.1473 49.4784 28.7603 50.4827 29.2951V29.0668C48.9305 28.3494 48.037 26.5755 48.0697 24.8733Z" fill="#8BBD3F"/>
<path d="M53.7892 24.3584L53.7957 28.0954L50.4827 30.0127L50.4696 26.2758L53.7892 24.3584Z" fill="#CFD2D9"/>
<path d="M47.1761 24.3578L50.4696 26.2752L53.7892 24.3578L50.4892 22.4404L47.1761 24.3578Z" fill="#EFF0F1"/>
<path d="M60.5717 20.3793L62.8608 19.0488L62.8282 30.1488L60.5391 31.4793L60.5717 20.3793Z" fill="#CFD2D9"/>
<path d="M55.9152 17.6862L58.1978 16.3623L62.8608 19.0493L60.5717 20.3797L55.9152 17.6862Z" fill="#EFF0F1"/>
<path d="M60.5717 20.38L60.5391 31.48L55.8826 28.793L55.9152 17.6865L60.5717 20.38Z" fill="#E2E2EB"/>
<path d="M57.6434 18.6908L57.2391 18.4561C56.9456 22.4017 58.1326 26.6734 60.5391 29.9213V26.9604C58.713 24.593 57.5391 21.7039 57.6369 18.6843L57.6434 18.6908Z" fill="#FFD438"/>
<path d="M57.2456 18.4561L55.9152 17.6865L55.8826 28.7865L60.5391 31.4735V29.9148C58.1391 26.667 56.9521 22.3887 57.2391 18.4496L57.2456 18.4561Z" fill="#FFA200"/>
<path d="M51.7543 14.4521L49.6086 15.7043L49.5956 18.7043L51.7478 17.4652L51.7543 14.4521Z" fill="#CFD2D9"/>
<path d="M49.5956 18.704L49.5891 21.1431L51.7348 19.8975L51.7478 17.4648L49.5956 18.704Z" fill="#FFA200"/>
<path d="M49.6086 15.7043L49.6021 18.3521L49.5956 18.7108L49.1912 18.4761L48.8717 18.2935L48.4152 18.0261L48.0956 17.8435L47.4369 17.4652L47.4434 16.7087V16.3435V15.8152V15.45V14.9935V14.6217L47.4499 14.4521L49.6086 15.7043Z" fill="#E2E2EB"/>
<path d="M47.4369 17.4648L47.4304 19.8975L49.5891 21.1431L49.5956 18.7105L47.4369 17.4648Z" fill="#FFD438"/>
<path d="M51.7543 14.4517L49.6086 15.7039L47.45 14.4517L49.5956 13.2061L51.7543 14.4517Z" fill="#EFF0F1"/>
<path d="M48.4152 18.0254L48.0957 17.8428L47.4435 16.708V16.3428L48.4152 18.0254Z" fill="#FFD438"/>
<path d="M49.1913 18.4753L48.8717 18.2927L47.4435 15.8144V15.4492L49.1913 18.4753Z" fill="#FFD438"/>
<path d="M49.6022 18.3515L49.5957 18.7102L47.4435 14.9928V14.6211L49.6022 18.3515Z" fill="#FFD438"/>
<path d="M98.8282 44.3412L101.111 43.0107L101.098 47.5499L98.8152 48.8738L98.8282 44.3412Z" fill="#CFD2D9"/>
<path d="M89.8544 39.1559L92.1435 37.832L101.111 43.0103L98.8283 44.3407L89.8544 39.1559Z" fill="#EFF0F1"/>
<path d="M98.8283 44.341L98.8152 48.8736L89.8413 43.6954L89.8544 39.1562L98.8283 44.341Z" fill="#E2E2EB"/>
<path d="M89.8413 43.2451V43.7016L98.8087 48.8799L98.8217 44.3408L97.9739 43.8516C95.3587 44.9082 92.4435 44.4256 89.8413 43.2451Z" fill="#477108"/>
<path d="M89.8479 42.7885V43.2385C92.4501 44.419 95.3653 44.9016 97.9805 43.845L95.7109 42.5342C93.8718 43.2777 91.8436 43.4537 89.8479 42.7885Z" fill="#8BBD3F"/>
<path d="M89.8479 42.7889C91.8436 43.4541 93.8718 43.278 95.7109 42.5345L89.8609 39.1562L89.8479 42.7889Z" fill="#E2E2EB"/>
<path d="M75.5065 40.7081L75.5195 44.4581L72.2261 42.5407L72.213 38.8037L75.5065 40.7081Z" fill="#E2E2EB"/>
<path d="M72.9956 41.5689C72.513 40.7407 72.4413 39.8537 72.4804 38.9602L72.213 38.8037L72.2261 42.5407L75.5195 44.4581V43.7472C74.5152 43.2124 73.5761 42.5994 72.9956 41.5754V41.5689Z" fill="#477108"/>
<path d="M73.1065 39.3187L72.4804 38.96C72.4413 39.8534 72.513 40.7404 72.9956 41.5687C73.5826 42.5926 74.5152 43.2056 75.5196 43.7404V43.5121C73.9674 42.7947 73.0739 41.0208 73.1065 39.3187Z" fill="#8BBD3F"/>
<path d="M78.826 38.8037L78.8391 42.5407L75.5195 44.4581L75.5065 40.7211L78.826 38.8037Z" fill="#CFD2D9"/>
<path d="M72.213 38.8031L75.5065 40.7205L78.826 38.8031L75.5326 36.8857L72.213 38.8031Z" fill="#EFF0F1"/>
<path d="M85.6087 34.8256L87.8978 33.4951L87.8652 44.6016L85.576 45.9256L85.6087 34.8256Z" fill="#CFD2D9"/>
<path d="M80.9521 32.139L83.2348 30.8086L87.8978 33.4956L85.6087 34.826L80.9521 32.139Z" fill="#EFF0F1"/>
<path d="M85.6087 34.8256L85.5761 45.9256L80.9196 43.2387L80.9522 32.1387L85.6087 34.8256Z" fill="#E2E2EB"/>
<path d="M82.6869 33.1371L82.2825 32.9023C81.9891 36.848 83.176 41.1197 85.5825 44.3676V41.4067C83.7564 39.0393 82.5825 36.1502 82.6804 33.1306L82.6869 33.1371Z" fill="#FFD438"/>
<path d="M82.2826 32.9024L80.9522 32.1328L80.9196 43.2328L85.5761 45.9198V44.3611C83.1761 41.1132 81.9891 36.835 82.2761 32.8959L82.2826 32.9024Z" fill="#FFA200"/>
<path d="M79.7717 28.8906L77.626 30.1363L77.6195 33.1428L79.7652 31.9037L79.7717 28.8906Z" fill="#CFD2D9"/>
<path d="M77.6196 33.1425L77.613 35.5816L79.7587 34.3359L79.7652 31.9033L77.6196 33.1425Z" fill="#FFA200"/>
<path d="M77.626 30.1363L77.6195 32.7906V33.1493L77.613 33.1428L77.2086 32.9145L76.8956 32.7319L76.4326 32.4645L76.1195 32.2819L75.4608 31.9037V31.1471V30.7819L75.4673 30.2537V29.8885V29.4254V29.0602V28.8906L77.626 30.1363Z" fill="#E2E2EB"/>
<path d="M75.4609 31.9033L75.4543 34.3359L77.613 35.5816L77.6196 33.149L75.4609 31.9033Z" fill="#FFD438"/>
<path d="M79.7718 28.8902L77.6261 30.1358L75.4674 28.8902L77.6131 27.6445L79.7718 28.8902Z" fill="#EFF0F1"/>
<path d="M76.4326 32.4639L76.1195 32.2813L75.4608 31.1465V30.7812L76.4326 32.4639Z" fill="#FFD438"/>
<path d="M77.2086 32.9138L76.8955 32.7312L75.4673 30.2529V29.8877L77.2086 32.9138Z" fill="#FFD438"/>
<path d="M77.6195 32.79V33.1487L77.6129 33.1422L75.4673 29.4248V29.0596L77.6195 32.79Z" fill="#FFD438"/>
<mask id="mask0_210_1383" style="mask-type:luminance" maskUnits="userSpaceOnUse" x="115" y="42" width="3" height="125">
<path d="M117.096 42.3262L116.75 164.635C116.75 165.157 116.404 165.678 115.719 166.076L116.065 43.7675C116.75 43.3696 117.096 42.8479 117.096 42.3262Z" fill="white"/>
</mask>
<g mask="url(#mask0_210_1383)">
<path d="M117.096 42.3262L116.75 164.635C116.75 165.157 116.404 165.678 115.719 166.076L116.065 43.7675C116.75 43.3696 117.096 42.8479 117.096 42.3262Z" fill="#B4B5B5"/>
</g>
<path d="M116.065 43.7676L115.72 166.076L103.576 173.139L103.922 50.8306L116.065 43.7676Z" fill="#808081"/>
<path d="M117.096 42.3262L116.75 164.635C116.75 165.157 116.404 165.678 115.719 166.076L116.065 43.7675C116.75 43.3696 117.096 42.8479 117.096 42.3262Z" fill="#BDBBC3"/>
<mask id="mask1_210_1383" style="mask-type:luminance" maskUnits="userSpaceOnUse" x="115" y="42" width="3" height="125">
<path d="M117.096 42.3262L116.75 164.635C116.75 165.157 116.404 165.678 115.719 166.076L116.065 43.7675C116.75 43.3696 117.096 42.8479 117.096 42.3262Z" fill="white"/>
</mask>
<g mask="url(#mask1_210_1383)">
<path d="M117.096 42.3262L116.75 164.635C116.75 165.157 116.404 165.678 115.719 166.076L116.065 43.7675C116.75 43.3696 117.096 42.8479 117.096 42.3262Z" fill="#BDBBC3"/>
</g>
<path d="M116.065 43.7676L115.72 166.076L103.576 173.139L103.922 50.8306L116.065 43.7676Z" fill="#BDBBC3"/>
<path d="M103.922 50.8299L103.576 173.139L97.9543 169.891L98.3065 47.582L103.922 50.8299Z" fill="#E1E2E3"/>
<path d="M116.052 40.8651C117.441 41.6673 117.448 42.9651 116.072 43.7673L103.928 50.8238L98.313 47.5825L112.517 39.3325L49.087 2.71293L34.8826 10.9629L29.2609 7.72163L41.4109 0.665107C42.787 -0.137067 45.0304 -0.137067 46.4196 0.665107L49.5239 2.45859L112.948 39.0716L116.052 40.8651Z" fill="#F0F1F2"/>
<path d="M13.0543 142.376C13.0087 141.906 9.72826 139.676 9.14783 139.832C8.84131 139.917 8.69131 140.419 8.09131 140.452C7.49783 140.491 7.13913 140.008 6.60435 139.774C6.60435 139.774 7.0087 135.124 6.37609 134.706C4.63478 133.558 2.10435 134.641 2.21522 135.821C2.24131 136.102 1.81087 141.182 1.53696 142.474C1.41957 143.015 0.669565 143.752 0.519565 144.208C0.434783 144.456 0.434783 145.297 0.493479 145.506C0.695652 146.276 2.0587 147.176 2.94565 147.137C3.58478 147.111 5.10435 147 5.54131 146.608C5.97174 146.23 6.30435 144.567 10.0674 144.378C10.7457 144.45 11.2217 143.856 11.4174 143.628C11.8087 143.432 13.0935 142.767 13.0543 142.369V142.376Z" fill="#FFCEA7"/>
<path d="M12.0304 139.683C11.3065 139.265 9.5391 139.578 9.19345 139.644C8.96519 139.689 8.73693 139.924 8.61302 140.074L8.35215 140.178L7.06084 140.035C8.11084 140.655 7.47171 141.065 6.79345 141.065L3.37606 142.239C3.33693 141.77 2.34563 141.228 1.73258 141.137C1.09997 141.039 1.09345 141.959 1.09345 141.959L0.441278 143.746L0.304321 146.107C0.304321 146.107 1.50432 147.176 2.99128 147.548C4.48476 147.92 6.96954 146.296 6.96954 146.296L7.02171 145.357C7.02171 145.357 7.24997 144.978 8.98476 145.044C10.7261 145.109 12.3956 143.068 13.1782 142.637C13.9608 142.207 12.7413 140.081 12.0239 139.676L12.0304 139.683Z" fill="#4B3D46"/>
<path d="M7.84997 58.0828C7.84997 58.0828 10.1848 72.6263 9.55215 74.7067C8.91954 76.7872 7.74563 78.2611 6.36302 78.2872C4.57606 78.3198 3.72171 75.4698 3.75432 75.2611C3.91084 70.885 2.71084 65.1328 1.52389 60.3459C-0.15872 53.8567 6.39563 53.922 7.84345 58.0828H7.84997Z" fill="#FFCFA8"/>
<path d="M9.3109 74.6156C9.3109 74.6156 8.03264 72.32 5.78916 72.9852C1.96743 74.12 5.22177 77.133 6.38264 88.533C6.96308 94.2526 10.6348 92.4852 9.7609 87.9656C9.03047 84.2026 10.6805 81.1569 9.3109 74.6091V74.6156Z" fill="#FFCFA8"/>
<path d="M9.21958 88.3173C9.21958 88.3173 9.8261 89.1065 9.90436 90.2608C10.0218 91.9825 10.2696 92.726 10.4652 92.9282C10.8696 93.3391 11.4174 93.463 11.5022 94.813C11.587 96.163 11.737 96.6717 11.9718 96.9195C12.2065 97.1673 11.3457 97.4086 10.987 97.1347C10.6218 96.8608 10.8109 98.7195 10.8696 99.4434C10.9283 100.167 10.1913 100.004 10.1783 100.35C10.1652 100.696 10.2435 101.504 9.90436 101.641C9.69567 101.733 9.16741 101.015 9.00436 100.526C8.8348 100.043 8.7761 100.493 8.51523 100.656C8.25436 100.813 7.44567 98.0217 7.44567 98.0217C7.44567 98.0217 7.20436 98.8043 6.94349 98.6412C6.6761 98.4717 6.06958 97.1543 6.05654 96.7499C6.04349 96.3456 5.9261 95.9347 5.81523 95.7065C5.70436 95.4782 5.07175 94.2978 5.59349 93.4695C6.11523 92.6412 7.04784 89.5369 6.42175 88.8065C5.79567 88.0825 8.84132 86.6608 9.23262 88.3108L9.21958 88.3173Z" fill="#FFCFA8"/>
<path d="M0.571703 58.161C0.389095 54.698 7.2304 53.4588 8.80866 57.0523C9.06301 57.6328 9.15431 59.5175 9.18692 59.8828C9.53257 63.7175 9.25214 66.0523 9.28475 68.3936C9.28475 68.6154 9.1804 68.8241 8.99779 68.9545C8.04562 69.6132 7.59562 69.6849 6.47388 70.0045C4.45866 70.5849 2.51518 70.161 2.11736 68.9741C1.34127 66.248 0.636921 59.3741 0.571703 58.161Z" fill="#FC4A56"/>
<path d="M10.6413 51.0124C10.6413 51.0124 9.06952 57.2276 8.04561 56.4319C3.13474 52.6428 -1.71092 55.4667 1.56952 67.845C3.80648 76.2906 6.10865 76.3232 7.06082 78.945C8.013 81.5732 6.05648 86.3472 5.60648 87.0645C5.14995 87.7819 3.213 94.1341 4.88256 97.5972C6.55213 101.06 20.7173 106.388 20.7173 106.388C20.7173 106.388 23.6521 98.0472 21.2652 87.1819C20.8282 85.1863 19.2369 80.7319 20.6652 77.9863C22.1 75.2406 25.3934 67.695 23.9652 65.4254C22.5304 63.1559 15.2978 60.6776 14.9391 59.6015C14.5804 58.5254 16.1326 52.9167 17.2086 52.3167L10.6413 51.0059V51.0124Z" fill="#FFCEA7"/>
<path d="M14.5608 58.1016C17.8097 58.1016 20.4434 54.7846 20.4434 50.6929C20.4434 46.6012 17.8097 43.2842 14.5608 43.2842C11.312 43.2842 8.67822 46.6012 8.67822 50.6929C8.67822 54.7846 11.312 58.1016 14.5608 58.1016Z" fill="#FFCEA7"/>
<path d="M28.4066 151.662C28.3739 151.193 25.1652 148.858 24.5848 148.995C24.2783 149.067 24.1152 149.562 23.5152 149.582C22.9218 149.601 22.5761 149.106 22.0479 148.858C22.0479 148.858 22.6022 144.221 21.9761 143.784C21.1544 143.204 19.7522 143.08 18.8392 143.504C18.2326 143.784 17.75 144.306 17.7761 144.775C17.7957 145.056 17.2022 150.123 16.8892 151.401C16.7587 151.936 15.9826 152.654 15.8196 153.104C15.7283 153.351 15.7022 154.186 15.7544 154.401C15.9305 155.177 17.2674 156.117 18.1544 156.11C18.7935 156.104 20.3131 156.038 20.7696 155.667C21.2066 155.301 21.5913 153.651 25.3674 153.58C26.0457 153.671 26.5413 153.097 26.7435 152.875C27.1413 152.693 28.4457 152.067 28.4196 151.669L28.4066 151.662Z" fill="#FFCEA7"/>
<path d="M1.52391 136.526C1.60869 138.88 8.16956 139.976 8.15652 137.66C11.1239 129.547 13.4652 115.376 13.4261 114.124C13.3674 112.004 11.6 110.334 9.47391 110.393C7.35434 110.452 5.68478 112.219 5.74347 114.345C5.74347 114.26 5.74347 114.176 5.74347 114.091C4.60217 120.43 2.82173 119.713 1.51086 136.526H1.52391Z" fill="#001733"/>
<path d="M9.04352 85.8649C14.8087 89.0345 15.0435 101.778 13.4261 114.228C13.4261 116.334 11.7566 118.017 9.6957 118.076C7.09352 118.147 5.17613 115.663 5.89352 113.171C6.61744 107.85 4.85005 105.163 3.53265 99.6649C1.82396 92.5236 6.33048 84.3779 9.037 85.8649H9.04352Z" fill="#001733"/>
<path d="M19.1717 46.0302C19.1717 46.0302 19.2564 47.4324 18.513 47.928C17.7695 48.4237 17.5673 51.8802 17.5673 51.8802L16.9934 50.8954C16.3738 49.3824 14.8934 49.6497 15.4673 51.8867C15.839 53.328 16.3673 53.8237 16.3673 53.8237C16.3673 53.8237 11.163 56.3606 10.3738 56.6997C9.29123 55.265 8.61949 54.3584 8.17601 53.6215C7.72601 52.878 7.06731 46.865 9.25209 44.765C11.4369 42.665 13.4977 42.1302 15.063 42.2541C16.6282 42.378 21.1608 43.9824 20.8738 46.3758C20.5869 48.7628 19.7651 49.4737 19.7651 49.4737L19.1847 46.0432L19.1717 46.0302Z" fill="#4D3428"/>
<path d="M33.7216 71.1382C35.2151 71.8425 37.2108 68.2686 37.2108 68.2686C39.3564 63.2925 40.7912 59.0012 41.489 57.2469C41.7825 56.5034 42.539 53.7121 42.8586 53.5555L40.6151 51.749C39.8586 52.1273 39.9042 52.8382 39.3042 53.7968C36.4347 58.3816 34.5629 61.8838 32.4695 66.1425C31.6412 67.8382 32.0651 70.3555 33.7151 71.1382H33.7216Z" fill="#FFCFA8"/>
<path d="M36.0825 64.7209C29.5803 64.3491 21.4217 65.2491 21.4217 65.2491C17.3651 66.2143 16.6738 72.3774 22.9412 71.4187C26.3912 70.9296 29.7499 70.91 32.939 71.1643C32.9717 71.1709 32.9977 71.1839 33.0303 71.1904C33.389 71.2752 33.7477 71.3013 34.0934 71.2687C35.4564 71.1513 36.6499 70.1861 36.989 68.7839C37.3738 67.2122 36.5977 64.5839 36.0825 64.7209Z" fill="#FFCFA8"/>
<path d="M39.2064 55.0427C38.9847 53.3405 40.6803 51.3905 40.439 50.4318C40.2955 49.8709 39.8847 49.4927 40.4847 48.2861C41.0912 47.0796 41.2151 46.5644 41.1368 46.2253C41.0586 45.8861 41.9194 46.1144 42.0955 46.5318C42.2716 46.9492 43.0412 45.247 43.3542 44.5948C43.6673 43.9426 44.2216 44.4513 44.4042 44.1579C44.5868 43.8644 44.8412 43.2057 45.0629 43.147C45.2847 43.0883 45.6108 44.0926 45.5129 44.5948C45.4151 45.097 45.6955 44.7318 46.0021 44.7318C46.3086 44.7318 46.2629 46.3166 46.0934 46.4209C45.9173 46.5253 45.6108 47.5492 45.6108 47.5492C45.6108 47.5492 46.2108 46.9883 46.3542 47.2687C46.5042 47.5492 46.3673 48.9905 46.1716 49.3492C45.6108 50.4057 46.0477 51.834 44.9325 52.4209C44.0716 52.8709 41.7042 55.0948 41.8803 56.0405C42.0564 56.9861 38.7108 56.6796 39.2064 55.0557V55.0427Z" fill="#FFCFA8"/>
<path d="M23.0652 72.7432C26.3848 72.4693 25.9804 72.4236 29.0456 72.3715C29.4435 72.2476 29.8543 72.0193 30.2782 71.6541C33.1021 69.2345 33.4608 64.1084 30.8521 64.1671C30.8521 64.1671 21.2782 63.0454 19.6869 63.978C19.3087 64.1997 18.7804 64.3823 18.2195 65.1649C18.0304 65.4323 17.7174 65.928 17.6587 66.2606C17.5087 67.1084 17.5413 67.9954 17.6261 68.8497C17.6587 69.1693 17.7174 69.4823 17.7891 69.7823C17.8217 69.8084 17.8543 69.841 17.8804 69.8736C18.4935 71.628 20.15 73.0171 23.0587 72.7432H23.0652Z" fill="#477108"/>
<path d="M27.4674 148.936C26.7565 148.499 24.9826 148.754 24.6304 148.812C24.4022 148.852 24.1674 149.073 24.0369 149.23L23.7761 149.328L22.4913 149.145C23.5217 149.797 22.8696 150.189 22.1913 150.169L18.7348 151.239C18.7087 150.762 17.7304 150.195 17.1239 150.084C16.4978 149.967 16.4587 150.88 16.4587 150.88L15.7478 152.647L15.5326 155.002C15.5326 155.002 16.7 156.11 18.1739 156.528C19.6543 156.945 22.1848 155.406 22.1848 155.406L22.2696 154.467C22.2696 154.467 22.5043 154.095 24.2456 154.219C25.9804 154.336 27.7217 152.354 28.5109 151.943C29.3065 151.539 28.1522 149.373 27.4543 148.943L27.4674 148.936Z" fill="#4B3D46"/>
<path d="M16.3673 144.998C16.3673 144.998 16.3673 144.998 16.3738 144.998C16.3412 145.585 16.8499 146.256 17.8282 146.791C20.1565 148.05 23.2347 147.593 22.9934 146.074C22.9934 146.074 22.9999 146.074 23.0065 146.074C24.2195 141.378 25.6086 130.624 25.6478 119.68C25.876 116.902 23.8152 115.285 21.7673 115.343C19.6021 115.402 17.8804 117.267 18.0825 119.504C18.1217 121.259 17.9195 123.326 17.3847 125.935C15.6173 134.556 16.5173 140.778 16.3673 145.004V144.998ZM25.5825 120.006C25.5825 120.006 25.5825 120.013 25.5825 120.019C25.5825 120.019 25.5825 120.013 25.5825 120.006ZM25.4912 120.332C25.4912 120.332 25.4912 120.339 25.4912 120.346C25.4912 120.346 25.4912 120.339 25.4912 120.332Z" fill="#4B3D46"/>
<path d="M16.5369 89.2755C24.8456 92.5298 25.6739 110.778 25.6478 119.68C25.0348 124.115 18.3108 124.193 18.0695 119.054C17.8543 114.456 15.9369 111.984 14.1108 107.08C11.5543 100.199 13.6543 88.1537 16.5369 89.282V89.2755Z" fill="#4B3D46"/>
<path d="M1.96741 70.0691C1.5761 68.5952 -0.739116 60.4365 1.36088 56.393C2.03914 55.0822 2.82175 54.8278 4.22393 54.6126C5.61958 54.3909 8.29349 56.1974 8.29349 56.1974C8.19567 56.68 8.35219 57.6517 9.2848 58.4344C10.3283 59.3083 13.9218 59.5496 15.2718 59.5757C15.2718 59.5757 22.6413 63.4104 24.037 64.5909C25.4326 65.7713 24.4152 69.4561 24.4152 69.4561C21.1283 78.7039 20.0978 78.0322 20.4044 81.5996C20.6261 84.1887 22.4196 91.1213 23.0978 93.6126C24.187 98.843 13.5239 101.184 6.89132 97.3626C5.76958 96.717 4.9348 95.967 4.38045 95.1909C3.72828 94.2713 3.48045 93.2996 3.64349 92.3735C6.91741 76.5713 5.15654 77.4061 4.10001 75.1757C3.64349 74.2104 2.33262 71.4778 1.96088 70.0757L1.96741 70.0691Z" fill="#477108"/>
</svg>
