<svg width="20" height="20" viewBox="0 0 20 20" fill="none" xmlns="http://www.w3.org/2000/svg">
<rect width="20" height="20" rx="2.5" fill="#707070"/>
<path d="M6.77113 7.27077C7.53571 7.27077 8.15554 6.65095 8.15554 5.88636C8.15554 5.12177 7.53571 4.50195 6.77113 4.50195C6.00654 4.50195 5.38672 5.12177 5.38672 5.88636C5.38672 6.65095 6.00654 7.27077 6.77113 7.27077Z" fill="white"/>
<path d="M13.2321 7.27077C13.9967 7.27077 14.6165 6.65095 14.6165 5.88636C14.6165 5.12177 13.9967 4.50195 13.2321 4.50195C12.4675 4.50195 11.8477 5.12177 11.8477 5.88636C11.8477 6.65095 12.4675 7.27077 13.2321 7.27077Z" fill="white"/>
<path d="M2.48467 15.0255C2.33599 15.0254 2.19006 14.9854 2.06202 14.9098C1.93398 14.8342 1.8285 14.7257 1.75652 14.5956C1.68454 14.4655 1.64867 14.3185 1.65264 14.1699C1.65661 14.0213 1.70028 13.8764 1.77911 13.7503L3.87099 10.4048C3.98853 10.2182 4.17525 10.0858 4.39024 10.0366C4.60523 9.98743 4.83094 10.0255 5.01791 10.1425C5.20488 10.2594 5.33785 10.4457 5.38768 10.6606C5.43751 10.8754 5.40014 11.1012 5.28375 11.2886L3.19186 14.6341C3.11697 14.754 3.01273 14.8529 2.88899 14.9214C2.76525 14.9899 2.6261 15.0258 2.48467 15.0255Z" fill="white"/>
<path d="M9.99211 15.6025C8.7246 15.6061 7.47316 15.3188 6.33411 14.7628C5.19506 14.2068 4.19875 13.3969 3.42188 12.3953L4.73535 11.3691C5.35859 12.1682 6.15578 12.8147 7.06636 13.2595C7.97693 13.7042 8.97691 13.9356 9.99029 13.9359C11.0037 13.9362 12.0038 13.7055 12.9146 13.2613C13.8255 12.8171 14.6231 12.1711 15.2468 11.3724L16.5595 12.3986C15.7826 13.3991 14.7866 14.2082 13.6481 14.7636C12.5096 15.3191 11.2589 15.606 9.99211 15.6025Z" fill="white"/>
<path d="M17.5066 15.0256C17.3652 15.0258 17.226 14.99 17.1023 14.9215C16.9785 14.853 16.8743 14.7541 16.7994 14.6341L14.7075 11.2886C14.5911 11.1012 14.5538 10.8754 14.6036 10.6606C14.6534 10.4457 14.7864 10.2594 14.9734 10.1425C15.1603 10.0255 15.386 9.98743 15.601 10.0366C15.816 10.0858 16.0027 10.2182 16.1203 10.4048L18.2122 13.7503C18.291 13.8764 18.3347 14.0213 18.3386 14.1699C18.3426 14.3185 18.3068 14.4655 18.2348 14.5956C18.1628 14.7257 18.0573 14.8342 17.9293 14.9098C17.8012 14.9854 17.6553 15.0254 17.5066 15.0256H17.5066Z" fill="white"/>
</svg>
