<svg width="20" height="20" fill="none" xmlns="http://www.w3.org/2000/svg"><path d="M2.814 0A2.808 2.808 0 0 0 0 2.814v14.372A2.808 2.808 0 0 0 2.814 20h14.372A2.808 2.808 0 0 0 20 17.186V2.814A2.808 2.808 0 0 0 17.186 0H2.814Zm7.634 2.044a4.12 4.12 0 0 1 4.115 4.115 4.119 4.119 0 0 1-4.115 4.115 4.12 4.12 0 0 1-4.116-4.115 4.12 4.12 0 0 1 4.116-4.115Zm-.044 2.411c-.919.023-1.66.78-1.66 1.704 0 .94.765 1.704 1.704 1.704.94 0 1.703-.765 1.703-1.704s-.764-1.704-1.703-1.704h-.044Zm-3.363 5.959c.218 0 .438.06.636.185a5.227 5.227 0 0 0 5.541 0 1.206 1.206 0 1 1 1.284 2.042 7.71 7.71 0 0 1-2.39.99l2.302 2.3a1.205 1.205 0 1 1-1.705 1.706l-2.262-2.261-2.26 2.26a1.202 1.202 0 0 1-1.705 0 1.205 1.205 0 0 1 0-1.704l2.3-2.301a7.73 7.73 0 0 1-2.39-.99 1.206 1.206 0 0 1 .649-2.227Z" fill="#707070"/></svg>