<svg width="20" height="20" viewBox="0 0 20 20" fill="none" xmlns="http://www.w3.org/2000/svg">
<rect width="20" height="20" rx="2.5" fill="#707070"/>
<path d="M16.5982 11.4853C16.7009 11.0207 16.7527 10.5471 16.7527 10.0722C16.7527 6.43656 13.7623 3.48854 10.0742 3.48854C9.68536 3.48854 9.30414 3.52281 8.93282 3.58552C8.31988 3.20331 7.60431 2.9999 6.87303 3C4.73411 3 3 4.70917 3 6.81865C3 7.52229 3.19479 8.18292 3.53188 8.74948C3.44182 9.18534 3.39646 9.62859 3.39643 10.0729C3.39643 13.7085 6.38681 16.6566 10.0734 16.6566C10.4927 16.6566 10.9005 16.6194 11.2962 16.5472C11.8564 16.8447 12.4865 17.0005 13.127 17C15.2659 17 17 15.2908 17 13.1821C17.0016 12.5947 16.8643 12.0145 16.5982 11.4853ZM13.4998 13.22C13.1909 13.6502 12.7343 13.9922 12.1431 14.2343C11.558 14.4749 10.8556 14.5959 10.0567 14.5959C9.09793 14.5959 8.29365 14.4304 7.66514 14.1016C7.22416 13.8695 6.84724 13.54 6.56562 13.1405C6.28257 12.7358 6.13875 12.3355 6.13875 11.9498C6.13875 11.7092 6.23235 11.4999 6.41649 11.3285C6.5991 11.1594 6.83423 11.0719 7.11348 11.0719C7.34251 11.0719 7.54111 11.1404 7.70166 11.2739C7.85537 11.4022 7.987 11.5932 8.09277 11.8375C8.21147 12.1051 8.34083 12.3304 8.47703 12.5083C8.60791 12.679 8.79661 12.8233 9.0363 12.9356C9.27827 13.0479 9.60546 13.1048 10.0065 13.1048C10.5581 13.1048 11.0109 12.9896 11.3517 12.7599C11.685 12.5346 11.8463 12.267 11.8463 11.9381C11.8463 11.6778 11.7619 11.4736 11.5876 11.3132C11.3837 11.1344 11.1403 11.002 10.8754 10.926C10.4718 10.8084 10.0628 10.7086 9.64959 10.6271C8.95716 10.4805 8.36898 10.307 7.90026 10.1116C7.42089 9.91104 7.03511 9.63177 6.75281 9.2825C6.46747 8.93031 6.32137 8.48625 6.32137 7.9649C6.32137 7.4676 6.47355 7.01917 6.77487 6.63198C7.07391 6.24917 7.50915 5.95021 8.0707 5.74458C8.62465 5.5426 9.28512 5.43979 10.0308 5.43979C10.6266 5.43979 11.1516 5.50833 11.5884 5.64177C12.0282 5.7774 12.3995 5.95969 12.691 6.18427C12.9854 6.41104 13.2038 6.65312 13.3408 6.90323C13.4793 7.15844 13.55 7.41 13.55 7.655C13.55 7.88979 13.4579 8.10344 13.2753 8.2901C13.0927 8.47823 12.8622 8.57229 12.5905 8.57229C12.344 8.57229 12.1492 8.5125 12.0153 8.39583C11.8905 8.28792 11.7596 8.11656 11.6165 7.87302C11.4499 7.56094 11.2483 7.31448 11.0169 7.1424C10.7925 6.97323 10.4174 6.88719 9.90145 6.88719C9.42284 6.88719 9.03326 6.98271 8.74563 7.16937C8.46562 7.35094 8.33094 7.55729 8.33094 7.80083C8.33094 7.95177 8.37507 8.07719 8.46486 8.18364C8.55997 8.29885 8.69389 8.39875 8.86281 8.4826C9.03782 8.5701 9.21816 8.63865 9.39925 8.68823C9.58492 8.73927 9.89689 8.81365 10.3238 8.91208C10.8648 9.02583 11.3609 9.15417 11.7992 9.29198C12.2024 9.41365 12.5868 9.58654 12.9421 9.80604C13.2616 10.0124 13.5158 10.2764 13.6946 10.5906C13.8749 10.9071 13.9662 11.2972 13.9662 11.75C13.9725 12.2743 13.8096 12.7878 13.4998 13.22Z" fill="#F8F8F8"/>
</svg>
