<svg width="20" height="20" fill="none" xmlns="http://www.w3.org/2000/svg"><path fill-rule="evenodd" clip-rule="evenodd" d="M20 10c0 5.523-4.477 10-10 10-5.522 0-10-4.477-10-10C0 4.478 4.478 0 10 0c5.523 0 10 4.478 10 10Zm-9.642-2.617c-.972.404-2.916 1.241-5.831 2.511-.474.188-.722.373-.744.553-.039.305.343.425.861.587l.22.07c.51.166 1.197.36 1.554.368.324.006.685-.127 1.085-.4 2.723-1.84 4.129-2.769 4.217-2.789.063-.014.15-.032.207.02.059.052.053.15.047.177-.038.16-1.533 1.552-2.308 2.272-.242.224-.413.383-.448.42-.078.08-.158.158-.235.232-.475.457-.83.8.02 1.36.409.27.735.492 1.061.713.356.243.711.485 1.171.786.117.077.228.156.338.234.414.296.786.56 1.246.519.267-.025.543-.276.683-1.025.331-1.772.983-5.608 1.134-7.19.009-.131.003-.263-.017-.394a.422.422 0 0 0-.143-.27c-.12-.098-.304-.119-.388-.117-.375.007-.952.208-3.73 1.363Z" fill="#707070"/></svg>