<svg width="20" height="20" viewBox="0 0 20 20" fill="none" xmlns="http://www.w3.org/2000/svg">
<rect width="20" height="20" rx="2.5" fill="#707070"/>
<path d="M14.3793 9.19C14.3937 7.39698 12.9143 5.75297 11.0816 5.52583L10.9615 5.50781C10.8696 5.48956 10.7763 5.47911 10.6826 5.47656C10.3065 5.47656 10.2068 5.74816 10.1803 5.9104C10.1653 5.97778 10.164 6.04748 10.1764 6.11538C10.1887 6.18329 10.2146 6.24803 10.2524 6.30578C10.3774 6.48003 10.5961 6.51008 10.7716 6.53652C10.8233 6.54373 10.8725 6.54974 10.9122 6.56055C12.5598 6.93911 13.115 7.53638 13.3854 9.22245C13.3926 9.26451 13.395 9.31499 13.3974 9.36907C13.4094 9.56976 13.4347 9.98918 13.8721 9.98918C13.9082 9.98918 13.9466 9.98677 13.9875 9.97956C14.3949 9.91587 14.3817 9.53251 14.3757 9.34864C14.3726 9.30422 14.3726 9.25965 14.3757 9.21524C14.377 9.20729 14.3778 9.19926 14.3781 9.19121L14.3793 9.19Z" fill="#F8F8F8"/>
<path d="M10.5767 4.86683C10.6248 4.87043 10.6728 4.87404 10.7101 4.88004C13.4141 5.31028 14.6591 6.63221 15.004 9.44674C15.01 9.49481 15.01 9.55249 15.0112 9.61498C15.0148 9.83491 15.022 10.2916 15.4979 10.3012H15.5123C15.5777 10.3047 15.643 10.2941 15.7039 10.2703C15.7649 10.2465 15.82 10.2099 15.8657 10.163C16.0135 10.0032 16.0039 9.76641 15.9955 9.57412C15.993 9.52846 15.9906 9.48399 15.9918 9.44553C16.0255 6.56732 13.6124 3.95709 10.8267 3.86095L10.793 3.86215C10.7823 3.86373 10.7714 3.86454 10.7606 3.86456C10.7329 3.86456 10.6981 3.86215 10.662 3.85975C10.6141 3.85537 10.566 3.85296 10.5178 3.85254C10.0744 3.85254 9.99025 4.17701 9.97943 4.3717C9.9554 4.81996 10.3748 4.8524 10.5767 4.86683ZM14.873 13.0833C14.8151 13.0379 14.7578 12.9919 14.7012 12.9451C14.4055 12.6999 14.0907 12.474 13.7878 12.2553C13.7244 12.2097 13.6612 12.164 13.5979 12.1183C13.2086 11.837 12.8589 11.6988 12.5284 11.6988C12.0837 11.6988 11.6955 11.9536 11.3747 12.4547C11.2329 12.6759 11.0598 12.784 10.8483 12.784C10.7006 12.7788 10.5559 12.7414 10.4241 12.6747C9.16824 12.0858 8.27053 11.1845 7.75738 9.99474C7.50981 9.41789 7.58913 9.04295 8.02657 8.7365C8.27413 8.56344 8.73561 8.24017 8.70316 7.62126C8.66711 6.91823 7.16371 4.80313 6.53038 4.56278C6.26021 4.46082 5.9623 4.45997 5.69155 4.56038C4.96448 4.81275 4.44172 5.2574 4.18094 5.84266C3.92857 6.40989 3.94058 7.07446 4.21459 7.76668C5.00414 9.76881 6.11337 11.5138 7.51462 12.9535C8.88463 14.3631 10.5695 15.5168 12.5212 16.3845C12.6966 16.4626 12.8817 16.5047 13.0163 16.5359L13.1305 16.5648C13.1461 16.5693 13.1623 16.5717 13.1785 16.572H13.1941C14.1123 16.572 15.2143 15.7067 15.5532 14.7189C15.85 13.8536 15.308 13.427 14.873 13.0845V13.0833ZM10.9829 7.15378C10.8267 7.15738 10.4986 7.16579 10.3832 7.5095C10.3303 7.67053 10.3364 7.80994 10.4025 7.92411C10.4998 8.09235 10.6873 8.14403 10.8567 8.17167C11.472 8.27382 11.7893 8.62593 11.8518 9.27729C11.8818 9.58254 12.0801 9.79404 12.3349 9.79404C12.3541 9.79445 12.3734 9.79365 12.3926 9.79164C12.699 9.75319 12.8468 9.52125 12.8336 9.10063C12.8384 8.66079 12.6161 8.16326 12.2375 7.76668C11.8578 7.36769 11.3999 7.14296 10.9829 7.15378Z" fill="#F8F8F8"/>
</svg>
