<svg width="20" height="20" fill="none" xmlns="http://www.w3.org/2000/svg"><path d="M13.07 0H6.93C1.329 0 0 1.328 0 6.93v6.14C0 18.672 1.328 20 6.93 20h6.14c5.602 0 6.93-1.328 6.93-6.93V6.93C20 1.329 18.66 0 13.07 0Zm3.076 14.268h-1.452c-.55 0-.719-.437-1.708-1.44-.86-.832-1.24-.943-1.452-.943-.3 0-.385.084-.385.495v1.312c0 .352-.11.563-1.041.563-1.54 0-3.25-.931-4.447-2.666-1.807-2.543-2.302-4.447-2.302-4.84 0-.213.085-.41.492-.41h1.455c.368 0 .508.168.65.562.72 2.077 1.918 3.896 2.413 3.896.182 0 .267-.084.267-.55V8.103c-.056-.989-.577-1.074-.577-1.425 0-.17.14-.339.365-.339h2.288c.31 0 .423.17.423.534v2.894c0 .312.14.423.224.423.183 0 .34-.11.677-.45 1.045-1.171 1.794-2.978 1.794-2.978.098-.212.267-.41.635-.41h1.455c.436 0 .534.224.436.537-.182.846-1.963 3.359-1.963 3.359-.153.254-.212.364 0 .647.156.212.664.652 1.003 1.045.621.707 1.1 1.3 1.227 1.71.143.406-.068.618-.479.618h.002Z" fill="#707070"/></svg>