<svg width="20" height="20" viewBox="0 0 20 20" fill="none" xmlns="http://www.w3.org/2000/svg">
<rect width="20" height="20" rx="2.5" fill="#707070"/>
<path d="M14.9598 5.03704C14.3148 4.38879 13.5466 3.87481 12.6998 3.52508C11.8531 3.17535 10.9449 2.99686 10.0281 3.00004C6.18693 3.00004 3.05628 6.11503 3.05628 9.93702C3.05628 11.162 3.3799 12.352 3.98492 13.402L3 17L6.69347 16.034C7.71357 16.587 8.8603 16.881 10.0281 16.881C13.8693 16.881 17 13.766 17 9.94402C17 8.08903 16.2754 6.34603 14.9598 5.03704ZM10.0281 15.705C8.98693 15.705 7.96683 15.425 7.07337 14.9L6.86231 14.774L4.66734 15.348L5.25126 13.22L5.11055 13.003C4.53208 12.0839 4.22492 11.0215 4.22412 9.93702C4.22412 6.75903 6.82714 4.16904 10.0211 4.16904C11.5688 4.16904 13.0251 4.77104 14.1156 5.86303C14.6555 6.39781 15.0834 7.03389 15.3744 7.73443C15.6655 8.43496 15.8139 9.186 15.8111 9.94402C15.8251 13.122 13.2221 15.705 10.0281 15.705ZM13.208 11.393C13.0322 11.309 12.1739 10.889 12.0191 10.826C11.8573 10.77 11.7447 10.742 11.6251 10.91C11.5055 11.085 11.1749 11.477 11.0764 11.589C10.9779 11.708 10.8724 11.722 10.6965 11.631C10.5206 11.547 9.95779 11.358 9.29648 10.77C8.77588 10.308 8.43116 9.74102 8.32563 9.56602C8.22714 9.39102 8.31156 9.30002 8.40301 9.20902C8.4804 9.13202 8.57889 9.00602 8.66332 8.90802C8.74774 8.81002 8.78291 8.73302 8.8392 8.62102C8.89548 8.50202 8.86734 8.40403 8.82513 8.32003C8.78291 8.23603 8.43116 7.38203 8.29045 7.03203C8.14975 6.69603 8.00201 6.73803 7.89648 6.73103H7.55879C7.4392 6.73103 7.25628 6.77303 7.09447 6.94803C6.9397 7.12303 6.48945 7.54303 6.48945 8.39703C6.48945 9.25102 7.11558 10.077 7.2 10.189C7.28442 10.308 8.43116 12.058 10.1759 12.807C10.591 12.989 10.9146 13.094 11.1678 13.171C11.5829 13.304 11.9628 13.283 12.2653 13.241C12.603 13.192 13.2995 12.821 13.4402 12.415C13.5879 12.009 13.5879 11.666 13.5387 11.589C13.4894 11.512 13.3839 11.477 13.208 11.393Z" fill="white"/>
</svg>
