<svg width="24" height="15" viewBox="0 0 24 15" fill="none" xmlns="http://www.w3.org/2000/svg">
<path d="M11.5695 14.129L1.30336 3.86287C1.06581 3.62508 0.932373 3.30271 0.932373 2.9666C0.932373 2.63048 1.06581 2.30812 1.30336 2.07033L2.50089 0.872796C2.73861 0.635705 3.06066 0.502562 3.39641 0.502562C3.73215 0.502562 4.0542 0.635705 4.29192 0.872796L12.4658 9.00683L20.6404 0.870544C20.878 0.63327 21.2001 0.5 21.5359 0.5C21.8717 0.5 22.1938 0.63327 22.4314 0.870544L23.6289 2.06807C23.8665 2.30586 23.9999 2.62823 23.9999 2.96434C23.9999 3.30046 23.8665 3.62282 23.6289 3.86061L13.362 14.129C13.1243 14.3666 12.8019 14.5 12.4658 14.5C12.1297 14.5 11.8073 14.3666 11.5695 14.129Z" fill="#333333" fill-opacity="0.4"/>
</svg>
