<svg width="27" height="24" viewBox="0 0 27 24" fill="none" xmlns="http://www.w3.org/2000/svg">
<path d="M10.8226 21.6065C10.8226 21.8103 10.7585 22.0094 10.6386 22.1789C10.5187 22.3483 10.3482 22.4804 10.1488 22.5584C9.94935 22.6363 9.72989 22.6567 9.51817 22.617C9.30645 22.5772 9.11197 22.4791 8.95933 22.335C8.80669 22.1909 8.70273 22.0073 8.66062 21.8075C8.61851 21.6076 8.64012 21.4005 8.72273 21.2122C8.80534 21.0239 8.94523 20.863 9.12472 20.7498C9.30421 20.6366 9.51523 20.5762 9.7311 20.5762C10.0206 20.5762 10.2982 20.6847 10.5029 20.8779C10.7076 21.0712 10.8226 21.3332 10.8226 21.6065Z" stroke="#8BBD3F" stroke-width="2" stroke-linecap="round" stroke-linejoin="round"/>
<path d="M22.8294 21.6065C22.8294 21.8103 22.7654 22.0094 22.6454 22.1789C22.5255 22.3483 22.3551 22.4804 22.1556 22.5584C21.9562 22.6363 21.7367 22.6567 21.525 22.617C21.3133 22.5772 21.1188 22.4791 20.9662 22.335C20.8135 22.1909 20.7096 22.0073 20.6675 21.8075C20.6253 21.6076 20.647 21.4005 20.7296 21.2122C20.8122 21.0239 20.9521 20.863 21.1316 20.7498C21.311 20.6366 21.5221 20.5762 21.7379 20.5762C22.0274 20.5762 22.305 20.6847 22.5097 20.8779C22.7144 21.0712 22.8294 21.3332 22.8294 21.6065Z" stroke="#8BBD3F" stroke-width="2" stroke-linecap="round" stroke-linejoin="round"/>
<path d="M1 1H5.36581L8.2909 14.7958C8.39071 15.2701 8.66408 15.6962 9.06315 15.9995C9.46223 16.3027 9.96158 16.4638 10.4738 16.4546H21.0827C21.5949 16.4638 22.0943 16.3027 22.4934 15.9995C22.8925 15.6962 23.1658 15.2701 23.2656 14.7958L25.0119 6.15152H6.45726" stroke="#8BBD3F" stroke-width="2" stroke-linecap="round" stroke-linejoin="round"/>
</svg>
