<svg width="40" height="40" viewBox="0 0 40 40" fill="none" xmlns="http://www.w3.org/2000/svg">
<path d="M33.9225 26.9622H30.4445V25.2202H32.1805V20.1402L30.6865 15.6512H24.3475V25.2192H25.2185V26.9612H22.6125V13.9102H31.9395L33.9235 19.8612L33.9225 26.9622Z" fill="#7FC34D"/>
<path d="M27.8325 29.5754C27.1434 29.5754 26.4698 29.3711 25.8969 28.9882C25.324 28.6054 24.8774 28.0613 24.6137 27.4247C24.35 26.7881 24.281 26.0875 24.4154 25.4117C24.5499 24.7359 24.8817 24.1151 25.3689 23.6279C25.8562 23.1406 26.477 22.8088 27.1528 22.6744C27.8286 22.5399 28.5291 22.6089 29.1658 22.8726C29.8024 23.1363 30.3465 23.5829 30.7293 24.1558C31.1122 24.7288 31.3165 25.4024 31.3165 26.0914C31.3152 27.015 30.9477 27.9004 30.2946 28.5535C29.6415 29.2066 28.7561 29.5741 27.8325 29.5754ZM27.8325 24.3494C27.488 24.3494 27.1512 24.4516 26.8647 24.643C26.5782 24.8344 26.3549 25.1065 26.2231 25.4248C26.0912 25.7431 26.0568 26.0934 26.124 26.4313C26.1912 26.7692 26.3571 27.0796 26.6007 27.3232C26.8443 27.5668 27.1547 27.7327 27.4927 27.8C27.8306 27.8672 28.1808 27.8326 28.4991 27.7008C28.8174 27.569 29.0895 27.3457 29.2809 27.0592C29.4723 26.7728 29.5745 26.436 29.5745 26.0914C29.5737 25.6297 29.3899 25.187 29.0634 24.8605C28.7369 24.534 28.2943 24.3502 27.8325 24.3494Z" fill="#7FC34D"/>
<path d="M11.2965 26.9621H7.8185V20.8711H9.5545V25.2201H11.2965V26.9621Z" fill="#7FC34D"/>
<path d="M24.3485 26.9618H16.5155V25.2198H22.6155V12.1678H6.0765V10.4258H24.3485V26.9618Z" fill="#7FC34D"/>
<path d="M13.9095 29.5754C13.2204 29.5754 12.5468 29.3711 11.9739 28.9882C11.4009 28.6054 10.9544 28.0613 10.6907 27.4247C10.427 26.7881 10.358 26.0875 10.4924 25.4117C10.6269 24.7359 10.9587 24.1151 11.4459 23.6279C11.9332 23.1406 12.554 22.8088 13.2298 22.6744C13.9056 22.5399 14.6061 22.6089 15.2428 22.8726C15.8794 23.1363 16.4235 23.5829 16.8063 24.1558C17.1892 24.7288 17.3935 25.4024 17.3935 26.0914C17.3922 27.015 17.0247 27.9004 16.3716 28.5535C15.7185 29.2066 14.8331 29.5741 13.9095 29.5754ZM13.9095 24.3494C13.565 24.3494 13.2282 24.4516 12.9417 24.643C12.6552 24.8344 12.4319 25.1065 12.3001 25.4248C12.1683 25.7431 12.1337 26.0934 12.201 26.4313C12.2682 26.7692 12.4341 27.0796 12.6777 27.3232C12.9213 27.5668 13.2317 27.7327 13.5696 27.8C13.9076 27.8672 14.2578 27.8326 14.5761 27.7008C14.8944 27.569 15.1665 27.3457 15.3579 27.0592C15.5493 26.7728 15.6515 26.436 15.6515 26.0914C15.6507 25.6297 15.4669 25.187 15.1404 24.8605C14.8139 24.534 14.3713 24.3502 13.9095 24.3494Z" fill="#7FC34D"/>
<path d="M14.7805 13.9102H6.9475V15.6522H14.7805V13.9102Z" fill="#7FC34D"/>
<path d="M13.0385 17.3887H7.8185V19.1307H13.0385V17.3887Z" fill="#7FC34D"/>
</svg>
