<svg width="92" height="28" viewBox="0 0 92 28" fill="none" xmlns="http://www.w3.org/2000/svg">
<path d="M0 0H82V28H0V0Z" fill="#ED705D"/>
<path d="M9.97021 19.8262C9.66553 19.8262 9.58643 19.6328 9.73291 19.2461L14.1099 7.75879C14.2446 7.40137 14.438 7.22266 14.6899 7.22266H15.9204C16.1724 7.22266 16.3657 7.40137 16.5005 7.75879L20.8774 19.2461C21.0239 19.6328 20.9448 19.8262 20.6401 19.8262H19.7437C19.4331 19.8262 19.2222 19.6826 19.1108 19.3955L18.0122 16.4863H12.5981L11.4995 19.3955C11.3882 19.6826 11.1772 19.8262 10.8667 19.8262H9.97021ZM13.1519 15.0449H17.4585L16.1138 11.5293C15.9907 11.2012 15.8677 10.8379 15.7446 10.4395C15.6274 10.041 15.4868 9.47559 15.3228 8.74316H15.2876C15.1235 9.47559 14.98 10.041 14.8569 10.4395C14.7397 10.8379 14.6196 11.2012 14.4966 11.5293L13.1519 15.0449ZM22.7056 19.8262C22.4419 19.8262 22.3101 19.6943 22.3101 19.4307V10.9932C22.3101 10.7295 22.4419 10.5977 22.7056 10.5977H23.4614C23.7251 10.5977 23.8569 10.7295 23.8569 10.9932V14.4297H24.2173C24.6274 14.4297 24.9878 14.2744 25.2983 13.9639C25.6147 13.6533 25.8491 13.3809 26.0015 13.1465L27.4868 10.8262C27.5864 10.6738 27.7417 10.5977 27.9526 10.5977H28.7524C29.145 10.5977 29.2212 10.7705 28.981 11.1162L27.1968 13.6738C27.0796 13.8438 26.8716 14.084 26.5728 14.3945C26.2798 14.7051 26.0044 14.8926 25.7466 14.957V14.9746C26.0806 15.0859 26.3647 15.2324 26.5991 15.4141C26.8335 15.5957 27.1089 15.9414 27.4253 16.4512L29.1831 19.3076C29.394 19.6533 29.3179 19.8262 28.9546 19.8262H28.0933C27.8882 19.8262 27.7212 19.7178 27.5923 19.501L25.9487 16.6797C25.7554 16.3457 25.5005 16.082 25.1841 15.8887C24.8677 15.6895 24.5483 15.5898 24.2261 15.5898H23.8569V19.4307C23.8569 19.6943 23.7251 19.8262 23.4614 19.8262H22.7056ZM31.4067 19.8262C31.1431 19.8262 31.0112 19.6943 31.0112 19.4307V10.9932C31.0112 10.7295 31.1431 10.5977 31.4067 10.5977H32.1626C32.4263 10.5977 32.5581 10.7295 32.5581 10.9932V18.666H36.7065V10.9932C36.7065 10.7295 36.8384 10.5977 37.1021 10.5977H37.8579C38.1216 10.5977 38.2534 10.7295 38.2534 10.9932V18.666H39.3169C39.5806 18.666 39.7124 18.7979 39.7124 19.0615V22.1553C39.7124 22.4189 39.5952 22.5508 39.3608 22.5508H38.7104C38.4761 22.5508 38.3589 22.4189 38.3589 22.1553V19.8262H31.4067ZM41.8481 19.8262C41.5845 19.8262 41.4526 19.6943 41.4526 19.4307V10.9932C41.4526 10.7295 41.5845 10.5977 41.8481 10.5977H42.604C42.8677 10.5977 42.9995 10.7295 42.9995 10.9932V17.4795C42.9995 17.6553 42.9937 17.8311 42.9819 18.0068H42.9995L47.0249 11.0283C47.189 10.7412 47.4409 10.5977 47.7808 10.5977H48.8442C49.1079 10.5977 49.2397 10.7295 49.2397 10.9932V19.4307C49.2397 19.6943 49.1079 19.8262 48.8442 19.8262H48.0884C47.8247 19.8262 47.6929 19.6943 47.6929 19.4307V12.9443C47.6929 12.7686 47.6987 12.5928 47.7104 12.417H47.6929L43.6675 19.3955C43.5034 19.6826 43.2515 19.8262 42.9116 19.8262H41.8481ZM51.938 19.8262C51.5278 19.8262 51.4517 19.6533 51.7095 19.3076L53.3706 17.0664C53.5288 16.8555 53.7544 16.6182 54.0474 16.3545C54.3462 16.085 54.6069 15.8945 54.8296 15.7832V15.7656C53.8101 15.5547 53.1128 15.2441 52.7378 14.834C52.3628 14.4238 52.1753 13.8584 52.1753 13.1377C52.1753 12.3174 52.4272 11.6904 52.9312 11.2568C53.4351 10.8174 54.3608 10.5977 55.7085 10.5977H58.7583C59.022 10.5977 59.1538 10.7295 59.1538 10.9932V19.4307C59.1538 19.6943 59.022 19.8262 58.7583 19.8262H58.0024C57.7388 19.8262 57.6069 19.6943 57.6069 19.4307V16.0293H56.7808C56.3823 16.0293 56.0571 16.1289 55.8052 16.3281C55.5532 16.5215 55.269 16.8438 54.9526 17.2949L53.4058 19.501C53.2534 19.7178 53.0864 19.8262 52.9048 19.8262H51.938ZM53.8101 13.1377C53.8101 13.8467 54.0356 14.3154 54.4868 14.5439C54.9438 14.7725 55.4829 14.8867 56.104 14.8867H57.6069V11.749H56.1128C55.3042 11.749 54.7183 11.8486 54.355 12.0479C53.9917 12.2412 53.8101 12.6045 53.8101 13.1377Z" fill="white"/>
<path d="M92 14L82 28V0L92 14Z" fill="#ED705D"/>
</svg>
