<svg width="25" height="25" viewBox="0 0 25 25" fill="none" xmlns="http://www.w3.org/2000/svg">
<g clip-path="url(#clip0_369_10522)">
<path d="M12.4736 1.34602C12.6959 1.12792 13.0071 1.02585 13.3154 1.06992L21.9829 2.30888C22.4229 2.37177 22.7685 2.71746 22.8314 3.15742L24.0678 11.8141C24.1128 12.129 24.0052 12.4466 23.7781 12.6693L12.6068 23.629C12.4193 23.8165 12.165 23.9218 11.8998 23.9218C11.6346 23.9218 11.3803 23.8165 11.1928 23.629L1.29279 13.729C1.10531 13.5415 0.999999 13.2872 0.999999 13.022C0.999999 12.7568 1.10531 12.5025 1.29279 12.315L12.4736 1.34602ZM14.0215 3.19169C13.7137 3.14776 13.4031 3.24944 13.1808 3.46684L3.41379 13.022L11.8998 21.507L21.6561 11.9614C21.8838 11.7386 21.9917 11.4207 21.9467 11.1053L21.0643 4.92462C21.0015 4.48457 20.6558 4.13881 20.2157 4.07598L14.0215 3.19169ZM15.6533 9.486C15.2782 9.11072 15.0675 8.60178 15.0676 8.07115C15.0676 7.8084 15.1194 7.54824 15.22 7.30552C15.3206 7.06279 15.468 6.84226 15.6538 6.6565C15.8396 6.47075 16.0602 6.32341 16.303 6.22291C16.5457 6.1224 16.8059 6.0707 17.0687 6.07074C17.5993 6.07084 18.1082 6.28172 18.4833 6.657C18.8585 7.03228 19.0692 7.54122 19.0691 8.07186C19.069 8.60249 18.8581 9.11135 18.4828 9.4865C18.1075 9.86165 17.5986 10.0724 17.068 10.0723C16.5373 10.0722 16.0285 9.86128 15.6533 9.486Z" fill="#8BBD3F"/>
</g>
<defs>
<clipPath id="clip0_369_10522">
<rect width="24" height="24" fill="white" transform="translate(0.314819 0.314453)"/>
</clipPath>
</defs>
</svg>
