<svg width="40" height="40" viewBox="0 0 40 40" fill="none" xmlns="http://www.w3.org/2000/svg">
<path d="M24.1515 26.0737C24.8762 26.0705 25.576 25.8088 26.1251 25.3357C26.6741 24.8625 27.0363 24.209 27.1465 23.4927C27.1603 22.85 27.019 22.2134 26.7346 21.6369C26.4502 21.0603 26.031 20.5608 25.5125 20.1807L25.6015 20.0727C25.728 19.9318 25.804 19.7527 25.8175 19.5637C25.8317 19.0873 25.9696 18.6228 26.2175 18.2157C26.3029 18.0978 26.3575 17.9603 26.3764 17.8159C26.3952 17.6715 26.3777 17.5247 26.3255 17.3887C26.275 17.2538 26.1916 17.1338 26.0827 17.0394C25.9739 16.9451 25.8432 16.8795 25.7025 16.8487C24.8706 16.5382 24.1886 15.9219 23.7955 15.1257C23.733 15.0073 23.6444 14.9046 23.5365 14.8253C23.4286 14.746 23.3042 14.6921 23.1725 14.6677C23.0413 14.6452 22.9067 14.6529 22.779 14.6903C22.6512 14.7278 22.5337 14.7939 22.4355 14.8837C21.8445 15.4237 20.1725 15.2337 19.4535 15.0617C19.2591 15.0141 19.0542 15.0348 18.8733 15.1204C18.6923 15.206 18.5463 15.3512 18.4598 15.5316C18.3732 15.7121 18.3514 15.9169 18.3979 16.1116C18.4445 16.3062 18.5566 16.479 18.7155 16.6007C19.5765 17.5249 20.3711 18.5087 21.0935 19.5447C21.1936 19.6827 21.333 19.7873 21.4935 19.8447C22.5555 20.2387 25.5625 21.7327 25.4165 23.3447C25.3462 23.6269 25.1847 23.8779 24.957 24.0587C24.7293 24.2396 24.4482 24.3401 24.1575 24.3447C23.1915 24.3447 22.0785 23.3787 21.2645 22.6727C20.9845 22.4307 20.7305 22.2147 20.5205 22.0557C20.058 21.7501 19.5552 21.5104 19.0265 21.3437C17.6562 20.9151 16.4105 20.1601 15.3965 19.1437C14.6038 18.0797 14.0232 16.8731 13.6865 15.5897C13.0955 13.8727 12.4865 12.0997 11.1435 11.1777L10.1645 12.6147C11.0355 13.2057 11.5255 14.6367 12.0465 16.1497C12.4479 17.6702 13.1576 19.092 14.1315 20.3267C15.3261 21.5388 16.7963 22.4439 18.4165 22.9647C18.7874 23.0829 19.1437 23.243 19.4785 23.4417C19.6785 23.5877 19.8915 23.7787 20.1335 23.9887C21.1375 24.8557 22.5365 26.0737 24.1515 26.0737ZM24.1135 19.1307C24.1075 19.1437 24.0945 19.1497 24.0885 19.1627C23.5278 18.8319 22.9436 18.5428 22.3405 18.2977C22.0985 17.9667 21.7235 17.4707 21.3295 16.9687C21.8091 16.9511 22.2831 16.859 22.7345 16.6957C23.163 17.2918 23.711 17.7921 24.3435 18.1647C24.2335 18.4769 24.1561 18.7996 24.1125 19.1277L24.1135 19.1307Z" fill="#7FC34D"/>
<path d="M27.2035 23.6229C28.3882 21.5433 29.2742 19.3074 29.8355 16.9809C29.8355 15.5569 26.9495 11.6149 26.3645 11.1189C25.9705 10.7819 24.8765 10.3879 22.0925 9.41886C20.7037 8.97849 19.3391 8.46511 18.0045 7.88086L17.0695 9.34986C18.5079 10.0325 19.9954 10.6065 21.5195 11.0669C22.7929 11.4699 24.0445 11.9385 25.2695 12.4709C26.423 13.82 27.3739 15.3298 28.0925 16.9529C27.5232 18.9566 26.7277 20.889 25.7215 22.7129L27.2035 23.6229Z" fill="#7FC34D"/>
<path d="M22.8475 32.115C23.9505 32.1149 25.0295 31.7925 25.9517 31.1873C26.8739 30.5822 27.5991 29.7207 28.0382 28.7088C28.4773 27.697 28.6112 26.5788 28.4232 25.4919C28.2353 24.405 27.7338 23.3967 26.9805 22.591C26.9017 22.5075 26.8072 22.4403 26.7025 22.3933C26.5977 22.3463 26.4847 22.3204 26.3699 22.3171C26.2552 22.3137 26.1409 22.333 26.0336 22.3739C25.9262 22.4147 25.828 22.4762 25.7445 22.555C25.661 22.6338 25.5938 22.7283 25.5468 22.8331C25.4998 22.9378 25.4739 23.0508 25.4705 23.1656C25.4672 23.2803 25.4865 23.3946 25.5273 23.502C25.5681 23.6093 25.6297 23.7075 25.7085 23.791C26.2466 24.3663 26.5986 25.0906 26.7187 25.8691C26.8388 26.6477 26.7213 27.4443 26.3815 28.155C26.0417 28.8657 25.4955 29.4574 24.8142 29.8529C24.1329 30.2483 23.3482 30.429 22.5625 30.3715C21.7769 30.314 21.0269 30.0209 20.4104 29.5305C19.794 29.04 19.3398 28.3751 19.1071 27.6225C18.8745 26.8699 18.8742 26.0646 19.1064 25.3118C19.3386 24.5591 19.7924 23.8939 20.4085 23.403C20.4979 23.332 20.5724 23.2442 20.6278 23.1444C20.6832 23.0446 20.7184 22.9349 20.7314 22.8215C20.7444 22.7082 20.7349 22.5933 20.7035 22.4836C20.6722 22.3739 20.6195 22.2714 20.5485 22.182C20.4775 22.0927 20.3896 22.0182 20.2899 21.9628C20.1901 21.9074 20.0804 21.8722 19.967 21.8592C19.8536 21.8462 19.7388 21.8556 19.6291 21.887C19.5193 21.9184 19.4169 21.9711 19.3275 22.042C18.4089 22.772 17.7403 23.7696 17.4143 24.8967C17.0884 26.0237 17.1212 27.2243 17.5083 28.3319C17.8954 29.4394 18.6176 30.399 19.5746 31.0776C20.5317 31.7563 21.6762 32.1202 22.8495 32.119L22.8475 32.115Z" fill="#7FC34D"/>
</svg>
