<svg width="30" height="30" viewBox="0 0 30 30" fill="none" xmlns="http://www.w3.org/2000/svg">
	<path
		d="M28.9986 22.3164H25.6162V20.3164H27.0701V15.2437L26.0378 11.3164H19.6868V20.5804H20.5339V22.3154H17.9995V9.31641H27.0701L28.9995 15.2437L28.9986 22.3164Z"
		fill="#8BBD3F" />
	<path
		d="M22.8321 24.8938C22.143 24.8938 21.4694 24.6894 20.8964 24.3066C20.3235 23.9238 19.8769 23.3797 19.6132 22.743C19.3495 22.1064 19.2806 21.4059 19.415 20.7301C19.5494 20.0542 19.8812 19.4335 20.3685 18.9462C20.8557 18.459 21.4765 18.1272 22.1524 17.9927C22.8282 17.8583 23.5287 17.9273 24.1653 18.191C24.8019 18.4547 25.3461 18.9012 25.7289 19.4742C26.1117 20.0471 26.3161 20.7207 26.3161 21.4098C26.3147 22.3334 25.9472 23.2188 25.2942 23.8719C24.6411 24.525 23.7557 24.8924 22.8321 24.8938ZM22.8321 19.6678C22.4875 19.6678 22.1507 19.7699 21.8643 19.9614C21.5778 20.1528 21.3545 20.4248 21.2227 20.7431C21.0908 21.0614 21.0563 21.4117 21.1235 21.7496C21.1907 22.0875 21.3567 22.3979 21.6003 22.6416C21.8439 22.8852 22.1543 23.0511 22.4922 23.1183C22.8301 23.1855 23.1804 23.151 23.4987 23.0192C23.817 22.8873 24.0891 22.6641 24.2805 22.3776C24.4719 22.0911 24.5741 21.7543 24.5741 21.4098C24.5733 20.948 24.3895 20.5054 24.063 20.1789C23.7364 19.8523 23.2938 19.6686 22.8321 19.6678Z"
		fill="#8BBD3F" />
	<path d="M6.29606 22.2824H2.81806V16.3203H5.0378V20.3203H6.29606V22.2824Z" fill="#8BBD3F" />
	<path d="M19.3481 22.2801H11.5151V20.3184H14.5651H17.5V7H1.00088L1.00134 5.10547H19.3481V22.2801Z" fill="#8BBD3F" />
	<path
		d="M8.90905 24.8938C8.21998 24.8938 7.54639 24.6894 6.97345 24.3066C6.40051 23.9238 5.95395 23.3797 5.69026 22.743C5.42656 22.1064 5.35756 21.4059 5.49199 20.7301C5.62642 20.0542 5.95825 19.4335 6.44549 18.9462C6.93274 18.459 7.55353 18.1272 8.22936 17.9927C8.90519 17.8583 9.6057 17.9273 10.2423 18.191C10.8789 18.4547 11.4231 18.9012 11.8059 19.4742C12.1887 20.0471 12.393 20.7207 12.393 21.4098C12.3917 22.3334 12.0242 23.2188 11.3712 23.8719C10.7181 24.525 9.83266 24.8924 8.90905 24.8938ZM8.90905 19.6678C8.56452 19.6678 8.22772 19.7699 7.94125 19.9614C7.65478 20.1528 7.4315 20.4248 7.29966 20.7431C7.16781 21.0614 7.1333 21.4117 7.20052 21.7496C7.26774 22.0875 7.43365 22.3979 7.67727 22.6416C7.9209 22.8852 8.23129 23.0511 8.5692 23.1183C8.90712 23.1855 9.25738 23.151 9.57569 23.0192C9.894 22.8873 10.1661 22.6641 10.3575 22.3776C10.5489 22.0911 10.6511 21.7543 10.6511 21.4098C10.6503 20.948 10.4665 20.5054 10.14 20.1789C9.81344 19.8523 9.37082 19.6686 8.90905 19.6678Z"
		fill="#8BBD3F" />
	<path d="M9.78006 9.22656H1.94706V10.9686H9.78006V9.22656Z" fill="#8BBD3F" />
	<path d="M8.03806 12.707H2.81806V14.449H8.03806V12.707Z" fill="#8BBD3F" />
</svg>