<svg width="29" height="20" viewBox="0 0 29 20" fill="none" xmlns="http://www.w3.org/2000/svg">
<path d="M28.1928 16.5364H24.7148V14.7944H26.4508V9.71437L24.9568 5.22537H18.6178V14.7934H19.4888V16.5354H16.8828V3.48438H26.2098L28.1938 9.43538L28.1928 16.5364Z" fill="#7FC34D"/>
<path d="M22.1051 19.1486C21.416 19.1486 20.7424 18.9443 20.1695 18.5615C19.5965 18.1787 19.15 17.6345 18.8863 16.9979C18.6226 16.3613 18.5536 15.6608 18.688 14.9849C18.8225 14.3091 19.1543 13.6884 19.6415 13.2011C20.1288 12.7139 20.7496 12.382 21.4254 12.2476C22.1012 12.1132 22.8017 12.1822 23.4383 12.4459C24.075 12.7096 24.6191 13.1561 25.0019 13.7291C25.3848 14.302 25.5891 14.9756 25.5891 15.6647C25.5878 16.5883 25.2203 17.4737 24.5672 18.1268C23.9141 18.7799 23.0287 19.1473 22.1051 19.1486ZM22.1051 13.9227C21.7606 13.9227 21.4238 14.0248 21.1373 14.2162C20.8508 14.4077 20.6275 14.6797 20.4957 14.998C20.3638 15.3163 20.3294 15.6666 20.3966 16.0045C20.4638 16.3424 20.6297 16.6528 20.8733 16.8964C21.1169 17.1401 21.4273 17.306 21.7653 17.3732C22.1032 17.4404 22.4534 17.4059 22.7717 17.274C23.09 17.1422 23.3621 16.9189 23.5535 16.6325C23.7449 16.346 23.8471 16.0092 23.8471 15.6647C23.8463 15.2029 23.6625 14.7603 23.336 14.4337C23.0095 14.1072 22.5669 13.9235 22.1051 13.9227Z" fill="#7FC34D"/>
<path d="M5.56784 16.5373H2.08984V10.4463H3.82584V14.7953H5.56784V16.5373Z" fill="#7FC34D"/>
<path d="M18.6197 16.536H10.7867V14.794H16.8867V1.742H0.347656V0H18.6197V16.536Z" fill="#7FC34D"/>
<path d="M8.17932 19.1486C7.49025 19.1486 6.81665 18.9443 6.24371 18.5615C5.67077 18.1787 5.22422 17.6345 4.96052 16.9979C4.69683 16.3613 4.62783 15.6608 4.76226 14.9849C4.89669 14.3091 5.22851 13.6884 5.71576 13.2011C6.203 12.7139 6.82379 12.382 7.49962 12.2476C8.17545 12.1132 8.87597 12.1822 9.51258 12.4459C10.1492 12.7096 10.6933 13.1561 11.0762 13.7291C11.459 14.302 11.6633 14.9756 11.6633 15.6647C11.662 16.5883 11.2945 17.4737 10.6414 18.1268C9.98832 18.7799 9.10293 19.1473 8.17932 19.1486ZM8.17932 13.9227C7.83478 13.9227 7.49798 14.0248 7.21151 14.2162C6.92504 14.4077 6.70177 14.6797 6.56992 14.998C6.43807 15.3163 6.40357 15.6666 6.47078 16.0045C6.538 16.3424 6.70391 16.6528 6.94754 16.8964C7.19116 17.1401 7.50155 17.306 7.83947 17.3732C8.17738 17.4404 8.52764 17.4059 8.84595 17.274C9.16426 17.1422 9.43632 16.9189 9.62774 16.6325C9.81915 16.346 9.92131 16.0092 9.92131 15.6647C9.92052 15.2029 9.73674 14.7603 9.41022 14.4337C9.0837 14.1072 8.64108 13.9235 8.17932 13.9227Z" fill="#7FC34D"/>
<path d="M9.05175 3.48438H1.21875V5.22637H9.05175V3.48438Z" fill="#7FC34D"/>
<path d="M7.30984 6.96191H2.08984V8.70391H7.30984V6.96191Z" fill="#7FC34D"/>
</svg>
