<svg width="40" height="40" viewBox="0 0 40 40" fill="none" xmlns="http://www.w3.org/2000/svg">
<path d="M17.4589 17.802C17.3143 17.6139 17.2945 17.4515 17.3997 17.3148L17.86 16.6993C18.044 16.4515 18.2675 16.4451 18.5305 16.6801C18.6883 16.8212 18.9315 16.9493 19.2601 17.0648C19.5889 17.1759 19.9176 17.2315 20.2463 17.2315C20.7459 17.2315 21.1667 17.0947 21.5085 16.8212C21.8547 16.5477 22.0279 16.1481 22.0279 15.6224C22.0279 15.1224 21.9183 14.7187 21.6991 14.4109C21.48 14.1032 21.2148 13.9493 20.9037 13.9493C20.6364 13.9493 20.3909 13.9708 20.1673 14.0135C19.9439 14.052 19.7116 14.1737 19.4705 14.3789C19.304 14.5199 19.1024 14.5904 18.8657 14.5904H18.1492C17.8643 14.5904 17.7219 14.4515 17.7219 14.1737V9.75065C17.7219 9.47288 17.8643 9.33398 18.1492 9.33398H22.8824C23.1673 9.33398 23.3097 9.47288 23.3097 9.75065V10.5071C23.3097 10.7848 23.1673 10.9237 22.8824 10.9237H19.5625V12.4942C19.5625 12.6652 19.5539 12.8361 19.5363 13.0071H19.5757C19.808 12.8105 20.0665 12.6801 20.3515 12.616C20.6364 12.5477 20.9409 12.5135 21.2652 12.5135C22.0323 12.5135 22.6787 12.7699 23.2045 13.2827C23.7348 13.7912 24 14.5797 24 15.6481C24 16.6311 23.6625 17.3811 22.9876 17.8981C22.3171 18.4109 21.5195 18.6673 20.5947 18.6673C19.8233 18.6673 19.1551 18.5861 18.5896 18.4237C18.0287 18.2571 17.6517 18.0499 17.4589 17.802Z" fill="#7FC34D"/>
<path d="M30 14.7012C30 16.0381 29.6009 17.7728 28.8736 19.7508C28.1535 21.7093 27.1441 23.8199 26.0008 25.8803C24.06 29.3777 21.7899 32.6301 20 34.6792C18.2101 32.6301 15.94 29.3777 13.9992 25.8803C12.8558 23.8199 11.8466 21.7093 11.1264 19.7508C10.3991 17.7728 10 16.0381 10 14.7012C10 9.17833 14.4772 4.70117 20 4.70117C25.5228 4.70117 30 9.17833 30 14.7012Z" stroke="#7FC34D" stroke-width="2"/>
<path d="M26.6177 18.1402C26.4209 19.7555 25.6401 21.2431 24.4225 22.3226C23.2049 23.4021 21.6344 23.999 20.0072 24.0007C18.3799 24.0025 16.8083 23.409 15.5883 22.3322C14.3683 21.2553 13.5843 19.7694 13.384 18.1545L15.3367 17.9123C15.4779 19.0506 16.0304 20.0979 16.8904 20.857C17.7503 21.6159 18.8581 22.0343 20.0051 22.0331C21.152 22.0318 22.2589 21.6111 23.1172 20.8502C23.9755 20.0894 24.5259 19.0409 24.6645 17.9023L26.6177 18.1402Z" fill="#ED705D"/>
</svg>
