<svg width="30" height="30" viewBox="0 0 30 30" fill="none" xmlns="http://www.w3.org/2000/svg">
	<path
		d="M19.1515 21.0718C19.8762 21.0685 20.576 20.8068 21.1251 20.3337C21.6741 19.8606 22.0363 19.2071 22.1465 18.4908C22.1603 17.848 22.019 17.2114 21.7346 16.6349C21.4502 16.0584 21.031 15.5589 20.5125 15.1788L20.6015 15.0708C20.728 14.9298 20.804 14.7507 20.8175 14.5618C20.8317 14.0854 20.9696 13.6209 21.2175 13.2138C21.3029 13.0958 21.3575 12.9584 21.3764 12.814C21.3952 12.6696 21.3777 12.5227 21.3255 12.3868C21.275 12.2519 21.1916 12.1318 21.0827 12.0375C20.9739 11.9431 20.8432 11.8776 20.7025 11.8468C19.8706 11.5362 19.1886 10.92 18.7955 10.1238C18.733 10.0054 18.6444 9.90264 18.5365 9.82332C18.4286 9.744 18.3042 9.69014 18.1725 9.66578C18.0413 9.64321 17.9067 9.65095 17.779 9.68839C17.6512 9.72582 17.5337 9.79197 17.4355 9.88178C16.8445 10.4218 15.1725 10.2318 14.4535 10.0598C14.2591 10.0122 14.0542 10.0329 13.8733 10.1184C13.6923 10.204 13.5463 10.3492 13.4598 10.5297C13.3732 10.7102 13.3514 10.9149 13.3979 11.1096C13.4445 11.3043 13.5566 11.477 13.7155 11.5988C14.5765 12.5229 15.3711 13.5067 16.0935 14.5428C16.1936 14.6808 16.333 14.7853 16.4935 14.8428C17.5555 15.2368 20.5625 16.7308 20.4165 18.3428C20.3462 18.6249 20.1847 18.8759 19.957 19.0568C19.7293 19.2376 19.4482 19.3382 19.1575 19.3428C18.1915 19.3428 17.0785 18.3768 16.2645 17.6708C15.9845 17.4288 15.7305 17.2128 15.5205 17.0538C15.058 16.7481 14.5552 16.5085 14.0265 16.3418C12.6562 15.9131 11.4105 15.1582 10.3965 14.1418C9.60379 13.0778 9.02323 11.8712 8.68649 10.5878C8.09549 8.87078 7.48649 7.09778 6.14349 6.17578L5.16448 7.61278C6.03548 8.20378 6.52549 9.63478 7.04649 11.1478C7.4479 12.6683 8.15759 14.09 9.13149 15.3248C10.3261 16.5369 11.7963 17.4419 13.4165 17.9628C13.7874 18.081 14.1437 18.241 14.4785 18.4398C14.6785 18.5858 14.8915 18.7768 15.1335 18.9868C16.1375 19.8538 17.5365 21.0718 19.1515 21.0718ZM19.1135 14.1288C19.1075 14.1418 19.0945 14.1478 19.0885 14.1608C18.5278 13.83 17.9436 13.5408 17.3405 13.2958C17.0985 12.9648 16.7235 12.4688 16.3295 11.9668C16.8091 11.9492 17.2831 11.8571 17.7345 11.6938C18.163 12.2898 18.711 12.7901 19.3435 13.1628C19.2335 13.475 19.1561 13.7977 19.1125 14.1258L19.1135 14.1288Z"
		fill="#8BBD3F" />
	<path
		d="M22.2035 18.6209C23.3882 16.5414 24.2742 14.3054 24.8355 11.9789C24.8355 10.5549 21.9495 6.61291 21.3645 6.11691C20.9705 5.77991 19.8765 5.3859 17.0925 4.4169C15.7037 3.97654 14.3391 3.46316 13.0045 2.87891L12.0695 4.3479C13.5079 5.03059 14.9954 5.60453 16.5195 6.0649C17.7929 6.46791 19.0445 6.93653 20.2695 7.4689C21.423 8.81801 22.3739 10.3278 23.0925 11.9509C22.5232 13.9546 21.7277 15.887 20.7215 17.7109L22.2035 18.6209Z"
		fill="#8BBD3F" />
	<path
		d="M17.8475 27.1131C18.9505 27.113 20.0295 26.7905 20.9517 26.1854C21.8739 25.5802 22.5991 24.7187 23.0382 23.7069C23.4773 22.695 23.6112 21.5769 23.4232 20.49C23.2353 19.4031 22.7338 18.3948 21.9805 17.5891C21.9017 17.5056 21.8072 17.4384 21.7025 17.3914C21.5977 17.3444 21.4847 17.3184 21.3699 17.3151C21.2552 17.3118 21.1409 17.3311 21.0336 17.3719C20.9262 17.4127 20.828 17.4743 20.7445 17.5531C20.661 17.6319 20.5938 17.7263 20.5468 17.8311C20.4998 17.9359 20.4739 18.0488 20.4705 18.1636C20.4672 18.2784 20.4865 18.3927 20.5273 18.5C20.5681 18.6073 20.6297 18.7056 20.7085 18.7891C21.2466 19.3644 21.5986 20.0886 21.7187 20.8672C21.8388 21.6457 21.7213 22.4424 21.3815 23.1531C21.0417 23.8638 20.4955 24.4555 19.8142 24.8509C19.1329 25.2463 18.3482 25.4271 17.5625 25.3696C16.7769 25.3121 16.0269 25.0189 15.4104 24.5285C14.794 24.0381 14.3398 23.3731 14.1071 22.6205C13.8745 21.8679 13.8742 21.0626 14.1064 20.3099C14.3386 19.5571 14.7924 18.8919 15.4085 18.4011C15.4979 18.3301 15.5724 18.2422 15.6278 18.1424C15.6832 18.0427 15.7184 17.933 15.7314 17.8196C15.7444 17.7062 15.7349 17.5914 15.7035 17.4816C15.6722 17.3719 15.6195 17.2695 15.5485 17.1801C15.4775 17.0907 15.3896 17.0162 15.2899 16.9608C15.1901 16.9054 15.0804 16.8702 14.967 16.8572C14.8536 16.8442 14.7388 16.8537 14.6291 16.8851C14.5193 16.9164 14.4169 16.9691 14.3275 17.0401C13.4089 17.77 12.7403 18.7677 12.4143 19.8947C12.0884 21.0218 12.1212 22.2224 12.5083 23.3299C12.8954 24.4375 13.6176 25.3971 14.5746 26.0757C15.5317 26.7543 16.6762 27.1183 17.8495 27.1171L17.8475 27.1131Z"
		fill="#8BBD3F" />
</svg>