<svg width="75" height="75" viewBox="0 0 75 75" fill="none" xmlns="http://www.w3.org/2000/svg">
<rect width="75" height="75" rx="37.5" fill="#43CFFC"/>
<path fill-rule="evenodd" clip-rule="evenodd" d="M37.4986 13.75C38.1284 13.75 38.7325 14.0002 39.1779 14.4456C39.6233 14.891 39.8736 15.4951 39.8736 16.125V18.4097L41.4268 17.588C41.9836 17.2935 42.6346 17.2323 43.2366 17.4178C43.8385 17.6033 44.3421 18.0204 44.6366 18.5772C44.9311 19.134 44.9923 19.785 44.8068 20.387C44.6213 20.9889 44.2043 21.4925 43.6474 21.787L39.8736 23.782V28.2993C41.5717 28.7363 43.0846 29.6292 44.2768 30.8429L48.1908 28.5843L48.0317 24.3187C48.0081 23.6892 48.2355 23.076 48.664 22.6141C49.0925 22.1522 49.6869 21.8795 50.3164 21.8559C50.946 21.8323 51.5592 22.0597 52.0211 22.4882C52.4829 22.9166 52.7557 23.5111 52.7793 24.1406L52.8434 25.8981L54.8218 24.7557C55.092 24.5973 55.3909 24.4939 55.7012 24.4515C56.0115 24.4091 56.3272 24.4285 56.63 24.5085C56.9328 24.5886 57.2168 24.7277 57.4656 24.918C57.7144 25.1083 57.9231 25.3458 58.0798 25.6171C58.2364 25.8883 58.3378 26.1879 58.3781 26.4985C58.4185 26.8091 58.3971 27.1246 58.315 27.4269C58.2329 27.7292 58.0919 28.0122 57.9 28.2598C57.7081 28.5073 57.4691 28.7144 57.1968 28.8693L55.2184 30.0092L56.7076 30.945C56.9717 31.1109 57.2006 31.3273 57.3812 31.5816C57.5618 31.836 57.6905 32.1235 57.7599 32.4276C57.8294 32.7317 57.8383 33.0466 57.7861 33.3541C57.7339 33.6617 57.6216 33.956 57.4557 34.2201C57.2898 34.4843 57.0734 34.7132 56.819 34.8938C56.5647 35.0743 56.2772 35.203 55.9731 35.2725C55.6689 35.342 55.3541 35.3508 55.0466 35.2986C54.739 35.2464 54.4447 35.1342 54.1806 34.9683L50.5658 32.6977L46.6542 34.954C47.117 36.619 47.117 38.3786 46.6542 40.0436L50.5658 42.3023L54.1806 40.0317C54.7141 39.6966 55.3589 39.5872 55.9731 39.7275C56.5873 39.8678 57.1206 40.2464 57.4557 40.7799C57.7908 41.3134 57.9002 41.9582 57.7599 42.5724C57.6196 43.1866 57.2411 43.7199 56.7076 44.055L55.2184 44.9884L57.1968 46.1307C57.4691 46.2856 57.7081 46.4927 57.9 46.7402C58.0919 46.9878 58.2329 47.2708 58.315 47.5731C58.3971 47.8754 58.4185 48.1909 58.3781 48.5015C58.3378 48.8121 58.2364 49.1117 58.0798 49.3829C57.9231 49.6542 57.7144 49.8917 57.4656 50.082C57.2168 50.2723 56.9328 50.4114 56.63 50.4915C56.3272 50.5715 56.0115 50.5909 55.7012 50.5485C55.3909 50.5061 55.092 50.4027 54.8218 50.2442L52.8458 49.1042L52.7793 50.8594C52.7557 51.4889 52.4829 52.0834 52.0211 52.5118C51.5592 52.9403 50.946 53.1677 50.3164 53.1441C49.6869 53.1205 49.0925 52.8478 48.664 52.3859C48.2355 51.924 48.0081 51.3108 48.0317 50.6812L48.1908 46.4157L44.2768 44.1571C43.0846 45.3684 41.5693 46.2637 39.8736 46.7007V51.218L43.6474 53.213C44.2043 53.5075 44.6213 54.0111 44.8068 54.613C44.9923 55.215 44.9311 55.866 44.6366 56.4228C44.3421 56.9796 43.8385 57.3967 43.2366 57.5822C42.6346 57.7677 41.9836 57.7065 41.4268 57.412L39.8736 56.5903V58.875C39.8736 59.5049 39.6233 60.109 39.1779 60.5544C38.7325 60.9998 38.1284 61.25 37.4986 61.25C36.8687 61.25 36.2646 60.9998 35.8192 60.5544C35.3738 60.109 35.1236 59.5049 35.1236 58.875V56.5903L33.5703 57.412C33.2946 57.5578 32.9929 57.6479 32.6823 57.6771C32.3718 57.7063 32.0586 57.674 31.7605 57.5822C31.4625 57.4903 31.1854 57.3407 30.9452 57.1417C30.705 56.9428 30.5063 56.6985 30.3605 56.4228C30.2147 56.1471 30.1246 55.8454 30.0954 55.5349C30.0662 55.2243 30.0985 54.9111 30.1903 54.613C30.2822 54.315 30.4318 54.0379 30.6308 53.7977C30.8297 53.5575 31.074 53.3588 31.3497 53.213L35.1236 51.218V46.7007C33.4515 46.2685 31.9291 45.3882 30.7203 44.1548L26.8063 46.4157L26.9654 50.6812C26.977 50.993 26.927 51.3039 26.8184 51.5964C26.7097 51.8888 26.5446 52.1569 26.3323 52.3855C26.12 52.6141 25.8648 52.7987 25.5812 52.9286C25.2976 53.0586 24.9912 53.1314 24.6795 53.1429C24.3678 53.1545 24.0568 53.1045 23.7644 52.9959C23.472 52.8872 23.2038 52.7221 22.9752 52.5098C22.7466 52.2975 22.5621 52.0423 22.4321 51.7587C22.3022 51.4751 22.2293 51.1687 22.2178 50.857L22.1537 49.1019L20.1753 50.2419C19.9049 50.4091 19.6038 50.5204 19.2896 50.5691C18.9754 50.6178 18.6547 50.6029 18.3464 50.5254C18.038 50.4478 17.7484 50.3091 17.4947 50.1176C17.241 49.926 17.0283 49.6855 16.8693 49.4102C16.7103 49.1349 16.6081 48.8305 16.5689 48.515C16.5297 48.1995 16.5542 47.8794 16.6411 47.5735C16.7279 47.2677 16.8752 46.9824 17.0744 46.7346C17.2735 46.4867 17.5204 46.2814 17.8003 46.1307L19.7787 44.9884L18.2896 44.0526C17.7702 43.7113 17.4053 43.1799 17.2732 42.5726C17.1411 41.9653 17.2524 41.3304 17.5831 40.8041C17.9138 40.2779 18.4376 39.9023 19.0422 39.7579C19.6467 39.6135 20.2837 39.7118 20.8166 40.0317L24.4313 42.3023L28.3429 40.0436C27.8809 38.3793 27.8809 36.6207 28.3429 34.9564L24.4313 32.7001L20.8166 34.9683C20.2837 35.2882 19.6467 35.3865 19.0422 35.2421C18.4376 35.0977 17.9138 34.7221 17.5831 34.1959C17.2524 33.6696 17.1411 33.0347 17.2732 32.4274C17.4053 31.8201 17.7702 31.2887 18.2896 30.9474L19.7787 30.0116L17.8003 28.8716C17.2545 28.5567 16.8562 28.0378 16.6929 27.4292C16.5297 26.8205 16.6149 26.172 16.9299 25.6262C17.2448 25.0804 17.7637 24.6821 18.3723 24.5188C18.981 24.3556 19.6295 24.4408 20.1753 24.7557L22.1537 25.8981L22.2178 24.1406C22.2414 23.5111 22.5142 22.9166 22.9761 22.4882C23.2048 22.276 23.473 22.111 23.7655 22.0025C24.058 21.894 24.369 21.8442 24.6807 21.8559C24.9924 21.8676 25.2988 21.9406 25.5823 22.0707C25.8659 22.2008 26.121 22.3854 26.3331 22.6141C26.5453 22.8428 26.7103 23.1111 26.8188 23.4036C26.9273 23.696 26.9771 24.007 26.9654 24.3187L26.8063 28.5843L30.7203 30.8452C31.9291 29.6118 33.4515 28.7315 35.1236 28.2993V23.782L31.3497 21.787C30.7929 21.4925 30.3758 20.9889 30.1903 20.387C30.0048 19.785 30.066 19.134 30.3605 18.5772C30.655 18.0204 31.1586 17.6033 31.7605 17.4178C32.3625 17.2323 33.0135 17.2935 33.5703 17.588L35.1236 18.4097V16.125C35.1236 15.4951 35.3738 14.891 35.8192 14.4456C36.2646 14.0002 36.8687 13.75 37.4986 13.75V13.75ZM37.4986 42.25C38.7583 42.25 39.9665 41.7496 40.8573 40.8588C41.7481 39.968 42.2486 38.7598 42.2486 37.5C42.2486 36.2402 41.7481 35.032 40.8573 34.1412C39.9665 33.2504 38.7583 32.75 37.4986 32.75C36.2388 32.75 35.0306 33.2504 34.1398 34.1412C33.249 35.032 32.7486 36.2402 32.7486 37.5C32.7486 38.7598 33.249 39.968 34.1398 40.8588C35.0306 41.7496 36.2388 42.25 37.4986 42.25Z" fill="white"/>
</svg>
