<svg width="18" height="18" fill="none" xmlns="http://www.w3.org/2000/svg"><path d="M18 13.476v2.71a1.805 1.805 0 0 1-1.974 1.807 17.933 17.933 0 0 1-7.81-2.77 17.63 17.63 0 0 1-5.43-5.42A17.852 17.852 0 0 1 .007 1.97 1.803 1.803 0 0 1 1.08.154c.23-.101.478-.154.73-.154h2.714a1.812 1.812 0 0 1 1.81 1.554c.115.868.327 1.72.634 2.54a1.803 1.803 0 0 1-.407 1.907L5.41 7.145a14.466 14.466 0 0 0 5.43 5.42l1.147-1.148a1.811 1.811 0 0 1 1.91-.406c.82.305 1.674.518 2.543.632A1.81 1.81 0 0 1 18 13.476Z" fill="#8BBD3F"/></svg>