<svg width="30" height="30" fill="none" xmlns="http://www.w3.org/2000/svg"><path d="M12.823 24.608a.99.99 0 0 1-.183.573c-.12.17-.29.301-.49.38-.2.077-.42.098-.63.058a1.112 1.112 0 0 1-.56-.282 1.014 1.014 0 0 1-.298-.528.977.977 0 0 1 .062-.595c.082-.188.222-.349.402-.462a1.138 1.138 0 0 1 1.378.128c.205.193.32.455.32.728ZM24.831 24.608a.99.99 0 0 1-.184.573c-.12.17-.29.301-.49.38-.199.077-.418.098-.63.058a1.112 1.112 0 0 1-.559-.282 1.014 1.014 0 0 1-.299-.528.977.977 0 0 1 .063-.595c.082-.188.222-.349.402-.462a1.138 1.138 0 0 1 1.378.128c.204.193.32.455.32.728ZM3 4h4.366l2.925 13.796c.1.474.373.9.772 1.204.4.303.899.464 1.41.455h10.61a2.268 2.268 0 0 0 1.41-.455c.4-.304.673-.73.773-1.204l1.746-8.644H8.457" stroke="#8BBD3F" stroke-width="2" stroke-linecap="round" stroke-linejoin="round"/></svg>