<svg width="21" height="20" fill="none" xmlns="http://www.w3.org/2000/svg"><path d="m6.125 14.175 3.861-.013 8.428-7.95c.331-.315.513-.733.513-1.178 0-.445-.182-.863-.513-1.178l-1.387-1.322c-.662-.63-1.816-.627-2.472-.002l-8.43 7.951v3.692Zm9.664-10.463 1.39 1.32-1.397 1.318-1.387-1.32 1.394-1.318Zm-7.914 7.466 5.276-4.977 1.388 1.321-5.275 4.976-1.389.004v-1.324Z" fill="#C4C4C4"/><path d="M4.375 17.5h12.25c.965 0 1.75-.747 1.75-1.667V8.61l-1.75 1.667v5.556H7.138c-.022 0-.046.009-.069.009-.029 0-.058-.008-.087-.009H4.375V4.167h5.991l1.75-1.667H4.375c-.965 0-1.75.748-1.75 1.667v11.666c0 .92.785 1.667 1.75 1.667Z" fill="#C4C4C4"/></svg>