<svg width="25" height="24" fill="none" xmlns="http://www.w3.org/2000/svg"><path d="M12.5 16.5a4.827 4.827 0 0 1-2.604-.758 4.545 4.545 0 0 1-1.727-2.02 4.333 4.333 0 0 1-.266-2.6 4.447 4.447 0 0 1 1.282-2.304 4.75 4.75 0 0 1 2.4-1.232 4.87 4.87 0 0 1 2.709.257c.856.34 1.588.917 2.104 1.657.515.74.79 1.61.79 2.5.006.593-.11 1.18-.344 1.73a4.443 4.443 0 0 1-1.015 1.466c-.436.42-.956.75-1.527.975a4.807 4.807 0 0 1-1.802.329Zm0-7.5a3.17 3.17 0 0 0-1.207.21 3.069 3.069 0 0 0-1.024.649c-.292.28-.522.614-.675.982A2.83 2.83 0 0 0 9.375 12c-.01.396.065.79.219 1.159.153.368.383.702.675.982.292.28.64.502 1.024.649.384.148.794.219 1.207.21.413.009.823-.062 1.207-.21a3.067 3.067 0 0 0 1.024-.649c.292-.28.522-.614.675-.982A2.83 2.83 0 0 0 15.625 12a2.83 2.83 0 0 0-.219-1.159 2.927 2.927 0 0 0-.675-.982 3.069 3.069 0 0 0-1.024-.649A3.17 3.17 0 0 0 12.5 9Z" fill="#000"/><path d="M22.892 8.283 21.05 5.217c-.18-.3-.464-.532-.802-.654a1.622 1.622 0 0 0-1.053-.016l-1.901.617a8.724 8.724 0 0 0-1.026-.569l-.392-1.889a1.49 1.49 0 0 0-.542-.866c-.28-.22-.63-.34-.991-.34h-3.688c-.361 0-.711.12-.99.34-.28.22-.472.526-.543.866l-.393 1.89a8.67 8.67 0 0 0-1.036.564l-1.89-.614a1.622 1.622 0 0 0-1.052.018 1.546 1.546 0 0 0-.802.653L2.104 8.283c-.18.3-.247.651-.189.993.059.342.24.655.51.883l1.509 1.273c-.013.19-.03.377-.03.568 0 .194.008.385.022.575l-1.5 1.266c-.271.228-.452.54-.51.882a1.45 1.45 0 0 0 .187.994l1.844 3.066c.18.3.464.532.802.654.339.123.71.129 1.053.017l1.901-.618c.328.213.67.403 1.025.57l.393 1.888c.071.34.263.646.542.866.28.22.63.34.991.34h3.406V21h-3.406l-.554-2.663a7.178 7.178 0 0 1-2.106-1.178l-2.693.874-1.844-3.066 2.13-1.796a6.431 6.431 0 0 1-.006-2.346L3.457 9.033l1.844-3.066 2.677.87A7.131 7.131 0 0 1 10.1 5.662L10.654 3h3.688l.554 2.662c.768.274 1.48.673 2.106 1.18l2.693-.875 1.844 3.066-2.186 1.839L20.383 12l2.187-1.84c.271-.23.452-.541.51-.883a1.449 1.449 0 0 0-.188-.994Z" fill="#000"/><path d="m17.969 19.638-2.024-1.943-1.101 1.058 3.125 3 5.468-5.25-1.101-1.058-4.367 4.193Z" fill="#000"/></svg>