<svg width="139" height="217" fill="none" xmlns="http://www.w3.org/2000/svg"><path d="m102.962 201.299-66.72-15.006 8.575-75.964 87.218 19.829-29.073 71.141Z" fill="#96B72E"/><path d="M91.45 16.208 0 69.494l10.387 17.827 91.45-53.286-10.388-17.827Z" fill="#B7DB21"/><path d="m94.622 121.416-8.755-1.983-18.498 73.782 8.755 1.983 18.498-73.782ZM49.623 40.193l-7.756 4.519 10.774 18.49 7.755-4.52-10.773-18.49Z" fill="#EE715F"/><path d="M13.292 27.125c5.993-8.7 32.436 15.737 32.436 15.737l-3.873 2.328s-28.774 6.859-31.37 2.502c-2.491-4.638-3.192-11.677 2.807-20.567ZM40.7 42.97s-21.329-5.394-24.144-3.502c-2.815 1.892-2.673 3.224-2.419 4.086.723 3.723 26.563-.584 26.563-.584Z" fill="#EE715F"/><path d="M48.125 6.925c-10.644.764-2.398 35.937-2.398 35.937l3.873-2.329S69.698 18.867 67.2 14.42c-2.596-4.357-8.424-8.448-19.075-7.494Zm.223 31.479s5.863-21.218 8.855-22.724c2.991-1.507 4.1-.71 4.838-.115 2.754 2.561-13.693 22.839-13.693 22.839Z" fill="#EE715F"/><ellipse cx="81" cy="208.518" rx="58" ry="8" fill="url(#a)"/><defs><radialGradient id="a" cx="0" cy="0" r="1" gradientUnits="userSpaceOnUse" gradientTransform="matrix(0 8 -58 0 81 208.518)"><stop stop-color="#C4C4C4"/><stop offset="1" stop-color="#C4C4C4" stop-opacity="0"/></radialGradient></defs></svg>