<svg width="59" height="61" fill="none" xmlns="http://www.w3.org/2000/svg"><path d="M16.569 27.722h-.664v-5.326a1.149 1.149 0 0 0-1.153-1.143h-.1V10.357a1.141 1.141 0 0 0-.638-1.022l-8.93-4.423a1.163 1.163 0 0 0-1.523.464 1.14 1.14 0 0 0-.147.558v15.32h-.1a1.149 1.149 0 0 0-1.153 1.142v5.326h-.664a1.15 1.15 0 0 0-1.153 1.143v30a1.148 1.148 0 0 0 1.153 1.143H16.57a1.148 1.148 0 0 0 1.154-1.142v-30a1.148 1.148 0 0 0-1.154-1.144ZM5.723 7.783l6.622 3.28v10.19H5.723V7.783ZM4.47 23.54h9.128v4.183H4.47V23.54Zm10.945 34.183H2.652V30.007h12.763v27.715ZM57.04 46.29H19.56a1.154 1.154 0 0 0 0 2.307h35.644l-.264.549a8.8 8.8 0 0 1-7.886 4.958H19.56a1.153 1.153 0 1 0 0 2.307h27.491a11.12 11.12 0 0 0 9.968-6.265l1.06-2.203a1.155 1.155 0 0 0-1.04-1.654ZM16.891 8.492a23.22 23.22 0 1 1 30.644 34.872 1.153 1.153 0 1 0 1.48 1.771 25.53 25.53 0 0 0-5.23-42.587 25.528 25.528 0 0 0-28.461 4.25 1.155 1.155 0 0 0 1.567 1.694Z" fill="#8BBD3F"/><path d="M32.661 7.114a18.42 18.42 0 1 1-12.333 32.102A1.155 1.155 0 0 0 18.5 40.57c.07.138.167.26.285.36a20.727 20.727 0 1 0-2.829-27.67 1.156 1.156 0 0 0 1.858 1.372 18.504 18.504 0 0 1 14.847-7.518Z" fill="#8BBD3F"/><path d="M45.355 16.213 24.298 37.271a1.154 1.154 0 0 0 1.628 1.629L46.99 17.844a1.154 1.154 0 0 0-1.629-1.629l-.005-.002ZM30.708 37.375a1.154 1.154 0 0 0 1.628 1.629l15.81-15.81a1.153 1.153 0 0 0-1.628-1.629l-15.81 15.81Z" fill="#8BBD3F"/></svg>