<svg width="60" height="64" fill="none" xmlns="http://www.w3.org/2000/svg"><path d="M54.564 45.103h-2.376V42.74a1.076 1.076 0 0 0-1.075-1.075H22.286a1.075 1.075 0 0 0-1.075 1.075v9.394a11.702 11.702 0 0 0 11.688 11.685H40.5a11.666 11.666 0 0 0 8.902-4.126l5.422-2.68a7.967 7.967 0 0 0 4.464-7.186 4.727 4.727 0 0 0-4.724-4.723Zm-4.527 4.773H23.361v-1h26.674l.002 1Zm0-6.064v2.91H23.361v-2.91h26.676ZM40.5 61.667h-7.6a9.545 9.545 0 0 1-9.54-9.537v-.102h26.675v.102a9.546 9.546 0 0 1-9.535 9.538v-.001Zm13.37-6.583-2.454 1.212c.51-1.33.77-2.742.77-4.166v-4.876h2.375a2.575 2.575 0 0 1 2.572 2.572 5.829 5.829 0 0 1-3.263 5.259Z" fill="#8BBD3F"/><path d="M20.466 57.191H2.558V10.566H34.88v28.058a1.076 1.076 0 0 0 2.151 0V9.493a1.075 1.075 0 0 0-1.074-1.077H1.485A1.075 1.075 0 0 0 .41 9.492v48.776a1.075 1.075 0 0 0 1.076 1.074h18.981a1.074 1.074 0 1 0 0-2.149v-.002Z" fill="#8BBD3F"/><path d="M17.403 14.505a1.075 1.075 0 0 0-1.076-1.075H6.51a1.075 1.075 0 0 0-1.075 1.075v8.182a1.075 1.075 0 0 0 1.075 1.075h9.818a1.075 1.075 0 0 0 1.076-1.075v-8.182Zm-2.151 7.103H7.588V15.58h7.663v6.027ZM16.327 26.066H6.51a1.075 1.075 0 1 0 0 2.151h9.818a1.075 1.075 0 1 0 0-2.15ZM16.327 30.297H6.51a1.075 1.075 0 1 0 0 2.15h9.818a1.075 1.075 0 1 0 0-2.15ZM16.327 34.527H6.51a1.076 1.076 0 0 0 0 2.151h9.818a1.075 1.075 0 1 0 0-2.15ZM16.327 38.76H6.51a1.076 1.076 0 0 0 0 2.15h9.818a1.075 1.075 0 1 0 0-2.15ZM16.327 42.992H6.51a1.075 1.075 0 1 0 0 2.151h9.818a1.075 1.075 0 1 0 0-2.15ZM16.327 47.223H6.51a1.075 1.075 0 1 0 0 2.15h9.818a1.075 1.075 0 1 0 0-2.15ZM16.327 51.443H6.51a1.075 1.075 0 1 0 0 2.151h9.818a1.075 1.075 0 1 0 0-2.15ZM30.933 13.432h-9.819a1.076 1.076 0 0 0 0 2.15h9.819a1.076 1.076 0 0 0 0-2.15ZM30.933 17.662h-9.819a1.074 1.074 0 0 0-.76 1.836 1.077 1.077 0 0 0 .76.315h9.819a1.077 1.077 0 0 0 0-2.15ZM30.933 21.893h-9.819a1.076 1.076 0 0 0 0 2.15h9.819a1.076 1.076 0 0 0 0-2.15ZM30.933 26.125h-9.819a1.076 1.076 0 0 0 0 2.15h9.819a1.076 1.076 0 0 0 0-2.15ZM30.933 30.578h-9.819a1.076 1.076 0 0 0-1.075 1.076v6.971a1.076 1.076 0 0 0 1.075 1.076h9.819a1.076 1.076 0 0 0 1.075-1.076v-6.971a1.076 1.076 0 0 0-1.075-1.076Zm-1.076 6.972h-7.662v-4.818h7.662v4.818ZM34.054 6.504a1.076 1.076 0 0 0 1.496-.273 9.032 9.032 0 1 1 3.917 13.462 1.073 1.073 0 0 0-1.41.572 1.077 1.077 0 0 0 .572 1.41 11.187 11.187 0 1 0-4.848-16.668 1.076 1.076 0 0 0 .273 1.497Z" fill="#8BBD3F"/><path d="M39.363 12.443h3.618a1.076 1.076 0 0 0 1.076-1.075V7.913a1.075 1.075 0 1 0-2.15 0v2.378H39.36a1.075 1.075 0 1 0 0 2.15l.002.002Z" fill="#8BBD3F"/></svg>