<svg width="53" height="70" fill="none" xmlns="http://www.w3.org/2000/svg"><path d="M47.85 24.287h-5.58l9.892-16.059a5.421 5.421 0 0 0-9.23-5.686L29.536 24.287H29.3c1.343-7.285 1.06-14.219-.824-19.645A1.024 1.024 0 0 0 27.813 4h-.019a1.025 1.025 0 0 0-.914.138 36.066 36.066 0 0 0-9.395 10.548A36.067 36.067 0 0 0 6.12 5.442a1.025 1.025 0 0 0-.93.018l-.013.007a1.025 1.025 0 0 0-.543.741c-.884 5.238-.189 11.61 1.952 18.08h-1.6a4.5 4.5 0 0 0-.7 8.942c-.193 5.76.411 16.461 5.541 30.008a3.089 3.089 0 0 0-1.62 2.717v.925a3.089 3.089 0 0 0 3.084 3.086h30.256a3.089 3.089 0 0 0 3.086-3.086v-.925a3.089 3.089 0 0 0-1.622-2.716c.394-1.04.77-2.086 1.122-3.122a1.026 1.026 0 0 0-1.942-.66 97.395 97.395 0 0 1-1.234 3.412H11.881c-5.138-13.4-5.735-23.95-5.544-29.583h3.1a1.026 1.026 0 1 0 0-2.05H4.988a2.45 2.45 0 1 1 0-4.9H47.85a2.45 2.45 0 1 1 0 4.9H14.292a1.026 1.026 0 1 0 0 2.05h32.21a71.073 71.073 0 0 1-2.9 21.648 1.024 1.024 0 0 0 .7 1.296 1.025 1.025 0 0 0 1.273-.739 73.159 73.159 0 0 0 2.98-22.26 4.5 4.5 0 0 0-.7-8.943h-.005ZM10.256 65.955a1.035 1.035 0 0 1 .962-1.03h30.436a1.036 1.036 0 0 1 .928 1.028v.925a1.036 1.036 0 0 1-1.035 1.035H11.291a1.036 1.036 0 0 1-1.035-1.035v-.923Zm2.651-41.668h-4.16A40.56 40.56 0 0 1 6.324 9.903l6.932 13.443c-.118.313-.234.627-.349.941ZM8.148 8.967a38.05 38.05 0 0 1 8.24 7.607 51.132 51.132 0 0 0-2.112 4.275L8.148 8.966Zm6.945 15.322a43.543 43.543 0 0 1 10.37-16.342l-5.223 16.34-5.147.002Zm12.12 0h-4.82L27.42 8.56a41.044 41.044 0 0 1-.207 15.727v.002Zm4.733 0L44.678 3.62a3.37 3.37 0 0 1 5.738 3.534L39.861 24.287l-7.915.002Z" fill="#8BBD3F"/><path d="M34.367 44.943h-5.28v-5.28a1.423 1.423 0 0 0-1.42-1.42h-3.76a1.423 1.423 0 0 0-1.42 1.42v5.28h-5.28a1.423 1.423 0 0 0-1.422 1.421v3.762a1.423 1.423 0 0 0 1.421 1.421h5.28v5.28a1.423 1.423 0 0 0 1.421 1.421h3.76a1.423 1.423 0 0 0 1.421-1.42v-5.28h5.28a1.423 1.423 0 0 0 1.421-1.422v-3.762a1.423 1.423 0 0 0-1.422-1.42Zm-.69 4.493h-5.645a1.055 1.055 0 0 0-1.055 1.055v5.645h-2.382v-5.645a1.055 1.055 0 0 0-1.055-1.055h-5.645v-2.382h5.645A1.055 1.055 0 0 0 24.595 46v-5.645h2.382V46a1.055 1.055 0 0 0 1.055 1.055h5.645v2.382Z" fill="#8BBD3F"/></svg>