<svg width="71" height="70" fill="none" xmlns="http://www.w3.org/2000/svg"><path d="M60.001 0H48.335a1.167 1.167 0 0 0-1.167 1.167v3.5a1.167 1.167 0 0 0 .933 1.143l1.117.224c.951.193 1.846.6 2.617 1.19v.234a6.679 6.679 0 0 1-2.981 5.568l1.3 1.941a9 9 0 0 0 3.707-5.181c.144.32.261.652.35.992a1.166 1.166 0 0 0 1.128.888h2.329V15l-3.159 10.53 2.235.671 2.959-9.863h5.158l2.14 11.762v26.733a3.5 3.5 0 0 1-3.5 3.5h-3.013v2.333h3.014a5.84 5.84 0 0 0 5.833-5.833V28c0-.07-.007-.14-.02-.209l-2.313-12.726v-3.4h2.333a1.167 1.167 0 0 0 1.167-1.167A10.511 10.511 0 0 0 60.001 0Zm4.667 14h-4.667v-2.333h4.667V14Zm1.167-4.667h-9.64a8.807 8.807 0 0 0-6.515-5.587l-.178-.036V2.333h10.5a8.18 8.18 0 0 1 8.084 7h-2.251ZM6.333 60.666H14.5v-2.333H6.333a3.5 3.5 0 0 1-3.5-3.5V38.128c0-1.193.166-2.38.495-3.528l1.794-6.28c.065-.226.06-.466-.016-.689l-2.049-6.146a4.386 4.386 0 0 1 1.355-4.753l4.677-3.9h10.822l3.383 2.821 1.494-1.792-3.288-2.742V8.166c0-.31-.123-.606-.342-.825L19.166 5.35V1.166A1.167 1.167 0 0 0 18 0h-7a1.167 1.167 0 0 0-1.167 1.166V5.35L7.842 7.342a1.167 1.167 0 0 0-.342.824v2.953l-4.583 3.82A6.714 6.714 0 0 0 .85 22.223l1.933 5.8-1.7 5.937A15.141 15.141 0 0 0 .5 38.128v16.705a5.84 5.84 0 0 0 5.833 5.833Zm5.833-58.333h4.667v2.333h-4.667V2.333ZM9.833 8.649 11.483 7h6.034l1.65 1.65v1.85H9.833V8.649Z" fill="#8BBD3F"/><path d="M21.5 19.835c0-2.617-3.076-4.667-7-4.667s-7 2.05-7 4.667 3.076 4.667 7 4.667 7-2.05 7-4.667Zm-11.667 0c0-1.1 2-2.333 4.667-2.333s4.667 1.232 4.667 2.333c0 1.101-1.996 2.333-4.667 2.333s-4.667-1.232-4.667-2.333ZM13.218 38.696l.784-2.2-7.275-2.6a1.167 1.167 0 0 0-1.559 1.1v14a5.84 5.84 0 0 0 5.833 5.838h2.333V52.5h-2.333a3.5 3.5 0 0 1-3.5-3.5V36.655l5.717 2.04ZM44.625 37.807a17.063 17.063 0 0 1 2.82 14.95 3.46 3.46 0 1 0 6.594 2.1 22.908 22.908 0 0 0-3.617-21.816l-.467-.6a3.745 3.745 0 0 0-5.924 4.582l.594.784Zm1-3.378a1.411 1.411 0 0 1 2.486-.551l.467.6a20.582 20.582 0 0 1 3.252 19.606 1.166 1.166 0 0 1-1.965.307 1.124 1.124 0 0 1-.183-.988 19.409 19.409 0 0 0-3.208-17.005l-.6-.788a1.407 1.407 0 0 1-.245-1.181h-.004Z" fill="#8BBD3F"/><path d="M21.695 69.481a1.166 1.166 0 0 0 .971.519h28a1.164 1.164 0 0 0 .911-.437l2.917-3.647a30.45 30.45 0 0 0-4.967-42.958l-4.7-3.691v-4.1A1.167 1.167 0 0 0 43.665 14h-1.167V9.333A2.333 2.333 0 0 0 40.165 7h-9.338a2.333 2.333 0 0 0-2.333 2.333V14h-1.167a1.168 1.168 0 0 0-1.167 1.167V19.4l-1.556 1.817a40.177 40.177 0 0 0-2.909 48.264Zm9.132-60.148h9.333V14h-9.333V9.333Zm-4.452 13.4 1.837-2.143c.182-.211.281-.48.281-.759v-3.5h14v2.333H30.827V21h12.43l4.826 3.792a28.116 28.116 0 0 1 4.584 39.667L50.1 67.667H23.29a37.84 37.84 0 0 1 3.085-44.931v-.003Z" fill="#8BBD3F"/><path d="M33.75 60.666a13.392 13.392 0 0 0 11.184-6.012c.164-.247.228-.547.178-.839-1.414-8.4-4.589-14.994-9.442-19.6a1.165 1.165 0 0 0-.7-.317 12.01 12.01 0 0 0-1.22-.066 13.418 13.418 0 0 0 0 26.833v.001Zm0-24.5c.2 0 .407.008.608.021 4.226 4.158 7.04 10.058 8.373 17.551a11.083 11.083 0 1 1-8.98-17.572Z" fill="#8BBD3F"/></svg>