<svg width="72" height="70" fill="none" xmlns="http://www.w3.org/2000/svg"><path d="M40.507 26.424a1.038 1.038 0 1 0 0-2.076 1.038 1.038 0 0 0 0 2.076ZM43.038 28.93a1.038 1.038 0 1 0 0-2.076 1.038 1.038 0 0 0 0 2.076ZM45.57 31.433a1.038 1.038 0 1 0 0-2.076 1.038 1.038 0 0 0 0 2.076ZM36.913 29.978a1.038 1.038 0 1 0 0-2.076 1.038 1.038 0 0 0 0 2.076ZM39.448 32.482a1.038 1.038 0 1 0 0-2.076 1.038 1.038 0 0 0 0 2.076ZM41.98 34.99a1.038 1.038 0 1 0 0-2.076 1.038 1.038 0 0 0 0 2.076ZM33.323 33.531a1.038 1.038 0 1 0 0-2.076 1.038 1.038 0 0 0 0 2.076ZM35.854 36.039a1.038 1.038 0 1 0 0-2.076 1.038 1.038 0 0 0 0 2.076ZM38.386 38.543a1.038 1.038 0 1 0 0-2.076 1.038 1.038 0 0 0 0 2.076ZM29.73 37.086a1.038 1.038 0 1 0 0-2.076 1.038 1.038 0 0 0 0 2.076ZM32.26 39.594a1.038 1.038 0 1 0 0-2.077 1.038 1.038 0 0 0 0 2.077ZM34.796 42.097a1.038 1.038 0 1 0 0-2.075 1.038 1.038 0 0 0 0 2.075ZM26.14 40.64a1.038 1.038 0 1 0 0-2.076 1.038 1.038 0 0 0 0 2.077ZM28.67 43.146a1.038 1.038 0 1 0 0-2.076 1.038 1.038 0 0 0 0 2.076ZM31.202 45.652a1.038 1.038 0 1 0 0-2.076 1.038 1.038 0 0 0 0 2.076Z" fill="#8BBD3F"/><path d="m68.334 9.238-6.455-6.39a9.893 9.893 0 0 0-13.891 0L3.377 47.011a9.656 9.656 0 0 0 0 13.751l6.455 6.39a9.893 9.893 0 0 0 13.89 0l44.612-44.163a9.655 9.655 0 0 0 0-13.751Zm-1.47 12.3L22.254 65.7a7.8 7.8 0 0 1-10.952 0l-6.455-6.39a7.612 7.612 0 0 1 0-10.842L49.458 4.3a7.8 7.8 0 0 1 10.952 0l6.455 6.39a7.612 7.612 0 0 1 0 10.842v.006Z" fill="#8BBD3F"/><path d="m51.722 27.375-8.24-8.241a3.211 3.211 0 0 0-4.542 0L19.987 38.086a3.211 3.211 0 0 0 0 4.54l8.241 8.242a3.21 3.21 0 0 0 4.541 0l18.952-18.952a3.21 3.21 0 0 0 0-4.541h.001Zm-1.469 3.072L31.301 49.399a1.133 1.133 0 0 1-1.6 0l-8.24-8.241a1.134 1.134 0 0 1 0-1.6l18.952-18.952a1.133 1.133 0 0 1 1.6 0l8.241 8.24a1.133 1.133 0 0 1 0 1.6ZM33.03 12.185l-9.307-9.308a9.823 9.823 0 0 0-13.89 0L3.376 9.332a9.823 9.823 0 0 0 0 13.891l9.446 9.446a1.039 1.039 0 0 0 1.47-1.469l-9.447-9.447a7.744 7.744 0 0 1 0-10.952L11.3 4.346a7.745 7.745 0 0 1 10.952 0l9.308 9.308a1.039 1.039 0 0 0 1.47-1.469ZM68.334 46.779l-9.448-9.448a1.04 1.04 0 0 0-1.79.73 1.038 1.038 0 0 0 .321.739l9.447 9.448a7.753 7.753 0 0 1 0 10.952l-6.455 6.455a7.753 7.753 0 0 1-10.952 0l-9.587-9.587a1.04 1.04 0 0 0-1.469 1.469l9.587 9.587a9.834 9.834 0 0 0 13.891 0l6.455-6.455a9.834 9.834 0 0 0 0-13.89Z" fill="#8BBD3F"/></svg>