<svg width="65" height="64" fill="none" xmlns="http://www.w3.org/2000/svg"><path d="M37.733 19.762a1.021 1.021 0 1 0 0-2.042h-.085v-4.384a2.711 2.711 0 0 0-2.708-2.707H4.502a2.711 2.711 0 0 0-2.707 2.707v4.384h-.09a1.021 1.021 0 1 0 0 2.043h2.513v2.44l-1.253.717a5.147 5.147 0 0 0-2.281 4.146v32.358a4.398 4.398 0 0 0 4.394 4.394H34.36a4.398 4.398 0 0 0 4.394-4.394V27.066a5.15 5.15 0 0 0-2.281-4.146l-1.253-.718v-2.44h2.512Zm-1.02 39.662a2.354 2.354 0 0 1-2.352 2.35H5.078a2.354 2.354 0 0 1-2.351-2.35v-2.352h33.985v2.351Zm0-4.394H2.726V35.262h33.985V55.03Zm-1.254-30.338a3.117 3.117 0 0 1 1.253 2.374v6.154H2.727v-6.154a3.116 3.116 0 0 1 1.252-2.373l1.768-1.012a1.02 1.02 0 0 0 .513-.887v-3.032H33.18v3.032a1.02 1.02 0 0 0 .513.887l1.767 1.011ZM3.833 17.72v-4.384a.674.674 0 0 1 .665-.664h4.056v1.984a1.021 1.021 0 0 0 2.043 0v-1.984h4.723v1.984a1.021 1.021 0 1 0 2.043 0v-1.984h4.721v1.984a1.022 1.022 0 0 0 2.043 0v-1.984h4.72v1.984a1.022 1.022 0 0 0 2.043 0v-1.984h4.056a.674.674 0 0 1 .664.664v4.384H3.833Z" fill="#8BBD3F"/><path d="M13.61 51.425h12.219a6.192 6.192 0 0 0 0-12.384h-12.22a6.192 6.192 0 0 0 0 12.384Zm7.13-10.341h5.092a4.15 4.15 0 0 1 0 8.298H20.74v-8.298Zm-7.13 0h5.09v8.298h-5.09a4.15 4.15 0 1 1 0-8.298ZM30.116 22.008H17.494a1.021 1.021 0 1 0 0 2.043h12.62a1.021 1.021 0 1 0 0-2.043h.002ZM13.408 22.008H9.322a1.021 1.021 0 1 0 0 2.043h4.085a1.021 1.021 0 1 0 0-2.043ZM42.36 58.713a1.022 1.022 0 0 0 2.042 0v-8.17a1.022 1.022 0 0 0-2.043 0v8.17ZM43.381 47.839a1.021 1.021 0 0 0 1.021-1.021V5.287a1.021 1.021 0 0 0-2.043 0v41.53a1.02 1.02 0 0 0 1.022 1.022Z" fill="#8BBD3F"/><path d="M56.987.182H29.772a7.681 7.681 0 0 0-7.694 7.65 1.021 1.021 0 1 0 2.043 0 5.642 5.642 0 0 1 5.65-5.62h27.216a5.642 5.642 0 0 1 5.651 5.62v48.336a5.642 5.642 0 0 1-5.65 5.62H41.024a1.016 1.016 0 0 0 0 2.03h15.962a7.68 7.68 0 0 0 7.694-7.65V7.832a7.68 7.68 0 0 0-7.694-7.65Z" fill="#8BBD3F"/><path d="M53.517 16.2a4.986 4.986 0 1 0 0-9.972 4.986 4.986 0 0 0 0 9.971Zm0-7.929a2.943 2.943 0 1 1 0 5.886 2.943 2.943 0 0 1 0-5.886ZM53.517 30.045a4.986 4.986 0 1 0 0-9.972 4.986 4.986 0 0 0 0 9.972Zm0-7.928a2.942 2.942 0 1 1 0 5.885 2.942 2.942 0 0 1 0-5.885ZM53.517 43.928a4.985 4.985 0 1 0 0-9.97 4.985 4.985 0 0 0 0 9.97Zm0-7.928a2.943 2.943 0 1 1 0 5.886 2.943 2.943 0 0 1 0-5.886ZM53.517 57.77a4.986 4.986 0 1 0 0-9.972 4.986 4.986 0 0 0 0 9.972Zm0-7.928a2.942 2.942 0 1 1 0 5.888 2.942 2.942 0 0 1 0-5.89v.002ZM31.596 8.773a2.945 2.945 0 0 1 3.317.02 1.021 1.021 0 0 0 1.158-1.68 4.988 4.988 0 0 0-5.621-.034 1.021 1.021 0 0 0 1.143 1.693l.003.001Z" fill="#8BBD3F"/></svg>