<svg width="54" height="64" fill="none" xmlns="http://www.w3.org/2000/svg"><path d="M47.895 29.205a.94.94 0 0 0-.94.941V47.73a14.222 14.222 0 0 1-14.207 14.206H28.39A14.223 14.223 0 0 1 14.183 47.73v-4.317a.94.94 0 1 0-1.882 0v4.317a16.107 16.107 0 0 0 16.09 16.09h4.36a16.107 16.107 0 0 0 16.09-16.09V30.146a.941.941 0 0 0-.946-.94Z" fill="#8BBD3F"/><path d="M45.162 29.612a.934.934 0 0 0-.941.934v17.311a10.921 10.921 0 0 1-10.963 10.854H28.9a10.923 10.923 0 0 1-10.964-10.856l-.005-11.77a12.919 12.919 0 0 0 9.024-6.838 2.523 2.523 0 0 0-.12-2.488 2.615 2.615 0 0 0-.505-.59c.038-.157.074-.315.106-.476l4.148-16.107a4.953 4.953 0 0 0-3.72-5.805l-1.293-.31a3.844 3.844 0 0 0-1.356-1.982A5.707 5.707 0 0 0 21.371.206a3.683 3.683 0 0 0-4.09 3.205 3.663 3.663 0 0 0 3.24 4.044c.16.018.322.027.483.027a5.965 5.965 0 0 0 2.581-.63 3.942 3.942 0 0 0 1.727-1.528l1.108.268a3.091 3.091 0 0 1 2.333 3.563L24.601 25.26l-.012.055c-.015.075-.031.15-.048.224a2.596 2.596 0 0 0-2.242 1.405 7.752 7.752 0 0 1-6.886 4.238 7.662 7.662 0 0 1-6.866-4.192 2.664 2.664 0 0 0-2.266-1.45 8.993 8.993 0 0 1-.048-.225c0-.018-.007-.037-.012-.055L2.072 9.156a3.09 3.09 0 0 1 2.335-3.563l1.104-.266c.78 1.396 2.785 2.156 4.322 2.156.158 0 .316-.01.472-.028a3.663 3.663 0 0 0 3.236-4.048A3.682 3.682 0 0 0 9.451.204 5.708 5.708 0 0 0 6.61 1.49a3.845 3.845 0 0 0-1.356 1.981l-1.29.311a4.953 4.953 0 0 0-3.733 5.75c0 .018.008.036.013.054l4.148 16.107c.032.16.068.318.107.476a2.61 2.61 0 0 0-.519.611 2.522 2.522 0 0 0-.106 2.466 12.919 12.919 0 0 0 8.941 6.822v3.198a.937.937 0 0 0 1.6.659.936.936 0 0 0 .276-.658V35.6a1.3 1.3 0 0 0-1.096-1.282 11.036 11.036 0 0 1-8.042-5.903.675.675 0 0 1 .031-.669.718.718 0 0 1 .596-.346h.02a.773.773 0 0 1 .662.428 9.537 9.537 0 0 0 8.546 5.218 9.65 9.65 0 0 0 8.577-5.273.727.727 0 0 1 1.354.303.677.677 0 0 1-.073.343 11.035 11.035 0 0 1-8.013 5.897h-.029a1.302 1.302 0 0 0-1.182 1.294l.013 12.244a12.797 12.797 0 0 0 12.845 12.72h4.36a12.797 12.797 0 0 0 12.842-12.718V30.546a.938.938 0 0 0-.94-.934Zm-21.4-25.455c-.041.349-.424.735-1.023 1.034a3.88 3.88 0 0 1-2 .416 1.786 1.786 0 1 1 .416-3.549 3.865 3.865 0 0 1 1.851.86 1.654 1.654 0 0 1 .755 1.238v.001ZM9.67 2.06a1.787 1.787 0 1 1 .416 3.546c-1.21.139-2.934-.689-3.024-1.455-.09-.766 1.398-1.954 2.608-2.093v.002Z" fill="#8BBD3F"/><path d="M46.076 12.184a7.733 7.733 0 1 0 7.731 7.731 7.74 7.74 0 0 0-7.731-7.731Zm0 13.582a5.85 5.85 0 1 1 5.85-5.85 5.857 5.857 0 0 1-5.85 5.85Z" fill="#8BBD3F"/><path d="M46.079 16.303a3.587 3.587 0 1 0 0 7.173 3.587 3.587 0 0 0 0-7.173Zm0 5.292a1.704 1.704 0 1 1 1.206-.497 1.705 1.705 0 0 1-1.206.501v-.004Z" fill="#8BBD3F"/></svg>