<svg width="47" height="58" fill="none" xmlns="http://www.w3.org/2000/svg"><path d="M22.571 17.175c0-.312.127-.611.353-.832.227-.221.534-.346.855-.347h.242c.322 0 .63.125.857.346.228.22.356.52.356.834 0 .312-.128.612-.356.833a1.23 1.23 0 0 1-.857.346h-.242a1.24 1.24 0 0 1-.855-.347 1.176 1.176 0 0 1-.353-.833Zm2.21 4.898a6.76 6.76 0 0 1-3.538.997 6.76 6.76 0 0 1-3.54-.997 1.24 1.24 0 0 0-.907-.142 1.21 1.21 0 0 0-.749.52 1.15 1.15 0 0 0-.157.88c.068.303.256.567.523.736a9.22 9.22 0 0 0 4.83 1.36 9.22 9.22 0 0 0 4.83-1.36c.266-.169.454-.433.523-.735a1.15 1.15 0 0 0-.158-.881 1.21 1.21 0 0 0-.748-.52 1.24 1.24 0 0 0-.908.142Zm-6.317-3.718h.242c.321 0 .63-.125.857-.346.227-.22.355-.52.355-.834 0-.312-.128-.612-.355-.833a1.23 1.23 0 0 0-.857-.345h-.242c-.322 0-.63.124-.858.345a1.163 1.163 0 0 0-.355.834c0 .312.128.612.355.833.228.221.536.346.858.346Zm18.822 16.312-.197-.136a1.239 1.239 0 0 0-.896-.185c-.312.054-.59.226-.773.477a1.152 1.152 0 0 0-.208.867c.05.305.22.578.475.762l.197.136a1.222 1.222 0 0 0 .902.203c.157-.026.306-.081.441-.164.135-.082.25-.19.343-.315.186-.255.26-.571.207-.88a1.178 1.178 0 0 0-.491-.765ZM45.052 44s-.385.546-.474.653l-6.37 8.761a9.19 9.19 0 0 1-3.103 2.714 9.473 9.473 0 0 1-4.012 1.116 1.24 1.24 0 0 1-.184.014h-19.33a8.603 8.603 0 0 1-5.983-2.426 8.131 8.131 0 0 1-2.473-5.826v-3.537c-.001-1.593.219-3.18.654-4.715H1.915a1.24 1.24 0 0 1-.855-.347 1.176 1.176 0 0 1-.353-.833V20.712c0-2.623.531-5.22 1.563-7.642A19.942 19.942 0 0 1 6.722 6.59a20.585 20.585 0 0 1 6.663-4.329 21.044 21.044 0 0 1 7.86-1.52c2.696 0 5.367.517 7.858 1.52a20.585 20.585 0 0 1 6.663 4.33 19.942 19.942 0 0 1 4.452 6.478 19.491 19.491 0 0 1 1.563 7.642v9.943c.366.188.719.4 1.056.634 2.023 1.403 3.392 3.528 3.807 5.91a8.937 8.937 0 0 1-1.592 6.8ZM4.636 38.397a17.753 17.753 0 0 1 4.298-5.895 18.346 18.346 0 0 1 6.36-3.738 13.287 13.287 0 0 1-5.22-4.592 12.789 12.789 0 0 1-2.119-6.985c.003-1 .288-1.979.826-2.83A5.532 5.532 0 0 1 11 12.359a24.323 24.323 0 0 1 10.244-2.257c3.545 0 7.045.77 10.243 2.257a5.514 5.514 0 0 1 2.213 1.979c.537.844.825 1.815.832 2.808v.03c0 2.402-.684 4.757-1.977 6.804a13.236 13.236 0 0 1-5.35 4.792 18.278 18.278 0 0 1 4.843 2.496 9.515 9.515 0 0 1 3.5-1.474 9.638 9.638 0 0 1 3.815.004v-9.086a17.194 17.194 0 0 0-1.3-6.826 17.584 17.584 0 0 0-3.91-5.807 18.157 18.157 0 0 0-5.912-3.89 18.57 18.57 0 0 0-6.999-1.367 18.57 18.57 0 0 0-6.999 1.367 18.158 18.158 0 0 0-5.912 3.89 17.586 17.586 0 0 0-3.91 5.807 17.193 17.193 0 0 0-1.3 6.826v17.683l1.514.002Zm24.27-13.694a10.542 10.542 0 0 0 2.383-3.45c.55-1.293.832-2.679.828-4.078v-.027a2.977 2.977 0 0 0-.47-1.574 3.094 3.094 0 0 0-1.242-1.108 21.866 21.866 0 0 0-9.16-2.007c-3.17 0-6.299.686-9.161 2.007a3.113 3.113 0 0 0-1.25 1.126 2.996 2.996 0 0 0-.463 1.593c0 .123.003.247.007.373a10.56 10.56 0 0 0 3.31 7.193 11.154 11.154 0 0 0 7.48 3.033h.076a11.043 11.043 0 0 0 4.148-.795 10.801 10.801 0 0 0 3.514-2.286Zm-7.665 5.44c-1.014-.001-2.025.094-3.02.284v.305c0 .778.318 1.525.884 2.076.567.55 1.335.86 2.136.86.801 0 1.57-.31 2.136-.86.566-.55.884-1.298.884-2.076v-.303a16.036 16.036 0 0 0-3.02-.287Zm-8.453 15.325v1.179c0 .312.127.61.353.832.227.22.534.345.855.346h7.254a8.961 8.961 0 0 1 1.717-4.958l6.845-9.417c.136-.187.278-.368.427-.543a15.846 15.846 0 0 0-3.57-1.817 5.227 5.227 0 0 1-1.705 3.52 5.52 5.52 0 0 1-3.72 1.432 5.52 5.52 0 0 1-3.72-1.432 5.227 5.227 0 0 1-1.705-3.52 15.732 15.732 0 0 0-7.455 5.623 15.056 15.056 0 0 0-2.824 8.755v3.537a5.809 5.809 0 0 0 1.766 4.161A6.146 6.146 0 0 0 11.58 54.9h10.872v-4.716h-8.456a3.686 3.686 0 0 1-2.565-1.04 3.485 3.485 0 0 1-1.06-2.496v-1.179c0-.312.128-.61.354-.83.227-.22.534-.344.854-.344.32 0 .628.123.854.344.227.22.354.519.354.83h.001Zm16.913 7.073c0-.624-.254-1.222-.707-1.664a2.459 2.459 0 0 0-1.709-.694h-2.417v4.715h2.417a2.459 2.459 0 0 0 1.709-.693c.453-.441.707-1.04.707-1.664Zm10.27-5.632a6.329 6.329 0 0 1-2.5-.404 4.921 4.921 0 0 1-2.886 1.026 4.935 4.935 0 0 1-2.94-.87 4.714 4.714 0 0 1-1.807-2.417 4.581 4.581 0 0 1 .055-2.988 5.964 5.964 0 0 1-1.212-2.182l-3.741 5.148a6.644 6.644 0 0 0-1.27 3.597h3.615c.844.003 1.672.22 2.403.63.731.41 1.34.998 1.765 1.706a4.62 4.62 0 0 1 .664 2.332 4.615 4.615 0 0 1-.614 2.346 7 7 0 0 0 2.669-.911 6.8 6.8 0 0 0 2.065-1.879l3.733-5.134Zm-6.925-2.163a2.463 2.463 0 0 0 3.227-.375l.026-.032c.047-.055.083-.103.117-.147a2.291 2.291 0 0 0 .096-2.624 2.382 2.382 0 0 0-.648-.672 2.486 2.486 0 0 0-2.699-.073 2.39 2.39 0 0 0-.791.798l-.022.034a2.31 2.31 0 0 0-.262 1.675c.128.57.469 1.075.956 1.416Zm11.215-7.157a6.662 6.662 0 0 0-1.287-2.922 6.91 6.91 0 0 0-2.517-2.026 1.218 1.218 0 0 1-.665-.273 7.111 7.111 0 0 0-4.43-.093 6.918 6.918 0 0 0-3.58 2.537s-.18.272-.216.324a3.742 3.742 0 0 0-.208 4.069 4.918 4.918 0 0 1 2.912-1.082 4.936 4.936 0 0 1 2.986.87 4.712 4.712 0 0 1 1.82 2.462c.31.993.275 2.058-.102 3.03a3.944 3.944 0 0 0 2.022-.148 3.844 3.844 0 0 0 1.664-1.128l.421-.58a6.644 6.644 0 0 0 1.107-2.406c.203-.865.227-1.76.073-2.634Zm-2.641.086-.197-.136a1.24 1.24 0 0 0-.896-.185c-.312.054-.59.226-.773.477a1.153 1.153 0 0 0 .267 1.628l.197.137a1.221 1.221 0 0 0 .902.203c.157-.026.306-.082.44-.164.135-.082.252-.19.343-.315.186-.255.26-.572.208-.88a1.178 1.178 0 0 0-.492-.765Z" fill="#8BBD3F"/></svg>