<svg width="44" height="70" fill="none" xmlns="http://www.w3.org/2000/svg"><path d="M35.705 47.578h-6.622l.054-.3A2.617 2.617 0 0 0 28.891 45a2.04 2.04 0 0 0-1.731-.62v-1.914a14.467 14.467 0 0 0 9.14-11.375 4.224 4.224 0 0 0 1.733.377c2.65 0 4.573-2.823 4.573-6.712 0-3.07-1.273-5.226-3.333-5.831.608-1.979.947-4.03 1.009-6.1 0-2.395-1.369-4.945-3.854-7.179a1.025 1.025 0 1 0-1.371 1.525c2.047 1.841 3.174 3.849 3.174 5.655-.059 2-.413 3.98-1.052 5.875-.813 2.418-1.584 3.069-1.76 3.12-.2-.012-.7-.409-1.2-1.851a5.347 5.347 0 0 0-4.019-3.78c-1.933-.5-4.717-.49-9.308.049-4.264.5-5.913-1.54-7-2.89-.538-.666-1-1.242-1.76-1.232a1.406 1.406 0 0 0-1.121.6c-.412.535-.621 1.581-1.018 3.708-.221 1.183-.471 2.524-.771 3.62a5.66 5.66 0 0 1-.706 1.795c-.657-.31-2.316-2.882-2.67-8.389-.294-4.564 5.3-7.46 7.021-8.239.533-.246.964-.67 1.217-1.2.158-.327 1.262-1.96 7.481-1.96 3.546.054 7.022.996 10.111 2.74a1.026 1.026 0 1 0 1-1.792 23.308 23.308 0 0 0-11.108-3c-6.464 0-8.64 1.7-9.328 3.119a.465.465 0 0 1-.216.228c-2.025.916-8.6 4.361-8.222 10.239.1 1.819.396 3.621.881 5.377-1.994.649-3.221 2.78-3.221 5.795 0 3.889 1.923 6.712 4.573 6.712a4.224 4.224 0 0 0 1.733-.377 14.3 14.3 0 0 0 2.514 6.252 1.023 1.023 0 0 0 1.704-.051 1.025 1.025 0 0 0-.034-1.139 12.288 12.288 0 0 1-2.288-7.169v-5.4c1.256-.938 1.77-3.688 2.347-6.779.12-.643.267-1.428.4-2.024a8.868 8.868 0 0 0 8.723 3.5c8.559-1.006 10.3-.127 11.152 2.364a4.9 4.9 0 0 0 2.121 3v5.345a12.385 12.385 0 0 1-16.219 11.77 12.3 12.3 0 0 1-3.406-1.737 1.025 1.025 0 0 0-1.2 1.661 14.388 14.388 0 0 0 3.323 1.8v1.912a2.042 2.042 0 0 0-1.731.62 2.618 2.618 0 0 0-.246 2.278l.054.3H8.36A7.87 7.87 0 0 0 .5 55.439v10.8A3.764 3.764 0 0 0 4.26 70h22.169a1.025 1.025 0 1 0 0-2.051H11.3v-7.314a1.025 1.025 0 1 0-2.051 0v7.314h-4.99A1.711 1.711 0 0 1 2.55 66.24v-10.8a5.817 5.817 0 0 1 5.811-5.811h6.622l-.054.3a2.617 2.617 0 0 0 .246 2.278 1.946 1.946 0 0 0 1.58.624 8.967 8.967 0 0 0 5.278-2.128 8.967 8.967 0 0 0 5.278 2.128 1.946 1.946 0 0 0 1.58-.624 2.618 2.618 0 0 0 .246-2.278l-.054-.3h6.622a5.817 5.817 0 0 1 5.811 5.811v10.8a1.711 1.711 0 0 1-1.709 1.709h-4.99v-7.314a1.025 1.025 0 1 0-2.051 0v7.314h-1.972a1.025 1.025 0 1 0 0 2.051h9.013a3.764 3.764 0 0 0 3.76-3.76v-10.8a7.87 7.87 0 0 0-7.861-7.861l-.001-.001Zm-32.2-22.821c0-1.668.505-3.436 1.871-3.858a5.547 5.547 0 0 0 2.23 2.768v5.108c-.429.402-.991.63-1.579.643-1.576 0-2.519-2.37-2.519-4.661h-.003Zm37.051 0c0 2.291-.944 4.661-2.522 4.661a2.38 2.38 0 0 1-1.579-.643V23.6a5.784 5.784 0 0 0 2.1-2.734c1.466.346 2.004 2.171 2.004 3.891h-.003Zm-21.6 18.321c2.027.44 4.125.44 6.152 0v1.716a8.257 8.257 0 0 0-3.076 1.714 8.255 8.255 0 0 0-3.076-1.714v-1.716Zm-2.093 7.7c.152-.715.245-1.442.277-2.172a13.288 13.288 0 0 0-.277-2.172c1.549.061 4.143 1.392 4.143 2.172 0 .78-2.577 2.108-4.142 2.169l-.001.003Zm6.194-2.172c0-.785 2.6-2.111 4.143-2.172a13.266 13.266 0 0 0-.277 2.172c.032.73.125 1.457.277 2.172-1.563-.064-4.141-1.4-4.141-2.178l-.002.006Z" fill="#8BBD3F"/><path d="M18.82 58.379a3.214 3.214 0 1 0 6.427 0 3.214 3.214 0 0 0-6.427 0Zm4.375 0a1.162 1.162 0 1 1-2.323 0 1.162 1.162 0 0 1 2.323 0ZM21.53 28.736h1.005a5.882 5.882 0 1 0 0-2.051H21.53a5.882 5.882 0 1 0 0 2.05Zm6.8-4.857a3.831 3.831 0 1 1 .003 7.663 3.831 3.831 0 0 1-.006-7.663h.002ZM11.91 27.71a3.832 3.832 0 1 1 7.667.001 3.832 3.832 0 0 1-7.67-.002h.002Z" fill="#8BBD3F"/></svg>