<svg width="44" height="71" fill="none" xmlns="http://www.w3.org/2000/svg"><path d="M39.435.055a70.688 70.688 0 0 1-7.986.9 3.407 3.407 0 0 0-2.894-.9 70.073 70.073 0 0 1-24.02 0 3.426 3.426 0 0 0-3.42 5.33c1.131 1.6 2.628 1.463 5.7 1.854v18.329a1.03 1.03 0 0 0 1.034 1.026 1.032 1.032 0 0 0 1.036-1.026v-3.9h15.319c-.081 12.926.226 11.815-.386 13.763-2.652 8.416-14.934 6.225-14.934-2.244v-2.1a1.03 1.03 0 0 0-1.036-1.025 1.03 1.03 0 0 0-1.033 1.02v2.1a9.651 9.651 0 0 0 6.934 9.239v21.678h-.007a1.035 1.035 0 0 0-.979.692l-1.338 3.85a1.028 1.028 0 0 0 .979 1.363h8.28a1.028 1.028 0 0 0 .979-1.36l-1.338-3.853a1.035 1.035 0 0 0-.978-.692h-.008V42.42a9.833 9.833 0 0 0 2.645-1.252 9.854 9.854 0 0 0 2.646 1.252v21.678h-.008a1.035 1.035 0 0 0-.979.692l-1.338 3.85a1.026 1.026 0 0 0 .979 1.363h8.28a1.028 1.028 0 0 0 .979-1.36l-1.338-3.85a1.045 1.045 0 0 0-.987-.691v-10.6a1.036 1.036 0 1 0-2.071 0v10.6H26.7v-21.3h1.448v5.739a1.036 1.036 0 0 0 2.071 0V42.42a9.651 9.651 0 0 0 6.935-9.234V7.237c3.019-.383 4.564-.25 5.7-1.852a3.426 3.426 0 0 0-3.42-5.33h.001ZM13.855 67.95l.626-1.8h4.127l.625 1.8h-5.378Zm3.413-25.152v21.3h-1.453v-21.3c.032.006 1.425.006 1.453 0Zm12.221 23.35.625 1.8h-5.379l.625-1.8h4.129Zm5.6-46.526h-8.814v-3.418h8.81l.004 3.418ZM2.589 3.185a1.375 1.375 0 0 1 1.345-1.131 72.954 72.954 0 0 0 24.981.02 1.367 1.367 0 1 1 .477 2.694 97.768 97.768 0 0 1-12.848 1.109A89.158 89.158 0 0 1 3.7 4.769a1.367 1.367 0 0 1-1.12-1.583l.009-.001Zm19.32 4.544c.765.055 1.528.05 2.295.083v6.34H8.884V7.545c4.329.425 8.686.487 13.025.185ZM8.884 16.204h15.32v3.419H8.884v-3.42Zm14.755 23.579a10.125 10.125 0 0 0 2.635-6.6V21.672h8.81v11.515a7.675 7.675 0 0 1-11.445 6.6v-.004Zm11.445-32.24v6.61h-8.809V7.919a85.581 85.581 0 0 0 8.81-.375h-.001Zm5.184-2.776c-2.813.439-5.648.726-8.492.859.36-.41.611-.902.731-1.433a3.5 3.5 0 0 0 .021-.427c.046-.267.06-.538.04-.808a72.65 72.65 0 0 0 7.223-.884 1.381 1.381 0 0 1 1.6 1.11 1.367 1.367 0 0 1-1.122 1.583h-.001Z" fill="#8BBD3F"/></svg>