<svg width="79" height="70" fill="none" xmlns="http://www.w3.org/2000/svg"><path d="M72.949 15.6H59.235V7.96A8.027 8.027 0 0 0 51.161 0H27.779a8.027 8.027 0 0 0-8.073 7.96v7.64H5.991A5.459 5.459 0 0 0 .5 21.014v43.572A5.46 5.46 0 0 0 5.991 70h66.958a5.458 5.458 0 0 0 5.491-5.414V21.014a5.459 5.459 0 0 0-5.491-5.414Zm-50.96-7.64a5.756 5.756 0 0 1 5.79-5.709h23.382a5.756 5.756 0 0 1 5.79 5.71v7.64H54.16V7.96a2.982 2.982 0 0 0-3-2.958H27.779a2.982 2.982 0 0 0-3 2.957v7.64h-2.79V7.96Zm5.075 7.64V7.96a.712.712 0 0 1 .715-.706h23.382a.712.712 0 0 1 .715.706v7.64H27.064Zm45.885 52.15H5.991a3.19 3.19 0 0 1-3.208-3.163V33.953h4.694a1.127 1.127 0 1 0 0-2.25H2.783v-2.558h4.694a1.127 1.127 0 1 0 0-2.25H2.783v-5.88a3.19 3.19 0 0 1 3.208-3.163h66.958a3.19 3.19 0 0 1 3.208 3.162v5.88h-4.694a1.125 1.125 0 1 0 0 2.25h4.694V31.7h-4.694a1.127 1.127 0 1 0 0 2.251h4.694v30.635a3.189 3.189 0 0 1-3.208 3.163Z" fill="#8BBD3F"/><path d="M17.308 22.932h-3.51a2.894 2.894 0 0 0-2.892 2.89v9.238a2.895 2.895 0 0 0 2.891 2.89h3.511a2.892 2.892 0 0 0 2.89-2.89v-9.238a2.892 2.892 0 0 0-2.89-2.89Zm.607 12.128a.607.607 0 0 1-.607.607h-3.51a.608.608 0 0 1-.608-.607v-9.238a.608.608 0 0 1 .607-.607h3.511a.608.608 0 0 1 .607.607v9.238ZM65.142 22.932h-3.506a2.893 2.893 0 0 0-2.89 2.89v9.238a2.893 2.893 0 0 0 2.89 2.89h3.511a2.893 2.893 0 0 0 2.891-2.89v-9.238a2.894 2.894 0 0 0-2.896-2.89Zm.607 12.128a.608.608 0 0 1-.607.607h-3.506a.608.608 0 0 1-.607-.607v-9.238a.608.608 0 0 1 .607-.607h3.511a.608.608 0 0 1 .607.607l-.005 9.238ZM55.316 26.881H23.628a1.142 1.142 0 0 0 0 2.283h31.688a1.143 1.143 0 1 0 0-2.283ZM55.316 31.686H23.628a1.142 1.142 0 0 0 0 2.283h31.688a1.14 1.14 0 0 0 .447-2.206 1.143 1.143 0 0 0-.447-.077ZM49.82 46.11h-6.071v-6.07a2.451 2.451 0 0 0-2.448-2.448h-3.658a2.451 2.451 0 0 0-2.448 2.448v6.07h-6.071a2.45 2.45 0 0 0-2.448 2.449v3.658a2.45 2.45 0 0 0 2.448 2.448h6.07v6.07a2.45 2.45 0 0 0 2.449 2.449H41.3a2.451 2.451 0 0 0 2.448-2.448v-6.071h6.07a2.451 2.451 0 0 0 2.449-2.448v-3.658a2.45 2.45 0 0 0-2.448-2.448Zm.164 6.107a.165.165 0 0 1-.164.165h-7.213a1.14 1.14 0 0 0-1.142 1.142v7.213a.165.165 0 0 1-.165.164h-3.658a.165.165 0 0 1-.165-.164v-7.213a1.143 1.143 0 0 0-1.143-1.14H29.12a.165.165 0 0 1-.164-.165V48.56a.165.165 0 0 1 .164-.165h7.213a1.14 1.14 0 0 0 1.142-1.142V40.04a.164.164 0 0 1 .165-.164h3.658a.165.165 0 0 1 .165.164v7.213a1.14 1.14 0 0 0 1.142 1.142h7.213a.165.165 0 0 1 .164.165v3.656Z" fill="#8BBD3F"/></svg>