<svg width="60" height="70" fill="none" xmlns="http://www.w3.org/2000/svg"><path d="M11.933 4.303a1.023 1.023 0 0 0-1.023 1.023v2.477a1.024 1.024 0 1 0 2.047 0V5.327a1.024 1.024 0 0 0-1.024-1.024ZM18.203 4.303a1.023 1.023 0 0 0-1.023 1.023v2.477a1.023 1.023 0 1 0 2.047 0V5.327a1.024 1.024 0 0 0-1.024-1.024ZM24.472 4.303a1.024 1.024 0 0 0-1.023 1.023v2.477a1.023 1.023 0 1 0 2.047 0V5.327a1.024 1.024 0 0 0-1.024-1.024ZM30.738 4.303a1.023 1.023 0 0 0-1.023 1.023v2.477a1.024 1.024 0 0 0 2.047 0V5.327a1.022 1.022 0 0 0-1.024-1.024ZM37.007 4.303a1.023 1.023 0 0 0-1.023 1.023v2.477a1.024 1.024 0 1 0 2.047 0V5.327a1.024 1.024 0 0 0-1.024-1.024Z" fill="#8BBD3F"/><path d="M57.039 37.775a8.855 8.855 0 0 0-6.263-2.563c-.789 0-1.574.103-2.336.308V24.738a5.932 5.932 0 0 0-2.933-5.09l-6.1-3.576v-3.1h1.747a3.135 3.135 0 0 0 3.153-3.112V3.112A3.135 3.135 0 0 0 41.158 0H7.786a3.135 3.135 0 0 0-3.151 3.112V9.86a3.135 3.135 0 0 0 3.151 3.112h1.747v3.1l-6.1 3.576A5.933 5.933 0 0 0 .5 24.738v39.831A5.471 5.471 0 0 0 6.002 70h36.94a5.47 5.47 0 0 0 5.5-5.431v-5.925l8.6-8.494a8.686 8.686 0 0 0-.003-12.375ZM7.786 10.951a1.1 1.1 0 0 1-1.1-1.09V3.112a1.1 1.1 0 0 1 1.1-1.091h33.372a1.1 1.1 0 0 1 1.1 1.091V9.86a1.1 1.1 0 0 1-1.1 1.09l-33.372.001Zm29.578 2.022v2.665H11.58v-2.666l25.784.001ZM6.002 67.978a3.434 3.434 0 0 1-3.451-3.409v-7.9h17.182a3.827 3.827 0 0 0 3.846-3.8V33.115a3.827 3.827 0 0 0-3.846-3.8h-8.81a1.011 1.011 0 0 0 0 2.022h8.81a1.79 1.79 0 0 1 1.8 1.777v19.752a1.79 1.79 0 0 1-1.8 1.777H2.551V31.337h3.6a1.011 1.011 0 1 0 0-2.022h-3.6v-4.577a3.906 3.906 0 0 1 1.931-3.352l6.356-3.728h27.269l6.356 3.728a3.907 3.907 0 0 1 1.931 3.352v11.618a8.892 8.892 0 0 0-1.881 1.418L27.007 55.063a8.685 8.685 0 0 0 .6 12.915H6.002Zm40.392-3.409a3.434 3.434 0 0 1-3.451 3.409h-4c.207-.171.408-.35.6-.541l6.855-6.772-.004 3.904Zm9.2-15.849-8.027 7.927-4.741-4.684a1.033 1.033 0 0 0-1.67.327 1 1 0 0 0 .223 1.103l4.741 4.684-8.028 7.931a6.87 6.87 0 0 1-9.632 0 6.676 6.676 0 0 1 0-9.515l8.028-7.931 1.445 1.428a1.032 1.032 0 0 0 1.67-.327 1 1 0 0 0-.223-1.103l-1.445-1.428L45.96 39.2a6.817 6.817 0 0 1 1.947-1.346 6.887 6.887 0 0 1 7.685 1.346 6.679 6.679 0 0 1 0 9.52h.002Z" fill="#8BBD3F"/></svg>