<svg width="38" height="38" fill="none" xmlns="http://www.w3.org/2000/svg"><path fill-rule="evenodd" clip-rule="evenodd" d="M19.001.666C8.876.666.668 8.874.668 18.999c0 10.125 8.208 18.334 18.333 18.334 10.125 0 18.334-8.209 18.334-18.334S29.126.666 19 .666Zm-.833 8.333a1.666 1.666 0 1 0 0 3.334h.833a1.667 1.667 0 0 0 0-3.334h-.833Zm-2.5 6.667a1.666 1.666 0 1 0 0 3.333h1.667v5h-1.667a1.666 1.666 0 1 0 0 3.334h6.667a1.666 1.666 0 1 0 0-3.334h-1.667v-6.666a1.666 1.666 0 0 0-1.667-1.667h-3.333Z" fill="#707070"/></svg>