<svg width="56" height="33" fill="none" xmlns="http://www.w3.org/2000/svg"><path d="m32.472 11.793-9.918-1.441-4.434-8.989A1.243 1.243 0 0 0 16.6.735a1.255 1.255 0 0 0-.722.628l-4.434 8.989-9.918 1.441a1.247 1.247 0 0 0-.69 2.133l7.175 6.996L6.316 30.8a1.248 1.248 0 0 0 1.812 1.316L17 27.453l8.871 4.664a1.248 1.248 0 0 0 1.813-1.316l-1.696-9.88 7.176-6.995a1.254 1.254 0 0 0-.23-1.97 1.246 1.246 0 0 0-.461-.163h-.001Zm-9.504 8.145 1.41 8.214L17 24.277l-7.379 3.88 1.41-8.216-5.968-5.82 8.25-1.2L17 5.449l3.688 7.473 8.25 1.2-5.97 5.816Z" fill="#E4E4E4"/></svg>