<svg width="40" height="40" fill="none" xmlns="http://www.w3.org/2000/svg"><path d="M14.375 28.281H9.844V23.75a.313.313 0 0 0-.313-.313H7.656a.313.313 0 0 0-.312.313v4.531H2.812a.313.313 0 0 0-.312.313v1.875c0 .172.14.312.313.312h4.53v4.532c0 .171.141.312.313.312h1.875c.172 0 .313-.14.313-.313v-4.53h4.531c.172 0 .313-.141.313-.313v-1.875a.313.313 0 0 0-.313-.313Z" fill="#8BBD3F"/><path d="m35.625 11.809-5 2.879V8.75c0-1.379-1.121-2.5-2.5-2.5H5a2.502 2.502 0 0 0-2.5 2.5V22.5h2.813V9.062h22.5v21.876H17.5v2.812h10.625c1.379 0 2.5-1.121 2.5-2.5v-5.938l5 2.88c.832.48 1.875-.122 1.875-1.079V12.891a1.25 1.25 0 0 0-1.875-1.082Zm-.938 12.605-4.062-2.336v-4.152l4.063-2.34v8.828Z" fill="#8BBD3F"/><path d="M12.5 14.063c.172 0 .313-.141.313-.313v-1.875a.313.313 0 0 0-.313-.313H8.125a.313.313 0 0 0-.313.313v1.875c0 .172.141.313.313.313H12.5Z" fill="#8BBD3F"/></svg>