<svg width="30" height="30" viewBox="0 0 30 30" fill="none" xmlns="http://www.w3.org/2000/svg">
<path fill-rule="evenodd" clip-rule="evenodd" d="M15 1.87431C14.2613 1.87431 13.5299 2.0198 12.8474 2.30248C12.1649 2.58517 11.5449 2.9995 11.0225 3.52183C10.5002 4.04416 10.0859 4.66425 9.80318 5.34671C9.52049 6.02917 9.375 6.76062 9.375 7.49931C9.375 8.23799 9.52049 8.96944 9.80318 9.6519C10.0859 10.3344 10.5002 10.9545 11.0225 11.4768C11.5449 11.9991 12.1649 12.4134 12.8474 12.6961C13.5299 12.9788 14.2613 13.1243 15 13.1243C16.4918 13.1243 17.9226 12.5317 18.9775 11.4768C20.0324 10.4219 20.625 8.99115 20.625 7.49931C20.625 6.00746 20.0324 4.57672 18.9775 3.52183C17.9226 2.46694 16.4918 1.87431 15 1.87431ZM7.5 7.49931C7.50013 6.05598 7.91673 4.64335 8.6998 3.43091C9.48287 2.21848 10.5992 1.25775 11.9147 0.664005C13.2302 0.0702578 14.6892 -0.131285 16.1164 0.0835613C17.5437 0.298407 18.8786 0.920515 19.961 1.87524C21.0435 2.82996 21.8275 4.07674 22.2189 5.46597C22.6103 6.8552 22.5926 8.32788 22.1678 9.70728C21.7431 11.0867 20.9293 12.3142 19.8242 13.2426C18.719 14.171 17.3695 14.7608 15.9375 14.9412V25.3118C15.9375 25.5604 15.8387 25.7989 15.6629 25.9747C15.4871 26.1505 15.2486 26.2493 15 26.2493C14.7514 26.2493 14.5129 26.1505 14.3371 25.9747C14.1613 25.7989 14.0625 25.5604 14.0625 25.3118V14.9431C12.2493 14.7146 10.5819 13.832 9.37353 12.461C8.16514 11.09 7.49892 9.32495 7.5 7.49743V7.49931ZM12.1744 23.5756C12.215 23.8207 12.1567 24.072 12.0122 24.2741C11.8677 24.4763 11.6489 24.6128 11.4037 24.6537C10.0687 24.8749 9.00375 25.2068 8.30063 25.5781C8.04233 25.7022 7.80759 25.8704 7.60688 26.0749C7.5615 26.1244 7.52531 26.1815 7.5 26.2437V26.2493L7.50375 26.2643C7.51113 26.2861 7.52121 26.3069 7.53375 26.3262C7.60775 26.4347 7.69969 26.5298 7.80563 26.6074C8.115 26.8512 8.62125 27.1137 9.33 27.3481C10.7381 27.8168 12.7425 28.1243 15 28.1243C17.2575 28.1243 19.2619 27.8187 20.67 27.3481C21.3787 27.1118 21.885 26.8512 22.1944 26.6074C22.3009 26.5299 22.3935 26.4348 22.4681 26.3262C22.48 26.3068 22.4894 26.286 22.4963 26.2643L22.5 26.2493V26.2418C22.4747 26.1796 22.4385 26.1225 22.3931 26.0731C22.1923 25.8691 21.9575 25.7016 21.6994 25.5781C20.9944 25.2068 19.9313 24.8749 18.5963 24.6537C18.4719 24.6368 18.3522 24.5952 18.2442 24.5312C18.1363 24.4672 18.0422 24.3822 17.9677 24.2813C17.8932 24.1803 17.8398 24.0654 17.8105 23.9433C17.7812 23.8213 17.7767 23.6946 17.7973 23.5709C17.8179 23.4471 17.8632 23.3287 17.9304 23.2227C17.9976 23.1167 18.0853 23.0253 18.1885 22.9538C18.2917 22.8824 18.4082 22.8324 18.531 22.8069C18.6539 22.7813 18.7806 22.7806 18.9037 22.8049C20.3475 23.0431 21.6262 23.4199 22.5731 23.9187C23.4375 24.3743 24.375 25.1243 24.375 26.2493C24.375 27.0481 23.8875 27.6593 23.355 28.0812C22.8113 28.5087 22.08 28.8556 21.2625 29.1274C19.6163 29.6768 17.4019 29.9993 15 29.9993C12.5981 29.9993 10.3837 29.6768 8.7375 29.1274C7.92 28.8556 7.18875 28.5087 6.645 28.0812C6.1125 27.6593 5.625 27.0481 5.625 26.2493C5.625 25.1262 6.5625 24.3743 7.42687 23.9187C8.37375 23.4199 9.6525 23.0431 11.0963 22.8049C11.3414 22.7643 11.5927 22.8226 11.7948 22.9671C11.997 23.1116 12.1335 23.3305 12.1744 23.5756Z" fill="black"/>
</svg>
