<svg width="30" height="30" viewBox="0 0 30 30" fill="none" xmlns="http://www.w3.org/2000/svg">
<path fill-rule="evenodd" clip-rule="evenodd" d="M9.375 21.5625C9.375 21.3139 9.47377 21.0754 9.64959 20.8996C9.8254 20.7238 10.0639 20.625 10.3125 20.625H27.1875C27.4361 20.625 27.6746 20.7238 27.8504 20.8996C28.0262 21.0754 28.125 21.3139 28.125 21.5625C28.125 21.8111 28.0262 22.0496 27.8504 22.2254C27.6746 22.4012 27.4361 22.5 27.1875 22.5H10.3125C10.0639 22.5 9.8254 22.4012 9.64959 22.2254C9.47377 22.0496 9.375 21.8111 9.375 21.5625ZM9.375 14.0625C9.375 13.8139 9.47377 13.5754 9.64959 13.3996C9.8254 13.2238 10.0639 13.125 10.3125 13.125H27.1875C27.4361 13.125 27.6746 13.2238 27.8504 13.3996C28.0262 13.5754 28.125 13.8139 28.125 14.0625C28.125 14.3111 28.0262 14.5496 27.8504 14.7254C27.6746 14.9012 27.4361 15 27.1875 15H10.3125C10.0639 15 9.8254 14.9012 9.64959 14.7254C9.47377 14.5496 9.375 14.3111 9.375 14.0625ZM9.375 6.5625C9.375 6.31386 9.47377 6.0754 9.64959 5.89959C9.8254 5.72377 10.0639 5.625 10.3125 5.625H27.1875C27.4361 5.625 27.6746 5.72377 27.8504 5.89959C28.0262 6.0754 28.125 6.31386 28.125 6.5625C28.125 6.81114 28.0262 7.0496 27.8504 7.22541C27.6746 7.40123 27.4361 7.5 27.1875 7.5H10.3125C10.0639 7.5 9.8254 7.40123 9.64959 7.22541C9.47377 7.0496 9.375 6.81114 9.375 6.5625ZM3.75 8.4375C4.24728 8.4375 4.72419 8.23996 5.07583 7.88832C5.42746 7.53669 5.625 7.05978 5.625 6.5625C5.625 6.06522 5.42746 5.58831 5.07583 5.23667C4.72419 4.88504 4.24728 4.6875 3.75 4.6875C3.25272 4.6875 2.77581 4.88504 2.42417 5.23667C2.07254 5.58831 1.875 6.06522 1.875 6.5625C1.875 7.05978 2.07254 7.53669 2.42417 7.88832C2.77581 8.23996 3.25272 8.4375 3.75 8.4375ZM3.75 15.9375C4.24728 15.9375 4.72419 15.74 5.07583 15.3883C5.42746 15.0367 5.625 14.5598 5.625 14.0625C5.625 13.5652 5.42746 13.0883 5.07583 12.7367C4.72419 12.385 4.24728 12.1875 3.75 12.1875C3.25272 12.1875 2.77581 12.385 2.42417 12.7367C2.07254 13.0883 1.875 13.5652 1.875 14.0625C1.875 14.5598 2.07254 15.0367 2.42417 15.3883C2.77581 15.74 3.25272 15.9375 3.75 15.9375ZM3.75 23.4375C4.24728 23.4375 4.72419 23.24 5.07583 22.8883C5.42746 22.5367 5.625 22.0598 5.625 21.5625C5.625 21.0652 5.42746 20.5883 5.07583 20.2367C4.72419 19.885 4.24728 19.6875 3.75 19.6875C3.25272 19.6875 2.77581 19.885 2.42417 20.2367C2.07254 20.5883 1.875 21.0652 1.875 21.5625C1.875 22.0598 2.07254 22.5367 2.42417 22.8883C2.77581 23.24 3.25272 23.4375 3.75 23.4375Z" fill="black"/>
</svg>
