<svg width="24" height="24" viewBox="0 0 24 24" fill="none" xmlns="http://www.w3.org/2000/svg">
<g clip-path="url(#clip0_948_17284)">
<path d="M13.5 18H4V6.00001H20C20 7.00001 20 8.50001 20 10C21 10 22 11.2 22 12V6.00001C22 5.46958 21.7893 4.96087 21.4142 4.5858C21.0391 4.21073 20.5304 4.00001 20 4.00001H19H18V2.00001C18 2.00001 18 1.00001 17.5 0.500012C17 1.23382e-05 16.5 2.47471e-05 16 1.23735e-05C15.5 0 4 4.00001 4 4.00001C3.46957 4.00001 2.96086 4.21073 2.58579 4.5858C2.21071 4.96087 2 5.46958 2 6.00001V18C2 18.5304 2.21071 19.0392 2.58579 19.4142C2.96086 19.7893 3.46957 20 4 20H14.6C14.2 19.4 13.8 18.7 13.5 18ZM18.5 12C16.6 12 15 13.6 15 15.5C15 18.1 18.5 22 18.5 22C18.5 22 22 18.1 22 15.5C22 13.6 20.4 12 18.5 12ZM18.5 16.8C17.8 16.8 17.3 16.2 17.3 15.6C17.3 14.9 17.9 14.4 18.5 14.4C19.1 14.4 19.7 15 19.7 15.6C19.8 16.2 19.2 16.8 18.5 16.8Z" fill="black"/>
<path d="M10 4L16 2V4H10Z" fill="white"/>
</g>
<defs>
<clipPath id="clip0_948_17284">
<rect width="24" height="24" fill="white"/>
</clipPath>
</defs>
</svg>
