<svg width="20" height="20" viewBox="0 0 20 20" fill="none" xmlns="http://www.w3.org/2000/svg">
<path fill-rule="evenodd" clip-rule="evenodd" d="M10 1.24954C9.50754 1.24954 9.01991 1.34653 8.56494 1.53499C8.10997 1.72344 7.69657 1.99967 7.34835 2.34789C7.00013 2.69611 6.72391 3.1095 6.53545 3.56447C6.347 4.01944 6.25 4.50708 6.25 4.99954C6.25 5.49199 6.347 5.97963 6.53545 6.4346C6.72391 6.88957 7.00013 7.30297 7.34835 7.65119C7.69657 7.99941 8.10997 8.27563 8.56494 8.46408C9.01991 8.65254 9.50754 8.74954 10 8.74954C10.9946 8.74954 11.9484 8.35445 12.6517 7.65119C13.3549 6.94793 13.75 5.9941 13.75 4.99954C13.75 4.00497 13.3549 3.05115 12.6517 2.34789C11.9484 1.64462 10.9946 1.24954 10 1.24954ZM5 4.99954C5.00009 4.03732 5.27782 3.09556 5.79987 2.28728C6.32191 1.47899 7.0661 0.838501 7.94313 0.44267C8.82016 0.0468386 9.79278 -0.087523 10.7443 0.0557075C11.6958 0.198938 12.5857 0.613676 13.3074 1.25016C14.029 1.88664 14.5517 2.71782 14.8126 3.64398C15.0736 4.57013 15.0617 5.55192 14.7786 6.47152C14.4954 7.39112 13.9529 8.20948 13.2161 8.8284C12.4794 9.44732 11.5797 9.84051 10.625 9.96079V16.8745C10.625 17.0403 10.5592 17.1993 10.4419 17.3165C10.3247 17.4337 10.1658 17.4995 10 17.4995C9.83424 17.4995 9.67527 17.4337 9.55806 17.3165C9.44085 17.1993 9.375 17.0403 9.375 16.8745V9.96204C8.16621 9.80974 7.05461 9.22133 6.24902 8.30733C5.44343 7.39333 4.99928 6.21664 5 4.99829V4.99954ZM8.11625 15.717C8.14336 15.8805 8.10447 16.048 8.00814 16.1827C7.9118 16.3175 7.7659 16.4085 7.6025 16.4358C6.7125 16.5833 6.0025 16.8045 5.53375 17.052C5.36155 17.1348 5.20506 17.2469 5.07125 17.3833C5.041 17.4163 5.01687 17.4543 5 17.4958V17.4995L5.0025 17.5095C5.00742 17.5241 5.01414 17.5379 5.0225 17.5508C5.07184 17.6231 5.13313 17.6865 5.20375 17.7383C5.41 17.9008 5.7475 18.0758 6.22 18.232C7.15875 18.5445 8.495 18.7495 10 18.7495C11.505 18.7495 12.8413 18.5458 13.78 18.232C14.2525 18.0745 14.59 17.9008 14.7962 17.7383C14.8673 17.6866 14.929 17.6232 14.9788 17.5508C14.9867 17.5379 14.993 17.524 14.9975 17.5095L15 17.4995V17.4945C14.9831 17.4531 14.959 17.415 14.9288 17.382C14.7949 17.2461 14.6384 17.1344 14.4662 17.052C13.9963 16.8045 13.2875 16.5833 12.3975 16.4358C12.3146 16.4246 12.2348 16.3968 12.1628 16.3541C12.0908 16.3115 12.0282 16.2548 11.9785 16.1875C11.9288 16.1202 11.8932 16.0436 11.8737 15.9622C11.8541 15.8809 11.8512 15.7964 11.8649 15.7139C11.8786 15.6314 11.9088 15.5524 11.9536 15.4818C11.9984 15.4111 12.0569 15.3502 12.1257 15.3026C12.1945 15.2549 12.2721 15.2216 12.354 15.2046C12.4359 15.1875 12.5204 15.1871 12.6025 15.2033C13.565 15.362 14.4175 15.6133 15.0487 15.9458C15.625 16.2495 16.25 16.7495 16.25 17.4995C16.25 18.032 15.925 18.4395 15.57 18.7208C15.2075 19.0058 14.72 19.237 14.175 19.4183C13.0775 19.7845 11.6013 19.9995 10 19.9995C8.39875 19.9995 6.9225 19.7845 5.825 19.4183C5.28 19.237 4.7925 19.0058 4.43 18.7208C4.075 18.4395 3.75 18.032 3.75 17.4995C3.75 16.7508 4.375 16.2495 4.95125 15.9458C5.5825 15.6133 6.435 15.362 7.3975 15.2033C7.56093 15.1762 7.72844 15.2151 7.86321 15.3114C7.99798 15.4077 8.08899 15.5536 8.11625 15.717Z" fill="black"/>
</svg>
