<svg width="18" height="20" viewBox="0 0 18 20" fill="none" xmlns="http://www.w3.org/2000/svg">
<path fill-rule="evenodd" clip-rule="evenodd" d="M8.9998 0C9.26502 0 9.51937 0.105357 9.70691 0.292893C9.89445 0.48043 9.9998 0.734784 9.9998 1V1.962L10.6538 1.616C10.8883 1.49201 11.1624 1.46624 11.4158 1.54435C11.6693 1.62245 11.8813 1.79805 12.0053 2.0325C12.1293 2.26695 12.1551 2.54105 12.077 2.79451C11.9989 3.04797 11.8233 3.26001 11.5888 3.384L9.9998 4.224V6.126C10.7148 6.31 11.3518 6.686 11.8538 7.197L13.5018 6.246L13.4348 4.45C13.4249 4.18492 13.5206 3.92674 13.701 3.73226C13.8814 3.53779 14.1317 3.42295 14.3968 3.413C14.6619 3.40305 14.9201 3.49882 15.1145 3.67923C15.309 3.85964 15.4239 4.10992 15.4338 4.375L15.4608 5.115L16.2938 4.634C16.4076 4.5673 16.5334 4.52377 16.6641 4.5059C16.7947 4.48804 16.9277 4.49619 17.0552 4.5299C17.1826 4.56361 17.3022 4.62221 17.407 4.70231C17.5117 4.78242 17.5996 4.88246 17.6656 4.99667C17.7315 5.11088 17.7742 5.23701 17.7912 5.36779C17.8082 5.49857 17.7992 5.63142 17.7646 5.75869C17.7301 5.88597 17.6707 6.00515 17.5899 6.10937C17.5091 6.2136 17.4085 6.30082 17.2938 6.366L16.4608 6.846L17.0878 7.24C17.199 7.30986 17.2954 7.40095 17.3714 7.50806C17.4475 7.61517 17.5017 7.73621 17.5309 7.86426C17.5602 7.99231 17.5639 8.12487 17.5419 8.25437C17.5199 8.38387 17.4727 8.50777 17.4028 8.619C17.3329 8.73023 17.2419 8.82661 17.1347 8.90264C17.0276 8.97866 16.9066 9.03285 16.7785 9.0621C16.6505 9.09135 16.5179 9.09509 16.3884 9.07311C16.2589 9.05113 16.135 9.00386 16.0238 8.934L14.5018 7.978L12.8548 8.928C13.0497 9.62904 13.0497 10.37 12.8548 11.071L14.5018 12.022L16.0238 11.066C16.2484 10.9249 16.5199 10.8788 16.7785 10.9379C17.0372 10.997 17.2617 11.1564 17.4028 11.381C17.5439 11.6056 17.59 11.8771 17.5309 12.1357C17.4718 12.3944 17.3124 12.6189 17.0878 12.76L16.4608 13.153L17.2938 13.634C17.4085 13.6992 17.5091 13.7864 17.5899 13.8906C17.6707 13.9949 17.7301 14.114 17.7646 14.2413C17.7992 14.3686 17.8082 14.5014 17.7912 14.6322C17.7742 14.763 17.7315 14.8891 17.6656 15.0033C17.5996 15.1175 17.5117 15.2176 17.407 15.2977C17.3022 15.3778 17.1826 15.4364 17.0552 15.4701C16.9277 15.5038 16.7947 15.512 16.6641 15.4941C16.5334 15.4762 16.4076 15.4327 16.2938 15.366L15.4618 14.886L15.4338 15.625C15.4239 15.8901 15.309 16.1404 15.1145 16.3208C14.9201 16.5012 14.6619 16.5969 14.3968 16.587C14.1317 16.5771 13.8814 16.4622 13.701 16.2677C13.5206 16.0733 13.4249 15.8151 13.4348 15.55L13.5018 13.754L11.8538 12.803C11.3518 13.313 10.7138 13.69 9.9998 13.874V15.776L11.5888 16.616C11.8233 16.74 11.9989 16.952 12.077 17.2055C12.1551 17.4589 12.1293 17.733 12.0053 17.9675C11.8813 18.202 11.6693 18.3775 11.4158 18.4557C11.1624 18.5338 10.8883 18.508 10.6538 18.384L9.9998 18.038V19C9.9998 19.2652 9.89445 19.5196 9.70691 19.7071C9.51937 19.8946 9.26502 20 8.9998 20C8.73459 20 8.48023 19.8946 8.2927 19.7071C8.10516 19.5196 7.9998 19.2652 7.9998 19V18.038L7.3458 18.384C7.22972 18.4454 7.10267 18.4833 6.97193 18.4956C6.84118 18.5079 6.70929 18.4943 6.5838 18.4557C6.4583 18.417 6.34164 18.354 6.2405 18.2702C6.13936 18.1864 6.0557 18.0836 5.99431 17.9675C5.93291 17.8514 5.89499 17.7244 5.88269 17.5936C5.8704 17.4629 5.88397 17.331 5.92265 17.2055C5.96133 17.08 6.02434 16.9633 6.1081 16.8622C6.19186 16.761 6.29472 16.6774 6.41081 16.616L7.9998 15.776V13.874C7.29578 13.692 6.65476 13.3214 6.1458 12.802L4.49781 13.754L4.56481 15.55C4.56966 15.6813 4.54862 15.8122 4.50288 15.9353C4.45714 16.0584 4.3876 16.1713 4.29822 16.2676C4.20884 16.3638 4.10139 16.4415 3.98198 16.4963C3.86258 16.551 3.73356 16.5816 3.6023 16.5865C3.47105 16.5914 3.34012 16.5703 3.217 16.5246C3.09387 16.4788 2.98096 16.4093 2.88471 16.3199C2.78847 16.2305 2.71077 16.1231 2.65605 16.0037C2.60133 15.8843 2.57066 15.7553 2.5658 15.624L2.5388 14.885L1.7058 15.365C1.59197 15.4354 1.46515 15.4823 1.33287 15.5028C1.20059 15.5233 1.06554 15.517 0.935722 15.4844C0.805906 15.4517 0.683968 15.3933 0.577136 15.3127C0.470305 15.232 0.380754 15.1307 0.313794 15.0148C0.246833 14.8989 0.203825 14.7707 0.187319 14.6379C0.170813 14.5051 0.181146 14.3703 0.217704 14.2415C0.254262 14.1127 0.316301 13.9926 0.400145 13.8882C0.483988 13.7839 0.587929 13.6974 0.705805 13.634L1.5388 13.153L0.911805 12.759C0.693113 12.6153 0.539477 12.3915 0.483867 12.1358C0.428256 11.8801 0.475102 11.6128 0.614352 11.3912C0.753602 11.1696 0.974158 11.0115 1.22869 10.9507C1.48322 10.8899 1.75145 10.9313 1.9758 11.066L3.4978 12.022L5.14481 11.071C4.95028 10.3702 4.95028 9.62975 5.14481 8.929L3.4978 7.979L1.9758 8.934C1.75145 9.06871 1.48322 9.11011 1.22869 9.04931C0.974158 8.98851 0.753602 8.83036 0.614352 8.60879C0.475102 8.38722 0.428256 8.11989 0.483867 7.86417C0.539477 7.60846 0.693113 7.38473 0.911805 7.241L1.5388 6.847L0.705805 6.367C0.475995 6.23439 0.308276 6.01592 0.239543 5.75965C0.170811 5.50339 0.206696 5.23031 0.339305 5.0005C0.471913 4.77069 0.690382 4.60297 0.94665 4.53424C1.20292 4.46551 1.47599 4.50139 1.7058 4.634L2.5388 5.115L2.5658 4.375C2.57575 4.10992 2.69059 3.85964 2.88507 3.67923C2.98136 3.5899 3.09431 3.52041 3.21746 3.47473C3.34061 3.42905 3.47155 3.40808 3.6028 3.413C3.73406 3.41792 3.86306 3.44865 3.98244 3.50343C4.10182 3.55821 4.20924 3.63597 4.29857 3.73226C4.38791 3.82856 4.45739 3.9415 4.50307 4.06465C4.54875 4.1878 4.56973 4.31874 4.56481 4.45L4.49781 6.246L6.1458 7.198C6.65476 6.67863 7.29578 6.30799 7.9998 6.126V4.224L6.41081 3.384C6.17635 3.26001 6.00076 3.04797 5.92265 2.79451C5.84454 2.54105 5.87032 2.26695 5.99431 2.0325C6.11829 1.79805 6.33034 1.62245 6.5838 1.54435C6.83725 1.46624 7.11135 1.49201 7.3458 1.616L7.9998 1.962V1C7.9998 0.734784 8.10516 0.48043 8.2927 0.292893C8.48023 0.105357 8.73459 0 8.9998 0ZM8.9998 12C9.53024 12 10.0389 11.7893 10.414 11.4142C10.7891 11.0391 10.9998 10.5304 10.9998 10C10.9998 9.46957 10.7891 8.96086 10.414 8.58579C10.0389 8.21071 9.53024 8 8.9998 8C8.46937 8 7.96066 8.21071 7.58559 8.58579C7.21052 8.96086 6.9998 9.46957 6.9998 10C6.9998 10.5304 7.21052 11.0391 7.58559 11.4142C7.96066 11.7893 8.46937 12 8.9998 12Z" fill="white"/>
</svg>
