<svg width="10" height="10" viewBox="0 0 10 10" fill="none" xmlns="http://www.w3.org/2000/svg">
<path d="M5 7.5C5.14167 7.5 5.2605 7.452 5.3565 7.356C5.45217 7.26033 5.5 7.14167 5.5 7V4.9875C5.5 4.84583 5.45217 4.72917 5.3565 4.6375C5.2605 4.54583 5.14167 4.5 5 4.5C4.85833 4.5 4.73967 4.54783 4.644 4.6435C4.548 4.7395 4.5 4.85833 4.5 5V7.0125C4.5 7.15417 4.548 7.27083 4.644 7.3625C4.73967 7.45417 4.85833 7.5 5 7.5ZM5 3.5C5.14167 3.5 5.2605 3.452 5.3565 3.356C5.45217 3.26033 5.5 3.14167 5.5 3C5.5 2.85833 5.45217 2.7395 5.3565 2.6435C5.2605 2.54783 5.14167 2.5 5 2.5C4.85833 2.5 4.73967 2.54783 4.644 2.6435C4.548 2.7395 4.5 2.85833 4.5 3C4.5 3.14167 4.548 3.26033 4.644 3.356C4.73967 3.452 4.85833 3.5 5 3.5ZM5 10C4.30833 10 3.65833 9.86867 3.05 9.606C2.44167 9.34367 1.9125 8.9875 1.4625 8.5375C1.0125 8.0875 0.656333 7.55833 0.394 6.95C0.131333 6.34167 0 5.69167 0 5C0 4.30833 0.131333 3.65833 0.394 3.05C0.656333 2.44167 1.0125 1.9125 1.4625 1.4625C1.9125 1.0125 2.44167 0.656167 3.05 0.3935C3.65833 0.131167 4.30833 0 5 0C5.69167 0 6.34167 0.131167 6.95 0.3935C7.55833 0.656167 8.0875 1.0125 8.5375 1.4625C8.9875 1.9125 9.34367 2.44167 9.606 3.05C9.86867 3.65833 10 4.30833 10 5C10 5.69167 9.86867 6.34167 9.606 6.95C9.34367 7.55833 8.9875 8.0875 8.5375 8.5375C8.0875 8.9875 7.55833 9.34367 6.95 9.606C6.34167 9.86867 5.69167 10 5 10Z" fill="black" fill-opacity="0.3"/>
</svg>
