<svg width="20" height="15" fill="none" xmlns="http://www.w3.org/2000/svg"><path d="M11.227 5.743 1.48 7.993a5.042 5.042 0 0 1 3.89-5.388 5.043 5.043 0 0 1 5.857 3.138Z" fill="#fff"/><path d="M10.693 5.47a4.659 4.659 0 0 0-5.236-2.49 4.658 4.658 0 0 0-3.613 4.534l8.849-2.044Zm1.033.552L1.156 8.462A5.426 5.426 0 0 1 5.284 2.23a5.426 5.426 0 0 1 6.441 3.793Z" fill="#C4C4C4"/><path d="m1.817 9.268 9.715-2.22a4.998 4.998 0 0 1-3.852 5.36l-.011.003a5.057 5.057 0 0 1-5.852-3.143Z" fill="#fff"/><path d="M2.354 9.541a4.672 4.672 0 0 0 5.229 2.496l.01-.003a4.614 4.614 0 0 0 3.578-4.507L2.354 9.54Zm-1.036-.553h.001L11.855 6.58a5.381 5.381 0 0 1-4.1 6.206 5.443 5.443 0 0 1-6.436-3.799Z" fill="#C4C4C4"/><path d="M10.771 8.933a2.1 2.1 0 1 0 0-4.199 2.1 2.1 0 0 0 0 4.2Z" fill="#fff"/><path d="M17.008 9.677 8.616 4.225a5.045 5.045 0 0 1 6.58-.945 5.045 5.045 0 0 1 1.812 6.397Z" fill="#fff"/><path d="M16.831 9.101a4.66 4.66 0 0 0-1.845-5.5 4.66 4.66 0 0 0-5.775.55l7.62 4.95Zm.32 1.127-9.1-5.912a5.429 5.429 0 0 1 7.354-1.36 5.43 5.43 0 0 1 1.747 7.271Z" fill="#C4C4C4"/><path d="m7.924 5.345 8.348 5.45a5 5 0 0 1-6.534.952l-.01-.007a5.06 5.06 0 0 1-1.804-6.395Z" fill="#fff"/><path d="M8.103 5.919a4.675 4.675 0 0 0 1.837 5.497l.01.006a4.616 4.616 0 0 0 5.73-.557L8.103 5.92Zm-.321-1.13 9.054 5.911a5.384 5.384 0 0 1-7.317 1.361A5.445 5.445 0 0 1 7.781 4.79Z" fill="#C4C4C4"/></svg>