<svg width="17" height="18" viewBox="0 0 17 18" fill="none" xmlns="http://www.w3.org/2000/svg">
<path d="M17 13.5L12.641 18L9.58974 14.85L10.8974 13.5L12.641 15.3L15.6923 12.15L17 13.5ZM1.74359 0C1.28116 0 0.837672 0.189642 0.510686 0.527208C0.183699 0.864773 0 1.32261 0 1.8V16.2C0 17.199 0.775897 18 1.74359 18H8.55231C8.23846 17.442 8.02051 16.83 7.9159 16.2H1.74359V1.8H7.84615V6.3H12.2051V9.972C12.4928 9.927 12.7892 9.9 13.0769 9.9C13.3733 9.9 13.661 9.927 13.9487 9.972V5.4L8.71795 0M3.48718 9V10.8H10.4615V9M3.48718 12.6V14.4H7.84615V12.6H3.48718Z" fill="white"/>
</svg>
