<svg width="34" height="31" fill="none" xmlns="http://www.w3.org/2000/svg"><path d="M17.865 28.93a1 1 0 0 1-1.334-.003l-1.538-1.382C7.167 20.54 2 15.92 2 10.25a8.078 8.078 0 0 1 .615-3.17 8.163 8.163 0 0 1 1.81-2.687 8.286 8.286 0 0 1 2.722-1.786A8.371 8.371 0 0 1 10.358 2a9.2 9.2 0 0 1 3.764.836 9.11 9.11 0 0 1 2.266 1.48 1.228 1.228 0 0 0 1.617 0 9.113 9.113 0 0 1 2.266-1.48A9.2 9.2 0 0 1 24.035 2c1.1-.01 2.192.196 3.21.607a8.285 8.285 0 0 1 2.724 1.786 8.163 8.163 0 0 1 1.81 2.688 8.078 8.078 0 0 1 .614 3.17c0 5.67-5.167 10.29-12.993 17.31l-1.535 1.369Z" fill="#E5E5E5" stroke="#E5E5E5" stroke-width="3"/></svg>
