<svg width="34" height="32" fill="none" xmlns="http://www.w3.org/2000/svg"><path d="m16.716 29.025-2.204-1.98C6.686 20.04 1.52 15.42 1.52 9.75a8.078 8.078 0 0 1 .614-3.17 8.163 8.163 0 0 1 1.81-2.687 8.285 8.285 0 0 1 2.722-1.787A8.372 8.372 0 0 1 9.878 1.5a9.2 9.2 0 0 1 3.763.836 9.09 9.09 0 0 1 3.075 2.299 9.089 9.089 0 0 1 3.075-2.3 9.2 9.2 0 0 1 3.763-.835c1.1-.01 2.192.195 3.211.606a8.285 8.285 0 0 1 2.723 1.787 8.163 8.163 0 0 1 1.81 2.687 8.076 8.076 0 0 1 .614 3.17c0 5.67-5.167 10.29-12.993 17.31l-2.203 1.965Z" stroke="#EE715F" stroke-width="3"/></svg>