<svg width="24" height="24" fill="none" xmlns="http://www.w3.org/2000/svg"><g clip-path="url(#a)"><path d="M13.5 18H4V6h16v4c1 0 2 1.2 2 2V6a2 2 0 0 0-2-2h-2V2s0-1-.5-1.5-1-.5-1.5-.5S4 4 4 4a2 2 0 0 0-2 2v12a2 2 0 0 0 2 2h10.6c-.4-.6-.8-1.3-1.1-2Zm5-6c-1.9 0-3.5 1.6-3.5 3.5 0 2.6 3.5 6.5 3.5 6.5s3.5-3.9 3.5-6.5c0-1.9-1.6-3.5-3.5-3.5Zm0 4.8c-.7 0-1.2-.6-1.2-1.2 0-.7.6-1.2 1.2-1.2s1.2.6 1.2 1.2c.1.6-.5 1.2-1.2 1.2Z" fill="#000"/><path d="m10 4 6-2v2h-6Z" fill="#fff"/></g><defs><clipPath id="a"><path fill="#fff" d="M0 0h24v24H0z"/></clipPath></defs></svg>