<svg width="68" height="76" viewBox="0 0 68 76" fill="none" xmlns="http://www.w3.org/2000/svg">
<path d="M60.25 8.25H56.5V0.75H49V8.25H19V0.75H11.5V8.25H7.75C5.76088 8.25 3.85322 9.04018 2.4467 10.4467C1.04018 11.8532 0.25 13.7609 0.25 15.75V68.25C0.25 70.2391 1.04018 72.1468 2.4467 73.5533C3.85322 74.9598 5.76088 75.75 7.75 75.75H60.25C64.4125 75.75 67.75 72.4125 67.75 68.25V15.75C67.75 11.5875 64.4125 8.25 60.25 8.25ZM60.25 68.25H7.75V30.75H60.25V68.25ZM60.25 23.25H7.75V15.75H60.25M15.25 38.25H34V57H15.25" fill="#EE715F"/>
</svg>
