<svg width="69" height="69" viewBox="0 0 69 69" fill="none" xmlns="http://www.w3.org/2000/svg">
<path d="M13.0851 50.371V62.7097L25.3017 59.6613L34.5 68.9516L43.6983 59.6613L55.9149 62.7097V50.371L68.2752 47.1774L62.095 34.8387L68.2752 22.5L55.9149 19.3065V6.96777L43.6983 10.0162L34.5 0.72583L25.3017 10.0162L13.0851 6.96777V19.3065L0.724854 22.5L6.90499 34.8387L0.724854 47.1774L13.0851 50.371ZM12.3665 32.0807L9.63575 26.4194L14.5224 25.2581C15.9596 24.9678 17.0854 24.2662 17.8999 23.1532C18.7143 22.0403 19.1215 20.7581 19.1215 19.3065V14.9516L23.7207 16.2581H25.3017C26.9305 16.2581 28.3678 15.6291 29.6134 14.371L34.5 9.43551L39.3866 14.371C40.6322 15.6291 42.0695 16.2581 43.6983 16.2581C44.2732 16.2581 44.8002 16.1613 45.2793 15.9678L49.8785 14.9516V19.3065C49.8785 20.7581 50.2857 22.0403 51.1001 23.1532C51.9146 24.2662 53.0404 24.9678 54.4776 25.2581L59.3643 26.4194L56.6335 32.0807C55.6754 33.9194 55.6754 35.7581 56.6335 37.5968L59.3643 43.2581L54.4776 44.4194C53.0404 44.7097 51.9146 45.4113 51.1001 46.5242C50.2857 47.6371 49.8785 48.9194 49.8785 50.371V54.7258L45.2793 53.4194H43.6983C42.0695 53.4194 40.6322 54.0484 39.3866 55.3065L34.5 60.242L29.6134 55.3065C28.3678 54.0484 26.9305 53.4194 25.3017 53.4194C24.7268 53.4194 24.1998 53.5162 23.7207 53.7097L19.1215 54.7258V50.371C19.1215 48.9194 18.7143 47.6371 17.8999 46.5242C17.0854 45.4113 15.9596 44.7097 14.5224 44.4194L9.63575 43.2581L12.3665 37.5968C13.3247 35.7581 13.3247 33.9194 12.3665 32.0807ZM31.4818 45.4355L45.8542 30.7742C47.1956 29.4194 47.1956 27.9678 45.8542 26.4194C44.417 25.1613 42.9797 25.1613 41.5425 26.4194L31.4818 36.7258L27.4575 32.6613C26.0203 31.4032 24.583 31.4032 23.1458 32.6613C21.9002 34.1129 21.9002 35.5645 23.1458 37.0162L31.4818 45.4355Z" fill="#EE715F"/>
</svg>
