<svg width="74" height="74" viewBox="0 0 74 74" fill="none" xmlns="http://www.w3.org/2000/svg">
<path d="M48.5625 0.0722656L74 12.791V41.1553L69.375 38.8428V17.958L50.875 27.208V36.5303L46.25 38.8428V27.208L27.75 17.958V26.1602L23.125 23.8477V12.791L48.5625 0.0722656ZM48.5625 23.1973L54.958 19.9814L38.2285 10.4062L30.6045 14.2363L48.5625 23.1973ZM59.9443 17.5244L66.5205 14.2363L48.5625 5.23926L43.1787 7.94922L59.9443 17.5244ZM41.625 41.1553L37 43.4678V43.4316L23.125 50.3691V66.8096L37 59.8359V65.0391L20.8125 73.1328L0 62.6904V38.2646L20.8125 27.8584L41.625 38.2646V41.1553ZM18.5 66.8096V50.3691L4.625 43.4316V59.8359L18.5 66.8096ZM20.8125 46.3584L34.1455 39.71L20.8125 33.0254L7.47949 39.71L20.8125 46.3584ZM41.625 46.3223L57.8125 38.2285L74 46.3223V65.3643L57.8125 73.458L41.625 65.3643V46.3223ZM55.5 67.1348V56.1143L46.25 51.4893V62.5098L55.5 67.1348ZM69.375 62.5098V51.4893L60.125 56.1143V67.1348L69.375 62.5098ZM57.8125 52.1035L66.5205 47.7314L57.8125 43.3955L49.1045 47.7314L57.8125 52.1035Z" fill="#EE715F"/>
</svg>
