<svg width="57" height="57" viewBox="0 0 57 57" fill="none" xmlns="http://www.w3.org/2000/svg">
<path d="M50.85 55.2833L33.1167 37.55C31.5333 38.8167 29.7125 39.8194 27.6542 40.5583C25.5958 41.2972 23.4056 41.6667 21.0833 41.6667C15.3306 41.6667 10.4623 39.6748 6.47867 35.6912C2.49289 31.7054 0.5 26.8361 0.5 21.0833C0.5 15.3306 2.49289 10.4613 6.47867 6.4755C10.4623 2.49183 15.3306 0.5 21.0833 0.5C26.8361 0.5 31.7054 2.49183 35.6912 6.4755C39.6748 10.4613 41.6667 15.3306 41.6667 21.0833C41.6667 23.4056 41.2972 25.5958 40.5583 27.6542C39.8194 29.7125 38.8167 31.5333 37.55 33.1167L55.3625 50.9292C55.9431 51.5097 56.2333 52.2222 56.2333 53.0667C56.2333 53.9111 55.9167 54.65 55.2833 55.2833C54.7028 55.8639 53.9639 56.1542 53.0667 56.1542C52.1694 56.1542 51.4306 55.8639 50.85 55.2833ZM21.0833 35.3333C25.0417 35.3333 28.4068 33.9484 31.1787 31.1787C33.9484 28.4068 35.3333 25.0417 35.3333 21.0833C35.3333 17.125 33.9484 13.7599 31.1787 10.988C28.4068 8.21822 25.0417 6.83333 21.0833 6.83333C17.125 6.83333 13.7599 8.21822 10.988 10.988C8.21822 13.7599 6.83333 17.125 6.83333 21.0833C6.83333 25.0417 8.21822 28.4068 10.988 31.1787C13.7599 33.9484 17.125 35.3333 21.0833 35.3333Z" fill="#8BBD3F"/>
</svg>
