<svg width="56" height="62" viewBox="0 0 56 62" fill="none" xmlns="http://www.w3.org/2000/svg">
<path d="M15.6667 3.25H40.3333C41.9688 3.25 43.5374 3.8997 44.6938 5.05617C45.8503 6.21265 46.5 7.78116 46.5 9.41667V15.0283C46.5002 17.4217 47.0576 19.7821 48.128 21.9227L51.0387 27.744C52.1091 29.8846 52.6665 32.245 52.6667 34.6383V52.5833C52.6667 54.2188 52.017 55.7873 50.8605 56.9438C49.704 58.1003 48.1355 58.75 46.5 58.75H9.50001C7.86451 58.75 6.29599 58.1003 5.13952 56.9438C3.98304 55.7873 3.33334 54.2188 3.33334 52.5833V34.6383C3.33351 32.245 3.89089 29.8846 4.96134 27.744L9.50001 18.6667V9.41667C9.50001 7.78116 10.1497 6.21265 11.3062 5.05617C12.4627 3.8997 14.0312 3.25 15.6667 3.25V3.25Z" stroke="#8BBD3F" stroke-width="5" stroke-linecap="round" stroke-linejoin="round"/>
<path d="M34.1667 46.4167C37.5724 46.4167 40.3333 43.6558 40.3333 40.25C40.3333 36.8443 37.5724 34.0834 34.1667 34.0834C30.7609 34.0834 28 36.8443 28 40.25C28 43.6558 30.7609 46.4167 34.1667 46.4167Z" stroke="#8BBD3F" stroke-width="5" stroke-linecap="round" stroke-linejoin="round"/>
<path d="M9.5 58.75C11.1355 58.75 12.704 58.1003 13.8605 56.9439C15.017 55.7874 15.6667 54.2189 15.6667 52.5834V34.6384C15.6665 32.2451 15.1091 29.8846 14.0387 27.744L9.5 18.6667M24.9167 15.5834H31.0833" stroke="#8BBD3F" stroke-width="5" stroke-linecap="round" stroke-linejoin="round"/>
</svg>
