<svg width="12" height="86" viewBox="0 0 12 86" fill="none" xmlns="http://www.w3.org/2000/svg">
<path d="M0.724948 79.3C0.924948 79.1 1.16661 79.004 1.44995 79.012C1.73328 79.0207 1.97495 79.125 2.17495 79.325L4.99995 82.15L4.99995 1C4.99995 0.716666 5.09595 0.479 5.28795 0.287C5.47928 0.0956671 5.71662 -2.56076e-07 5.99995 -2.43691e-07C6.28328 -2.31306e-07 6.52095 0.0956671 6.71295 0.287C6.90428 0.479 6.99995 0.716666 6.99995 1L6.99995 82.15L9.84995 79.3C10.0499 79.1 10.2876 79 10.5629 79C10.8376 79 11.0749 79.1 11.2749 79.3C11.4749 79.5 11.5749 79.7377 11.5749 80.013C11.5749 80.2877 11.4749 80.525 11.2749 80.725L6.69995 85.3C6.59995 85.4 6.49161 85.471 6.37495 85.513C6.25828 85.5543 6.13328 85.575 5.99995 85.575C5.86661 85.575 5.74161 85.5543 5.62495 85.513C5.50828 85.471 5.39995 85.4 5.29995 85.3L0.699949 80.7C0.516615 80.5167 0.424947 80.2877 0.424947 80.013C0.424947 79.7377 0.524948 79.5 0.724948 79.3Z" fill="#172500"/>
</svg>
