<svg width="86" height="12" viewBox="0 0 86 12" fill="none" xmlns="http://www.w3.org/2000/svg">
<path d="M79.3 11.275C79.1 11.075 79.004 10.8334 79.012 10.55C79.0207 10.2667 79.125 10.025 79.325 9.82505L82.15 7.00005H1C0.716667 7.00005 0.479001 6.90405 0.287001 6.71205C0.0956673 6.52072 0 6.28338 0 6.00005C0 5.71672 0.0956673 5.47905 0.287001 5.28705C0.479001 5.09572 0.716667 5.00005 1 5.00005H82.15L79.3 2.15005C79.1 1.95005 79 1.71238 79 1.43705C79 1.16238 79.1 0.925049 79.3 0.725049C79.5 0.525049 79.7377 0.425049 80.013 0.425049C80.2877 0.425049 80.525 0.525049 80.725 0.725049L85.3 5.30005C85.4 5.40005 85.471 5.50838 85.513 5.62505C85.5543 5.74172 85.575 5.86672 85.575 6.00005C85.575 6.13338 85.5543 6.25838 85.513 6.37505C85.471 6.49172 85.4 6.60005 85.3 6.70005L80.7 11.3C80.5167 11.4834 80.2877 11.575 80.013 11.575C79.7377 11.575 79.5 11.475 79.3 11.275Z" fill="#172500"/>
</svg>
