<svg width="56" height="70" viewBox="0 0 56 70" fill="none" xmlns="http://www.w3.org/2000/svg">
<path d="M31.4167 14.5V24.75H41.6667V31.5834H31.4167V41.8334H24.5833V31.5834H14.3333V24.75H24.5833V14.5H31.4167ZM48.5 28.85C48.5 16.4475 39.4458 7.66671 28 7.66671C16.5542 7.66671 7.50001 16.4475 7.50001 28.85C7.50001 36.845 14.1625 47.4367 28 60.0784C41.8375 47.4367 48.5 36.845 48.5 28.85ZM28 0.833374C42.35 0.833374 55.3333 11.835 55.3333 28.85C55.3333 40.1934 46.2108 53.6209 28 69.1667C9.78917 53.6209 0.666672 40.1934 0.666672 28.85C0.666672 11.835 13.65 0.833374 28 0.833374Z" fill="#EE715F"/>
</svg>
