<svg width="20" height="25" viewBox="0 0 20 25" fill="none" xmlns="http://www.w3.org/2000/svg">
<path d="M13.987 18.5747C14.7118 18.5715 15.4116 18.3098 15.9606 17.8366C16.5096 17.3635 16.8718 16.71 16.982 15.9937C16.9958 15.351 16.8546 14.7144 16.5701 14.1378C16.2857 13.5613 15.8665 13.0618 15.348 12.6817L15.437 12.5737C15.5635 12.4327 15.6395 12.2536 15.653 12.0647C15.6673 11.5883 15.8051 11.1238 16.053 10.7167C16.1384 10.5987 16.193 10.4613 16.2119 10.3169C16.2307 10.1725 16.2133 10.0257 16.161 9.88971C16.1105 9.75482 16.0271 9.63473 15.9183 9.5404C15.8094 9.44607 15.6787 9.38051 15.538 9.34971C14.7062 9.03913 14.0241 8.4229 13.631 7.62671C13.5685 7.50829 13.4799 7.40557 13.372 7.32625C13.2641 7.24693 13.1397 7.19307 13.008 7.16871C12.8768 7.14614 12.7422 7.15388 12.6145 7.19131C12.4867 7.22875 12.3693 7.2949 12.271 7.38471C11.68 7.92471 10.008 7.73471 9.289 7.56271C9.09459 7.51508 8.88972 7.53579 8.70877 7.62136C8.52782 7.70693 8.38182 7.85214 8.29527 8.03262C8.20873 8.21311 8.18689 8.41787 8.23346 8.61254C8.28003 8.80721 8.39216 8.97993 8.55101 9.10171C9.41197 10.0259 10.2066 11.0096 10.929 12.0457C11.0291 12.1837 11.1685 12.2882 11.329 12.3457C12.391 12.7397 15.398 14.2337 15.252 15.8457C15.1817 16.1279 15.0202 16.3789 14.7925 16.5597C14.5648 16.7406 14.2837 16.8411 13.993 16.8457C13.027 16.8457 11.914 15.8797 11.1 15.1737C10.82 14.9317 10.566 14.7157 10.356 14.5567C9.89354 14.2511 9.3907 14.0114 8.86201 13.8447C7.49175 13.4161 6.24605 12.6611 5.23201 11.6447C4.43931 10.5807 3.85874 9.3741 3.522 8.09071C2.931 6.37371 2.322 4.60071 0.979004 3.67871L0 5.11571C0.871 5.70671 1.361 7.13771 1.882 8.65071C2.28342 10.1712 2.99311 11.593 3.96701 12.8277C5.16166 14.0398 6.63181 14.9449 8.25201 15.4657C8.62296 15.5839 8.97924 15.744 9.31401 15.9427C9.51401 16.0887 9.72701 16.2797 9.96901 16.4897C10.973 17.3567 12.372 18.5747 13.987 18.5747ZM13.949 11.6317C13.943 11.6447 13.93 11.6507 13.924 11.6637C13.3634 11.3329 12.7791 11.0438 12.176 10.7987C11.934 10.4677 11.559 9.97171 11.165 9.46971C11.6447 9.45209 12.1187 9.35998 12.57 9.19671C12.9985 9.79277 13.5465 10.2931 14.179 10.6657C14.0691 10.9779 13.9917 11.3006 13.948 11.6287L13.949 11.6317Z" fill="#7FC34D"/>
<path d="M17.0403 16.1238C18.2249 14.0443 19.111 11.8084 19.6723 9.48183C19.6723 8.05783 16.7863 4.11583 16.2013 3.61983C15.8073 3.28284 14.7133 2.88883 11.9293 1.91983C10.5405 1.47947 9.1759 0.966091 7.84126 0.381836L6.90625 1.85083C8.34461 2.53352 9.83211 3.10746 11.3563 3.56783C12.6296 3.97084 13.8813 4.43946 15.1063 4.97183C16.2597 6.32094 17.2107 7.83077 17.9293 9.45383C17.3599 11.4575 16.5645 13.39 15.5583 15.2138L17.0403 16.1238Z" fill="#7FC34D"/>
<path d="M12.683 24.617C13.7861 24.6169 14.865 24.2944 15.7872 23.6893C16.7094 23.0841 17.4347 22.2226 17.8738 21.2108C18.3129 20.1989 18.4467 19.0808 18.2588 17.9939C18.0709 16.907 17.5694 15.8987 16.816 15.093C16.7372 15.0095 16.6428 14.9423 16.538 14.8953C16.4333 14.8483 16.3203 14.8224 16.2055 14.819C16.0907 14.8157 15.9764 14.835 15.8691 14.8758C15.7618 14.9166 15.6636 14.9782 15.58 15.057C15.4965 15.1358 15.4293 15.2302 15.3823 15.335C15.3353 15.4398 15.3094 15.5527 15.3061 15.6675C15.3027 15.7823 15.322 15.8966 15.3628 16.0039C15.4037 16.1112 15.4652 16.2095 15.544 16.293C16.0821 16.8683 16.4342 17.5925 16.5543 18.3711C16.6743 19.1496 16.5568 19.9463 16.217 20.657C15.8773 21.3677 15.3311 21.9594 14.6497 22.3548C13.9684 22.7502 13.1837 22.931 12.3981 22.8735C11.6124 22.816 10.8624 22.5229 10.246 22.0324C9.62952 21.542 9.17531 20.877 8.94267 20.1244C8.71003 19.3718 8.70978 18.5665 8.94194 17.8138C9.1741 17.061 9.62789 16.3958 10.244 15.905C10.3334 15.834 10.4079 15.7461 10.4633 15.6463C10.5187 15.5466 10.5539 15.4369 10.5669 15.3235C10.5799 15.2101 10.5705 15.0953 10.5391 14.9855C10.5077 14.8758 10.455 14.7734 10.384 14.684C10.3131 14.5946 10.2252 14.5201 10.1254 14.4647C10.0256 14.4093 9.91591 14.3741 9.80253 14.3611C9.68915 14.3481 9.57432 14.3576 9.46459 14.389C9.35487 14.4203 9.2524 14.473 9.16303 14.544C8.24449 15.2739 7.57585 16.2716 7.24988 17.3986C6.9239 18.5257 6.95674 19.7263 7.34384 20.8338C7.73094 21.9414 8.45311 22.901 9.41018 23.5796C10.3673 24.2582 11.5118 24.6222 12.685 24.621L12.683 24.617Z" fill="#7FC34D"/>
</svg>
