<svg width="75" height="75" fill="none" xmlns="http://www.w3.org/2000/svg"><circle cx="37.5" cy="37.5" r="37.5" fill="#F8F7F8"/><path d="m15 46 22.422-13L60 46 37.578 59 15 46Z" stroke="#C4C4C4" stroke-width="2" stroke-miterlimit="10" stroke-linejoin="round"/><path d="M38 59 15 46.246V30l23 12.754V59ZM38 59l22-12.754V30L38 42.754V59Z" fill="#fff" stroke="#C4C4C4" stroke-width="2" stroke-miterlimit="10" stroke-linejoin="round"/><path d="m15 30 22.422-13L60 30 37.578 43 15 30ZM37 17v16" stroke="#C4C4C4" stroke-width="2" stroke-miterlimit="10" stroke-linejoin="round"/><path d="M15.375 30 9 41.016 33.024 53 38 42.505 15.375 30ZM59.87 30 66 39.974 43.07 53 38 42.505 59.87 30Z" fill="#fff" stroke="#C4C4C4" stroke-width="2" stroke-miterlimit="10" stroke-linejoin="round"/></svg>