<svg width="75" height="75" fill="none" xmlns="http://www.w3.org/2000/svg"><circle cx="37.5" cy="37.5" r="37.5" fill="#EE715F"/><g clip-path="url(#a)" stroke="#EE715F" stroke-width="2" stroke-miterlimit="10" stroke-linejoin="round"><path d="M50.043 57.277H22.954c-.652 0-1.231-.577-1.231-1.226V24.875l8.33-8.154h19.99c.652 0 1.231.577 1.231 1.227V56.05c0 .65-.507 1.226-1.231 1.226Z" fill="#fff"/><path d="M30.052 16.72v6.495a1.79 1.79 0 0 1-1.81 1.805h-6.52l8.33-8.3Z" fill="#fff"/><path d="M25.852 28.701h20.497M25.852 33.61h20.497M25.852 38.516h20.497" stroke-linecap="round"/><path d="M38.816 43.422v8.588l7.46-4.33-7.46-4.258Z" fill="#fff" stroke-linecap="round"/></g><defs><clipPath id="a"><path fill="#fff" transform="translate(21 16)" d="M0 0h31v42H0z"/></clipPath></defs></svg>