<svg width="75" height="75" fill="none" xmlns="http://www.w3.org/2000/svg"><circle cx="37.5" cy="37.5" r="37.5" fill="#F8F7F8"/><g clip-path="url(#a)"><path d="M51.873 29.213h-6.087v-6.088a3.464 3.464 0 0 0-3.45-3.45h-9.673a3.464 3.464 0 0 0-3.45 3.45v6.088h-6.088a3.464 3.464 0 0 0-3.45 3.45v9.673a3.464 3.464 0 0 0 3.45 3.45h6.088v6.087a3.464 3.464 0 0 0 3.45 3.45h9.673a3.464 3.464 0 0 0 3.45-3.45v-6.087h6.087a3.464 3.464 0 0 0 3.45-3.45v-9.673a3.464 3.464 0 0 0-3.45-3.45Z" fill="#fff" stroke="#C4C4C4" stroke-width="2" stroke-miterlimit="10" stroke-linejoin="round"/></g><defs><clipPath id="a"><path fill="#fff" transform="translate(19 19)" d="M0 0h37v37H0z"/></clipPath></defs></svg>