<svg width="84" height="84" viewBox="0 0 84 84" fill="none" xmlns="http://www.w3.org/2000/svg">
<path d="M84 42.0007C84.0006 39.4767 83.775 36.9577 83.3259 34.4739L74.286 41.1386C74.286 41.426 74.286 41.7134 74.286 42.0007C74.2944 49.2266 71.8828 56.2471 67.4361 61.9423C62.9894 67.6375 56.7637 71.6792 49.7523 73.4226C42.7408 75.1661 35.3475 74.5109 28.7518 71.5615C22.1561 68.6121 16.7381 63.5385 13.362 57.15C9.98594 50.7615 8.84634 43.4263 10.125 36.3145C11.4037 29.2027 15.027 22.724 20.4169 17.9121C25.8068 13.1001 32.6528 10.2321 39.8626 9.76562C47.0725 9.29909 54.2308 11.2609 60.1958 15.3381L68.3663 9.31445C60.9545 3.33284 51.73 0.0485587 42.2062 0.000534236C32.6825 -0.0474902 23.4253 3.1436 15.9536 9.05015C8.48193 14.9567 3.23963 23.2279 1.0869 32.5065C-1.06584 41.7851 -0.00112032 51.5199 4.10632 60.1137C8.21377 68.7074 15.12 75.6496 23.6917 79.801C32.2634 83.9524 41.9915 85.0665 51.2796 82.9605C60.5678 80.8544 68.8643 75.6534 74.8078 68.2107C80.7513 60.768 83.9888 51.5258 83.9889 42.0007H84Z" fill="white"/>
<path d="M74.9883 16C76.9763 18.6099 78.6582 21.4468 80 24.453L41.9115 53L26 42.8542V30.6501L41.9115 40.7959L74.9883 16Z" fill="white"/>
</svg>
