<svg width="16" height="16" viewBox="0 0 16 16" fill="none" xmlns="http://www.w3.org/2000/svg">
<path d="M8.00014 0.499288C9.51254 0.499315 10.9896 0.956583 12.2375 1.81108C13.4853 2.66558 14.4457 3.87738 14.9926 5.28745C15.5394 6.69752 15.6472 8.23998 15.3017 9.7124C14.9563 11.1848 14.1737 12.5184 13.0568 13.5381C11.9399 14.5578 10.5408 15.2161 9.04308 15.4264C7.54538 15.6367 6.01907 15.3894 4.66448 14.7167C3.30988 14.0441 2.19028 12.9777 1.45262 11.6574C0.714948 10.3371 0.393679 8.82461 0.530972 7.31845C0.540821 7.20946 0.572042 7.10347 0.622853 7.00654C0.673664 6.90961 0.743069 6.82363 0.827106 6.75352C0.911143 6.68341 1.00817 6.63055 1.11264 6.59793C1.2171 6.56532 1.32697 6.55361 1.43597 6.56346C1.54497 6.5733 1.65096 6.60453 1.74789 6.65534C1.84482 6.70615 1.9308 6.77555 2.0009 6.85959C2.07101 6.94363 2.12388 7.04065 2.15649 7.14512C2.18911 7.24959 2.20082 7.35946 2.19097 7.46845C2.11084 8.32069 2.22029 9.1801 2.51147 9.98505C2.80264 10.79 3.26833 11.5205 3.87514 12.1243C4.18764 12.4368 4.53514 12.7135 4.91014 12.9476C5.8389 13.5274 6.91209 13.8341 8.00697 13.8327C9.10185 13.8312 10.1742 13.5217 11.1014 12.9394C12.0287 12.3572 12.7733 11.5257 13.2502 10.5401C13.7271 9.55455 13.9169 8.45466 13.7981 7.36624C13.6793 6.27783 13.2565 5.24483 12.5782 4.38538C11.8999 3.52594 10.9934 2.87474 9.96235 2.50628C8.93133 2.13782 7.81742 2.06696 6.74802 2.3018C5.67862 2.53665 4.6969 3.06772 3.91514 3.83429L5.0818 3.83512C5.29542 3.83366 5.50144 3.91429 5.65731 4.06036C5.81319 4.20643 5.90702 4.40678 5.91943 4.62004C5.93183 4.8333 5.86187 5.04318 5.72398 5.20633C5.58609 5.36949 5.39081 5.47347 5.17847 5.49679L5.0818 5.50179H1.7468C1.54269 5.50176 1.34569 5.42683 1.19316 5.29119C1.04063 5.15556 0.943186 4.96866 0.919305 4.76595L0.913472 4.66846V1.33512C0.912012 1.12151 0.992642 0.915489 1.13871 0.759613C1.28478 0.603737 1.48513 0.509908 1.69839 0.497501C1.91165 0.485095 2.12153 0.55506 2.28469 0.692947C2.44784 0.830834 2.55182 1.02611 2.57514 1.23846L2.58014 1.33596V2.81429C3.27991 2.08175 4.12109 1.49887 5.05272 1.10094C5.98436 0.703021 6.98708 0.498337 8.00014 0.499288ZM7.37514 3.83262C7.52617 3.83263 7.67209 3.88732 7.78591 3.98659C7.89974 4.08586 7.97376 4.22299 7.9943 4.37262L8.00014 4.45762V7.99929H9.87514C10.0335 7.99934 10.1859 8.05949 10.3016 8.1676C10.4173 8.27571 10.4877 8.4237 10.4985 8.58169C10.5093 8.73967 10.4597 8.89587 10.3598 9.0187C10.2598 9.14154 10.117 9.22187 9.96014 9.24345L9.87514 9.24929H7.37514C7.22411 9.24928 7.07819 9.19459 6.96436 9.09532C6.85054 8.99605 6.77651 8.85892 6.75597 8.70929L6.75014 8.62429V4.45762C6.75014 4.29186 6.81599 4.13289 6.9332 4.01568C7.05041 3.89847 7.20938 3.83262 7.37514 3.83262Z" fill="#8BBD3F"/>
</svg>
