<svg width="18" height="18" fill="none" xmlns="http://www.w3.org/2000/svg"><path d="M8.245.869a1 1 0 0 1 1.51 0l1.19 1.37a1 1 0 0 0 .911.331l1.792-.284a1 1 0 0 1 1.157.97l.031 1.814a1 1 0 0 0 .485.84l1.556.935a1 1 0 0 1 .262 1.486l-1.142 1.41a1 1 0 0 0-.169.956l.591 1.715a1 1 0 0 1-.755 1.307l-1.78.346a1 1 0 0 0-.744.624l-.65 1.694a1 1 0 0 1-1.418.516l-1.587-.88a1 1 0 0 0-.97 0l-1.587.88a1 1 0 0 1-1.418-.516l-.65-1.694a1 1 0 0 0-.743-.624l-1.781-.346a1 1 0 0 1-.755-1.307l.59-1.716a1 1 0 0 0-.168-.955L.861 8.331a1 1 0 0 1 .262-1.486L2.68 5.91a1 1 0 0 0 .485-.84l.031-1.815a1 1 0 0 1 1.157-.97l1.792.284a1 1 0 0 0 .911-.332l1.19-1.37Z" fill="#8BBD3F"/><path d="m9.468 4.047-.09 7.143h-1.14l-.096-7.143h1.326ZM8.1 13.364c0-.205.061-.378.184-.52.128-.14.315-.211.56-.211.242 0 .427.07.554.212a.732.732 0 0 1 .199.52.715.715 0 0 1-.199.505c-.127.141-.312.212-.553.212-.246 0-.433-.07-.56-.212a.745.745 0 0 1-.185-.506Z" fill="#fff"/></svg>