<svg width="67" height="77" fill="none" xmlns="http://www.w3.org/2000/svg"><path d="M45.085 66.334 9.82 58.403l4.532-40.151 46.1 10.48-15.367 37.602Z" fill="#96B72E"/><path d="m13.367 26.962 43.762 9.914 3.329-8.144-46.1-10.48-.99 8.71Z" fill="#768925"/><path d="m66.006 24.004-54.56-12.358-2.41 10.636 54.56 12.358 2.41-10.636Z" fill="#B7DB21"/><path d="m41.037 18.357-4.627-1.048-10.136 44.753L30.9 63.11l10.136-44.753Z" fill="#BD3F2D"/><path d="M31.85.055c5.453-1.204 6.87 17.774 6.87 17.774l-2.337-.496S22.787 9.615 23.353 6.995c.708-2.691 2.974-5.665 8.498-6.94Zm4.887 16.004s-6.303-9.773-8.073-10.056c-1.77-.283-2.195.283-2.408.708-1.062 1.7 10.48 9.348 10.48 9.348Z" fill="#BD3F2D"/><path d="M52.598 4.8c-4.39-3.54-13.88 13.03-13.88 13.03l2.338.496s15.578-1.133 16.216-3.753c.566-2.62-.213-6.302-4.674-9.772Zm-11.26 12.251s9.915-6.09 11.614-5.594c1.7.496 1.841 1.204 1.912 1.7.142 1.982-13.525 3.894-13.525 3.894Z" fill="#BD3F2D"/><path d="m33.966 27.883 4.674 1.133-.85 3.47-4.602-.992.778-3.611Z" fill="#DB6356"/><ellipse cx="31" cy="73" rx="31" ry="4" fill="url(#a)"/><defs><radialGradient id="a" cx="0" cy="0" r="1" gradientUnits="userSpaceOnUse" gradientTransform="matrix(0 4 -31 0 31 73)"><stop stop-color="#C4C4C4"/><stop offset="1" stop-color="#C4C4C4" stop-opacity="0"/></radialGradient></defs></svg>