<svg width="30" height="30" viewBox="0 0 30 30" fill="none" xmlns="http://www.w3.org/2000/svg">
<path d="M15.6552 24.4354C15.279 24.7596 14.7219 24.7586 14.3469 24.433L13.26 23.4894C7.08021 18.1451 3.00032 14.6203 3.00032 10.2945C2.99176 9.46566 3.15663 8.64352 3.48528 7.87619C3.81392 7.10886 4.29974 6.41175 4.9143 5.82565C5.52886 5.23955 6.25982 4.77623 7.06442 4.4628C7.86901 4.14938 8.73106 3.99215 9.60014 4.0003C10.6272 4.00782 11.6405 4.2252 12.572 4.63778C13.1584 4.89749 13.7037 5.23076 14.194 5.62751C14.6559 6.00125 15.3441 6.00125 15.806 5.62751C16.2963 5.23076 16.8416 4.89749 17.428 4.63778C18.3595 4.2252 19.3728 4.00782 20.3999 4.0003C21.2689 3.99215 22.131 4.14938 22.9356 4.4628C23.7402 4.77623 24.4711 5.23955 25.0857 5.82565C25.7003 6.41175 26.1861 7.10886 26.5147 7.87619C26.8434 8.64352 27.0082 9.46566 26.9997 10.2945C26.9997 14.6203 22.9198 18.1451 16.74 23.5008L15.6552 24.4354Z" stroke="#8BBD3F" stroke-width="2"/>
</svg>
